<svg xmlns="http://www.w3.org/2000/svg" xmlns:xlink="http://www.w3.org/1999/xlink" viewBox="0 0 275.01 300"><defs><style>.cls-1{isolation:isolate;}.cls-2{filter:url(#filter);}.cls-3{fill:url(#linear-gradient);}.cls-4{fill:url(#linear-gradient-2);}.cls-5{fill:url(#linear-gradient-3);filter:url(#filter-2);}.cls-16,.cls-6{fill:#323f54;}.cls-7{filter:url(#filter-3);}.cls-8{fill:url(#linear-gradient-4);}.cls-9{fill:url(#linear-gradient-5);}.cls-10{filter:url(#filter-4);}.cls-11{fill:url(#linear-gradient-6);}.cls-12{fill:url(#linear-gradient-7);}.cls-13{filter:url(#filter-5);}.cls-14{fill:url(#linear-gradient-8);}.cls-15{fill:url(#linear-gradient-9);}.cls-16{filter:url(#filter-6);}.cls-17{fill:none;stroke-miterlimit:10;stroke-width:3px;stroke:url(#linear-gradient-10);}.cls-18{fill:url(#linear-gradient-11);filter:url(#filter-7);}.cls-19{mix-blend-mode:screen;fill:url(#linear-gradient-12);}.cls-20{mix-blend-mode:multiply;opacity:0.3;fill:url(#White_Black);}.cls-21{fill:#1c212e;}.cls-22{fill:url(#linear-gradient-13);}.cls-23{fill:url(#linear-gradient-14);}.cls-24{fill:url(#linear-gradient-15);}.cls-25{fill:url(#linear-gradient-16);}.cls-26{fill:url(#linear-gradient-17);}.cls-27{fill:url(#linear-gradient-18);}.cls-28{fill:url(#linear-gradient-19);}</style><filter id="filter"><feOffset dy="8" input="SourceAlpha"/><feGaussianBlur stdDeviation="8" result="blur"/><feFlood/><feComposite operator="in" in2="blur"/><feComposite in="SourceGraphic"/></filter><linearGradient id="linear-gradient" x1="84.41" y1="255.06" x2="84.41" y2="120.06" gradientUnits="userSpaceOnUse"><stop offset="0" stop-color="#90ff84"/><stop offset="1" stop-color="#00e606"/></linearGradient><linearGradient id="linear-gradient-2" x1="190.61" y1="255.06" x2="190.61" y2="120.06" xlink:href="#linear-gradient"/><linearGradient id="linear-gradient-3" x1="137.51" y1="267.34" x2="137.51" y2="120.06" xlink:href="#linear-gradient"/><filter id="filter-2" x="72.98" y="104" width="129" height="196" filterUnits="userSpaceOnUse"><feOffset dy="8" input="SourceAlpha"/><feGaussianBlur stdDeviation="8" result="blur-2"/><feFlood/><feComposite operator="in" in2="blur-2"/><feComposite in="SourceGraphic"/></filter><filter id="filter-3"><feOffset dy="8" input="SourceAlpha"/><feGaussianBlur stdDeviation="8" result="blur-3"/><feFlood/><feComposite operator="in" in2="blur-3"/><feComposite in="SourceGraphic"/></filter><linearGradient id="linear-gradient-4" x1="70.51" y1="76.97" x2="70.51" y2="214.12" xlink:href="#linear-gradient"/><linearGradient id="linear-gradient-5" x1="204.5" y1="76.97" x2="204.5" y2="214.12" xlink:href="#linear-gradient"/><filter id="filter-4"><feOffset dy="8" input="SourceAlpha"/><feGaussianBlur stdDeviation="8" result="blur-4"/><feFlood/><feComposite operator="in" in2="blur-4"/><feComposite in="SourceGraphic"/></filter><linearGradient id="linear-gradient-6" x1="55.51" y1="28.28" x2="55.51" y2="165.43" xlink:href="#linear-gradient"/><linearGradient id="linear-gradient-7" x1="219.5" y1="28.28" x2="219.5" y2="165.43" xlink:href="#linear-gradient"/><filter id="filter-5"><feOffset dy="8" input="SourceAlpha"/><feGaussianBlur stdDeviation="8" result="blur-5"/><feFlood/><feComposite operator="in" in2="blur-5"/><feComposite in="SourceGraphic"/></filter><linearGradient id="linear-gradient-8" x1="70.51" y1="56.97" x2="70.51" y2="194.12" xlink:href="#linear-gradient"/><linearGradient id="linear-gradient-9" x1="204.5" y1="56.97" x2="204.5" y2="194.12" xlink:href="#linear-gradient"/><filter id="filter-6" x="17.98" y="0" width="240" height="257" filterUnits="userSpaceOnUse"><feOffset dy="8" input="SourceAlpha"/><feGaussianBlur stdDeviation="8" result="blur-6"/><feFlood/><feComposite operator="in" in2="blur-6"/><feComposite in="SourceGraphic"/></filter><linearGradient id="linear-gradient-10" x1="137.51" y1="14.51" x2="137.51" y2="225.62" gradientUnits="userSpaceOnUse"><stop offset="0" stop-color="#435570"/><stop offset="1" stop-color="#212736"/></linearGradient><linearGradient id="linear-gradient-11" x1="137.51" y1="31.01" x2="137.51" y2="209.12" gradientUnits="userSpaceOnUse"><stop offset="0" stop-color="#fff"/><stop offset="0.5" stop-color="#90ff84"/><stop offset="1" stop-color="#00e606"/></linearGradient><filter id="filter-7" x="32.98" y="15" width="210" height="227" filterUnits="userSpaceOnUse"><feOffset dy="8" input="SourceAlpha"/><feGaussianBlur stdDeviation="8" result="blur-7"/><feFlood/><feComposite operator="in" in2="blur-7"/><feComposite in="SourceGraphic"/></filter><linearGradient id="linear-gradient-12" x1="137.51" y1="43.01" x2="137.51" y2="197.12" xlink:href="#linear-gradient-11"/><linearGradient id="White_Black" x1="137.51" y1="162.18" x2="137.51" y2="77.95" gradientUnits="userSpaceOnUse"><stop offset="0" stop-color="#fff"/><stop offset="1"/></linearGradient><linearGradient id="linear-gradient-13" x1="123.02" y1="86.61" x2="123.02" y2="120.06" xlink:href="#linear-gradient-11"/><linearGradient id="linear-gradient-14" x1="151.99" y1="120.06" x2="151.99" y2="86.61" xlink:href="#linear-gradient-11"/><linearGradient id="linear-gradient-15" x1="151.99" y1="136.79" x2="151.99" y2="103.34" xlink:href="#linear-gradient-11"/><linearGradient id="linear-gradient-16" x1="151.99" y1="153.52" x2="151.99" y2="120.06" xlink:href="#linear-gradient-11"/><linearGradient id="linear-gradient-17" x1="123.02" y1="120.06" x2="123.02" y2="153.52" xlink:href="#linear-gradient-11"/><linearGradient id="linear-gradient-18" x1="123.02" y1="136.79" x2="123.02" y2="103.34" xlink:href="#linear-gradient-11"/><linearGradient id="linear-gradient-19" x1="137.51" y1="98.05" x2="137.51" y2="142.08" xlink:href="#linear-gradient-11"/></defs><g class="cls-1"><g id="Layer_2" data-name="Layer 2"><g id="Objects"><g class="cls-2"><polygon class="cls-3" points="77.43 232.66 91.38 240.71 91.38 120.06 77.43 120.06 77.43 232.66"/><polygon class="cls-4" points="183.64 120.06 183.64 240.71 197.58 232.66 197.58 120.06 183.64 120.06"/></g><polygon class="cls-5" points="97.38 120.06 97.38 244.17 137.51 267.34 177.64 244.17 177.64 120.06 97.38 120.06"/><polygon class="cls-6" points="103.38 240.71 103.38 126.06 171.64 126.06 171.64 240.71 137.51 260.41 103.38 240.71"/><g class="cls-7"><path class="cls-8" d="M25.6,156.13l100.43,58V141.07L15,77v60.81A21.18,21.18,0,0,0,25.6,156.13Z"/><path class="cls-9" d="M149,141.07v73.05l100.44-58A21.19,21.19,0,0,0,260,137.78V77Z"/></g><g class="cls-10"><path class="cls-11" d="M10.6,107.44l100.43,58V92.38L0,28.28V89.09A21.18,21.18,0,0,0,10.6,107.44Z"/><path class="cls-12" d="M164,92.38v73.05l100.44-58A21.19,21.19,0,0,0,275,89.09V28.28Z"/></g><g class="cls-13"><path class="cls-14" d="M25.6,136.13l100.43,58V121.07L15,57v60.81A21.18,21.18,0,0,0,25.6,136.13Z"/><path class="cls-15" d="M149,121.07v73.05l100.43-58A21.19,21.19,0,0,0,260,117.78V57Z"/></g><path class="cls-16" d="M233,152.09V88a40,40,0,0,0-20-34.65l-55.47-32a40,40,0,0,0-40,0L62,53.39A40,40,0,0,0,42,88v64.05a40,40,0,0,0,20,34.64l55.48,32a40,40,0,0,0,40,0l55.47-32A40,40,0,0,0,233,152.09Z"/><path class="cls-17" d="M233,152.09V88a40,40,0,0,0-20-34.65l-55.47-32a40,40,0,0,0-40,0L62,53.39A40,40,0,0,0,42,88v64.05a40,40,0,0,0,20,34.64l55.48,32a40,40,0,0,0,40,0l55.47-32A40,40,0,0,0,233,152.09Z"/><path class="cls-18" d="M137.51,209.12a25,25,0,0,1-12.5-3.35l-55.48-32A25.07,25.07,0,0,1,57,152.09V88a25.08,25.08,0,0,1,12.5-21.65l55.48-32a25,25,0,0,1,25,0l55.47,32A25.08,25.08,0,0,1,218,88v64.06a25.07,25.07,0,0,1-12.5,21.65l-55.47,32A25.07,25.07,0,0,1,137.51,209.12Z"/><path class="cls-19" d="M137.51,197.12a13,13,0,0,1-6.5-1.74l-55.48-32A13,13,0,0,1,69,152.09V88a13,13,0,0,1,6.5-11.25l55.48-32a13,13,0,0,1,13,0l55.48,32A13,13,0,0,1,206,88v64.06a13,13,0,0,1-6.5,11.26l-55.47,32A13,13,0,0,1,137.51,197.12Z"/><polygon class="cls-20" points="101.03 141.12 101.03 99 137.51 77.95 173.98 99 173.98 141.12 137.51 162.18 101.03 141.12"/><polygon class="cls-21" points="105.94 138.29 105.94 101.84 137.51 83.61 169.08 101.84 169.08 138.29 137.51 156.52 105.94 138.29"/><polygon class="cls-22" points="137.51 86.61 137.51 86.61 108.53 103.34 137.51 120.06 137.51 86.61"/><polygon class="cls-23" points="137.51 120.06 166.48 103.34 166.48 103.34 137.51 86.61 137.51 120.06 137.51 120.06"/><polygon class="cls-24" points="137.51 120.06 166.48 136.79 166.48 103.34 137.51 120.06"/><polygon class="cls-25" points="137.51 120.06 137.51 153.52 137.51 153.52 166.48 136.79 166.48 136.79 137.51 120.06 137.51 120.06"/><polygon class="cls-26" points="108.53 136.79 108.53 136.79 137.51 153.52 137.51 120.06 108.53 136.79"/><polygon class="cls-27" points="137.51 120.06 108.53 103.34 108.53 103.34 108.53 136.79 137.51 120.06 137.51 120.06"/><polygon class="cls-28" points="137.51 98.05 137.51 98.05 118.44 109.06 118.44 109.06 118.44 131.07 118.44 131.07 137.51 142.08 137.51 142.08 156.57 131.07 156.57 131.07 156.57 109.06 156.57 109.05 137.51 98.05"/></g></g></g></svg>