<svg xmlns="http://www.w3.org/2000/svg" xmlns:xlink="http://www.w3.org/1999/xlink" viewBox="0 0 245.01 301"><defs><style>.cls-1{isolation:isolate;}.cls-2{fill:url(#linear-gradient);filter:url(#filter);}.cls-10,.cls-3{fill:#323f54;}.cls-4{filter:url(#filter-2);}.cls-5{fill:url(#linear-gradient-2);}.cls-6{fill:url(#linear-gradient-3);}.cls-7{filter:url(#filter-3);}.cls-8{fill:url(#linear-gradient-4);}.cls-9{fill:url(#linear-gradient-5);}.cls-10{filter:url(#filter-4);}.cls-11{fill:none;stroke-miterlimit:10;stroke-width:3px;stroke:url(#linear-gradient-6);}.cls-12{fill:url(#linear-gradient-7);filter:url(#filter-5);}.cls-13{mix-blend-mode:screen;fill:url(#linear-gradient-8);}.cls-14{mix-blend-mode:multiply;opacity:0.3;fill:url(#White_Black);}.cls-15{fill:#1c212e;}.cls-16{fill:url(#linear-gradient-9);}.cls-17{fill:url(#linear-gradient-10);}.cls-18{fill:url(#linear-gradient-11);}.cls-19{fill:url(#linear-gradient-12);}.cls-20{fill:url(#linear-gradient-13);}.cls-21{fill:url(#linear-gradient-14);}.cls-22{fill:url(#linear-gradient-15);}</style><linearGradient id="linear-gradient" x1="122.51" y1="268.33" x2="122.51" y2="121.05" gradientUnits="userSpaceOnUse"><stop offset="0" stop-color="#68dae0"/><stop offset="1" stop-color="#2071ff"/></linearGradient><filter id="filter" x="57.61" y="105" width="130" height="196" filterUnits="userSpaceOnUse"><feOffset dy="8" input="SourceAlpha"/><feGaussianBlur stdDeviation="8" result="blur"/><feFlood/><feComposite operator="in" in2="blur"/><feComposite in="SourceGraphic"/></filter><filter id="filter-2"><feOffset dy="8" input="SourceAlpha"/><feGaussianBlur stdDeviation="8" result="blur-2"/><feFlood/><feComposite operator="in" in2="blur-2"/><feComposite in="SourceGraphic"/></filter><linearGradient id="linear-gradient-2" x1="55.51" y1="77.96" x2="55.51" y2="215.11" xlink:href="#linear-gradient"/><linearGradient id="linear-gradient-3" x1="189.5" y1="77.96" x2="189.5" y2="215.11" xlink:href="#linear-gradient"/><filter id="filter-3"><feOffset dy="8" input="SourceAlpha"/><feGaussianBlur stdDeviation="8" result="blur-3"/><feFlood/><feComposite operator="in" in2="blur-3"/><feComposite in="SourceGraphic"/></filter><linearGradient id="linear-gradient-4" x1="55.51" y1="57.96" x2="55.51" y2="195.11" xlink:href="#linear-gradient"/><linearGradient id="linear-gradient-5" x1="189.5" y1="57.96" x2="189.5" y2="195.11" xlink:href="#linear-gradient"/><filter id="filter-4" x="2.61" y="0" width="240" height="258" filterUnits="userSpaceOnUse"><feOffset dy="8" input="SourceAlpha"/><feGaussianBlur stdDeviation="8" result="blur-4"/><feFlood/><feComposite operator="in" in2="blur-4"/><feComposite in="SourceGraphic"/></filter><linearGradient id="linear-gradient-6" x1="122.51" y1="15.5" x2="122.51" y2="226.61" gradientUnits="userSpaceOnUse"><stop offset="0" stop-color="#435570"/><stop offset="1" stop-color="#212736"/></linearGradient><linearGradient id="linear-gradient-7" x1="122.51" y1="32" x2="122.51" y2="210.11" gradientUnits="userSpaceOnUse"><stop offset="0" stop-color="#fff"/><stop offset="0.5" stop-color="#68dae0"/><stop offset="1" stop-color="#2071ff"/></linearGradient><filter id="filter-5" x="17.61" y="15" width="210" height="228" filterUnits="userSpaceOnUse"><feOffset dy="8" input="SourceAlpha"/><feGaussianBlur stdDeviation="8" result="blur-5"/><feFlood/><feComposite operator="in" in2="blur-5"/><feComposite in="SourceGraphic"/></filter><linearGradient id="linear-gradient-8" x1="122.51" y1="44" x2="122.51" y2="198.11" gradientUnits="userSpaceOnUse"><stop offset="0" stop-color="#fff"/><stop offset="1" stop-color="#2071ff"/></linearGradient><linearGradient id="White_Black" x1="122.51" y1="163.17" x2="122.51" y2="78.94" gradientUnits="userSpaceOnUse"><stop offset="0" stop-color="#fff"/><stop offset="1"/></linearGradient><linearGradient id="linear-gradient-9" x1="108.02" y1="87.6" x2="108.02" y2="121.05" xlink:href="#linear-gradient-7"/><linearGradient id="linear-gradient-10" x1="136.99" y1="121.05" x2="136.99" y2="87.6" xlink:href="#linear-gradient-7"/><linearGradient id="linear-gradient-11" x1="136.99" y1="137.78" x2="136.99" y2="104.33" xlink:href="#linear-gradient-7"/><linearGradient id="linear-gradient-12" x1="136.99" y1="154.51" x2="136.99" y2="121.05" xlink:href="#linear-gradient-7"/><linearGradient id="linear-gradient-13" x1="108.02" y1="121.05" x2="108.02" y2="154.51" xlink:href="#linear-gradient-7"/><linearGradient id="linear-gradient-14" x1="108.02" y1="137.78" x2="108.02" y2="104.33" xlink:href="#linear-gradient-7"/><linearGradient id="linear-gradient-15" x1="122.51" y1="99.04" x2="122.51" y2="143.07" xlink:href="#linear-gradient-7"/></defs><g class="cls-1"><g id="Layer_2" data-name="Layer 2"><g id="Objects"><polygon class="cls-2" points="82.38 121.05 82.38 245.16 122.51 268.33 162.63 245.16 162.63 121.05 82.38 121.05"/><polygon class="cls-3" points="88.38 241.7 88.38 127.05 156.63 127.05 156.63 241.7 122.51 261.4 88.38 241.7"/><g class="cls-4"><path class="cls-5" d="M10.6,157.12l100.43,58V142.06L0,78v60.81A21.18,21.18,0,0,0,10.6,157.12Z"/><path class="cls-6" d="M134,142.06v73.05l100.44-58A21.19,21.19,0,0,0,245,138.77V78Z"/></g><g class="cls-7"><path class="cls-8" d="M10.6,137.12l100.43,58V122.06L0,58v60.81A21.18,21.18,0,0,0,10.6,137.12Z"/><path class="cls-9" d="M134,122.06v73.05l100.44-58A21.19,21.19,0,0,0,245,118.77V58Z"/></g><path class="cls-10" d="M218,153.08V89a40,40,0,0,0-20-34.64l-55.47-32a40,40,0,0,0-40,0L47,54.38A40,40,0,0,0,27,89v64.06a40,40,0,0,0,20,34.64l55.48,32a40,40,0,0,0,40,0l55.47-32A40,40,0,0,0,218,153.08Z"/><path class="cls-11" d="M218,153.08V89a40,40,0,0,0-20-34.64l-55.47-32a40,40,0,0,0-40,0L47,54.38A40,40,0,0,0,27,89v64.06a40,40,0,0,0,20,34.64l55.48,32a40,40,0,0,0,40,0l55.47-32A40,40,0,0,0,218,153.08Z"/><path class="cls-12" d="M122.51,210.11a25,25,0,0,1-12.5-3.35l-55.48-32A25.07,25.07,0,0,1,42,153.08V89a25.08,25.08,0,0,1,12.5-21.65l55.48-32a25,25,0,0,1,25,0l55.47,32A25.08,25.08,0,0,1,203,89v64.06a25.07,25.07,0,0,1-12.5,21.65l-55.47,32A25.07,25.07,0,0,1,122.51,210.11Z"/><path class="cls-13" d="M122.51,198.11a13,13,0,0,1-6.5-1.74l-55.48-32A13,13,0,0,1,54,153.08V89a13,13,0,0,1,6.5-11.25l55.48-32a13,13,0,0,1,13,0l55.48,32A13,13,0,0,1,191,89v64.06a13,13,0,0,1-6.5,11.26l-55.47,32A13.05,13.05,0,0,1,122.51,198.11Z"/><polygon class="cls-14" points="86.03 142.11 86.03 99.99 122.51 78.94 158.98 99.99 158.98 142.11 122.51 163.17 86.03 142.11"/><polygon class="cls-15" points="90.94 139.28 90.94 102.83 122.51 84.6 154.08 102.83 154.08 139.28 122.51 157.51 90.94 139.28"/><polygon class="cls-16" points="122.51 87.6 122.51 87.6 93.53 104.33 122.51 121.05 122.51 87.6"/><polygon class="cls-17" points="122.51 121.05 151.48 104.33 151.48 104.33 122.51 87.6 122.51 121.05 122.51 121.05"/><polygon class="cls-18" points="122.51 121.05 151.48 137.78 151.48 104.33 122.51 121.05"/><polygon class="cls-19" points="122.51 121.05 122.51 154.51 122.51 154.51 151.48 137.78 151.48 137.78 122.51 121.05 122.51 121.05"/><polygon class="cls-20" points="93.53 137.78 93.53 137.78 122.51 154.51 122.51 121.05 93.53 137.78"/><polygon class="cls-21" points="122.51 121.05 93.53 104.33 93.53 104.33 93.53 137.78 122.51 121.05 122.51 121.05"/><polygon class="cls-22" points="122.51 99.04 122.51 99.04 103.44 110.04 103.44 110.04 103.44 132.06 103.44 132.06 122.51 143.07 122.51 143.07 141.57 132.06 141.57 132.06 141.57 110.04 141.57 110.04 122.51 99.04"/></g></g></g></svg>