<svg xmlns="http://www.w3.org/2000/svg" xmlns:xlink="http://www.w3.org/1999/xlink" viewBox="0 0 275.01 300"><defs><style>.cls-1{isolation:isolate;}.cls-2{filter:url(#filter);}.cls-3{fill:url(#linear-gradient);}.cls-4{fill:url(#linear-gradient-2);}.cls-5{fill:url(#linear-gradient-3);filter:url(#filter-2);}.cls-16,.cls-6{fill:#323f54;}.cls-7{filter:url(#filter-3);}.cls-8{fill:url(#linear-gradient-4);}.cls-9{fill:url(#linear-gradient-5);}.cls-10{filter:url(#filter-4);}.cls-11{fill:url(#linear-gradient-6);}.cls-12{fill:url(#linear-gradient-7);}.cls-13{filter:url(#filter-5);}.cls-14{fill:url(#linear-gradient-8);}.cls-15{fill:url(#linear-gradient-9);}.cls-16{filter:url(#filter-6);}.cls-17{fill:none;stroke-miterlimit:10;stroke-width:3px;stroke:url(#linear-gradient-10);}.cls-18{fill:url(#linear-gradient-11);filter:url(#filter-7);}.cls-19{mix-blend-mode:screen;fill:url(#linear-gradient-12);}.cls-20{mix-blend-mode:multiply;opacity:0.3;fill:url(#White_Black);}.cls-21{fill:#1c212e;}.cls-22{fill:url(#linear-gradient-13);}.cls-23{fill:url(#linear-gradient-14);}.cls-24{fill:url(#linear-gradient-15);}.cls-25{fill:url(#linear-gradient-16);}.cls-26{fill:url(#linear-gradient-17);}.cls-27{fill:url(#linear-gradient-18);}.cls-28{fill:url(#linear-gradient-19);}</style><filter id="filter"><feOffset dy="8" input="SourceAlpha"/><feGaussianBlur stdDeviation="8" result="blur"/><feFlood/><feComposite operator="in" in2="blur"/><feComposite in="SourceGraphic"/></filter><linearGradient id="linear-gradient" x1="84.41" y1="255.22" x2="84.41" y2="120.22" gradientUnits="userSpaceOnUse"><stop offset="0" stop-color="#ffe771"/><stop offset="1" stop-color="#e67700"/></linearGradient><linearGradient id="linear-gradient-2" x1="190.61" y1="255.22" x2="190.61" y2="120.22" xlink:href="#linear-gradient"/><linearGradient id="linear-gradient-3" x1="137.51" y1="267.5" x2="137.51" y2="120.22" xlink:href="#linear-gradient"/><filter id="filter-2" x="72.73" y="104" width="129" height="196" filterUnits="userSpaceOnUse"><feOffset dy="8" input="SourceAlpha"/><feGaussianBlur stdDeviation="8" result="blur-2"/><feFlood/><feComposite operator="in" in2="blur-2"/><feComposite in="SourceGraphic"/></filter><filter id="filter-3"><feOffset dy="8" input="SourceAlpha"/><feGaussianBlur stdDeviation="8" result="blur-3"/><feFlood/><feComposite operator="in" in2="blur-3"/><feComposite in="SourceGraphic"/></filter><linearGradient id="linear-gradient-4" x1="70.51" y1="77.13" x2="70.51" y2="214.28" xlink:href="#linear-gradient"/><linearGradient id="linear-gradient-5" x1="204.5" y1="77.13" x2="204.5" y2="214.28" xlink:href="#linear-gradient"/><filter id="filter-4"><feOffset dy="8" input="SourceAlpha"/><feGaussianBlur stdDeviation="8" result="blur-4"/><feFlood/><feComposite operator="in" in2="blur-4"/><feComposite in="SourceGraphic"/></filter><linearGradient id="linear-gradient-6" x1="55.51" y1="28.43" x2="55.51" y2="165.58" xlink:href="#linear-gradient"/><linearGradient id="linear-gradient-7" x1="219.5" y1="28.43" x2="219.5" y2="165.58" xlink:href="#linear-gradient"/><filter id="filter-5"><feOffset dy="8" input="SourceAlpha"/><feGaussianBlur stdDeviation="8" result="blur-5"/><feFlood/><feComposite operator="in" in2="blur-5"/><feComposite in="SourceGraphic"/></filter><linearGradient id="linear-gradient-8" x1="70.51" y1="57.13" x2="70.51" y2="194.28" xlink:href="#linear-gradient"/><linearGradient id="linear-gradient-9" x1="204.5" y1="57.13" x2="204.5" y2="194.28" xlink:href="#linear-gradient"/><filter id="filter-6" x="17.73" y="0" width="240" height="257" filterUnits="userSpaceOnUse"><feOffset dy="8" input="SourceAlpha"/><feGaussianBlur stdDeviation="8" result="blur-6"/><feFlood/><feComposite operator="in" in2="blur-6"/><feComposite in="SourceGraphic"/></filter><linearGradient id="linear-gradient-10" x1="137.51" y1="14.66" x2="137.51" y2="225.78" gradientUnits="userSpaceOnUse"><stop offset="0" stop-color="#435570"/><stop offset="1" stop-color="#212736"/></linearGradient><linearGradient id="linear-gradient-11" x1="137.51" y1="31.16" x2="137.51" y2="209.28" gradientUnits="userSpaceOnUse"><stop offset="0" stop-color="#fff"/><stop offset="0.5" stop-color="#ffe771"/><stop offset="1" stop-color="#e67700"/></linearGradient><filter id="filter-7" x="32.73" y="15" width="210" height="227" filterUnits="userSpaceOnUse"><feOffset dy="8" input="SourceAlpha"/><feGaussianBlur stdDeviation="8" result="blur-7"/><feFlood/><feComposite operator="in" in2="blur-7"/><feComposite in="SourceGraphic"/></filter><linearGradient id="linear-gradient-12" x1="137.51" y1="43.16" x2="137.51" y2="197.28" xlink:href="#linear-gradient-11"/><linearGradient id="White_Black" x1="137.51" y1="162.34" x2="137.51" y2="78.1" gradientUnits="userSpaceOnUse"><stop offset="0" stop-color="#fff"/><stop offset="1"/></linearGradient><linearGradient id="linear-gradient-13" x1="123.02" y1="86.77" x2="123.02" y2="120.22" xlink:href="#linear-gradient-11"/><linearGradient id="linear-gradient-14" x1="151.99" y1="120.22" x2="151.99" y2="86.77" xlink:href="#linear-gradient-11"/><linearGradient id="linear-gradient-15" x1="151.99" y1="136.95" x2="151.99" y2="103.49" xlink:href="#linear-gradient-11"/><linearGradient id="linear-gradient-16" x1="151.99" y1="153.67" x2="151.99" y2="120.22" xlink:href="#linear-gradient-11"/><linearGradient id="linear-gradient-17" x1="123.02" y1="120.22" x2="123.02" y2="153.67" xlink:href="#linear-gradient-11"/><linearGradient id="linear-gradient-18" x1="123.02" y1="136.95" x2="123.02" y2="103.49" xlink:href="#linear-gradient-11"/><linearGradient id="linear-gradient-19" x1="137.51" y1="98.2" x2="137.51" y2="142.24" xlink:href="#linear-gradient-11"/></defs><g class="cls-1"><g id="Layer_2" data-name="Layer 2"><g id="Objects"><g class="cls-2"><polygon class="cls-3" points="77.43 232.81 91.38 240.86 91.38 120.22 77.43 120.22 77.43 232.81"/><polygon class="cls-4" points="183.64 120.22 183.64 240.86 197.58 232.81 197.58 120.22 183.64 120.22"/></g><polygon class="cls-5" points="97.38 120.22 97.38 244.33 137.51 267.5 177.64 244.33 177.64 120.22 97.38 120.22"/><polygon class="cls-6" points="103.38 240.87 103.38 126.22 171.64 126.22 171.64 240.87 137.51 260.57 103.38 240.87"/><g class="cls-7"><path class="cls-8" d="M25.6,156.29l100.43,58V141.23L15,77.13v60.81A21.18,21.18,0,0,0,25.6,156.29Z"/><path class="cls-9" d="M149,141.23v73.05l100.44-58A21.19,21.19,0,0,0,260,137.94V77.13Z"/></g><g class="cls-10"><path class="cls-11" d="M10.6,107.6l100.43,58v-73L0,28.43V89.24A21.2,21.2,0,0,0,10.6,107.6Z"/><path class="cls-12" d="M164,92.54v73l100.44-58A21.21,21.21,0,0,0,275,89.24V28.43Z"/></g><g class="cls-13"><path class="cls-14" d="M25.6,136.29l100.43,58v-73L15,57.13v60.81A21.18,21.18,0,0,0,25.6,136.29Z"/><path class="cls-15" d="M149,121.23v73.05l100.43-58A21.19,21.19,0,0,0,260,117.94V57.13Z"/></g><path class="cls-16" d="M233,152.25V88.19a40,40,0,0,0-20-34.64l-55.47-32a40,40,0,0,0-40,0L62,53.55A40,40,0,0,0,42,88.19v64.06a40,40,0,0,0,20,34.64l55.48,32a40,40,0,0,0,40,0l55.47-32A40,40,0,0,0,233,152.25Z"/><path class="cls-17" d="M233,152.25V88.19a40,40,0,0,0-20-34.64l-55.47-32a40,40,0,0,0-40,0L62,53.55A40,40,0,0,0,42,88.19v64.06a40,40,0,0,0,20,34.64l55.48,32a40,40,0,0,0,40,0l55.47-32A40,40,0,0,0,233,152.25Z"/><path class="cls-18" d="M137.51,209.28a25,25,0,0,1-12.5-3.35l-55.48-32A25.07,25.07,0,0,1,57,152.25V88.19a25.07,25.07,0,0,1,12.5-21.65l55.48-32a25,25,0,0,1,25,0l55.47,32A25.07,25.07,0,0,1,218,88.19v64.06a25.07,25.07,0,0,1-12.5,21.65l-55.47,32A25.07,25.07,0,0,1,137.51,209.28Z"/><path class="cls-19" d="M137.51,197.28a13,13,0,0,1-6.5-1.75l-55.48-32A13,13,0,0,1,69,152.25V88.19a13,13,0,0,1,6.5-11.25l55.48-32a13,13,0,0,1,13,0l55.48,32A13,13,0,0,1,206,88.19v64.06a13,13,0,0,1-6.5,11.26l-55.47,32A13,13,0,0,1,137.51,197.28Z"/><polygon class="cls-20" points="101.03 141.28 101.03 99.16 137.51 78.1 173.98 99.16 173.98 141.28 137.51 162.34 101.03 141.28"/><polygon class="cls-21" points="105.94 138.45 105.94 101.99 137.51 83.77 169.08 101.99 169.08 138.45 137.51 156.67 105.94 138.45"/><polygon class="cls-22" points="137.51 86.77 137.51 86.77 108.53 103.49 137.51 120.22 137.51 86.77"/><polygon class="cls-23" points="137.51 120.22 166.48 103.49 166.48 103.49 137.51 86.77 137.51 120.22 137.51 120.22"/><polygon class="cls-24" points="137.51 120.22 166.48 136.95 166.48 103.49 137.51 120.22"/><polygon class="cls-25" points="137.51 120.22 137.51 153.67 137.51 153.67 166.48 136.95 166.48 136.95 137.51 120.22 137.51 120.22"/><polygon class="cls-26" points="108.53 136.95 108.53 136.95 137.51 153.67 137.51 120.22 108.53 136.95"/><polygon class="cls-27" points="137.51 120.22 108.53 103.49 108.53 103.49 108.53 136.95 137.51 120.22 137.51 120.22"/><polygon class="cls-28" points="137.51 98.2 137.51 98.2 118.44 109.21 118.44 109.21 118.44 131.23 118.44 131.23 137.51 142.24 137.51 142.24 156.57 131.23 156.57 131.23 156.57 109.21 156.57 109.21 137.51 98.2"/></g></g></g></svg>