<svg xmlns="http://www.w3.org/2000/svg" xmlns:xlink="http://www.w3.org/1999/xlink" viewBox="0 0 245.01 300"><defs><style>.cls-1{isolation:isolate;}.cls-2{fill:url(#linear-gradient);filter:url(#filter);}.cls-3,.cls-7{fill:#323f54;}.cls-4{filter:url(#filter-2);}.cls-5{fill:url(#linear-gradient-2);}.cls-6{fill:url(#linear-gradient-3);}.cls-7{filter:url(#filter-3);}.cls-8{fill:none;stroke-miterlimit:10;stroke-width:3px;stroke:url(#linear-gradient-4);}.cls-9{fill:url(#linear-gradient-5);filter:url(#filter-4);}.cls-10{mix-blend-mode:screen;fill:url(#linear-gradient-6);}.cls-11{mix-blend-mode:multiply;opacity:0.3;fill:url(#White_Black);}.cls-12{fill:#1c212e;}.cls-13{fill:url(#linear-gradient-7);}.cls-14{fill:url(#linear-gradient-8);}.cls-15{fill:url(#linear-gradient-9);}.cls-16{fill:url(#linear-gradient-10);}.cls-17{fill:url(#linear-gradient-11);}.cls-18{fill:url(#linear-gradient-12);}.cls-19{fill:url(#linear-gradient-13);}.cls-20{fill:url(#linear-gradient-14);}</style><linearGradient id="linear-gradient" x1="122.51" y1="267.36" x2="122.51" y2="120.08" gradientUnits="userSpaceOnUse"><stop offset="0" stop-color="#fff"/><stop offset="0.5" stop-color="#d6e2f5"/><stop offset="1" stop-color="#93a6c4"/></linearGradient><filter id="filter" x="57.97" y="104" width="129" height="196" filterUnits="userSpaceOnUse"><feOffset dy="8" input="SourceAlpha"/><feGaussianBlur stdDeviation="8" result="blur"/><feFlood/><feComposite operator="in" in2="blur"/><feComposite in="SourceGraphic"/></filter><filter id="filter-2"><feOffset dy="8" input="SourceAlpha"/><feGaussianBlur stdDeviation="8" result="blur-2"/><feFlood/><feComposite operator="in" in2="blur-2"/><feComposite in="SourceGraphic"/></filter><linearGradient id="linear-gradient-2" x1="55.51" y1="56.99" x2="55.51" y2="194.14" gradientUnits="userSpaceOnUse"><stop offset="0" stop-color="#d6e2f5"/><stop offset="1" stop-color="#93a6c4"/></linearGradient><linearGradient id="linear-gradient-3" x1="189.5" y1="56.99" x2="189.5" y2="194.14" xlink:href="#linear-gradient-2"/><filter id="filter-3" x="2.97" y="0" width="240" height="257" filterUnits="userSpaceOnUse"><feOffset dy="8" input="SourceAlpha"/><feGaussianBlur stdDeviation="8" result="blur-3"/><feFlood/><feComposite operator="in" in2="blur-3"/><feComposite in="SourceGraphic"/></filter><linearGradient id="linear-gradient-4" x1="122.51" y1="14.53" x2="122.51" y2="225.64" gradientUnits="userSpaceOnUse"><stop offset="0" stop-color="#435570"/><stop offset="1" stop-color="#212736"/></linearGradient><linearGradient id="linear-gradient-5" x1="122.51" y1="31.03" x2="122.51" y2="209.14" xlink:href="#linear-gradient"/><filter id="filter-4" x="17.97" y="15" width="210" height="227" filterUnits="userSpaceOnUse"><feOffset dy="8" input="SourceAlpha"/><feGaussianBlur stdDeviation="8" result="blur-4"/><feFlood/><feComposite operator="in" in2="blur-4"/><feComposite in="SourceGraphic"/></filter><linearGradient id="linear-gradient-6" x1="122.51" y1="43.03" x2="122.51" y2="197.14" gradientUnits="userSpaceOnUse"><stop offset="0" stop-color="#fff"/><stop offset="1" stop-color="#93a6c4"/></linearGradient><linearGradient id="White_Black" x1="122.51" y1="162.2" x2="122.51" y2="77.97" gradientUnits="userSpaceOnUse"><stop offset="0" stop-color="#fff"/><stop offset="1"/></linearGradient><linearGradient id="linear-gradient-7" x1="343.53" y1="80.15" x2="343.53" y2="113.6" gradientTransform="translate(-217.98 -38.52) rotate(7.37)" xlink:href="#linear-gradient"/><linearGradient id="linear-gradient-8" x1="372.51" y1="113.6" x2="372.51" y2="80.15" gradientTransform="translate(-217.98 -38.52) rotate(7.37)" xlink:href="#linear-gradient"/><linearGradient id="linear-gradient-9" x1="358.02" y1="113.6" x2="358.02" y2="113.6" gradientTransform="translate(-217.98 -38.52) rotate(7.37)" xlink:href="#linear-gradient"/><linearGradient id="linear-gradient-10" x1="372.51" y1="130.33" x2="372.51" y2="96.87" gradientTransform="translate(-217.98 -38.52) rotate(7.37)" xlink:href="#linear-gradient"/><linearGradient id="linear-gradient-11" x1="372.51" y1="147.06" x2="372.51" y2="113.6" gradientTransform="translate(-217.98 -38.52) rotate(7.37)" xlink:href="#linear-gradient"/><linearGradient id="linear-gradient-12" x1="343.53" y1="113.6" x2="343.53" y2="147.05" gradientTransform="translate(-217.98 -38.52) rotate(7.37)" xlink:href="#linear-gradient"/><linearGradient id="linear-gradient-13" x1="343.53" y1="130.33" x2="343.53" y2="96.87" gradientTransform="translate(-217.98 -38.52) rotate(7.37)" xlink:href="#linear-gradient"/><linearGradient id="linear-gradient-14" x1="358.02" y1="91.58" x2="358.02" y2="135.62" gradientTransform="translate(-217.98 -38.52) rotate(7.37)" xlink:href="#linear-gradient"/></defs><g class="cls-1"><g id="Layer_2" data-name="Layer 2"><g id="Objects"><polygon class="cls-2" points="82.38 120.08 82.38 244.19 122.51 267.36 162.63 244.19 162.63 120.08 82.38 120.08"/><polygon class="cls-3" points="88.38 240.73 88.38 126.08 156.63 126.08 156.63 240.73 122.51 260.43 88.38 240.73"/><g class="cls-4"><path class="cls-5" d="M10.6,136.16l100.43,58v-73L0,57V117.8A21.21,21.21,0,0,0,10.6,136.16Z"/><path class="cls-6" d="M134,121.09v73l100.44-58A21.22,21.22,0,0,0,245,117.8V57Z"/></g><path class="cls-7" d="M218,152.11V88.06a40,40,0,0,0-20-34.64l-55.47-32a40,40,0,0,0-40,0L47,53.42A40,40,0,0,0,27,88.06v64.05a40,40,0,0,0,20,34.64l55.48,32a40,40,0,0,0,40,0l55.47-32A40,40,0,0,0,218,152.11Z"/><path class="cls-8" d="M218,152.11V88.06a40,40,0,0,0-20-34.64l-55.47-32a40,40,0,0,0-40,0L47,53.42A40,40,0,0,0,27,88.06v64.05a40,40,0,0,0,20,34.64l55.48,32a40,40,0,0,0,40,0l55.47-32A40,40,0,0,0,218,152.11Z"/><path class="cls-9" d="M122.51,209.14a25,25,0,0,1-12.5-3.35l-55.48-32A25.06,25.06,0,0,1,42,152.11V88.06a25.06,25.06,0,0,1,12.5-21.65l55.48-32a25,25,0,0,1,25,0l55.47,32A25.06,25.06,0,0,1,203,88.06v64.05a25.06,25.06,0,0,1-12.5,21.65l-55.47,32A25.07,25.07,0,0,1,122.51,209.14Z"/><path class="cls-10" d="M122.51,197.14a13,13,0,0,1-6.5-1.74l-55.48-32A13,13,0,0,1,54,152.11V88.06a13,13,0,0,1,6.5-11.26l55.48-32a13,13,0,0,1,13,0l55.48,32A13,13,0,0,1,191,88.06v64.05a13,13,0,0,1-6.5,11.26L129,195.4A13.05,13.05,0,0,1,122.51,197.14Z"/><polygon class="cls-11" points="86.03 141.14 86.03 99.03 122.51 77.97 158.98 99.03 158.98 141.14 122.51 162.2 86.03 141.14"/><polygon class="cls-12" points="90.94 138.31 90.94 101.86 122.51 83.63 154.08 101.86 154.08 138.31 122.51 156.54 90.94 138.31"/><polygon class="cls-13" points="126.8 86.91 126.8 86.91 95.92 99.78 122.51 120.08 126.8 86.91"/><polygon class="cls-14" points="122.51 120.08 153.38 107.21 153.38 107.21 126.8 86.91 122.51 120.08 122.51 120.08"/><polygon class="cls-15" points="122.51 120.08 122.51 120.08 122.51 120.08 122.51 120.08"/><polygon class="cls-16" points="122.51 120.08 149.09 140.39 153.38 107.21 122.51 120.08"/><polygon class="cls-17" points="122.51 120.08 118.21 153.26 118.22 153.26 149.09 140.39 149.09 140.39 122.51 120.08 122.51 120.08"/><polygon class="cls-18" points="91.63 132.96 91.63 132.96 118.21 153.26 122.51 120.08 91.63 132.96"/><polygon class="cls-19" points="122.51 120.08 95.92 99.78 95.92 99.78 91.63 132.96 122.51 120.08 122.51 120.08"/><polygon class="cls-20" points="125.33 98.25 125.33 98.25 105.01 106.72 105.01 106.72 102.19 128.56 102.19 128.56 119.68 141.92 119.68 141.92 140 133.45 140 133.45 142.83 111.61 142.83 111.61 125.33 98.25"/></g></g></g></svg>