<svg xmlns="http://www.w3.org/2000/svg" xmlns:xlink="http://www.w3.org/1999/xlink" viewBox="0 0 83.36 83.21"><defs><style>.cls-1{fill:url(#linear-gradient);}.cls-2{fill:#b76615;}.cls-3{fill:url(#linear-gradient-2);}.cls-4{fill:#704621;}.cls-5{fill:#27b7ff;}.cls-6{fill:url(#linear-gradient-3);}.cls-7{fill:#39ecff;}.cls-8{fill:#069aff;}.cls-20,.cls-23,.cls-9{fill:#0092ff;}.cls-10{fill:url(#linear-gradient-4);}.cls-11{fill:#03b8ff;}.cls-12{fill:#03d0ff;}.cls-13{fill:url(#linear-gradient-5);}.cls-14{fill:url(#linear-gradient-6);}.cls-15{fill:url(#linear-gradient-7);}.cls-16{fill:url(#linear-gradient-8);}.cls-17,.cls-19,.cls-26,.cls-27,.cls-28,.cls-29,.cls-30,.cls-36{fill:#fff;}.cls-17,.cls-18{opacity:0.33;}.cls-20{opacity:0.37;}.cls-21,.cls-24,.cls-25{fill:#0062ff;}.cls-22{fill:#5ff4ff;}.cls-23,.cls-25{opacity:0.54;}.cls-24{opacity:0.5;}.cls-26{opacity:0.57;}.cls-27{opacity:0.18;}.cls-28{opacity:0.12;}.cls-29{opacity:0.52;}.cls-30{opacity:0.25;}.cls-31,.cls-37{fill:#fff30b;}.cls-32{fill:#d37816;}.cls-33{fill:#ef8216;}.cls-34{fill:url(#linear-gradient-9);}.cls-35{opacity:0.59;}.cls-36{opacity:0.45;}.cls-37{opacity:0.48;}.cls-38{fill:url(#linear-gradient-10);}.cls-39{fill:url(#linear-gradient-11);}.cls-40{fill:url(#linear-gradient-12);}</style><linearGradient id="linear-gradient" x1="11.53" y1="20.37" x2="71.53" y2="62.05" gradientUnits="userSpaceOnUse"><stop offset="0.02" stop-color="#f4e203"/><stop offset="0.7" stop-color="#f49308"/></linearGradient><linearGradient id="linear-gradient-2" x1="24.56" y1="26.53" x2="68.64" y2="64.68" xlink:href="#linear-gradient"/><linearGradient id="linear-gradient-3" x1="38.92" y1="44.28" x2="55.39" y2="25.33" gradientTransform="translate(41.33 -17.32) rotate(45)" gradientUnits="userSpaceOnUse"><stop offset="0.12" stop-color="#6efffb"/><stop offset="0.23" stop-color="#61f7fb"/><stop offset="0.43" stop-color="#3ee2fd"/><stop offset="0.71" stop-color="#06c0ff"/><stop offset="0.73" stop-color="#00bdff"/></linearGradient><linearGradient id="linear-gradient-4" x1="58.44" y1="60.58" x2="45.05" y2="41.84" gradientUnits="userSpaceOnUse"><stop offset="0.06" stop-color="#39f6ff"/><stop offset="0.14" stop-color="#30e9ff"/><stop offset="0.3" stop-color="#19c6ff"/><stop offset="0.43" stop-color="#03a5ff"/></linearGradient><linearGradient id="linear-gradient-5" x1="50.99" y1="50.6" x2="28.23" y2="25.93" gradientUnits="userSpaceOnUse"><stop offset="0" stop-color="#39f6ff"/><stop offset="0.03" stop-color="#2ce9ff"/><stop offset="0.09" stop-color="#09c6ff"/><stop offset="0.11" stop-color="#00bdff"/></linearGradient><linearGradient id="linear-gradient-6" x1="52.51" y1="30.35" x2="44.64" y2="37.41" gradientUnits="userSpaceOnUse"><stop offset="0" stop-color="#39f6ff"/><stop offset="0.11" stop-color="#2ce9ff"/><stop offset="0.31" stop-color="#09c6ff"/><stop offset="0.36" stop-color="#00bdff"/></linearGradient><linearGradient id="linear-gradient-7" x1="43.14" y1="22.89" x2="3.02" y2="58.85" gradientUnits="userSpaceOnUse"><stop offset="0.13" stop-color="#39f6ff"/><stop offset="0.3" stop-color="#2ce9ff"/><stop offset="0.61" stop-color="#09c6ff"/><stop offset="0.68" stop-color="#00bdff"/></linearGradient><linearGradient id="linear-gradient-8" x1="29.63" y1="53.9" x2="35.41" y2="45.03" xlink:href="#linear-gradient-7"/><linearGradient id="linear-gradient-9" x1="38.4" y1="6.35" x2="47.75" y2="11.98" xlink:href="#linear-gradient"/><linearGradient id="linear-gradient-10" x1="3.84" y1="38.77" x2="16.48" y2="46.37" xlink:href="#linear-gradient"/><linearGradient id="linear-gradient-11" x1="38.36" y1="72.83" x2="47.71" y2="78.45" xlink:href="#linear-gradient"/><linearGradient id="linear-gradient-12" x1="70.47" y1="38.72" x2="83.11" y2="46.32" xlink:href="#linear-gradient"/></defs><g id="Layer_2" data-name="Layer 2"><g id="Layer_1-2" data-name="Layer 1"><path class="cls-1" d="M38.27,82.22h6.67a5.07,5.07,0,0,0,3.62-1.5L81.16,48a5.07,5.07,0,0,0,1.5-3.61V37.77a5.14,5.14,0,0,0-1.52-3.63L48.41,1.7A5.09,5.09,0,0,0,44.81.22H38.15a5.07,5.07,0,0,0-3.62,1.5L1.85,34.45A5.07,5.07,0,0,0,.36,38.06V44.7a5.12,5.12,0,0,0,1.52,3.64l32.8,32.41A5.08,5.08,0,0,0,38.27,82.22ZM3.79,44.7V38.06a1.67,1.67,0,0,1,.5-1.19L37,4.15a1.72,1.72,0,0,1,1.19-.49h6.66A1.7,1.7,0,0,1,46,4.14L78.73,36.57a1.73,1.73,0,0,1,.49,1.2v6.65a1.64,1.64,0,0,1-.49,1.18L46.13,78.29a1.67,1.67,0,0,1-1.19.5H38.27a1.7,1.7,0,0,1-1.18-.49L4.29,45.9A1.72,1.72,0,0,1,3.79,44.7Z"/><path class="cls-2" d="M4.29,36.87,37,4.15a1.72,1.72,0,0,1,1.19-.49H36.7a1.72,1.72,0,0,0-1.19.49L2.84,36.87a1.66,1.66,0,0,0-.49,1.19V44.7a1.68,1.68,0,0,0,.5,1.2L35.64,78.3a1.7,1.7,0,0,0,1.18.49h1.45a1.7,1.7,0,0,1-1.18-.49L4.29,45.9a1.72,1.72,0,0,1-.5-1.2V38.06A1.67,1.67,0,0,1,4.29,36.87Z"/><path class="cls-2" d="M79.72,48,47.11,80.72a5.07,5.07,0,0,1-3.62,1.5h1.45a5.07,5.07,0,0,0,3.62-1.5L81.16,48a5.07,5.07,0,0,0,1.5-3.61V37.77a5.14,5.14,0,0,0-1.52-3.63L48.41,1.7A5.09,5.09,0,0,0,44.81.22H43.37A5.13,5.13,0,0,1,47,1.7L79.69,34.14a5.1,5.1,0,0,1,1.52,3.63v6.65A5.1,5.1,0,0,1,79.72,48Z"/><path class="cls-2" d="M39,71.72h5.17A2.64,2.64,0,0,0,46,70.94L71.35,45.56a2.63,2.63,0,0,0,.77-1.86V38.54a2.63,2.63,0,0,0-.78-1.87L45.93,11.49a2.62,2.62,0,0,0-1.86-.76H38.9A2.63,2.63,0,0,0,37,11.5L11.67,36.9a2.63,2.63,0,0,0-.77,1.87v5.16a2.63,2.63,0,0,0,.78,1.87L37.14,71A2.69,2.69,0,0,0,39,71.72Z"/><polygon class="cls-3" points="45.09 70.26 70.66 44.62 70.66 37.62 44.99 12.18 37.98 12.18 12.36 37.84 12.36 44.85 38.09 70.26 45.09 70.26"/><polygon class="cls-4" points="65.38 44.01 65.38 38.27 44.36 17.44 38.62 17.44 17.63 38.46 17.63 44.19 38.7 65.01 44.44 65.01 65.38 44.01"/><rect class="cls-5" x="26.84" y="26.5" width="29.46" height="29.46" transform="translate(-16.98 41.47) rotate(-45)"/><rect class="cls-6" x="31.26" y="30.92" width="20.62" height="20.62" transform="translate(-16.98 41.47) rotate(-45)"/><polygon class="cls-7" points="18.5 44.08 20.74 41.23 18.5 38.56 18.5 44.08"/><polygon class="cls-8" points="38.81 64.14 44.33 64.14 41.48 62.02 38.81 64.14"/><polygon class="cls-9" points="64.51 38.38 62.4 41.23 64.51 43.91 64.51 38.38"/><polygon class="cls-7" points="38.73 18.3 41.58 20.42 44.25 18.3 38.73 18.3"/><polygon class="cls-10" points="62.4 41.23 41.48 62.02 44.33 64.14 64.51 43.91 62.4 41.23"/><polygon class="cls-11" points="44.25 18.3 41.58 20.42 62.4 41.23 64.51 38.38 44.25 18.3"/><polygon class="cls-12" points="38.73 18.3 18.5 38.56 20.74 41.23 41.58 20.42 38.73 18.3"/><polygon class="cls-11" points="20.74 41.23 18.5 44.08 38.81 64.14 41.48 62.02 20.74 41.23"/><polygon class="cls-13" points="41.57 55.81 41.48 62.02 62.4 41.23 56.15 41.23 41.57 55.81"/><polygon class="cls-14" points="41.58 20.42 41.57 26.65 56.15 41.23 62.4 41.23 41.58 20.42"/><path class="cls-15" d="M41.57,26.65V20.42L20.74,41.23c.47.11,6.25,0,6.25,0Z"/><polygon class="cls-16" points="26.99 41.23 20.74 41.23 41.48 62.02 41.57 55.81 26.99 41.23"/><path class="cls-17" d="M27,41.23,41.57,55.81l5.11-5.11a14.61,14.61,0,0,1-2.28.19,12.8,12.8,0,0,1-10-4.83,11.41,11.41,0,0,1-1.81-10.42Z"/><g class="cls-18"><path class="cls-19" d="M43.8,47.06a32.6,32.6,0,0,1,6.34-9c.44-.48.89-1,1.35-1.43L47.9,33A102.62,102.62,0,0,0,33.59,47.85l7.73,7.73.54-2.19A39.58,39.58,0,0,1,43.8,47.06Z"/><path class="cls-19" d="M33.76,38.59A115.22,115.22,0,0,1,45.9,31l-2.81-2.81c-2.26,1.37-4.47,2.81-6.63,4.34l-9.1,9.09,1.26,1.26A34.71,34.71,0,0,1,33.76,38.59Z"/></g><polygon class="cls-19" points="26.99 41.23 41.57 55.81 29.02 41.23 38.09 30.14 26.99 41.23"/><path class="cls-20" d="M41.57,55.81,41.48,62a30.8,30.8,0,0,1,3.19-6.73c2.12-3,11.48-14.06,11.48-14.06Z"/><polygon class="cls-9" points="41.57 55.81 41.48 62.02 42.36 56.12 53.76 43.68 41.57 55.81"/><polygon class="cls-9" points="55.61 41.77 62.4 41.23 56.15 41.23 55.61 41.77"/><polygon class="cls-9" points="26.99 41.23 20.74 41.23 26.99 41.77 39.72 53.96 26.99 41.23"/><polygon class="cls-21" points="64.51 38.38 63.77 42.97 43.66 63.56 38.81 64.14 44.33 64.14 64.51 43.91 64.51 38.38"/><polygon class="cls-22" points="44.25 18.3 38.73 18.3 18.5 38.56 19.07 39.23 39.37 18.75 44.25 18.3"/><path class="cls-23" d="M41.48,62,20.74,41.23s6.67,8.63,11.32,14.09a84.78,84.78,0,0,1,6.75,8.82Z"/><polygon class="cls-24" points="41.48 62.02 25.23 45.73 40.29 62.02 38.81 64.14 41.48 62.02"/><polygon class="cls-21" points="41.48 62.02 44.12 63.97 42.54 61.79 50.87 52.69 41.48 62.02"/><polygon class="cls-25" points="41.58 20.42 50.94 29.77 42.54 20.42 44.25 18.3 41.58 20.42"/><path class="cls-20" d="M62.4,41.23s-2.06-.35-7-2.85c-3.39-1.71-8.64-6.6-11.61-9.49L56.15,41.23Z"/><path class="cls-20" d="M41.57,26.65s.88.91,2.23,2.24Z"/><path class="cls-26" d="M22.93,39l.24-.23Z"/><path class="cls-26" d="M41.57,26.65V20.42S25.32,36.67,23.17,38.79c2.08-2,17.32-16.06,17.32-16.06Z"/><path class="cls-27" d="M23.07,41.39a6.82,6.82,0,0,1,3.52,2.72,13,13,0,0,1,1.76,4.16,15.62,15.62,0,0,1,1.3-3.89,6.84,6.84,0,0,1,2.78-2.93,7.57,7.57,0,0,1-3.3-3.09A12.71,12.71,0,0,1,27.62,34c.16.89-1.24,4.13-1.81,5A6.37,6.37,0,0,1,23.07,41.39Z"/><path class="cls-28" d="M21.8,41.61A8.6,8.6,0,0,1,26.28,45a16.05,16.05,0,0,1,2.24,5.14,18.41,18.41,0,0,1,1.64-4.8,8.61,8.61,0,0,1,3.54-3.63,9.51,9.51,0,0,1-4.2-3.81,15.7,15.7,0,0,1-1.92-5.34c.21,1.1-1.57,5.1-2.29,6.15A8,8,0,0,1,21.8,41.61Z"/><path class="cls-19" d="M26.47,41.22a1.81,1.81,0,0,1,1,.74,3.71,3.71,0,0,1,.49,1.14A4.4,4.4,0,0,1,28.27,42a1.84,1.84,0,0,1,.76-.8,2.11,2.11,0,0,1-.9-.85,3.55,3.55,0,0,1-.42-1.18,3.5,3.5,0,0,1-.49,1.36A1.69,1.69,0,0,1,26.47,41.22Z"/><path class="cls-29" d="M25.14,41.28a3.79,3.79,0,0,1,2,1.52,7.23,7.23,0,0,1,1,2.32A8.2,8.2,0,0,1,28.81,43a3.73,3.73,0,0,1,1.55-1.64,4.19,4.19,0,0,1-1.84-1.72,7.14,7.14,0,0,1-.84-2.41,7.46,7.46,0,0,1-1,2.77A3.49,3.49,0,0,1,25.14,41.28Z"/><polygon class="cls-25" points="62.4 40.12 52.6 31.44 62.4 41.23 64.51 38.38 62.4 40.12"/><polygon class="cls-30" points="41.57 26.65 42.21 40.76 56.15 41.23 41.57 26.65"/><polygon class="cls-30" points="41.16 42.23 41.57 55.81 46.26 51.12 41.16 42.23"/><polygon class="cls-31" points="38.62 17.44 37.98 12.18 12.36 37.84 17.63 38.46 38.62 17.44"/><polygon class="cls-32" points="65.38 44.01 44.44 65.01 45.09 70.26 70.66 44.62 65.38 44.01"/><polygon class="cls-33" points="70.66 37.62 44.99 12.18 44.36 17.44 65.38 38.27 70.66 37.62"/><path class="cls-33" d="M44.44,65H38.7l-.62,5.25h1a7.92,7.92,0,0,1,1.73-3.35A6.51,6.51,0,0,1,44.44,65Z"/><polygon class="cls-19" points="38.62 17.44 37.98 12.18 37.52 17.44 17.63 37.19 12.36 37.84 17.63 38.46 38.62 17.44"/><polygon class="cls-19" points="17.63 42.23 12.36 44.85 17.63 44.19 17.63 42.23"/><polygon class="cls-31" points="43.33 17.44 44.36 17.44 44.99 12.18 43.33 17.44"/><path class="cls-34" d="M40.31,15.74a2.35,2.35,0,0,0,1.31.62,2.35,2.35,0,0,0,1.31-.62,10.53,10.53,0,0,0,2.35-3.09,13.34,13.34,0,0,0,1.79-5.21,2.64,2.64,0,0,0-2.31,0A12.38,12.38,0,0,0,42.49,1.3,5.78,5.78,0,0,0,41.62,0a5.46,5.46,0,0,0-.87,1.3,12.38,12.38,0,0,0-2.27,6.16,2.64,2.64,0,0,0-2.31,0A13.34,13.34,0,0,0,38,12.65,10.53,10.53,0,0,0,40.31,15.74Z"/><path class="cls-32" d="M44.81,7.61l.11-.22-.16.07A12.38,12.38,0,0,0,42.49,1.3c-.23-.34-.5-1-.87-1.3,0,.17.15.59.14.8,0,1.57.25,3.21.28,4.79s0,3.38,0,5.07c0,.94-.07,1.88-.11,2.82a12.47,12.47,0,0,1-.15,2.74A50.11,50.11,0,0,1,44.81,7.61Z"/><path class="cls-32" d="M45.28,12.66a13.45,13.45,0,0,0,1.79-5.21l-.17-.07a4,4,0,0,1-.15.45c-1.15,2.84-2.36,5.76-4.54,7.91a5.5,5.5,0,0,0-.56.62,2.47,2.47,0,0,0,1.28-.62A10.48,10.48,0,0,0,45.28,12.66Z"/><g class="cls-35"><path class="cls-32" d="M40.31,15.71a2.35,2.35,0,0,0,1.31.62.83.83,0,0,0,.22,0,11.48,11.48,0,0,1-3.5-4,15.1,15.1,0,0,1-2.11-4.88l-.06,0A13.34,13.34,0,0,0,38,12.62,10.53,10.53,0,0,0,40.31,15.71Z"/><path class="cls-32" d="M40.51,1.78a10.55,10.55,0,0,0,.5-1c-.08.15-.17.31-.26.45a12.44,12.44,0,0,0-2.27,6.14l0,0a3.24,3.24,0,0,1,.5.71l.58,1a3.12,3.12,0,0,1-.13-1c0-.34-.05-.68-.05-1a13.08,13.08,0,0,1,1.11-5.41Z"/></g><path class="cls-2" d="M41.62,0s.21,15.84.22,15.74.95-6.23.95-8.62A42.37,42.37,0,0,0,41.62,0Z"/><path class="cls-36" d="M41.28,2.48a.49.49,0,0,0,0-.24c-.16-.48-.55.33-.59.43a11.83,11.83,0,0,0-.42,1.13,12.92,12.92,0,0,0-.5,2.3A13.11,13.11,0,0,0,40,10.81c.1.42.22.83.36,1.24a10.22,10.22,0,0,1,.49,1.21,23.35,23.35,0,0,1-.54-6.06A36.52,36.52,0,0,1,41.28,2.48Z"/><path class="cls-36" d="M37.29,8.75a5.1,5.1,0,0,1,2.12,2.59c-.17-.5-.25-1-.37-1.55a3.22,3.22,0,0,0-.68-1.43,1.56,1.56,0,0,0-1-.52c-.33,0-.8.06-.53.52A1.31,1.31,0,0,0,37.29,8.75Z"/><path class="cls-2" d="M40.33,15.74a2.41,2.41,0,0,0,1.32.62A2.41,2.41,0,0,0,43,15.74a10.53,10.53,0,0,0,2.35-3.09A13.34,13.34,0,0,0,47.1,7.44l-.06,0a14,14,0,0,1-1.73,4.73A10.48,10.48,0,0,1,43,15.23a2.43,2.43,0,0,1-1.31.63,2.42,2.42,0,0,1-1.32-.63A10.65,10.65,0,0,1,38,12.15a14.26,14.26,0,0,1-1.73-4.73l-.06,0A13.67,13.67,0,0,0,38,12.65,10.7,10.7,0,0,0,40.33,15.74Z"/><path class="cls-37" d="M46,7.85c-.44-.27-.89.35-1.08.65a14.79,14.79,0,0,0-1.45,3.78A7.76,7.76,0,0,1,44.86,10C45.11,9.63,46.53,8.2,46,7.85Z"/><path class="cls-38" d="M0,41.61a5.46,5.46,0,0,0,1.3.87,12.39,12.39,0,0,0,6.16,2.28,2.64,2.64,0,0,0,0,2.31,13.67,13.67,0,0,0,5.21-1.79,10.7,10.7,0,0,0,3.09-2.35,2.41,2.41,0,0,0,.62-1.32,2.41,2.41,0,0,0-.62-1.31A10.7,10.7,0,0,0,12.65,38a13.67,13.67,0,0,0-5.21-1.79,2.64,2.64,0,0,0,0,2.31A12.39,12.39,0,0,0,1.3,40.75,5.75,5.75,0,0,0,0,41.61Z"/><path class="cls-32" d="M7.61,44.8a50.93,50.93,0,0,1,8.61-3.06,13.12,13.12,0,0,1-2.74.14L10.66,42c-1.69,0-3.38.08-5.07,0S2.37,41.7.8,41.75c-.21,0-.63-.19-.8-.14.25.37,1,.65,1.3.87a12.39,12.39,0,0,0,6.16,2.28.77.77,0,0,0-.07.16Z"/><path class="cls-32" d="M15.74,42.93a2.47,2.47,0,0,0,.62-1.29,5.59,5.59,0,0,0-.62.57c-2.15,2.18-5.07,3.38-7.91,4.54a3.88,3.88,0,0,1-.45.14,1.34,1.34,0,0,0,.07.18,13.79,13.79,0,0,0,5.21-1.79A10.65,10.65,0,0,0,15.74,42.93Z"/><g class="cls-35"><path class="cls-32" d="M16.3,41.84a.91.91,0,0,0,0-.23,2.41,2.41,0,0,0-.62-1.31A10.7,10.7,0,0,0,12.62,38a13.67,13.67,0,0,0-5.21-1.79s0,0,0,.06a15.12,15.12,0,0,1,4.88,2.12A11.28,11.28,0,0,1,16.3,41.84Z"/><path class="cls-32" d="M7.19,39.4c.34,0,.68,0,1,.05a2.85,2.85,0,0,1,1,.13l-1-.59a2.94,2.94,0,0,1-.71-.5l0,0a12.45,12.45,0,0,0-6.14,2.28L.82,41c.34-.12.7-.39,1-.5a12.82,12.82,0,0,1,3.43-1A12,12,0,0,1,7.19,39.4Z"/></g><path class="cls-2" d="M0,41.61a42,42,0,0,0,7.12,1.18c2.39,0,8.52-.94,8.62-.95S0,41.61,0,41.61Z"/><path class="cls-36" d="M2.48,41.27a36.49,36.49,0,0,1,4.72-.94,23.35,23.35,0,0,1,6.06.53,8.77,8.77,0,0,1-1.21-.49c-.41-.14-.82-.26-1.24-.36a13.58,13.58,0,0,0-4.71-.25,13,13,0,0,0-2.3.51c-.38.12-.76.26-1.13.41-.1,0-.91.43-.43.6A.4.4,0,0,0,2.48,41.27Z"/><path class="cls-36" d="M9.79,39c.51.13,1.05.2,1.55.38a5.07,5.07,0,0,1-2.59-2.13,1.37,1.37,0,0,0-.39-.47c-.46-.28-.55.19-.52.53a1.58,1.58,0,0,0,.52,1A3.1,3.1,0,0,0,9.79,39Z"/><path class="cls-2" d="M12.15,45.3A13.84,13.84,0,0,1,7.42,47a.19.19,0,0,1,0,.07,13.52,13.52,0,0,0,5.21-1.8A10.53,10.53,0,0,0,15.74,43a2.35,2.35,0,0,0,.62-1.31,2.38,2.38,0,0,0-.62-1.31A10.53,10.53,0,0,0,12.65,38a13.34,13.34,0,0,0-5.21-1.79.14.14,0,0,1,0,.06A14,14,0,0,1,12.15,38a10.48,10.48,0,0,1,3.08,2.35,2.4,2.4,0,0,1,.63,1.31A2.36,2.36,0,0,1,15.23,43,10.48,10.48,0,0,1,12.15,45.3Z"/><path class="cls-37" d="M10,44.86a7.56,7.56,0,0,1,2.33-1.42A14.09,14.09,0,0,0,8.5,44.89c-.3.18-.92.64-.65,1.07S9.63,45.11,10,44.86Z"/><path class="cls-39" d="M41,81.9a5.63,5.63,0,0,0,.87,1.31,5.63,5.63,0,0,0,.87-1.31A12.38,12.38,0,0,0,45,75.75a2.64,2.64,0,0,0,2.31,0,13.4,13.4,0,0,0-1.79-5.21,10.48,10.48,0,0,0-2.35-3.08,2.36,2.36,0,0,0-1.31-.63,2.36,2.36,0,0,0-1.31.63,10.48,10.48,0,0,0-2.35,3.08,13.4,13.4,0,0,0-1.79,5.21,2.64,2.64,0,0,0,2.31,0A12.38,12.38,0,0,0,41,81.9Z"/><path class="cls-32" d="M41.83,83.21a4.61,4.61,0,0,0,.87-1.31A12.38,12.38,0,0,0,45,75.75l.16.06L45,75.59A48.67,48.67,0,0,1,42,67a13.25,13.25,0,0,1,.14,2.75l.12,2.81c.05,1.69.07,3.38,0,5.07s-.33,3.22-.28,4.8C42,82.61,41.78,83,41.83,83.21Z"/><path class="cls-32" d="M47,75.38a2.38,2.38,0,0,1,.15.45l.17-.07a13.34,13.34,0,0,0-1.79-5.21,10.66,10.66,0,0,0-2.35-3.09,2.44,2.44,0,0,0-1.28-.62,5.59,5.59,0,0,0,.56.62C44.6,69.61,45.81,72.54,47,75.38Z"/><g class="cls-35"><path class="cls-32" d="M42.05,66.9l-.22,0a2.36,2.36,0,0,0-1.31.63,10.48,10.48,0,0,0-2.35,3.08,13.4,13.4,0,0,0-1.79,5.21l.06,0a15.32,15.32,0,0,1,2.11-4.88A11.51,11.51,0,0,1,42.05,66.9Z"/><path class="cls-32" d="M39.79,74l-.58,1a3.31,3.31,0,0,1-.5.72h0A12.4,12.4,0,0,0,41,81.93c.09.15.18.3.26.46a8.43,8.43,0,0,0-.5-1A13.08,13.08,0,0,1,39.61,76c0-.34,0-.68,0-1A3.05,3.05,0,0,1,39.79,74Z"/></g><path class="cls-2" d="M41.83,83.21A42.35,42.35,0,0,0,43,76.08c0-2.38-.94-8.52-1-8.62S41.83,83.21,41.83,83.21Z"/><path class="cls-36" d="M40.59,71.15c-.14.41-.26.83-.36,1.25A13.1,13.1,0,0,0,40,77.11a13.54,13.54,0,0,0,.5,2.29,11.08,11.08,0,0,0,.42,1.14c0,.09.43.9.59.43a.49.49,0,0,0,0-.24A35,35,0,0,1,40.55,76a22.88,22.88,0,0,1,.53-6A9.45,9.45,0,0,1,40.59,71.15Z"/><path class="cls-36" d="M37.55,75.37a1.6,1.6,0,0,0,1-.52,3.22,3.22,0,0,0,.68-1.43c.12-.52.2-1,.37-1.56a5.17,5.17,0,0,1-2.12,2.6,1.22,1.22,0,0,0-.48.39C36.75,75.31,37.22,75.4,37.55,75.37Z"/><path class="cls-2" d="M40.54,68a2.48,2.48,0,0,1,1.32-.62,2.48,2.48,0,0,1,1.31.62,10.66,10.66,0,0,1,2.35,3.09,14,14,0,0,1,1.73,4.73l.06,0a13.4,13.4,0,0,0-1.79-5.21,10.48,10.48,0,0,0-2.35-3.08,2.43,2.43,0,0,0-1.31-.63,2.42,2.42,0,0,0-1.32.63,10.63,10.63,0,0,0-2.34,3.08,13.58,13.58,0,0,0-1.8,5.21l.06,0a14.06,14.06,0,0,1,1.74-4.73A10.81,10.81,0,0,1,40.54,68Z"/><path class="cls-37" d="M46.18,75.36c.56-.35-.85-1.79-1.1-2.11a7.48,7.48,0,0,1-1.43-2.33,14.86,14.86,0,0,0,1.45,3.79C45.29,75,45.74,75.63,46.18,75.36Z"/><path class="cls-40" d="M75.91,35.86a13.56,13.56,0,0,0-5.21,1.79A10.65,10.65,0,0,0,67.62,40,2.43,2.43,0,0,0,67,41.31a2.42,2.42,0,0,0,.63,1.32A10.65,10.65,0,0,0,70.7,45a13.73,13.73,0,0,0,5.21,1.79,2.64,2.64,0,0,0,0-2.31,12.46,12.46,0,0,0,6.16-2.28,5.46,5.46,0,0,0,1.3-.87,5.75,5.75,0,0,0-1.3-.86,12.46,12.46,0,0,0-6.16-2.28A2.64,2.64,0,0,0,75.91,35.86Z"/><path class="cls-32" d="M83.36,41.31c-.17-.05-.6.15-.8.14-1.58-.05-3.21.25-4.8.29s-3.38,0-5.06,0q-1.41,0-2.82-.12a13.12,13.12,0,0,1-2.74-.14,50.52,50.52,0,0,1,8.6,3.06l.22.12-.06-.16a12.39,12.39,0,0,0,6.15-2.28A4.61,4.61,0,0,0,83.36,41.31Z"/><path class="cls-32" d="M70.7,45a13.73,13.73,0,0,0,5.21,1.79,1.34,1.34,0,0,0,.07-.18,2.38,2.38,0,0,1-.45-.15c-2.84-1.15-5.77-2.35-7.92-4.53a4.24,4.24,0,0,0-.62-.57,2.41,2.41,0,0,0,.63,1.29A10.65,10.65,0,0,0,70.7,45Z"/><g class="cls-35"><path class="cls-32" d="M71.09,38A15.12,15.12,0,0,1,76,35.92l0-.06a13.56,13.56,0,0,0-5.21,1.79A10.65,10.65,0,0,0,67.65,40,2.43,2.43,0,0,0,67,41.31a1.85,1.85,0,0,0,0,.23A11.2,11.2,0,0,1,71.09,38Z"/><path class="cls-32" d="M78.15,39.22a12.84,12.84,0,0,1,3.43,1,10.43,10.43,0,0,0,1,.5l-.45-.26A12.49,12.49,0,0,0,76,38.17l0,0a2.81,2.81,0,0,1-.72.5l-1,.59a2.81,2.81,0,0,1,1-.13c.33,0,.67,0,1-.06A14.67,14.67,0,0,1,78.15,39.22Z"/></g><path class="cls-2" d="M67.62,41.54c.09,0,6.23,1,8.62,1a42,42,0,0,0,7.12-1.18S67.52,41.52,67.62,41.54Z"/><path class="cls-36" d="M80.88,41a.39.39,0,0,0,.24,0c.47-.17-.33-.55-.43-.6-.37-.15-.75-.29-1.13-.41a13,13,0,0,0-2.3-.51,13.57,13.57,0,0,0-4.71.25c-.42.1-.84.22-1.25.36a8.18,8.18,0,0,1-1.2.49A23.31,23.31,0,0,1,76.15,40,36.3,36.3,0,0,1,80.88,41Z"/><path class="cls-36" d="M75.52,37c0-.34-.06-.81-.52-.53a1.28,1.28,0,0,0-.39.47A5.2,5.2,0,0,1,72,39.11a15.93,15.93,0,0,1,1.55-.38A3.1,3.1,0,0,0,75,38.06,1.63,1.63,0,0,0,75.52,37Z"/><path class="cls-2" d="M71.21,37.68A14,14,0,0,1,75.94,36l0-.06a13.4,13.4,0,0,0-5.21,1.79A10.48,10.48,0,0,0,67.62,40,2.4,2.4,0,0,0,67,41.34a2.36,2.36,0,0,0,.63,1.31A10.48,10.48,0,0,0,70.7,45a13.4,13.4,0,0,0,5.21,1.79l0-.06A13.84,13.84,0,0,1,71.21,45a10.48,10.48,0,0,1-3.08-2.35,2.36,2.36,0,0,1-.63-1.31A2.4,2.4,0,0,1,68.13,40,10.48,10.48,0,0,1,71.21,37.68Z"/><path class="cls-37" d="M75.51,45.66c.27-.43-.35-.89-.65-1.07a14,14,0,0,0-3.79-1.45,7.27,7.27,0,0,1,2.33,1.42C73.72,44.81,75.16,46.23,75.51,45.66Z"/></g></g></svg>