<svg xmlns="http://www.w3.org/2000/svg" xmlns:xlink="http://www.w3.org/1999/xlink" viewBox="0 0 123.67 87.33"><defs><style>.cls-1{fill:url(#linear-gradient);}.cls-2{fill:#d37816;}.cls-19,.cls-3,.cls-31,.cls-33,.cls-34,.cls-35,.cls-36,.cls-37,.cls-4,.cls-40,.cls-5,.cls-6,.cls-8,.cls-9{fill:#fff;}.cls-29,.cls-3{opacity:0.42;}.cls-4{opacity:0.56;}.cls-5{opacity:0.2;}.cls-6{opacity:0.88;}.cls-7{fill:url(#linear-gradient-2);}.cls-8{opacity:0.29;}.cls-9{opacity:0.65;}.cls-10{fill:url(#linear-gradient-3);}.cls-11{fill:#7c430f;}.cls-12{fill:#563511;}.cls-13{fill:url(#linear-gradient-4);}.cls-14{fill:#b76615;}.cls-15{fill:url(#linear-gradient-5);}.cls-16{fill:url(#linear-gradient-6);}.cls-17,.cls-41{fill:#fff30b;}.cls-18{fill:#ef8216;opacity:0.77;}.cls-20{fill:#704621;}.cls-21{fill:#ffa608;}.cls-22{fill:url(#linear-gradient-7);}.cls-23{fill:#ff7d12;}.cls-24{fill:url(#linear-gradient-8);}.cls-25{fill:#ff5a08;}.cls-26{fill:url(#linear-gradient-9);}.cls-27{fill:#ff7610;}.cls-28{fill:#ffb600;}.cls-30{fill:#b21b0b;}.cls-31{opacity:0.3;}.cls-32{fill:url(#linear-gradient-10);}.cls-33{opacity:0.11;}.cls-34{opacity:0.18;}.cls-35{opacity:0.12;}.cls-36{opacity:0.52;}.cls-37{opacity:0.26;}.cls-38{fill:url(#linear-gradient-11);}.cls-39{opacity:0.59;}.cls-40{opacity:0.45;}.cls-41{opacity:0.48;}.cls-42{fill:url(#linear-gradient-12);}.cls-43{fill:url(#linear-gradient-13);}.cls-44{fill:url(#linear-gradient-14);}.cls-45{fill:url(#linear-gradient-15);}</style><linearGradient id="linear-gradient" x1="46.53" y1="10.56" x2="79.04" y2="29.08" gradientUnits="userSpaceOnUse"><stop offset="0.09" stop-color="#f4e203"/><stop offset="0.3" stop-color="#f4c005"/><stop offset="0.55" stop-color="#f49f07"/><stop offset="0.69" stop-color="#f49308"/></linearGradient><linearGradient id="linear-gradient-2" x1="-9.31" y1="30.78" x2="62.32" y2="75.85" gradientUnits="userSpaceOnUse"><stop offset="0.18" stop-color="#f4e203"/><stop offset="0.24" stop-color="#f4db03"/><stop offset="0.31" stop-color="#f4c905"/><stop offset="0.4" stop-color="#f4ab06"/><stop offset="0.46" stop-color="#f49308"/></linearGradient><linearGradient id="linear-gradient-3" x1="72.11" y1="31.8" x2="124.89" y2="65" xlink:href="#linear-gradient-2"/><linearGradient id="linear-gradient-4" x1="35.21" y1="35.47" x2="87.45" y2="79.67" gradientUnits="userSpaceOnUse"><stop offset="0.02" stop-color="#f4e203"/><stop offset="0.7" stop-color="#f49308"/></linearGradient><linearGradient id="linear-gradient-5" x1="46.14" y1="44.11" x2="85.73" y2="77.6" xlink:href="#linear-gradient-4"/><linearGradient id="linear-gradient-6" x1="87.66" y1="51.68" x2="87.66" y2="51.69" xlink:href="#linear-gradient-4"/><linearGradient id="linear-gradient-7" x1="61.93" y1="82.05" x2="61.64" y2="62.76" gradientUnits="userSpaceOnUse"><stop offset="0" stop-color="#ff7d12"/><stop offset="0.18" stop-color="#fb7811"/><stop offset="0.37" stop-color="#f06b0f"/><stop offset="0.58" stop-color="#de540b"/><stop offset="0.8" stop-color="#c43506"/><stop offset="0.82" stop-color="#c13105"/></linearGradient><linearGradient id="linear-gradient-8" x1="49.37" y1="38.52" x2="60.37" y2="53.74" gradientUnits="userSpaceOnUse"><stop offset="0" stop-color="#ffa608"/><stop offset="0.54" stop-color="#ff5f08"/><stop offset="0.57" stop-color="#ff5a08"/></linearGradient><linearGradient id="linear-gradient-9" x1="85.06" y1="63.72" x2="74.05" y2="59.25" gradientUnits="userSpaceOnUse"><stop offset="0" stop-color="#ff7d12"/><stop offset="0.77" stop-color="#c53606"/><stop offset="0.82" stop-color="#c13105"/></linearGradient><linearGradient id="linear-gradient-10" x1="61.82" y1="45.95" x2="80.22" y2="45.95" xlink:href="#linear-gradient-9"/><linearGradient id="linear-gradient-11" x1="59.69" y1="26.2" x2="66.84" y2="30.5" xlink:href="#linear-gradient-4"/><linearGradient id="linear-gradient-12" x1="30.73" y1="44.19" x2="41.89" y2="50.9" xlink:href="#linear-gradient-4"/><linearGradient id="linear-gradient-13" x1="85.68" y1="45.72" x2="93.93" y2="50.69" xlink:href="#linear-gradient-4"/><linearGradient id="linear-gradient-14" x1="42.07" y1="77.62" x2="50.07" y2="82.43" xlink:href="#linear-gradient-4"/><linearGradient id="linear-gradient-15" x1="74.84" y1="75.98" x2="86.61" y2="83.05" xlink:href="#linear-gradient-4"/></defs><g id="Layer_2" data-name="Layer 2"><g id="Layer_1-2" data-name="Layer 1"><path class="cls-1" d="M61,31.88a17.13,17.13,0,0,1,2-.16l.28.12c3.5,1.4,11.13,1.95,12.18-2.73,1.21-5.46,3.58-10.69,5-16.14.16-.67.23-1.55-.38-1.86a1.56,1.56,0,0,0-1,0,51.39,51.39,0,0,0-9.46,3.12A60.77,60.77,0,0,0,64.47,3.33,9.83,9.83,0,0,0,61.8.11L61.64,0a.91.91,0,0,0-.16.11,10,10,0,0,0-2.57,3.31,61.39,61.39,0,0,0-4.76,11.05,50.64,50.64,0,0,0-9.56-2.81,1.49,1.49,0,0,0-1,0c-.6.32-.51,1.2-.32,1.86,1.55,5.41,4.08,10.56,5.47,16C49.93,34.18,57.54,33.39,61,31.88Z"/><path class="cls-2" d="M74.45,22.24a3.48,3.48,0,0,1-.84,1c-.63.44-3.37,0-3.9-.56-3.48-3.82-7.79-3-12.16-2.6-3.62.34-6.21,5.56-9.45,7.19a20.32,20.32,0,0,1,.64,2.28c1.19,4.65,8.81,3.85,12.25,2.34a19.81,19.81,0,0,1,2-.16l.29.12c3.49,1.4,11.13,1.95,12.17-2.73,1.21-5.46,3.58-10.68,5-16.14.17-.67.23-1.55-.38-1.86a1.25,1.25,0,0,0-.79,0,4,4,0,0,1-.17,2.46A42.44,42.44,0,0,1,74.45,22.24Z"/><path class="cls-2" d="M69.71,14.17l-.12.05A60.77,60.77,0,0,0,64.47,3.33,13.5,13.5,0,0,0,62.76.94c.07.14.13.28.2.43A43.84,43.84,0,0,1,66.77,18,24.5,24.5,0,0,1,69.71,14.17Z"/><path class="cls-2" d="M55.47,19.6a41.41,41.41,0,0,1-1.28-5.25.56.56,0,0,0,0,.12,50.07,50.07,0,0,0-8.38-2.57,15.52,15.52,0,0,1,6.67,3.62A14.27,14.27,0,0,1,55.47,19.6Z"/><path class="cls-3" d="M62.35,7.27c.5-1.29.79-4.24-.5-5.06s-2.37,2.12-2.73,3.16c-1.75,5-2.72,10.7-1.48,15.87a15.36,15.36,0,0,1,1.92-9.78C60.48,10.05,61.72,8.9,62.35,7.27Z"/><path class="cls-4" d="M47.17,13.42c-.51-.61-1.89-.87-2.42-.17-.38.49-.16,1.2.07,1.77.89,2.18,1.83,4.33,2.8,6.47a12.65,12.65,0,0,0,1.54,2.7c-.46-1.37-.9-2.74-1.3-4.13a8.45,8.45,0,0,1-.49-3.37C47.51,15.65,48,14.35,47.17,13.42Z"/><path class="cls-5" d="M76.87,14.67c.57-.45,1.51-1.83.25-2.14a1.61,1.61,0,0,0-.84.08,14.14,14.14,0,0,0-8.66,7,9.32,9.32,0,0,1,4.45-2.75A16.38,16.38,0,0,0,76.87,14.67Z"/><path class="cls-6" d="M45.19,14.07a1.72,1.72,0,0,0,.17,1c.49,1.25,1,2.5,1.48,3.74a11.44,11.44,0,0,1-.49-4.54A.59.59,0,1,0,45.19,14.07Z"/><path class="cls-6" d="M59.14,10.19c.53-1,1.23-2,1.79-3a5.21,5.21,0,0,0,.8-3.59c-.45-1.58-1.38.56-1.58,1.15a25.81,25.81,0,0,0-1.33,5,.63.63,0,0,0,0,.36A.23.23,0,0,0,59.14,10.19Z"/><path class="cls-7" d="M.44,47C-.42,49.15.09,51.59,1,53.7A20.9,20.9,0,0,0,11.18,64.15C9,63.43,6.67,65.41,6.51,67.71,5.72,79,27,85.32,36.11,82.78c5.51-1.52,9.76-2.53,14.06-4.56C54.89,76,58.54,72,61.74,67.89c1.47-1.9,2.94-4.1,2.65-6.49a8.75,8.75,0,0,0-1.52-3.57A45.33,45.33,0,0,0,51.81,46a38.15,38.15,0,0,0-6.54-4.21c-2.48-1.14-5.19-1.57-7.65-2.91A34.58,34.58,0,0,1,30,33.09a64.14,64.14,0,0,1-10.5-14.51c-1.11-2-2.22-4-4-5.38S11,11.35,9.24,12.71c-1.62,1.24-2,3.52-1.94,5.55A20.14,20.14,0,0,0,10,27.74c-2.36-1.54-5.79-.64-7.53,1.58a8.87,8.87,0,0,0-1.09,8,18.54,18.54,0,0,0,4.59,7C3.9,43.37,1.29,44.88.44,47Z"/><path class="cls-2" d="M11.18,64.15,20.29,66c3.78.78,7.76,1.55,11.45.41a40.26,40.26,0,0,1-23.49-7.9,61.63,61.63,0,0,1-6.84-6.09C1,52,.57,51.59.18,51.13A13.47,13.47,0,0,0,1,53.7,20.9,20.9,0,0,0,11.18,64.15Z"/><path class="cls-2" d="M11.2,11.94a3.86,3.86,0,0,0-2,.78c-1.62,1.23-2,3.51-1.94,5.54a20.27,20.27,0,0,0,2.54,9.19c.46.61.89,1.24,1.31,1.87A62.77,62.77,0,0,0,22.48,41.8c2.31,1.94,4.91,3.78,7.91,4.16A42.76,42.76,0,0,1,10,19c-.49-2.05-.75-4.19.43-6A8.46,8.46,0,0,1,11.2,11.94Z"/><path class="cls-2" d="M36.11,82.78l4.19-1.14c.46-.75-.4-4.39-.87-5.11C26.58,82.39,9.11,77.88,6.5,68.15,6.27,79.19,27.08,85.29,36.11,82.78Z"/><path class="cls-2" d="M21.08,50.93c2.89,1.6,6,3.42,9.25,2.88A44.15,44.15,0,0,1,3.7,34.08a14.09,14.09,0,0,1-1.76-4,9.22,9.22,0,0,0-.56,7.25,18.24,18.24,0,0,0,4.41,6.81A91.49,91.49,0,0,1,21.08,50.93Z"/><path class="cls-2" d="M11.18,64.15a3.16,3.16,0,0,0-.65-.14Z"/><path class="cls-3" d="M26.55,38.7a6.59,6.59,0,0,0-1.72-3.15A27.77,27.77,0,0,1,20,26c-.63-2.2-1-4.48-1.8-6.62-.69-1.79-2.57-5.22-4.78-5.5-3.63-.45-1.85,5-1.12,6.5a96.74,96.74,0,0,0,6.4,11.81C20.6,35.08,23.12,38,26.55,38.7Z"/><path class="cls-3" d="M23.06,47.16a28.66,28.66,0,0,1-10.27-7.75A18.21,18.21,0,0,1,10,35c-.69-1.58-1-3.74-2-5.12a1.46,1.46,0,0,0-2.71.61,4.35,4.35,0,0,0,.53,2.91C9,40.27,16,44.51,23.06,47.16Z"/><path class="cls-3" d="M23.92,58.88c-2.59-1.13-5.36-1.78-8-2.8A13.87,13.87,0,0,1,9.16,51.2c-.61-.94-1-2-1.71-2.88C6.6,47.17,3.17,45.13,3.11,48c0,2.36,1.9,4.26,3.85,5.61A30,30,0,0,0,23.92,58.88Z"/><path class="cls-8" d="M29,74.33a52.41,52.41,0,0,1-8.67-2,17.71,17.71,0,0,1-7.46-4.71c-1-1.1-3.05-2.78-3.46,0A2.9,2.9,0,0,0,10.3,70a7.77,7.77,0,0,0,2.23,1.42C17.65,73.78,23.39,75.23,29,74.33Z"/><path class="cls-9" d="M19.72,30.89q-1.09-3.54-1.92-7.17c-.56-2.46-1.06-5.07-2.47-7.22-.47-.72-1.69-2.58-2.56-1.35s.55,2.62,1.18,3.47a18.34,18.34,0,0,1,1.46,2.5A106.11,106.11,0,0,1,19.72,30.89Z"/><path class="cls-10" d="M114.43,12.71c-1.78-1.36-4.47-.88-6.26.49a16.71,16.71,0,0,0-4,5.38A64.18,64.18,0,0,1,93.66,33.09a34.29,34.29,0,0,1-7.6,5.74c-2.47,1.34-5.18,1.77-7.66,2.91A38.94,38.94,0,0,0,71.86,46a45.3,45.3,0,0,0-11,11.88,8.91,8.91,0,0,0-1.53,3.57C59,63.79,60.47,66,61.94,67.89,65.14,72,68.79,76,73.51,78.22c4.29,2,8.55,3,14,4.56C96.71,85.32,118,79,117.16,67.71c-.16-2.3-2.48-4.28-4.66-3.56A20.92,20.92,0,0,0,122.68,53.7c.9-2.11,1.41-4.55.56-6.68s-3.46-3.65-5.54-2.66a18.42,18.42,0,0,0,4.59-7,8.81,8.81,0,0,0-1.09-8c-1.74-2.22-5.17-3.12-7.52-1.58a20.24,20.24,0,0,0,2.69-9.48C116.43,16.23,116.05,14,114.43,12.71Z"/><path class="cls-2" d="M112.5,64.15A20.92,20.92,0,0,0,122.68,53.7a12.79,12.79,0,0,0,.81-2.57c-.39.46-.81.89-1.23,1.32a59.88,59.88,0,0,1-6.84,6.09,40.26,40.26,0,0,1-23.49,7.9c3.69,1.14,7.67.37,11.46-.41Z"/><path class="cls-2" d="M93.29,46c3-.38,5.59-2.22,7.91-4.16a63,63,0,0,0,11.32-12.48c.43-.63.85-1.26,1.32-1.87a20.13,20.13,0,0,0,2.53-9.19c.06-2-.32-4.31-1.94-5.54a3.83,3.83,0,0,0-2-.78,7.46,7.46,0,0,1,.78,1c1.19,1.85.92,4,.44,6A42.79,42.79,0,0,1,93.29,46Z"/><path class="cls-2" d="M117.18,68.15c-2.61,9.73-20.08,14.24-32.94,8.38-.47.72-1.32,4.36-.87,5.11l4.19,1.14C96.59,85.29,117.4,79.19,117.18,68.15Z"/><path class="cls-2" d="M117.88,44.17a18,18,0,0,0,4.41-6.81,9.13,9.13,0,0,0-.56-7.25,13.81,13.81,0,0,1-1.76,4A44.09,44.09,0,0,1,93.34,53.81c3.25.54,6.37-1.28,9.25-2.88A91.85,91.85,0,0,1,117.88,44.17Z"/><path class="cls-2" d="M113.15,64a2.9,2.9,0,0,0-.65.14Z"/><path class="cls-3" d="M111.41,20.35c.73-1.5,2.51-7-1.12-6.5-2.2.28-4.08,3.71-4.77,5.5-.82,2.14-1.18,4.42-1.8,6.62a28.12,28.12,0,0,1-4.87,9.58,6.61,6.61,0,0,0-1.73,3.15c3.43-.74,5.95-3.62,7.9-6.54A98.06,98.06,0,0,0,111.41,20.35Z"/><path class="cls-3" d="M118.45,30.52a1.47,1.47,0,0,0-2.72-.61c-1.07,1.38-1.34,3.54-2,5.12a17.87,17.87,0,0,1-2.81,4.38,28.61,28.61,0,0,1-10.28,7.75c7.07-2.65,14.08-6.89,17.3-13.73A4.41,4.41,0,0,0,118.45,30.52Z"/><path class="cls-3" d="M120.56,48c0-2.88-3.48-.84-4.34.31-.66.9-1.1,1.94-1.71,2.88a13.82,13.82,0,0,1-6.76,4.88c-2.63,1-5.41,1.67-8,2.8a30,30,0,0,0,17-5.26C118.66,52.27,120.61,50.37,120.56,48Z"/><path class="cls-8" d="M113.37,70a2.87,2.87,0,0,0,.92-2.38c-.4-2.74-2.48-1.06-3.45,0a17.83,17.83,0,0,1-7.46,4.71,52.52,52.52,0,0,1-8.68,2c5.58.9,11.32-.55,16.44-3A7.63,7.63,0,0,0,113.37,70Z"/><path class="cls-9" d="M110.91,15.15c-.88-1.23-2.09.63-2.56,1.35-1.41,2.15-1.92,4.76-2.48,7.22s-1.19,4.81-1.91,7.17a101,101,0,0,1,4.31-9.77,17.3,17.3,0,0,1,1.45-2.5C110.35,17.77,111.72,16.29,110.91,15.15Z"/><polygon class="cls-11" points="75.93 86.03 85.22 79.13 94.33 51.43 90.54 41.9 66.17 24.32 57.98 23.56 32.08 41.9 29.18 50.54 38.25 80.11 46.7 85.29 75.93 86.03"/><polygon class="cls-12" points="30.46 45.76 29.18 50.54 38.85 78.88 46.7 85.29 76.43 85.29 85.22 79.13 94.33 51.43 90.02 40.73 66.17 23.56 55.78 23.56 32.08 41.9 31.13 44.72 36.7 46.88 35.55 42.44 58.02 27.01 66.28 27.01 88.4 43.37 90.53 51.31 82.99 76.11 76.09 81.79 48.28 82.54 40.97 77.25 32.87 50.21 34.73 46.81 30.46 45.76"/><path class="cls-13" d="M77.53,87.33l8.93-6.48,9.71-29.92-3.4-10.49L67.32,22,56.4,22,31,40.49,27.5,51,37.22,80.9l8.86,6.43ZM30.94,51l2.8-8.47L57.47,25.27l8.79,0L90,42.46l2.74,8.47L83.67,78.82l-7.2,5.24H47.14L40,78.88Z"/><polygon class="cls-14" points="76.38 87.33 77.53 87.33 86.46 80.85 96.17 50.93 92.77 40.44 67.32 21.95 66.17 21.95 91.61 40.44 95.02 50.93 85.3 80.85 76.38 87.33"/><polygon class="cls-14" points="57.47 25.27 65.12 25.23 65.11 25.23 56.31 25.27 32.58 42.52 29.79 50.99 38.85 78.88 45.99 84.06 47.14 84.06 40 78.88 30.94 50.99 33.74 42.52 57.47 25.27"/><path class="cls-14" d="M44.58,38.33,38.19,43a3.79,3.79,0,0,0-1.38,1.89L35,50.41a3.84,3.84,0,0,0,0,2.37L38.5,63.62,42,74.47a3.9,3.9,0,0,0,1.39,1.91l4.65,3.37a3.84,3.84,0,0,0,2.24.73H73.12a3.84,3.84,0,0,0,2.24-.73l4.71-3.42a3.8,3.8,0,0,0,1.38-1.91L85,63.57l3.9-12h0l-2.56-7.9-.08.09.08-.09L76.09,36.22l-9.22-6.7a3.83,3.83,0,0,0-2.26-.73l-5.73,0a3.84,3.84,0,0,0-2.22.72L49.21,35h0Z"/><polygon class="cls-15" points="45.35 39.06 38.3 44.19 35.81 51.73 39.54 63.22 43.28 74.7 49.63 79.31 73.79 79.31 80.2 74.66 83.93 63.17 87.66 51.69 87.66 51.69 87.66 51.69 87.66 51.69 87.66 51.69 87.66 51.69 85.22 44.15 85.14 44.23 85.22 44.15 75.44 37.05 65.67 29.95 57.84 29.99 49.78 35.85 49.78 35.85 45.35 39.06"/><polygon class="cls-16" points="87.66 51.69 87.66 51.69 87.66 51.69 87.66 51.69"/><polygon class="cls-17" points="58.58 34.7 57.84 29.99 38.3 44.19 42.78 46.19 58.58 34.7"/><polygon class="cls-2" points="87.66 51.69 82.71 52.25 76.67 70.83 71.49 74.59 73.79 79.31 80.2 74.66 87.66 51.69"/><polygon class="cls-18" points="65.67 29.95 64.92 34.67 80.73 46.15 85.22 44.15 65.67 29.95"/><polygon class="cls-18" points="51.95 74.59 49.63 79.31 73.79 79.31 71.49 74.59 51.95 74.59"/><path class="cls-18" d="M51.7,74.41l.25.18A2.38,2.38,0,0,0,51.7,74.41Z"/><path class="cls-18" d="M48,73.94a5.65,5.65,0,0,1,3.69.47l-4.89-3.55L43.28,74.7l.91.66S45.11,74.31,48,73.94Z"/><polygon class="cls-19" points="58.58 34.7 57.84 29.99 57.41 34.67 42.82 45.04 38.3 44.19 42.78 46.19 58.58 34.7"/><polygon class="cls-19" points="41.35 50.52 35.81 51.73 40.77 52.28 41.35 50.52"/><polygon class="cls-20" points="83.29 52.2 83.29 52.2 83.29 52.2 83.29 52.2"/><polygon class="cls-20" points="48.28 41.75 42.44 46 40.38 52.23 43.47 61.74 46.56 71.24 51.82 75.06 71.81 75.06 77.11 71.21 80.2 61.7 83.29 52.2 83.29 52.2 83.29 52.2 83.29 52.2 83.29 52.2 83.29 52.2 81.27 45.96 81.2 46.03 81.27 45.96 73.18 40.09 65.09 34.21 58.61 34.25 51.94 39.09 51.94 39.09 48.28 41.75"/><polygon class="cls-21" points="76.13 51.07 61.82 40.66 47.5 51.07 52.97 67.9 70.67 67.9 76.13 51.07"/><polygon class="cls-22" points="70.67 67.9 61.82 67.9 52.97 67.9 52.17 74.38 61.82 74.38 71.47 74.38 70.67 67.9"/><polygon class="cls-23" points="53.01 67.93 50.28 59.52 47.54 51.1 41.13 52.35 44.11 61.52 47.09 70.7 53.01 67.93"/><polygon class="cls-24" points="61.82 40.66 58.72 34.98 50.92 40.65 43.11 46.33 47.57 51.1 54.73 45.9 61.82 40.66"/><polygon class="cls-25" points="80.59 46.29 72.79 40.62 64.98 34.95 61.82 40.67 68.97 45.87 76.13 51.07 80.59 46.29"/><polygon class="cls-26" points="82.55 52.31 76.13 51.07 73.4 59.48 70.66 67.9 76.59 70.67 79.57 61.49 82.55 52.31"/><polygon class="cls-25" points="41.13 52.35 47.57 51.1 43.11 46.33 41.13 52.35"/><polygon class="cls-21" points="47.09 70.7 52.17 74.38 53.01 67.93 47.09 70.7"/><polygon class="cls-27" points="70.66 67.9 71.47 74.38 76.59 70.67 70.66 67.9"/><polygon class="cls-21" points="58.72 34.98 61.82 40.67 64.98 34.95 58.72 34.98"/><polygon class="cls-23" points="76.13 51.07 75.83 51.07 82.55 52.31 80.59 46.29 76.13 51.07"/><path class="cls-28" d="M57.43,43.91l-9.86,7.16L53,67.9h17.7l2.45-7.76a10.61,10.61,0,0,1-9,1.3,13,13,0,0,1-6.36-4.33,11.07,11.07,0,0,1-2.36-7.27A12.55,12.55,0,0,1,57.43,43.91Z"/><g class="cls-29"><path class="cls-19" d="M67.63,45.05,63.42,42c-4.85,4.37-9.62,8.56-14.59,12.8l.54,1.37a96.06,96.06,0,0,1,16.22-10Z"/><path class="cls-19" d="M76.13,51.22,71,47.51c-6.71,5-13.13,10-19.48,15.44l1.17,3.53a171.8,171.8,0,0,1,21-8Z"/></g><polygon class="cls-19" points="53.69 67.05 47.54 51.1 53.04 67.9 70.74 67.9 53.69 67.05"/><polygon class="cls-30" points="76.13 51.22 70.74 67.9 77.05 52.06 82.55 52.31 76.13 51.22"/><polygon class="cls-30" points="70.74 67.9 53.04 67.9 69.77 68.76 71.47 74.38 70.74 67.9"/><path class="cls-31" d="M46.05,62.42a4.8,4.8,0,0,1-1.24,1.14l2.31,7.11L53,67.9l-2.73-8.42-2.78-8.34-1,.16a3.38,3.38,0,0,0,.27,1.29,12.22,12.22,0,0,1,.56,6.64A7.68,7.68,0,0,1,46.05,62.42Z"/><polygon class="cls-19" points="47.12 70.67 53.53 67.67 52.94 66.38 47.12 70.67"/><path class="cls-19" d="M52.17,74.38l1-7.14-.89.48C52.28,67.8,52.17,74.38,52.17,74.38Z"/><polygon class="cls-32" points="76.13 49.88 61.82 40.67 76.13 51.22 80.22 46.69 76.13 49.88"/><polygon class="cls-19" points="61.82 40.67 59.14 35.74 60.94 40.37 47.98 50.77 61.82 40.67"/><path class="cls-33" d="M76.59,70.54l3-9.18,2.93-9c-2.59,1.19-4.37,5.07-5.2,7.33a23.22,23.22,0,0,0-1.37,6.43,15.19,15.19,0,0,0,0,2.78,9.56,9.56,0,0,0,.29,1.49Z"/><path class="cls-34" d="M48,67.81a7.21,7.21,0,0,1,3.74,2.9,13.78,13.78,0,0,1,1.87,4.41A16,16,0,0,1,55,71a7.26,7.26,0,0,1,3-3.12,8,8,0,0,1-3.52-3.28A13.87,13.87,0,0,1,52.87,60C53,61,51.55,64.4,51,65.3A6.89,6.89,0,0,1,48,67.81Z"/><path class="cls-35" d="M46.7,68a9.22,9.22,0,0,1,4.75,3.58,17.28,17.28,0,0,1,2.38,5.46A19.46,19.46,0,0,1,55.57,72a9.07,9.07,0,0,1,3.76-3.85,10.08,10.08,0,0,1-4.46-4.06,16.63,16.63,0,0,1-2-5.67c.22,1.17-1.67,5.43-2.43,6.54A8.59,8.59,0,0,1,46.7,68Z"/><path class="cls-19" d="M51.65,67.63a1.92,1.92,0,0,1,1,.8,3.77,3.77,0,0,1,.52,1.2,4.67,4.67,0,0,1,.37-1.13,2.07,2.07,0,0,1,.81-.85,2.19,2.19,0,0,1-1-.9A3.66,3.66,0,0,1,53,65.5,4,4,0,0,1,52.45,67,1.89,1.89,0,0,1,51.65,67.63Z"/><path class="cls-36" d="M50.24,67.7a4,4,0,0,1,2.09,1.62,8,8,0,0,1,1,2.46,8.9,8.9,0,0,1,.77-2.3,4.06,4.06,0,0,1,1.64-1.74,4.47,4.47,0,0,1-2-1.83,7.66,7.66,0,0,1-.9-2.56,8,8,0,0,1-1.06,2.95A3.75,3.75,0,0,1,50.24,67.7Z"/><path class="cls-37" d="M43.11,46.33s4.44,4.88,4.42,4.81-2-2.84-3.06-4.36l7.81-7.12Z"/><path class="cls-38" d="M61.14,33.5a1.26,1.26,0,0,0,2,0,8.26,8.26,0,0,0,1.78-2.42A10.7,10.7,0,0,0,66.26,27a1.93,1.93,0,0,0-1.75,0,9.9,9.9,0,0,0-1.72-4.82,4.27,4.27,0,0,0-.66-1,4.6,4.6,0,0,0-.66,1A10,10,0,0,0,59.75,27,1.93,1.93,0,0,0,58,27a10.71,10.71,0,0,0,1.36,4.07A8.09,8.09,0,0,0,61.14,33.5Z"/><path class="cls-2" d="M64.55,27.14l.09-.17-.13.05a9.9,9.9,0,0,0-1.72-4.82,3.8,3.8,0,0,0-.66-1c0,.13.11.47.11.63,0,1.23.19,2.51.21,3.75s0,2.64,0,4c0,.74-.05,1.47-.08,2.21a11.83,11.83,0,0,1-.11,2.15A39.15,39.15,0,0,1,64.55,27.14Z"/><path class="cls-2" d="M64.91,31.09A10.81,10.81,0,0,0,66.26,27L66.13,27a2.47,2.47,0,0,1-.11.36,17.88,17.88,0,0,1-3.44,6.19,5.19,5.19,0,0,0-.43.49,1.86,1.86,0,0,0,1-.49A8.35,8.35,0,0,0,64.91,31.09Z"/><g class="cls-39"><path class="cls-2" d="M61.14,33.47a1.76,1.76,0,0,0,1,.49l.17,0a8.78,8.78,0,0,1-2.65-3.16A11.89,11.89,0,0,1,58.05,27l0,0a10.76,10.76,0,0,0,1.36,4.08A8.17,8.17,0,0,0,61.14,33.47Z"/><path class="cls-2" d="M61.29,22.57a6.5,6.5,0,0,0,.38-.75c-.06.12-.13.24-.2.36A9.93,9.93,0,0,0,59.75,27h0a2.46,2.46,0,0,1,.38.57l.44.8a2.34,2.34,0,0,1-.1-.75c0-.27,0-.53,0-.8a10,10,0,0,1,.1-1.55A10.84,10.84,0,0,1,61.29,22.57Z"/></g><path class="cls-14" d="M62.13,21.18s.16,12.39.17,12.32.72-4.88.72-6.75A34,34,0,0,0,62.13,21.18Z"/><path class="cls-40" d="M61.87,23.12a.31.31,0,0,0,0-.19c-.13-.37-.42.26-.45.34a9.44,9.44,0,0,0-.32.89A9.83,9.83,0,0,0,60.73,26a10.65,10.65,0,0,0,.19,3.69,8.21,8.21,0,0,0,.27,1,6.91,6.91,0,0,1,.37.95,19,19,0,0,1-.4-4.74A29.1,29.1,0,0,1,61.87,23.12Z"/><path class="cls-40" d="M58.85,28a4,4,0,0,1,1.61,2c-.13-.4-.19-.81-.28-1.22a2.56,2.56,0,0,0-.52-1.12,1.22,1.22,0,0,0-.77-.41c-.25,0-.61.05-.4.41A1.08,1.08,0,0,0,58.85,28Z"/><path class="cls-14" d="M61.16,33.5a1.26,1.26,0,0,0,2,0,8.26,8.26,0,0,0,1.78-2.42A10.89,10.89,0,0,0,66.29,27l-.05,0a11.25,11.25,0,0,1-1.31,3.7,8.35,8.35,0,0,1-1.78,2.41,1.26,1.26,0,0,1-2,0,8.17,8.17,0,0,1-1.78-2.41A11.25,11.25,0,0,1,58.07,27l0,0a10.71,10.71,0,0,0,1.36,4.07A8.09,8.09,0,0,0,61.16,33.5Z"/><path class="cls-41" d="M65.43,27.32c-.33-.21-.68.28-.82.51a11.69,11.69,0,0,0-1.1,3A6,6,0,0,1,64.59,29C64.78,28.72,65.86,27.6,65.43,27.32Z"/><path class="cls-42" d="M29.9,44.12a4.08,4.08,0,0,0-1.18.29,4.22,4.22,0,0,0,.75,1,10,10,0,0,0,4,3.22,2,2,0,0,0-.59,1.65,10.94,10.94,0,0,0,4.3.05A8.33,8.33,0,0,0,40,49.4a1.8,1.8,0,0,0,.79-.78,1.78,1.78,0,0,0-.13-1.1A8.41,8.41,0,0,0,39,45a10.86,10.86,0,0,0-3.41-2.62A2,2,0,0,0,35,44.08,9.82,9.82,0,0,0,29.9,44.12Z"/><path class="cls-2" d="M29.9,44.12a3.65,3.65,0,0,0-1.18.29c.11.08.47.05.62.1,1.16.44,2.44.65,3.62,1s2.5.86,3.74,1.34l2,.8a11.21,11.21,0,0,1,2,.81,40,40,0,0,1-5.6-4.41L35,44a.62.62,0,0,0,0,.13A9.85,9.85,0,0,0,29.9,44.12Z"/><path class="cls-2" d="M40.5,48a4.59,4.59,0,0,0,.32.57,1.79,1.79,0,0,0-.14-1.08A8.23,8.23,0,0,0,39,45a10.86,10.86,0,0,0-3.41-2.62l-.09.11a2,2,0,0,1,.29.22A17.83,17.83,0,0,1,40.5,48Z"/><g class="cls-39"><path class="cls-2" d="M37.14,50.28A8.34,8.34,0,0,0,40,49.39a1.8,1.8,0,0,0,.79-.78.47.47,0,0,0,0-.17A8.84,8.84,0,0,1,37,49.91a12.24,12.24,0,0,1-4.13.26v0A10.94,10.94,0,0,0,37.14,50.28Z"/><path class="cls-2" d="M33.41,48.56h0a2.78,2.78,0,0,1,.66-.17l.9-.15a2.46,2.46,0,0,1-.74-.16c-.26-.06-.51-.14-.77-.22a10.59,10.59,0,0,1-1.43-.61,10.38,10.38,0,0,1-2.29-1.58,8.12,8.12,0,0,0-.59-.61,2.61,2.61,0,0,1,.27.31A10,10,0,0,0,33.41,48.56Z"/></g><path class="cls-14" d="M34.27,45.4a34.23,34.23,0,0,0-5.55-1L40.41,48.3C40.34,48.27,36,46,34.27,45.4Z"/><path class="cls-40" d="M31.19,46.35a10.51,10.51,0,0,0,1.58.95,10.63,10.63,0,0,0,3.54,1c.33,0,.67,0,1,.06a6.83,6.83,0,0,1,1,0,18.71,18.71,0,0,1-4.61-1.18,29.25,29.25,0,0,1-3.25-1.89.45.45,0,0,0-.18-.07c-.39,0,.11.48.17.54C30.7,46,30.94,46.16,31.19,46.35Z"/><path class="cls-40" d="M33.7,50a1,1,0,0,0,.41-.24,4,4,0,0,1,2.44-.85c-.41,0-.83-.09-1.24-.14a2.56,2.56,0,0,0-1.23.12,1.21,1.21,0,0,0-.64.6C33.34,49.72,33.29,50.08,33.7,50Z"/><path class="cls-14" d="M39.66,49.25a8.38,8.38,0,0,1-2.87.88,11.21,11.21,0,0,1-3.92,0v.05a11.13,11.13,0,0,0,4.3.06A8.56,8.56,0,0,0,40,49.38a1.8,1.8,0,0,0,.79-.78,1.86,1.86,0,0,0-.13-1.1A8.45,8.45,0,0,0,39,45a10.82,10.82,0,0,0-3.4-2.62l0,0a11.25,11.25,0,0,1,3.07,2.45,8.41,8.41,0,0,1,1.69,2.48,1.27,1.27,0,0,1-.65,1.88Z"/><path class="cls-41" d="M38.25,46.26a5.83,5.83,0,0,1-1.36-1.61c-.18-.27-.89-1.65-1.29-1.33s0,.72.22.93A11.22,11.22,0,0,0,38.25,46.26Z"/><path class="cls-43" d="M88.37,43.31a10.84,10.84,0,0,0-3.58,2.38A8.14,8.14,0,0,0,82.92,48a1.8,1.8,0,0,0-.21,1.09,1.77,1.77,0,0,0,.73.84,8.43,8.43,0,0,0,2.79,1.09,10.8,10.8,0,0,0,4.29.24,2,2,0,0,0-.46-1.69,9.86,9.86,0,0,0,4.2-2.92,4.2,4.2,0,0,0,.81-.9,4.7,4.7,0,0,0-1.15-.37,10,10,0,0,0-5.1-.4A2,2,0,0,0,88.37,43.31Z"/><path class="cls-2" d="M94.26,46.69c.22-.24.7-.59.81-.91-.13,0-.42.23-.57.27-1.21.28-2.38.83-3.57,1.18s-2.55.71-3.84,1l-2.15.49a11.12,11.12,0,0,1-2.1.46,40.15,40.15,0,0,1,7.11.48l.19,0-.08-.1A10.07,10.07,0,0,0,94.26,46.69Z"/><path class="cls-2" d="M86.23,51.05a10.79,10.79,0,0,0,4.29.24.59.59,0,0,0,0-.14,1.53,1.53,0,0,1-.37,0,17.83,17.83,0,0,1-6.88-1.7,4.48,4.48,0,0,0-.58-.29,1.85,1.85,0,0,0,.73.82A8.43,8.43,0,0,0,86.23,51.05Z"/><g class="cls-39"><path class="cls-2" d="M85.16,45.89a12.15,12.15,0,0,1,3.26-2.54l0,0a10.81,10.81,0,0,0-3.58,2.37A8.53,8.53,0,0,0,82.94,48a1.8,1.8,0,0,0-.21,1.09,1,1,0,0,0,.07.15A8.72,8.72,0,0,1,85.16,45.89Z"/><path class="cls-2" d="M90.72,45.32a10.42,10.42,0,0,1,2.79,0c.21,0,.54.15.82.17l-.39-.1A9.84,9.84,0,0,0,88.85,45h0a2.43,2.43,0,0,1-.44.52l-.67.63a2.47,2.47,0,0,1,.71-.29c.25-.09.5-.17.76-.24A10,10,0,0,1,90.72,45.32Z"/></g><path class="cls-14" d="M83.22,49.16c.08,0,4.9-.58,6.7-1.07a33.49,33.49,0,0,0,5.15-2.31Z"/><path class="cls-40" d="M93.31,46c.33-.21-.36-.33-.44-.34-.31,0-.62-.07-.94-.08a11.23,11.23,0,0,0-1.83.1,10.89,10.89,0,0,0-3.51,1.15,7.69,7.69,0,0,0-.87.52,7.7,7.7,0,0,1-.81.6,18.87,18.87,0,0,1,4.47-1.63A29.29,29.29,0,0,1,93.13,46,.37.37,0,0,0,93.31,46Z"/><path class="cls-40" d="M88.11,45.11a1.21,1.21,0,0,0,.2-.86c0-.25-.21-.57-.5-.28a1,1,0,0,0-.21.43,3.93,3.93,0,0,1-1.53,2.08c.34-.23.73-.39,1.1-.59A2.56,2.56,0,0,0,88.11,45.11Z"/><path class="cls-14" d="M85.18,45.6a11.36,11.36,0,0,1,3.22-2.23l0,0a10.84,10.84,0,0,0-3.58,2.38,8.14,8.14,0,0,0-1.86,2.34,1.81,1.81,0,0,0-.22,1.09,1.89,1.89,0,0,0,.73.84,8.26,8.26,0,0,0,2.8,1.08,10.6,10.6,0,0,0,4.29.25.11.11,0,0,1,0-.05,11.12,11.12,0,0,1-3.92-.3,8.22,8.22,0,0,1-2.79-1.09A1.75,1.75,0,0,1,83.1,49,1.8,1.8,0,0,1,83.31,48,8.18,8.18,0,0,1,85.18,45.6Z"/><path class="cls-41" d="M90,50.56c.12-.37-.44-.57-.7-.65a11.86,11.86,0,0,0-3.15-.29,5.81,5.81,0,0,1,2,.57C88.48,50.31,89.85,51.05,90,50.56Z"/><path class="cls-44" d="M40.87,85a4.79,4.79,0,0,0,1.24-.48,10.78,10.78,0,0,0,4.61-3.16,2.18,2.18,0,0,0,1.55,1.13,12,12,0,0,0,1.41-4.48,9.23,9.23,0,0,0,0-3.28,2,2,0,0,0-.57-1.07,2,2,0,0,0-1.19-.2,9,9,0,0,0-3.13,1A12,12,0,0,0,41,77.23a2.14,2.14,0,0,0,1.56,1.12,10.83,10.83,0,0,0-1.57,5.37A5,5,0,0,0,40.87,85Z"/><path class="cls-2" d="M46.72,81.4l.08.12,0-.21a43.76,43.76,0,0,1,2.26-7.45,11.25,11.25,0,0,1-1.28,2c-.44.67-.88,1.34-1.33,2-.81,1.2-1.64,2.38-2.52,3.53s-1.83,2.07-2.59,3.19c-.1.14-.45.34-.5.48a4,4,0,0,0,1.24-.48A10.81,10.81,0,0,0,46.72,81.4Z"/><path class="cls-2" d="M48.11,82.49l.16,0a11.82,11.82,0,0,0,1.41-4.48,9.23,9.23,0,0,0,0-3.28,2,2,0,0,0-.55-1,5.36,5.36,0,0,0,.06.7c.39,2.55-.27,5.16-.92,7.69A1.71,1.71,0,0,1,48.11,82.49Z"/><g class="cls-39"><path class="cls-2" d="M49.2,73.85l-.14-.13a2,2,0,0,0-1.19-.2,9.21,9.21,0,0,0-3.12,1,12.07,12.07,0,0,0-3.82,2.74l0,0A13.07,13.07,0,0,1,44.83,75,9.6,9.6,0,0,1,49.2,73.85Z"/><path class="cls-2" d="M43,79c.18-.24.36-.46.55-.68a2.55,2.55,0,0,1,.57-.61l-.91.43a2.57,2.57,0,0,1-.7.26h0a10.84,10.84,0,0,0-1.55,5.36c0,.14,0,.29,0,.44.09-.3.09-.68.14-.91a12.07,12.07,0,0,1,1.06-2.85A11.28,11.28,0,0,1,43,79Z"/></g><path class="cls-14" d="M48.92,74.24c0-.07-8.05,10.8-8.05,10.8a36.71,36.71,0,0,0,4.36-4.36C46.43,79,48.87,74.31,48.92,74.24Z"/><path class="cls-40" d="M41.77,83.33a.41.41,0,0,0,.12-.17,30.83,30.83,0,0,1,1.73-3.73A20.24,20.24,0,0,1,47,75.49a9.85,9.85,0,0,1-.93.6,9.66,9.66,0,0,0-.87.68,11.66,11.66,0,0,0-2.53,3.15,11.07,11.07,0,0,0-.81,1.83,9.25,9.25,0,0,0-.29,1C41.57,82.83,41.42,83.57,41.77,83.33Z"/><path class="cls-40" d="M42.88,77.67A2.84,2.84,0,0,0,44.05,77a12.52,12.52,0,0,1,1-.9,4.36,4.36,0,0,1-2.72.77.91.91,0,0,0-.52,0c-.41.18-.14.47.09.61A1.31,1.31,0,0,0,42.88,77.67Z"/><path class="cls-14" d="M48.23,82.53h.05a11.6,11.6,0,0,0,1.41-4.48,8.74,8.74,0,0,0,0-3.27,1.91,1.91,0,0,0-.56-1.07,2,2,0,0,0-1.2-.21,9,9,0,0,0-3.12,1A11.73,11.73,0,0,0,41,77.25a.08.08,0,0,1,0,0,12.29,12.29,0,0,1,3.54-2.43,9,9,0,0,1,3.12-1,1.38,1.38,0,0,1,1.76,1.28,9.23,9.23,0,0,1,0,3.28A12.18,12.18,0,0,1,48.23,82.53Z"/><path class="cls-41" d="M47.33,80.74c0,.3,0,1,.39,1s.33-1.65.32-2a6.37,6.37,0,0,1,.22-2.3A12.65,12.65,0,0,0,47.33,80.74Z"/><path class="cls-45" d="M83,76.08a11.81,11.81,0,0,0-4-2.5,9,9,0,0,0-3.18-.8,1.94,1.94,0,0,0-1.18.28,2,2,0,0,0-.5,1.1,8.93,8.93,0,0,0,.18,3.27A11.72,11.72,0,0,0,76,81.82a2.12,2.12,0,0,0,1.47-1.23,10.82,10.82,0,0,0,4.8,2.87,4.86,4.86,0,0,0,1.26.41,4.82,4.82,0,0,0-.15-1.32,10.71,10.71,0,0,0-1.89-5.26A2.13,2.13,0,0,0,83,76.08Z"/><path class="cls-2" d="M81.46,77.16a42.89,42.89,0,0,1-6.64-4.08,11.39,11.39,0,0,1,1.58,1.74L78,76.62c.95,1.09,1.88,2.19,2.78,3.33s1.53,2.3,2.42,3.32c.11.13.22.51.34.6a4,4,0,0,0-.15-1.32,10.88,10.88,0,0,0-1.89-5.27l.14,0Z"/><path class="cls-2" d="M82.92,76.22l.08-.14a11.76,11.76,0,0,0-4-2.5,8.82,8.82,0,0,0-3.18-.8,2,2,0,0,0-1.16.26,6,6,0,0,0,.7.12c2.57.27,4.93,1.57,7.2,2.84A1.52,1.52,0,0,1,82.92,76.22Z"/><g class="cls-39"><path class="cls-2" d="M74.68,73.07a2,2,0,0,0-.5,1.11,9.14,9.14,0,0,0,.17,3.27A11.91,11.91,0,0,0,76,81.84l0,0a13.32,13.32,0,0,1-1.3-4.33,9.67,9.67,0,0,1,0-4.51Z"/><path class="cls-2" d="M77.52,80.62a10.71,10.71,0,0,0,4.79,2.86l.41.16c-.27-.16-.63-.26-.84-.37a11,11,0,0,1-2.49-1.75,10.45,10.45,0,0,1-1.16-1.24,8.44,8.44,0,0,1-.52-.7,2.61,2.61,0,0,1-.45-.7c.07.33.13.66.19,1a2.69,2.69,0,0,1,.07.74Z"/></g><path class="cls-14" d="M75.15,73.35c-.06-.06,8.4,10.52,8.4,10.52a36.51,36.51,0,0,0-3.12-5.32C79.14,77,75.2,73.41,75.15,73.35Z"/><path class="cls-40" d="M79.06,80.81a11.19,11.19,0,0,0,1.57,1.25,9.77,9.77,0,0,0,.88.53c.08,0,.76.37.61,0a.34.34,0,0,0-.13-.16,30.71,30.71,0,0,1-3.17-2.63,20.49,20.49,0,0,1-2.95-4.28,7.29,7.29,0,0,1,.34,1.06,10,10,0,0,0,.45,1A11.57,11.57,0,0,0,79.06,80.81Z"/><path class="cls-40" d="M75.94,80.87c.07.45.42.26.62.07a1.3,1.3,0,0,0,.37-.88,2.74,2.74,0,0,0-.34-1.3A12.62,12.62,0,0,1,76,77.54a4.33,4.33,0,0,1,0,2.82A1.15,1.15,0,0,0,75.94,80.87Z"/><path class="cls-14" d="M75,73.38a1.92,1.92,0,0,1,1.18-.28,9.25,9.25,0,0,1,3.18.8A12.31,12.31,0,0,1,83,76.11l0,0a11.7,11.7,0,0,0-4-2.5,9,9,0,0,0-3.18-.81,2.09,2.09,0,0,0-1.18.28,2,2,0,0,0-.5,1.1,9.19,9.19,0,0,0,.17,3.28A11.8,11.8,0,0,0,76,81.8h0a12.37,12.37,0,0,1-1.46-4,9.13,9.13,0,0,1-.17-3.27A1.94,1.94,0,0,1,75,73.38Z"/><path class="cls-41" d="M82.07,76.4c.17-.53-1.51-.73-1.85-.82a6.23,6.23,0,0,1-2.17-.79,12.76,12.76,0,0,0,3,1.74C81.31,76.63,81.94,76.8,82.07,76.4Z"/></g></g></svg>