<svg xmlns="http://www.w3.org/2000/svg" xmlns:xlink="http://www.w3.org/1999/xlink" viewBox="0 0 58.33 58.11"><defs><style>.cls-1{fill:#b76615;}.cls-2{fill:url(#linear-gradient);}.cls-3{fill:#704621;}.cls-4{fill:#27b7ff;}.cls-5{fill:url(#linear-gradient-2);}.cls-6{fill:#39ecff;}.cls-7{fill:#069aff;}.cls-19,.cls-22,.cls-8{fill:#0092ff;}.cls-9{fill:url(#linear-gradient-3);}.cls-10{fill:#03b8ff;}.cls-11{fill:#03d0ff;}.cls-12{fill:url(#linear-gradient-4);}.cls-13{fill:url(#linear-gradient-5);}.cls-14{fill:url(#linear-gradient-6);}.cls-15{fill:url(#linear-gradient-7);}.cls-16,.cls-18,.cls-25,.cls-26,.cls-27,.cls-28,.cls-29{fill:#fff;}.cls-16,.cls-17{opacity:0.33;}.cls-19{opacity:0.37;}.cls-20,.cls-23,.cls-24{fill:#0062ff;}.cls-21{fill:#5ff4ff;}.cls-22,.cls-24{opacity:0.54;}.cls-23{opacity:0.5;}.cls-25{opacity:0.57;}.cls-26{opacity:0.18;}.cls-27{opacity:0.12;}.cls-28{opacity:0.52;}.cls-29{opacity:0.25;}.cls-30{fill:#fff30b;}.cls-31{fill:#d37816;}.cls-32{fill:#ef8216;}</style><linearGradient id="linear-gradient" x1="13.01" y1="15.05" x2="55.02" y2="51.41" gradientUnits="userSpaceOnUse"><stop offset="0.02" stop-color="#f4e203"/><stop offset="0.7" stop-color="#f49308"/></linearGradient><linearGradient id="linear-gradient-2" x1="26.7" y1="31.97" x2="42.39" y2="13.91" gradientTransform="translate(29.11 -12.15) rotate(45)" gradientUnits="userSpaceOnUse"><stop offset="0.12" stop-color="#6efffb"/><stop offset="0.23" stop-color="#61f7fb"/><stop offset="0.43" stop-color="#3ee2fd"/><stop offset="0.71" stop-color="#06c0ff"/><stop offset="0.73" stop-color="#00bdff"/></linearGradient><linearGradient id="linear-gradient-3" x1="45.3" y1="47.5" x2="32.54" y2="29.65" gradientUnits="userSpaceOnUse"><stop offset="0.06" stop-color="#39f6ff"/><stop offset="0.14" stop-color="#30e9ff"/><stop offset="0.3" stop-color="#19c6ff"/><stop offset="0.43" stop-color="#03a5ff"/></linearGradient><linearGradient id="linear-gradient-4" x1="38.2" y1="37.99" x2="16.51" y2="14.49" gradientUnits="userSpaceOnUse"><stop offset="0" stop-color="#39f6ff"/><stop offset="0.03" stop-color="#2ce9ff"/><stop offset="0.09" stop-color="#09c6ff"/><stop offset="0.11" stop-color="#00bdff"/></linearGradient><linearGradient id="linear-gradient-5" x1="39.65" y1="18.7" x2="32.15" y2="25.43" gradientUnits="userSpaceOnUse"><stop offset="0" stop-color="#39f6ff"/><stop offset="0.11" stop-color="#2ce9ff"/><stop offset="0.31" stop-color="#09c6ff"/><stop offset="0.36" stop-color="#00bdff"/></linearGradient><linearGradient id="linear-gradient-6" x1="30.72" y1="11.59" x2="-7.5" y2="45.85" gradientUnits="userSpaceOnUse"><stop offset="0.13" stop-color="#39f6ff"/><stop offset="0.3" stop-color="#2ce9ff"/><stop offset="0.61" stop-color="#09c6ff"/><stop offset="0.68" stop-color="#00bdff"/></linearGradient><linearGradient id="linear-gradient-7" x1="17.84" y1="41.13" x2="23.35" y2="32.68" xlink:href="#linear-gradient-6"/></defs><g id="Layer_2" data-name="Layer 2"><g id="Layer_1-2" data-name="Layer 1"><path class="cls-1" d="M26.68,0A2.54,2.54,0,0,0,24.9.74L.73,24.94A2.51,2.51,0,0,0,0,26.72v4.91a2.51,2.51,0,0,0,.75,1.79L25,57.38a2.48,2.48,0,0,0,1.76.73H31.7a2.52,2.52,0,0,0,1.78-.74L57.6,33.19a2.51,2.51,0,0,0,.73-1.77V26.5a2.52,2.52,0,0,0-.74-1.78L33.38.73A2.51,2.51,0,0,0,31.61,0Z"/><polygon class="cls-2" points="1.39 25.84 1.39 32.51 25.9 56.73 32.57 56.73 56.94 32.29 56.94 25.62 32.48 1.38 25.81 1.38 1.39 25.84"/><polygon class="cls-3" points="6.42 26.42 6.42 31.88 26.49 51.72 31.96 51.72 51.91 31.71 51.91 26.25 31.88 6.39 26.42 6.39 6.42 26.42"/><rect class="cls-4" x="15.19" y="15.03" width="28.07" height="28.07" transform="translate(-11.99 29.18) rotate(-45)"/><rect class="cls-5" x="19.4" y="19.24" width="19.64" height="19.64" transform="translate(-11.99 29.18) rotate(-45)"/><polygon class="cls-6" points="9.37 29.06 7.25 26.52 7.25 31.78 9.37 29.06"/><polygon class="cls-7" points="31.85 50.89 29.14 48.87 26.59 50.89 31.85 50.89"/><polygon class="cls-8" points="51.08 26.35 49.06 29.07 51.08 31.61 51.08 26.35"/><polygon class="cls-6" points="31.78 7.22 26.52 7.22 29.23 9.24 31.78 7.22"/><polygon class="cls-9" points="31.85 50.89 51.08 31.61 49.06 29.07 29.14 48.87 31.85 50.89"/><polygon class="cls-10" points="49.06 29.07 51.08 26.35 31.78 7.22 29.23 9.24 49.06 29.07"/><polygon class="cls-11" points="9.37 29.06 29.23 9.24 26.52 7.22 7.25 26.52 9.37 29.06"/><polygon class="cls-10" points="26.59 50.89 29.14 48.87 9.37 29.06 7.25 31.78 26.59 50.89"/><polygon class="cls-12" points="29.14 48.87 49.06 29.07 43.11 29.06 29.22 42.95 29.14 48.87"/><polygon class="cls-13" points="43.11 29.06 49.06 29.07 29.23 9.24 29.22 15.17 43.11 29.06"/><path class="cls-14" d="M15.33,29.06,29.22,15.17V9.24L9.37,29.06C9.83,29.17,15.33,29.06,15.33,29.06Z"/><polygon class="cls-15" points="29.14 48.87 29.22 42.95 15.33 29.06 9.37 29.06 29.14 48.87"/><path class="cls-16" d="M15.33,29.06,29.22,43l4.87-4.86a14.32,14.32,0,0,1-2.17.17,12.22,12.22,0,0,1-9.54-4.59,10.93,10.93,0,0,1-1.73-9.93Z"/><g class="cls-17"><path class="cls-18" d="M21.62,35.37,29,42.74c.16-.7.34-1.4.51-2.09a38.28,38.28,0,0,1,1.84-6A31.34,31.34,0,0,1,37.39,26c.42-.45.85-.91,1.29-1.35l-3.43-3.43A98.15,98.15,0,0,0,21.62,35.37Z"/><path class="cls-18" d="M15.69,29.44l1.19,1.19a34.33,34.33,0,0,1,4.9-4.08,110.71,110.71,0,0,1,11.56-7.24l-2.67-2.67c-2.15,1.3-4.26,2.68-6.31,4.13Z"/></g><polygon class="cls-18" points="15.33 29.06 29.22 42.95 17.27 29.07 25.9 18.49 15.33 29.06"/><path class="cls-19" d="M32.17,42.46c2-2.84,10.94-13.4,10.94-13.4L29.22,43l-.08,5.92A29.36,29.36,0,0,1,32.17,42.46Z"/><polygon class="cls-8" points="29.97 43.25 40.84 31.4 29.22 42.95 29.14 48.87 29.97 43.25"/><polygon class="cls-8" points="49.06 29.07 43.11 29.06 42.6 29.58 49.06 29.07"/><polygon class="cls-8" points="15.33 29.58 27.46 41.19 15.33 29.06 9.37 29.06 15.33 29.58"/><polygon class="cls-20" points="31.85 50.89 51.08 31.61 51.08 26.35 50.38 30.72 31.21 50.34 26.59 50.89 31.85 50.89"/><polygon class="cls-21" points="7.79 27.16 27.13 7.65 31.78 7.22 26.52 7.22 7.25 26.52 7.79 27.16"/><path class="cls-22" d="M26.59,50.89l2.55-2L9.37,29.06s6.36,8.23,10.79,13.42A79.45,79.45,0,0,1,26.59,50.89Z"/><polygon class="cls-23" points="29.14 48.87 13.66 33.34 28 48.87 26.59 50.89 29.14 48.87"/><polygon class="cls-20" points="29.14 48.87 31.66 50.73 30.15 48.65 38.09 39.98 29.14 48.87"/><polygon class="cls-24" points="29.23 9.24 38.15 18.14 30.15 9.24 31.78 7.22 29.23 9.24"/><path class="cls-19" d="M43.11,29.06h6s-2-.33-6.66-2.71c-3.23-1.64-8.23-6.29-11.06-9Z"/><path class="cls-19" d="M31.35,17.3l-2.13-2.13S30.06,16,31.35,17.3Z"/><path class="cls-25" d="M29.22,15.17V9.24S13.74,24.72,11.69,26.74c2-1.88,16.5-15.31,16.5-15.31Z"/><path class="cls-25" d="M11.46,27l.23-.22Z"/><path class="cls-26" d="M11.6,29.21A6.44,6.44,0,0,1,15,31.81a12.3,12.3,0,0,1,1.68,4,14.4,14.4,0,0,1,1.24-3.7,6.46,6.46,0,0,1,2.65-2.8,7.22,7.22,0,0,1-3.15-2.94,12.26,12.26,0,0,1-1.44-4.12c.15.85-1.18,3.94-1.72,4.75A6.06,6.06,0,0,1,11.6,29.21Z"/><path class="cls-27" d="M10.39,29.42a8.18,8.18,0,0,1,4.26,3.21,15.06,15.06,0,0,1,2.14,4.89A17.51,17.51,0,0,1,18.35,33a8.21,8.21,0,0,1,3.37-3.46,9.07,9.07,0,0,1-4-3.63,15.14,15.14,0,0,1-1.82-5.09c.19,1.05-1.5,4.87-2.19,5.86A7.59,7.59,0,0,1,10.39,29.42Z"/><path class="cls-18" d="M14.84,29.05a1.82,1.82,0,0,1,.91.71,3.09,3.09,0,0,1,.46,1.09,4.53,4.53,0,0,1,.34-1,1.79,1.79,0,0,1,.73-.76,1.93,1.93,0,0,1-.86-.81,3.2,3.2,0,0,1-.4-1.12,3.48,3.48,0,0,1-.47,1.29A1.58,1.58,0,0,1,14.84,29.05Z"/><path class="cls-28" d="M13.57,29.11a3.63,3.63,0,0,1,1.87,1.45,6.77,6.77,0,0,1,.94,2.21,7.81,7.81,0,0,1,.69-2.06,3.52,3.52,0,0,1,1.47-1.56,4,4,0,0,1-1.75-1.64,6.7,6.7,0,0,1-.8-2.3,7.34,7.34,0,0,1-1,2.65A3.34,3.34,0,0,1,13.57,29.11Z"/><polygon class="cls-24" points="49.06 29.07 51.08 26.35 49.06 28.01 39.73 19.73 49.06 29.07"/><polygon class="cls-29" points="43.11 29.06 29.22 15.17 29.83 28.61 43.11 29.06"/><polygon class="cls-29" points="33.69 38.48 28.84 30.01 29.22 42.95 33.69 38.48"/><polygon class="cls-30" points="6.42 26.42 26.42 6.39 25.81 1.38 1.39 25.84 6.42 26.42"/><polygon class="cls-31" points="56.94 32.29 51.91 31.71 31.96 51.72 32.57 56.73 56.94 32.29"/><polygon class="cls-32" points="51.91 26.25 56.94 25.62 32.48 1.38 31.88 6.39 51.91 26.25"/><path class="cls-32" d="M26.81,56.73a7.56,7.56,0,0,1,1.64-3.2A6.15,6.15,0,0,1,32,51.72H26.49l-.59,5Z"/><polygon class="cls-18" points="6.42 25.21 1.39 25.84 6.42 26.42 26.42 6.39 25.81 1.38 25.36 6.39 6.42 25.21"/><polygon class="cls-18" points="6.42 30.01 1.39 32.51 6.42 31.88 6.42 30.01"/><polygon class="cls-30" points="34.77 12.51 33.19 17.52 34.17 17.52 34.77 12.51"/></g></g></svg>