<svg xmlns="http://www.w3.org/2000/svg" xmlns:xlink="http://www.w3.org/1999/xlink" viewBox="0 0 79.61 69.06"><defs><style>.cls-1{fill:url(#linear-gradient);}.cls-2{fill:#b76615;}.cls-3{fill:url(#linear-gradient-2);}.cls-4{fill:#704621;}.cls-5{fill:url(#linear-gradient-3);}.cls-6{fill:url(#linear-gradient-4);}.cls-7{fill:#cc1305;}.cls-8{fill:#d31602;}.cls-9{fill:#a50024;}.cls-10,.cls-12,.cls-14,.cls-15,.cls-17,.cls-19,.cls-25,.cls-32,.cls-33{fill:#fff;}.cls-10{opacity:0.09;}.cls-11{opacity:0.22;}.cls-13{fill:url(#linear-gradient-5);}.cls-14{opacity:0.23;}.cls-15{opacity:0.52;}.cls-16{fill:#ea1106;}.cls-17{opacity:0.05;}.cls-18,.cls-26{opacity:0.48;}.cls-18{fill:url(#linear-gradient-6);}.cls-19{opacity:0.3;}.cls-20,.cls-26{fill:#fff30b;}.cls-21{fill:#d37816;}.cls-22{fill:#ef8216;}.cls-23{fill:url(#linear-gradient-7);}.cls-24{opacity:0.59;}.cls-25{opacity:0.45;}.cls-27{fill:url(#linear-gradient-8);}.cls-28{fill:url(#linear-gradient-9);}.cls-29{fill:url(#linear-gradient-10);}.cls-30{fill:url(#linear-gradient-11);}.cls-31{fill:url(#linear-gradient-12);}.cls-32{opacity:0.18;}.cls-33{opacity:0.12;}</style><linearGradient id="linear-gradient" x1="10.5" y1="12.69" x2="69.11" y2="56.48" gradientUnits="userSpaceOnUse"><stop offset="0.02" stop-color="#f4e203"/><stop offset="0.7" stop-color="#f49308"/></linearGradient><linearGradient id="linear-gradient-2" x1="17.63" y1="18.02" x2="64.21" y2="52.82" xlink:href="#linear-gradient"/><linearGradient id="linear-gradient-3" x1="16.86" y1="34.26" x2="62.75" y2="34.26" gradientUnits="userSpaceOnUse"><stop offset="0" stop-color="#ff7a73"/><stop offset="0.36" stop-color="#eb352c"/><stop offset="0.5" stop-color="#e2180e"/></linearGradient><linearGradient id="linear-gradient-4" x1="30.96" y1="41.78" x2="54.18" y2="22.04" gradientUnits="userSpaceOnUse"><stop offset="0" stop-color="#ffaeae"/><stop offset="0.38" stop-color="#ff6767"/><stop offset="0.67" stop-color="#ff2c2c"/></linearGradient><linearGradient id="linear-gradient-5" x1="38.77" y1="10.8" x2="45.12" y2="32.85" gradientUnits="userSpaceOnUse"><stop offset="0" stop-color="#ffaeae"/><stop offset="0.2" stop-color="#ff6767"/><stop offset="0.35" stop-color="#ff2c2c"/></linearGradient><linearGradient id="linear-gradient-6" x1="53.01" y1="41.56" x2="62.6" y2="47.87" gradientUnits="userSpaceOnUse"><stop offset="0" stop-color="#ff7a73"/><stop offset="0.35" stop-color="#eb352c"/><stop offset="0.5" stop-color="#e2180e"/></linearGradient><linearGradient id="linear-gradient-7" x1="19.17" y1="4.3" x2="31.42" y2="11.67" xlink:href="#linear-gradient"/><linearGradient id="linear-gradient-8" x1="52.47" y1="4.79" x2="61.71" y2="10.35" xlink:href="#linear-gradient"/><linearGradient id="linear-gradient-9" x1="4.21" y1="31.62" x2="16.25" y2="38.86" xlink:href="#linear-gradient"/><linearGradient id="linear-gradient-10" x1="67.3" y1="32.19" x2="79.33" y2="39.43" xlink:href="#linear-gradient"/><linearGradient id="linear-gradient-11" x1="20.38" y1="60.15" x2="29.62" y2="65.71" xlink:href="#linear-gradient"/><linearGradient id="linear-gradient-12" x1="51.55" y1="59.35" x2="63.75" y2="66.68" xlink:href="#linear-gradient"/></defs><g id="Layer_2" data-name="Layer 2"><g id="Layer_1-2" data-name="Layer 1"><path class="cls-1" d="M59.71,69.06l19.9-34.47L59.71.11H19.9L0,34.59,19.9,69.06ZM21.79,3.38h36l18,31.21-18,31.2h-36l-18-31.2Z"/><polygon class="cls-2" points="19.91 3.38 1.9 34.59 19.91 65.79 21.79 65.79 3.78 34.59 21.79 3.38 19.91 3.38"/><polygon class="cls-2" points="59.71 69.06 79.61 34.59 59.71 0.11 57.83 0.11 77.73 34.59 57.83 69.06 59.71 69.06"/><path class="cls-2" d="M25.23,61.31H54.38a1.47,1.47,0,0,0,1.28-.74L70.24,35.32a1.48,1.48,0,0,0,0-1.47L55.66,8.6a1.47,1.47,0,0,0-1.28-.74H25.23A1.48,1.48,0,0,0,24,8.6L9.38,33.85a1.44,1.44,0,0,0,0,1.47L24,60.57A1.48,1.48,0,0,0,25.23,61.31Z"/><polygon class="cls-3" points="54.34 59.76 68.88 34.59 54.34 9.41 25.27 9.41 10.73 34.59 25.27 59.76 54.34 59.76"/><polygon class="cls-4" points="51.75 55.27 63.69 34.59 51.75 13.9 27.86 13.9 15.92 34.59 27.86 55.27 51.75 55.27"/><polygon class="cls-5" points="62.75 34.26 51.28 14.39 28.33 14.39 16.86 34.26 28.33 54.13 51.28 54.13 62.75 34.26"/><polygon class="cls-6" points="55.04 34.26 47.42 21.07 32.19 21.07 24.57 34.26 32.19 47.45 47.42 47.45 55.04 34.26"/><polygon class="cls-7" points="55.04 34.26 47.42 47.45 32.19 47.45 28.33 54.13 51.28 54.13 62.75 34.26 55.04 34.26"/><path class="cls-8" d="M54.13,32.68l0,.08Z"/><path class="cls-8" d="M47.42,21.07l6.71,11.61a22.52,22.52,0,0,1-2.8-9.31c-.18-4.94,0-9,0-9Z"/><polygon class="cls-9" points="47.42 47.45 32.19 47.45 47.42 48.49 51.28 54.13 48.69 47.45 55.04 34.26 47.42 47.45"/><polygon class="cls-9" points="28.33 54.13 33.33 47.45 32.19 47.45 28.33 54.13"/><path class="cls-10" d="M24.57,34.26l7.62,13.19H47.42l4-7A18.29,18.29,0,0,1,43.07,42a15.53,15.53,0,0,1-11.89-6.66,13.36,13.36,0,0,1-2-9Z"/><g class="cls-11"><path class="cls-12" d="M39.71,21.07Q34.14,23.83,28.78,27L26.57,30.8a226.63,226.63,0,0,1,21.66-8.33l-.81-1.4Z"/><path class="cls-12" d="M51.12,41.05,55,34.26l-4.63-8L28.27,40.68l3.16,5.47c2.13-.72,4.29-1.33,6.46-1.91C42.27,43.07,46.69,42,51.12,41.05Z"/></g><polygon class="cls-13" points="51.28 14.39 28.33 14.39 32.19 21.07 47.42 21.07 51.28 14.39"/><path class="cls-14" d="M32.19,47.45,24.63,34.27l-7.71-.09s2.87.89,7.41,4.85A61.07,61.07,0,0,1,32.19,47.45Z"/><polygon class="cls-15" points="32.75 20.27 28.33 14.39 32.19 21.07 43.01 21.07 32.75 20.27"/><polygon class="cls-16" points="24.63 34.27 16.92 34.18 24.22 35.27 30.25 44.27 24.63 34.27"/><path class="cls-17" d="M28.33,14.39,16.92,34.18s6.2-3.53,8.9-8.25S28.33,14.39,28.33,14.39Z"/><path class="cls-18" d="M53.32,44.2a23.39,23.39,0,0,0-2,9.93L62.75,34.26S55.58,39.48,53.32,44.2Z"/><polygon class="cls-9" points="47.42 21.07 52.11 29.29 48.67 21.07 51.28 14.39 47.42 21.07"/><polygon class="cls-12" points="24.63 34.27 32.19 47.45 25.93 34.26 32.19 21.07 24.63 34.27"/><polygon class="cls-12" points="47.42 46.15 38.01 47.45 47.42 47.45 55.04 34.26 47.42 46.15"/><polygon class="cls-9" points="51.44 53.85 28.33 54.13 51.77 54.78 62.75 34.26 51.44 53.85"/><polygon class="cls-19" points="16.92 34.18 23.58 45.91 18.13 34.18 28.33 14.39 16.92 34.18"/><polygon class="cls-20" points="25.27 9.41 10.73 34.59 15.92 34.59 27.86 13.9 25.27 9.41"/><polygon class="cls-21" points="63.69 34.59 51.75 55.27 54.34 59.76 68.88 34.59 63.69 34.59"/><path class="cls-21" d="M51.75,55.27H27.87l-2.6,4.49s1.35-2,12.36-3.21C49,55.31,51.75,55.27,51.75,55.27Z"/><path class="cls-22" d="M54.34,9.41c-.3,0-2.59,4.49-2.59,4.49L63.69,34.59h5.19Z"/><path class="cls-12" d="M14,33.41a2.13,2.13,0,0,0,.93-1,36.32,36.32,0,0,0,1.53-3.56c2-5,5.24-9.44,7.73-14.23.18-.33.34-.77.11-1.06a31.2,31.2,0,0,0-2.59,3.76c-.71,1.45-1.56,2.82-2.39,4.22l-6,10.09a2.51,2.51,0,0,0-.39.94.84.84,0,0,0,.41.87A.79.79,0,0,0,14,33.41Z"/><path class="cls-23" d="M18.7,8.78a13.07,13.07,0,0,0,3.95,3.45,10.35,10.35,0,0,0,3.41,1.43,2.29,2.29,0,0,0,1.38-.11,2.31,2.31,0,0,0,.79-1.14,10.18,10.18,0,0,0,.47-3.66,12.81,12.81,0,0,0-1-5.16A2.57,2.57,0,0,0,25.8,4.7,11.9,11.9,0,0,0,21,.7,5.54,5.54,0,0,0,19.66,0a5.49,5.49,0,0,0-.1,1.49,11.92,11.92,0,0,0,1.05,6.16A2.52,2.52,0,0,0,18.7,8.78Z"/><path class="cls-21" d="M20.16.63c.71,1.33,1.73,2.54,2.51,3.83s1.62,2.78,2.38,4.2c.42.79.83,1.58,1.24,2.38a12.2,12.2,0,0,1,1.19,2.33,47.22,47.22,0,0,1-1.57-8.56,1.93,1.93,0,0,0,0-.24.64.64,0,0,1-.1.13A11.9,11.9,0,0,0,21,.7,4.53,4.53,0,0,0,19.66,0C19.7.2,20.06.46,20.16.63Z"/><path class="cls-21" d="M27.46,13.54a2.36,2.36,0,0,0,.77-1.13,10.15,10.15,0,0,0,.47-3.66,12.76,12.76,0,0,0-1-5.15l-.18,0a3.43,3.43,0,0,1,.09.44c.4,2.89.79,5.88,0,8.7C27.57,13,27.5,13.27,27.46,13.54Z"/><g class="cls-24"><path class="cls-21" d="M26.05,13.63a2.29,2.29,0,0,0,1.38-.1,1.07,1.07,0,0,0,.16-.14,10.82,10.82,0,0,1-4.8-1.66,14.51,14.51,0,0,1-4.07-3,.1.1,0,0,1,0,.05,12.73,12.73,0,0,0,4,3.45A9.86,9.86,0,0,0,26.05,13.63Z"/><path class="cls-21" d="M20.59,7.65h0a3.08,3.08,0,0,1,.76.35l1,.58a3,3,0,0,1-.56-.74A8.82,8.82,0,0,1,21.25,7a12.79,12.79,0,0,1-.84-1.7A12.47,12.47,0,0,1,19.59,2a9.67,9.67,0,0,0,0-1c0,.17,0,.34,0,.5A11.77,11.77,0,0,0,20.59,7.65Z"/></g><path class="cls-2" d="M19.66,0s7.71,13,7.67,12.89S25.15,7.33,24,5.36A40.47,40.47,0,0,0,19.66,0Z"/><path class="cls-25" d="M21,6a12.37,12.37,0,0,0,2.45,3.77,12,12,0,0,0,.89.86,9.3,9.3,0,0,1,1,.76A22.84,22.84,0,0,1,22,6.6a34.71,34.71,0,0,1-1.46-4.35.49.49,0,0,0-.11-.2c-.36-.32-.3.54-.29.64a11.15,11.15,0,0,0,.2,1.13A12.24,12.24,0,0,0,21,6Z"/><path class="cls-25" d="M20.25,9.32a4.93,4.93,0,0,1,3,1.13c-.38-.33-.7-.73-1.05-1.1a3,3,0,0,0-1.24-.86,1.52,1.52,0,0,0-1.09,0c-.28.14-.63.44-.18.69A1.24,1.24,0,0,0,20.25,9.32Z"/><path class="cls-2" d="M27.22,13.12a2.29,2.29,0,0,1-1.38.11,10.3,10.3,0,0,1-3.4-1.43,13.49,13.49,0,0,1-3.68-3.08l0,0a13,13,0,0,0,4,3.45,10.3,10.3,0,0,0,3.4,1.43,2.28,2.28,0,0,0,1.38-.11,2.25,2.25,0,0,0,.79-1.14,10,10,0,0,0,.47-3.67,12.79,12.79,0,0,0-1-5.15h-.07a13.23,13.23,0,0,1,.82,4.72A10.2,10.2,0,0,1,28,12,2.31,2.31,0,0,1,27.22,13.12Z"/><path class="cls-26" d="M27,4.45c-.49,0-.57.71-.58,1A13.78,13.78,0,0,0,27,9.31a7.05,7.05,0,0,1,.06-2.59C27.13,6.33,27.62,4.47,27,4.45Z"/><path class="cls-27" d="M59.62,0a5.73,5.73,0,0,0-1.33.67,11.82,11.82,0,0,0-4.77,4.05,2.52,2.52,0,0,0-1.91-1.09,12.82,12.82,0,0,0-1,5.16,10.11,10.11,0,0,0,.51,3.66,2.33,2.33,0,0,0,.8,1.14,2.29,2.29,0,0,0,1.38.09,10.25,10.25,0,0,0,3.39-1.46,12.87,12.87,0,0,0,3.92-3.49,2.51,2.51,0,0,0-1.92-1.07,11.92,11.92,0,0,0,1-6.17A5.48,5.48,0,0,0,59.62,0Z"/><path class="cls-21" d="M59.62,0c-.12.11-.16.56-.26.73-.78,1.28-1.3,2.78-2,4.11S55.79,7.65,55,9q-.69,1.16-1.41,2.28a12.62,12.62,0,0,1-1.4,2.22,47.6,47.6,0,0,1,6.57-5.72l.19-.13-.16,0a11.92,11.92,0,0,0,1-6.17A5,5,0,0,0,59.62,0Z"/><path class="cls-21" d="M56.74,12.22a12.74,12.74,0,0,0,3.92-3.49,1.34,1.34,0,0,0-.11-.14,3.08,3.08,0,0,1-.33.3c-2.29,1.83-4.65,3.69-7.47,4.46a4.22,4.22,0,0,0-.76.25,2.3,2.3,0,0,0,1.36.08A10.05,10.05,0,0,0,56.74,12.22Z"/><g class="cls-24"><path class="cls-21" d="M51.62,3.61a13.14,13.14,0,0,0-.95,5.16,10.37,10.37,0,0,0,.51,3.66,2.31,2.31,0,0,0,.8,1.13l.2.08a10.88,10.88,0,0,1-1-5,14.24,14.24,0,0,1,.53-5Z"/><path class="cls-21" d="M53.63,6.66A2.89,2.89,0,0,1,54,5.8c.13-.29.28-.58.43-.87a11.64,11.64,0,0,1,1-1.58A12.45,12.45,0,0,1,57.87,1c.21-.16.6-.34.86-.56L58.3.65a11.88,11.88,0,0,0-4.76,4v0a2.86,2.86,0,0,1,.08.83Z"/></g><path class="cls-2" d="M52.44,13.17c.06-.07,3.71-4.73,4.82-6.71A39.86,39.86,0,0,0,59.62,0S52.39,13.25,52.44,13.17Z"/><path class="cls-25" d="M58.29,1.7c.09-.47-.61,0-.69.08a8.94,8.94,0,0,0-.88.75A12.44,12.44,0,0,0,55.23,4.2a12.62,12.62,0,0,0-2,4c-.11.4-.2.8-.28,1.21a8.27,8.27,0,0,1-.16,1.23,22.28,22.28,0,0,1,2.39-5.28,34.09,34.09,0,0,1,3-3.48A.41.41,0,0,0,58.29,1.7Z"/><path class="cls-25" d="M52.9,6.92A3,3,0,0,0,53,5.41a1.52,1.52,0,0,0-.6-.91c-.26-.17-.7-.32-.68.19a1.13,1.13,0,0,0,.21.55,4.84,4.84,0,0,1,.55,3.14A15.15,15.15,0,0,1,52.9,6.92Z"/><path class="cls-2" d="M51.63,3.64a12.83,12.83,0,0,0-1,5.17,10.18,10.18,0,0,0,.51,3.66A2.41,2.41,0,0,0,52,13.6a2.29,2.29,0,0,0,1.38.09,10.05,10.05,0,0,0,3.39-1.46,12.89,12.89,0,0,0,3.93-3.49.1.1,0,0,1,0-.05A13.35,13.35,0,0,1,57,11.81a10.25,10.25,0,0,1-3.39,1.46,2.29,2.29,0,0,1-1.38-.09,2.33,2.33,0,0,1-.8-1.14,10.11,10.11,0,0,1-.51-3.66,13.44,13.44,0,0,1,.77-4.73Z"/><path class="cls-26" d="M59.56,8.55c-.24-.43-.9-.13-1.2,0a14,14,0,0,0-3,2.47,7,7,0,0,1,2.27-1.27C58,9.63,59.86,9.1,59.56,8.55Z"/><path class="cls-28" d="M.55,34.33a5.26,5.26,0,0,0,1.24.83,11.91,11.91,0,0,0,5.86,2.16,2.56,2.56,0,0,0,0,2.21,13.05,13.05,0,0,0,5-1.71,10.08,10.08,0,0,0,2.93-2.24,2.28,2.28,0,0,0,.6-1.25,2.25,2.25,0,0,0-.6-1.25,9.91,9.91,0,0,0-2.93-2.24,12.89,12.89,0,0,0-5-1.71,2.53,2.53,0,0,0,0,2.2A11.92,11.92,0,0,0,1.79,33.5,5.26,5.26,0,0,0,.55,34.33Z"/><path class="cls-21" d="M7.8,37.37A47.33,47.33,0,0,1,16,34.45a11.91,11.91,0,0,1-2.61.13c-.89.05-1.79.09-2.68.12-1.61,0-3.22.07-4.83,0s-3.07-.32-4.57-.27c-.2,0-.6-.18-.76-.13.23.35.91.61,1.24.83a11.91,11.91,0,0,0,5.87,2.16,1.11,1.11,0,0,0-.07.16Z"/><path class="cls-21" d="M15.55,35.58a2.39,2.39,0,0,0,.59-1.23,6.1,6.1,0,0,0-.59.54C13.5,37,10.71,38.12,8,39.22a3,3,0,0,1-.42.14l.06.17a13.05,13.05,0,0,0,5-1.71A10.27,10.27,0,0,0,15.55,35.58Z"/><g class="cls-24"><path class="cls-21" d="M16.08,34.54a1.52,1.52,0,0,0,0-.21,2.3,2.3,0,0,0-.59-1.25,10.09,10.09,0,0,0-2.94-2.24,12.89,12.89,0,0,0-5-1.71s0,0,0,.06a14.46,14.46,0,0,1,4.65,2A11,11,0,0,1,16.08,34.54Z"/><path class="cls-21" d="M7.4,32.21c.33,0,.65,0,1,0a2.81,2.81,0,0,1,.92.13l-1-.56a3.28,3.28,0,0,1-.69-.48h0A11.87,11.87,0,0,0,1.76,33.5l-.43.25c.33-.12.67-.37.91-.47a12.12,12.12,0,0,1,3.27-.94A13.34,13.34,0,0,1,7.4,32.21Z"/></g><path class="cls-2" d="M.55,34.33a40.08,40.08,0,0,0,6.78,1.12c2.28,0,8.12-.9,8.22-.91S.55,34.33.55,34.33Z"/><path class="cls-25" d="M2.91,34a34.46,34.46,0,0,1,4.5-.9,22.47,22.47,0,0,1,5.77.51A9.19,9.19,0,0,1,12,33.15a11.66,11.66,0,0,0-1.19-.35,12.74,12.74,0,0,0-4.48-.23A12.56,12.56,0,0,0,4.17,33c-.37.12-.73.25-1.08.4-.09,0-.86.41-.41.57A.37.37,0,0,0,2.91,34Z"/><path class="cls-25" d="M9.87,31.87a14.52,14.52,0,0,1,1.48.36,5,5,0,0,1-2.47-2,1.17,1.17,0,0,0-.37-.45c-.44-.26-.52.19-.5.5a1.53,1.53,0,0,0,.5,1A3,3,0,0,0,9.87,31.87Z"/><path class="cls-2" d="M12.12,37.84a13.28,13.28,0,0,1-4.5,1.65s0,0,0,.06a12.72,12.72,0,0,0,5-1.71,10.06,10.06,0,0,0,2.93-2.23,2.28,2.28,0,0,0,.6-1.26,2.28,2.28,0,0,0-.6-1.25,10.06,10.06,0,0,0-2.93-2.23,12.72,12.72,0,0,0-5-1.71s0,0,0,.06a13.28,13.28,0,0,1,4.5,1.65,10.24,10.24,0,0,1,2.94,2.23,2.35,2.35,0,0,1,.6,1.25,2.35,2.35,0,0,1-.6,1.26A10.24,10.24,0,0,1,12.12,37.84Z"/><path class="cls-26" d="M10,37.42a7.15,7.15,0,0,1,2.22-1.35,13.42,13.42,0,0,0-3.6,1.38c-.29.17-.88.61-.63,1S9.73,37.66,10,37.42Z"/><path class="cls-29" d="M72.48,29.47a12.88,12.88,0,0,0-5,1.7,10,10,0,0,0-2.94,2.24,2.35,2.35,0,0,0-.6,1.25,2.32,2.32,0,0,0,.6,1.25,9.83,9.83,0,0,0,2.94,2.24,12.9,12.9,0,0,0,5,1.71,2.53,2.53,0,0,0,0-2.2,11.78,11.78,0,0,0,5.86-2.17,5.26,5.26,0,0,0,1.24-.83,5.26,5.26,0,0,0-1.24-.83,11.87,11.87,0,0,0-5.86-2.16A2.53,2.53,0,0,0,72.48,29.47Z"/><path class="cls-21" d="M79.57,34.66c-.15,0-.56.14-.76.13-1.5,0-3.06.24-4.57.27s-3.22,0-4.82,0l-2.69-.11a12.55,12.55,0,0,1-2.61-.14,48.17,48.17,0,0,1,8.2,2.92l.21.11-.06-.15a11.82,11.82,0,0,0,5.86-2.17C78.66,35.27,79.34,35,79.57,34.66Z"/><path class="cls-21" d="M67.51,38.15a12.89,12.89,0,0,0,5,1.71,1.22,1.22,0,0,1,.07-.17,2.71,2.71,0,0,1-.43-.14c-2.71-1.1-5.5-2.25-7.54-4.33a5.16,5.16,0,0,0-.6-.53,2.34,2.34,0,0,0,.6,1.22A9.91,9.91,0,0,0,67.51,38.15Z"/><g class="cls-24"><path class="cls-21" d="M67.89,31.54a14.4,14.4,0,0,1,4.64-2s0,0,0-.05a12.83,12.83,0,0,0-5,1.7,10,10,0,0,0-2.94,2.24,2.35,2.35,0,0,0-.6,1.25l0,.21A10.89,10.89,0,0,1,67.89,31.54Z"/><path class="cls-21" d="M74.61,32.67a12.38,12.38,0,0,1,3.27.94,9.51,9.51,0,0,0,.91.47l-.43-.25a11.87,11.87,0,0,0-5.85-2.16v0a2.72,2.72,0,0,1-.69.47l-1,.56a2.56,2.56,0,0,1,.92-.12c.32,0,.65-.05,1-.05A11.92,11.92,0,0,1,74.61,32.67Z"/></g><path class="cls-2" d="M64.58,34.87c.09,0,5.94.91,8.21.91a40.08,40.08,0,0,0,6.78-1.12S64.49,34.86,64.58,34.87Z"/><path class="cls-25" d="M77.21,34.33a.37.37,0,0,0,.23,0c.45-.16-.32-.53-.41-.57A9.9,9.9,0,0,0,76,33.38a11.56,11.56,0,0,0-2.19-.48,12.74,12.74,0,0,0-4.48.23c-.4.1-.8.21-1.19.35a8.62,8.62,0,0,1-1.15.46,22,22,0,0,1,5.77-.5A34.43,34.43,0,0,1,77.21,34.33Z"/><path class="cls-25" d="M72.11,30.58c0-.31-.06-.76-.5-.5a1.24,1.24,0,0,0-.37.45,4.88,4.88,0,0,1-2.47,2,15.19,15.19,0,0,1,1.48-.36,3.06,3.06,0,0,0,1.36-.64A1.53,1.53,0,0,0,72.11,30.58Z"/><path class="cls-2" d="M68,31.2a13.28,13.28,0,0,1,4.5-1.65.14.14,0,0,0,0-.06,12.9,12.9,0,0,0-5,1.71,9.83,9.83,0,0,0-2.94,2.24,2.28,2.28,0,0,0-.6,1.25,2.35,2.35,0,0,0,.6,1.25,10.17,10.17,0,0,0,2.94,2.24,12.88,12.88,0,0,0,5,1.7.14.14,0,0,0,0-.06A13.48,13.48,0,0,1,68,38.18a10.45,10.45,0,0,1-2.94-2.24,2.33,2.33,0,0,1-.59-1.25,2.27,2.27,0,0,1,.59-1.25A10.09,10.09,0,0,1,68,31.2Z"/><path class="cls-26" d="M72.1,38.8c.25-.41-.33-.84-.62-1a13.83,13.83,0,0,0-3.61-1.38,7,7,0,0,1,2.22,1.35C70.4,38,71.77,39.34,72.1,38.8Z"/><path class="cls-30" d="M19.78,68.89a5.59,5.59,0,0,0,1.34-.67,11.82,11.82,0,0,0,4.8-4,2.51,2.51,0,0,0,1.9,1.11,12.8,12.8,0,0,0,1-5.15,10.12,10.12,0,0,0-.47-3.66,2.34,2.34,0,0,0-.79-1.15,2.37,2.37,0,0,0-1.38-.1,9.86,9.86,0,0,0-3.41,1.43,12.58,12.58,0,0,0-3.95,3.45,2.48,2.48,0,0,0,1.91,1.08,12,12,0,0,0-1.05,6.17A5.49,5.49,0,0,0,19.78,68.89Z"/><path class="cls-21" d="M25.92,64.22a1.47,1.47,0,0,0,.1.13,1.77,1.77,0,0,0,0-.23,47.33,47.33,0,0,1,1.57-8.57,12.49,12.49,0,0,1-1.19,2.33c-.41.8-.82,1.6-1.24,2.39-.76,1.42-1.54,2.82-2.38,4.2S21,67,20.28,68.29c-.1.18-.46.44-.5.6a4.55,4.55,0,0,0,1.34-.67A11.82,11.82,0,0,0,25.92,64.22Z"/><path class="cls-21" d="M27.65,65.31l.17,0a12.8,12.8,0,0,0,1-5.15,10.2,10.2,0,0,0-.47-3.67,2.33,2.33,0,0,0-.77-1.12,5.16,5.16,0,0,0,.17.78c.78,2.81.39,5.8,0,8.69A3.58,3.58,0,0,1,27.65,65.31Z"/><g class="cls-24"><path class="cls-21" d="M22.91,57.2a10.84,10.84,0,0,1,4.8-1.67l-.16-.13a2.29,2.29,0,0,0-1.38-.11,10.26,10.26,0,0,0-3.41,1.43,13,13,0,0,0-4,3.45l0,0A14.29,14.29,0,0,1,22.91,57.2Z"/><path class="cls-21" d="M20.53,63.59a14.11,14.11,0,0,1,.84-1.7,8.67,8.67,0,0,1,.53-.81,2.58,2.58,0,0,1,.56-.74l-1,.57a2.78,2.78,0,0,1-.76.36h0a11.77,11.77,0,0,0-1,6.15c0,.17,0,.33,0,.5a9.49,9.49,0,0,0,0-1A12.57,12.57,0,0,1,20.53,63.59Z"/></g><path class="cls-2" d="M19.78,68.89a40.16,40.16,0,0,0,4.35-5.33c1.14-2,3.28-7.48,3.32-7.57S19.78,68.89,19.78,68.89Z"/><path class="cls-25" d="M20.57,66.88a.49.49,0,0,0,.11-.2,33.16,33.16,0,0,1,1.46-4.35,21.92,21.92,0,0,1,3.32-4.75,8.13,8.13,0,0,1-1,.76,12.19,12.19,0,0,0-.9.86A12.66,12.66,0,0,0,21.15,63a12.38,12.38,0,0,0-.68,2.14c-.08.37-.14.75-.19,1.13C20.27,66.34,20.21,67.19,20.57,66.88Z"/><path class="cls-25" d="M21.06,60.44a3,3,0,0,0,1.24-.86c.35-.37.67-.77,1.05-1.11a4.87,4.87,0,0,1-3,1.13,1.23,1.23,0,0,0-.57.1c-.45.25-.1.55.18.68A1.52,1.52,0,0,0,21.06,60.44Z"/><path class="cls-2" d="M27.78,65.34h.07a12.76,12.76,0,0,0,1-5.15,10.15,10.15,0,0,0-.47-3.66,2.27,2.27,0,0,0-.79-1.14,2.28,2.28,0,0,0-1.38-.11,10.1,10.1,0,0,0-3.4,1.43,12.86,12.86,0,0,0-4,3.45l0,.05a13.25,13.25,0,0,1,3.67-3.08A10.14,10.14,0,0,1,26,55.7a2.29,2.29,0,0,1,1.38.11A2.27,2.27,0,0,1,28.13,57a10.15,10.15,0,0,1,.47,3.66A13.24,13.24,0,0,1,27.78,65.34Z"/><path class="cls-26" d="M26.52,63.42c0,.34.09,1.07.58,1s.15-1.88.09-2.26a7.11,7.11,0,0,1-.06-2.6A13.78,13.78,0,0,0,26.52,63.42Z"/><path class="cls-31" d="M60.78,60.2a12.74,12.74,0,0,0-3.92-3.49,9.85,9.85,0,0,0-3.39-1.46,2.29,2.29,0,0,0-1.38.09,2.24,2.24,0,0,0-.8,1.13,10.18,10.18,0,0,0-.51,3.66,12.79,12.79,0,0,0,.95,5.16,2.51,2.51,0,0,0,1.91-1.09,11.82,11.82,0,0,0,4.77,4,5.24,5.24,0,0,0,1.33.68,5.48,5.48,0,0,0,.11-1.49,11.92,11.92,0,0,0-1-6.17A2.54,2.54,0,0,0,60.78,60.2Z"/><path class="cls-21" d="M58.82,61.12a48.11,48.11,0,0,1-6.56-5.72,13.14,13.14,0,0,1,1.4,2.21c.47.76,1,1.52,1.41,2.28.84,1.38,1.64,2.77,2.4,4.19s1.23,2.83,2,4.12c.1.17.14.61.26.73a5,5,0,0,0,.11-1.49,12,12,0,0,0-1-6.18l.16,0Z"/><path class="cls-21" d="M60.67,60.33a.76.76,0,0,0,.11-.14,12.84,12.84,0,0,0-3.92-3.48,10.08,10.08,0,0,0-3.39-1.47,2.39,2.39,0,0,0-1.36.09,5.2,5.2,0,0,0,.76.25c2.81.76,5.18,2.63,7.47,4.45A3.08,3.08,0,0,1,60.67,60.33Z"/><g class="cls-24"><path class="cls-21" d="M52.3,55.29l-.2.07a2.39,2.39,0,0,0-.8,1.14,10.11,10.11,0,0,0-.51,3.66,12.82,12.82,0,0,0,1,5.16h.06a14.47,14.47,0,0,1-.52-5A10.81,10.81,0,0,1,52.3,55.29Z"/><path class="cls-21" d="M58.85,68.53A8.8,8.8,0,0,0,58,68a12.18,12.18,0,0,1-2.42-2.39,11.14,11.14,0,0,1-1-1.59,8.79,8.79,0,0,1-.43-.87,2.89,2.89,0,0,1-.35-.86v1.13a2.89,2.89,0,0,1-.08.83v0a11.91,11.91,0,0,0,4.76,4A4.77,4.77,0,0,1,58.85,68.53Z"/></g><path class="cls-2" d="M52.56,55.75c-.05-.07,7.18,13.18,7.18,13.18a40.9,40.9,0,0,0-2.36-6.46C56.27,60.49,52.61,55.83,52.56,55.75Z"/><path class="cls-25" d="M55.35,64.73a11.79,11.79,0,0,0,1.49,1.67,10.43,10.43,0,0,0,.88.74c.08.07.77.56.69.09a.41.41,0,0,0-.12-.2,35.2,35.2,0,0,1-3-3.48,22.28,22.28,0,0,1-2.39-5.28,8.27,8.27,0,0,1,.16,1.23,11.64,11.64,0,0,0,.28,1.2A12.67,12.67,0,0,0,55.35,64.73Z"/><path class="cls-25" d="M51.84,64.23c0,.51.42.37.68.19a1.49,1.49,0,0,0,.6-.91A3.07,3.07,0,0,0,53,62c-.14-.49-.33-1-.42-1.47a4.87,4.87,0,0,1-.55,3.15A1.13,1.13,0,0,0,51.84,64.23Z"/><path class="cls-2" d="M52.35,55.75a2.37,2.37,0,0,1,1.38-.1,10.08,10.08,0,0,1,3.39,1.47,13.46,13.46,0,0,1,3.65,3.11l0,0a13.16,13.16,0,0,0-3.93-3.49,10.25,10.25,0,0,0-3.39-1.46,2.29,2.29,0,0,0-1.38.1,2.25,2.25,0,0,0-.8,1.13,10.11,10.11,0,0,0-.51,3.66,12.79,12.79,0,0,0,1,5.16h.06A13.4,13.4,0,0,1,51,60.54a10.15,10.15,0,0,1,.51-3.66A2.19,2.19,0,0,1,52.35,55.75Z"/><path class="cls-26" d="M59.68,60.38c.3-.56-1.55-1.08-1.9-1.24a7.11,7.11,0,0,1-2.27-1.26,13.7,13.7,0,0,0,3,2.46C58.78,60.51,59.44,60.81,59.68,60.38Z"/><path class="cls-32" d="M27.07,22.08a6.84,6.84,0,0,1,3.56,2.76,13.22,13.22,0,0,1,1.79,4.21,15.09,15.09,0,0,1,1.31-3.94,7,7,0,0,1,2.82-3A7.67,7.67,0,0,1,33.2,19a13.31,13.31,0,0,1-1.53-4.37c.17.89-1.25,4.18-1.82,5A6.53,6.53,0,0,1,27.07,22.08Z"/><path class="cls-33" d="M25.78,22.3a8.74,8.74,0,0,1,4.54,3.41,16,16,0,0,1,2.26,5.2,18.89,18.89,0,0,1,1.67-4.86,8.62,8.62,0,0,1,3.58-3.67,9.6,9.6,0,0,1-4.25-3.87,15.83,15.83,0,0,1-1.94-5.4c.21,1.11-1.6,5.16-2.32,6.23A8.3,8.3,0,0,1,25.78,22.3Z"/><path class="cls-12" d="M30.51,21.91a1.92,1.92,0,0,1,1,.75A3.74,3.74,0,0,1,32,23.81a4.81,4.81,0,0,1,.36-1.07,2,2,0,0,1,.77-.82,2.08,2.08,0,0,1-.91-.85,3.65,3.65,0,0,1-.42-1.2,3.61,3.61,0,0,1-.5,1.38A1.87,1.87,0,0,1,30.51,21.91Z"/><path class="cls-15" d="M29.16,22a3.85,3.85,0,0,1,2,1.54,7.41,7.41,0,0,1,1,2.35,8.3,8.3,0,0,1,.73-2.19A3.88,3.88,0,0,1,34.45,22a4.27,4.27,0,0,1-1.87-1.75,7.38,7.38,0,0,1-.85-2.44,7.64,7.64,0,0,1-1,2.82A3.58,3.58,0,0,1,29.16,22Z"/></g></g></svg>