<svg xmlns="http://www.w3.org/2000/svg" xmlns:xlink="http://www.w3.org/1999/xlink" viewBox="0 0 123.67 99.95"><defs><style>.cls-1{fill:url(#linear-gradient);}.cls-2{fill:#d37816;}.cls-29,.cls-3,.cls-31,.cls-38,.cls-39,.cls-4,.cls-40,.cls-41,.cls-42,.cls-47,.cls-5,.cls-6,.cls-8,.cls-9{fill:#fff;}.cls-3{opacity:0.42;}.cls-4{opacity:0.56;}.cls-5{opacity:0.2;}.cls-6{opacity:0.88;}.cls-7{fill:url(#linear-gradient-2);}.cls-8{opacity:0.29;}.cls-9{opacity:0.65;}.cls-10{fill:url(#linear-gradient-3);}.cls-11{fill:#7c430f;}.cls-12{fill:#563511;}.cls-13{fill:url(#linear-gradient-4);}.cls-14{fill:#b76615;}.cls-15{fill:url(#linear-gradient-5);}.cls-16{fill:#704621;}.cls-17{fill:#27b7ff;}.cls-18{fill:url(#linear-gradient-6);}.cls-19{fill:#39ecff;}.cls-20{fill:#069aff;}.cls-21,.cls-32,.cls-35{fill:#0092ff;}.cls-22{fill:url(#linear-gradient-7);}.cls-23{fill:#03b8ff;}.cls-24{fill:#03d0ff;}.cls-25{fill:url(#linear-gradient-8);}.cls-26{fill:url(#linear-gradient-9);}.cls-27{fill:url(#linear-gradient-10);}.cls-28{fill:url(#linear-gradient-11);}.cls-29,.cls-30{opacity:0.33;}.cls-32{opacity:0.37;}.cls-33,.cls-36,.cls-37{fill:#0062ff;}.cls-34{fill:#5ff4ff;}.cls-35,.cls-37{opacity:0.54;}.cls-36{opacity:0.5;}.cls-38{opacity:0.57;}.cls-39{opacity:0.18;}.cls-40{opacity:0.12;}.cls-41{opacity:0.52;}.cls-42{opacity:0.25;}.cls-43,.cls-48{fill:#fff30b;}.cls-44{fill:#ef8216;}.cls-45{fill:url(#linear-gradient-12);}.cls-46{opacity:0.59;}.cls-47{opacity:0.45;}.cls-48{opacity:0.48;}.cls-49{fill:url(#linear-gradient-13);}.cls-50{fill:url(#linear-gradient-14);}.cls-51{fill:url(#linear-gradient-15);}</style><linearGradient id="linear-gradient" x1="46.53" y1="10.56" x2="79.04" y2="29.08" gradientUnits="userSpaceOnUse"><stop offset="0.09" stop-color="#f4e203"/><stop offset="0.3" stop-color="#f4c005"/><stop offset="0.55" stop-color="#f49f07"/><stop offset="0.69" stop-color="#f49308"/></linearGradient><linearGradient id="linear-gradient-2" x1="-9.31" y1="32.33" x2="62.32" y2="77.4" gradientUnits="userSpaceOnUse"><stop offset="0.18" stop-color="#f4e203"/><stop offset="0.24" stop-color="#f4db03"/><stop offset="0.31" stop-color="#f4c905"/><stop offset="0.4" stop-color="#f4ab06"/><stop offset="0.46" stop-color="#f49308"/></linearGradient><linearGradient id="linear-gradient-3" x1="72.11" y1="33.35" x2="124.89" y2="66.55" xlink:href="#linear-gradient-2"/><linearGradient id="linear-gradient-4" x1="33.11" y1="40.09" x2="90.28" y2="79.79" gradientUnits="userSpaceOnUse"><stop offset="0.02" stop-color="#f4e203"/><stop offset="0.7" stop-color="#f49308"/></linearGradient><linearGradient id="linear-gradient-5" x1="45.52" y1="45.95" x2="87.53" y2="82.3" xlink:href="#linear-gradient-4"/><linearGradient id="linear-gradient-6" x1="59.21" y1="62.86" x2="74.9" y2="44.81" gradientTransform="translate(60.48 -26.09) rotate(45)" gradientUnits="userSpaceOnUse"><stop offset="0.12" stop-color="#6efffb"/><stop offset="0.23" stop-color="#61f7fb"/><stop offset="0.43" stop-color="#3ee2fd"/><stop offset="0.71" stop-color="#06c0ff"/><stop offset="0.73" stop-color="#00bdff"/></linearGradient><linearGradient id="linear-gradient-7" x1="77.81" y1="78.4" x2="65.05" y2="60.54" gradientUnits="userSpaceOnUse"><stop offset="0.06" stop-color="#39f6ff"/><stop offset="0.14" stop-color="#30e9ff"/><stop offset="0.3" stop-color="#19c6ff"/><stop offset="0.43" stop-color="#03a5ff"/></linearGradient><linearGradient id="linear-gradient-8" x1="70.71" y1="68.88" x2="49.02" y2="45.38" gradientUnits="userSpaceOnUse"><stop offset="0" stop-color="#39f6ff"/><stop offset="0.03" stop-color="#2ce9ff"/><stop offset="0.09" stop-color="#09c6ff"/><stop offset="0.11" stop-color="#00bdff"/></linearGradient><linearGradient id="linear-gradient-9" x1="72.16" y1="49.6" x2="64.66" y2="56.32" gradientUnits="userSpaceOnUse"><stop offset="0" stop-color="#39f6ff"/><stop offset="0.11" stop-color="#2ce9ff"/><stop offset="0.31" stop-color="#09c6ff"/><stop offset="0.36" stop-color="#00bdff"/></linearGradient><linearGradient id="linear-gradient-10" x1="63.23" y1="42.48" x2="25.01" y2="76.75" gradientUnits="userSpaceOnUse"><stop offset="0.13" stop-color="#39f6ff"/><stop offset="0.3" stop-color="#2ce9ff"/><stop offset="0.61" stop-color="#09c6ff"/><stop offset="0.68" stop-color="#00bdff"/></linearGradient><linearGradient id="linear-gradient-11" x1="50.35" y1="72.03" x2="55.86" y2="63.58" xlink:href="#linear-gradient-10"/><linearGradient id="linear-gradient-12" x1="58.71" y1="26.73" x2="67.62" y2="32.09" xlink:href="#linear-gradient-4"/><linearGradient id="linear-gradient-13" x1="25.79" y1="57.62" x2="37.83" y2="64.86" xlink:href="#linear-gradient-4"/><linearGradient id="linear-gradient-14" x1="58.68" y1="90.06" x2="67.58" y2="95.42" xlink:href="#linear-gradient-4"/><linearGradient id="linear-gradient-15" x1="89.27" y1="57.57" x2="101.31" y2="64.81" xlink:href="#linear-gradient-4"/></defs><g id="Layer_2" data-name="Layer 2"><g id="Layer_1-2" data-name="Layer 1"><path class="cls-1" d="M61,31.88a17.13,17.13,0,0,1,2-.16l.28.12c3.5,1.4,11.13,1.95,12.18-2.73,1.21-5.46,3.58-10.69,5-16.14.16-.67.23-1.55-.38-1.86a1.56,1.56,0,0,0-1,0,51.39,51.39,0,0,0-9.46,3.12A60.77,60.77,0,0,0,64.47,3.33,9.83,9.83,0,0,0,61.8.11L61.64,0a.91.91,0,0,0-.16.11,10,10,0,0,0-2.57,3.31,61.39,61.39,0,0,0-4.76,11.05,50.64,50.64,0,0,0-9.56-2.81,1.49,1.49,0,0,0-1,0c-.6.32-.51,1.2-.32,1.86,1.55,5.41,4.08,10.56,5.47,16C49.93,34.18,57.54,33.39,61,31.88Z"/><path class="cls-2" d="M74.45,22.24a3.48,3.48,0,0,1-.84,1c-.63.44-3.37,0-3.9-.56-3.48-3.82-7.79-3-12.16-2.6-3.62.34-6.21,5.56-9.45,7.19a20.32,20.32,0,0,1,.64,2.28c1.19,4.65,8.81,3.85,12.25,2.34a19.81,19.81,0,0,1,2-.16l.29.12c3.49,1.4,11.13,1.95,12.17-2.73,1.21-5.46,3.58-10.68,5-16.14.17-.67.23-1.55-.38-1.86a1.25,1.25,0,0,0-.79,0,4,4,0,0,1-.17,2.46A42.44,42.44,0,0,1,74.45,22.24Z"/><path class="cls-2" d="M69.71,14.17l-.12.05A60.77,60.77,0,0,0,64.47,3.33,13.5,13.5,0,0,0,62.76.94c.07.14.13.28.2.43A43.84,43.84,0,0,1,66.77,18,24.5,24.5,0,0,1,69.71,14.17Z"/><path class="cls-2" d="M55.47,19.6a41.41,41.41,0,0,1-1.28-5.25s0,.08,0,.12a50.07,50.07,0,0,0-8.38-2.57,15.52,15.52,0,0,1,6.67,3.62A14.27,14.27,0,0,1,55.47,19.6Z"/><path class="cls-3" d="M62.35,7.27c.5-1.29.79-4.24-.5-5.06s-2.37,2.12-2.73,3.16c-1.75,5-2.72,10.7-1.47,15.87a15.29,15.29,0,0,1,1.91-9.78C60.48,10.05,61.72,8.9,62.35,7.27Z"/><path class="cls-4" d="M47.17,13.42c-.51-.61-1.89-.87-2.42-.17-.38.49-.16,1.2.07,1.77.89,2.18,1.83,4.33,2.8,6.47a12.65,12.65,0,0,0,1.54,2.7c-.46-1.37-.9-2.74-1.3-4.13a8.45,8.45,0,0,1-.49-3.37C47.51,15.65,48,14.35,47.17,13.42Z"/><path class="cls-5" d="M76.87,14.67c.57-.45,1.51-1.83.25-2.14a1.61,1.61,0,0,0-.84.08,14.14,14.14,0,0,0-8.66,7,9.32,9.32,0,0,1,4.45-2.75A16.38,16.38,0,0,0,76.87,14.67Z"/><path class="cls-6" d="M45.19,14.07a1.72,1.72,0,0,0,.17,1c.49,1.25,1,2.5,1.48,3.74a11.44,11.44,0,0,1-.49-4.54A.59.59,0,1,0,45.19,14.07Z"/><path class="cls-6" d="M59.14,10.19c.53-1,1.23-2,1.79-3a5.21,5.21,0,0,0,.8-3.59c-.45-1.58-1.38.56-1.58,1.15a25.81,25.81,0,0,0-1.33,5,.73.73,0,0,0,0,.36A.23.23,0,0,0,59.14,10.19Z"/><path class="cls-7" d="M.44,48.57C-.42,50.7.09,53.14,1,55.25A20.9,20.9,0,0,0,11.18,65.7C9,65,6.67,67,6.51,69.26,5.72,80.58,27,86.87,36.11,84.33c5.51-1.52,9.76-2.53,14.06-4.56,4.72-2.23,8.37-6.21,11.57-10.33,1.47-1.9,2.94-4.1,2.65-6.49a8.75,8.75,0,0,0-1.52-3.57A45.33,45.33,0,0,0,51.81,47.5a38.76,38.76,0,0,0-6.54-4.21c-2.48-1.14-5.19-1.57-7.65-2.91A34.58,34.58,0,0,1,30,34.64a64.14,64.14,0,0,1-10.5-14.51c-1.11-2-2.22-4-4-5.38S11,12.9,9.24,14.26c-1.62,1.24-2,3.52-1.94,5.55A20.14,20.14,0,0,0,10,29.29c-2.36-1.54-5.79-.64-7.53,1.58a8.87,8.87,0,0,0-1.09,8,18.54,18.54,0,0,0,4.59,7C3.9,44.92,1.29,46.43.44,48.57Z"/><path class="cls-2" d="M11.18,65.7l9.11,1.88c3.78.78,7.76,1.55,11.45.41a40.26,40.26,0,0,1-23.49-7.9A61.63,61.63,0,0,1,1.41,54C1,53.57.57,53.14.18,52.68A13.47,13.47,0,0,0,1,55.25,20.9,20.9,0,0,0,11.18,65.7Z"/><path class="cls-2" d="M11.2,13.49a3.86,3.86,0,0,0-2,.78c-1.62,1.23-2,3.51-1.93,5.54A20.13,20.13,0,0,0,9.84,29c.46.61.89,1.24,1.31,1.87A62.77,62.77,0,0,0,22.48,43.35c2.31,1.94,4.91,3.78,7.91,4.16A42.76,42.76,0,0,1,10,20.51c-.49-2.05-.75-4.18.43-6A8.46,8.46,0,0,1,11.2,13.49Z"/><path class="cls-2" d="M36.11,84.34c1.48-.42,2.87-.79,4.19-1.15.46-.75-.39-4.39-.87-5.11C26.58,83.94,9.11,79.43,6.5,69.7,6.27,80.74,27.08,86.84,36.11,84.34Z"/><path class="cls-2" d="M21.08,52.48c2.89,1.6,6,3.42,9.25,2.88A44.15,44.15,0,0,1,3.7,35.63a14.09,14.09,0,0,1-1.76-4,9.22,9.22,0,0,0-.56,7.25,18.24,18.24,0,0,0,4.41,6.81A91.49,91.49,0,0,1,21.08,52.48Z"/><path class="cls-2" d="M11.18,65.7a3.16,3.16,0,0,0-.65-.14Z"/><path class="cls-3" d="M26.55,40.25a6.59,6.59,0,0,0-1.72-3.15A27.77,27.77,0,0,1,20,27.52c-.63-2.2-1-4.48-1.8-6.62-.69-1.79-2.57-5.22-4.78-5.5-3.63-.45-1.85,5-1.12,6.5a96.74,96.74,0,0,0,6.4,11.81C20.6,36.63,23.12,39.51,26.55,40.25Z"/><path class="cls-3" d="M23.06,48.71A28.66,28.66,0,0,1,12.79,41,18.21,18.21,0,0,1,10,36.58c-.69-1.58-1-3.74-2-5.12a1.46,1.46,0,0,0-2.71.61A4.35,4.35,0,0,0,5.76,35C9,41.82,16,46.06,23.06,48.71Z"/><path class="cls-3" d="M23.92,60.43c-2.59-1.13-5.36-1.78-8-2.8a13.87,13.87,0,0,1-6.76-4.88c-.61-.94-1-2-1.71-2.88-.85-1.15-4.28-3.19-4.34-.31,0,2.36,1.9,4.26,3.85,5.61A30,30,0,0,0,23.92,60.43Z"/><path class="cls-8" d="M29,75.88a52.41,52.41,0,0,1-8.67-2,17.71,17.71,0,0,1-7.46-4.71c-1-1.1-3.05-2.78-3.46,0a2.9,2.9,0,0,0,.92,2.38,7.77,7.77,0,0,0,2.23,1.42C17.65,75.33,23.39,76.78,29,75.88Z"/><path class="cls-9" d="M19.72,32.44q-1.09-3.54-1.92-7.17c-.56-2.46-1.06-5.07-2.47-7.22-.47-.72-1.69-2.58-2.56-1.35s.55,2.62,1.18,3.47a18.34,18.34,0,0,1,1.46,2.5A106.11,106.11,0,0,1,19.72,32.44Z"/><path class="cls-10" d="M114.43,14.26c-1.78-1.36-4.47-.88-6.26.49a16.71,16.71,0,0,0-4,5.38A64.18,64.18,0,0,1,93.66,34.64a34.29,34.29,0,0,1-7.6,5.74c-2.47,1.34-5.18,1.77-7.66,2.91a39.58,39.58,0,0,0-6.54,4.21,45.3,45.3,0,0,0-11,11.88A8.91,8.91,0,0,0,59.28,63c-.29,2.39,1.19,4.59,2.66,6.49,3.2,4.12,6.85,8.1,11.57,10.33,4.29,2,8.55,3,14,4.56,9.15,2.54,30.39-3.75,29.6-15.07C117,67,114.68,65,112.5,65.7a20.92,20.92,0,0,0,10.18-10.45c.9-2.11,1.41-4.55.56-6.68s-3.46-3.65-5.54-2.66a18.42,18.42,0,0,0,4.59-7,8.81,8.81,0,0,0-1.09-8c-1.74-2.22-5.17-3.12-7.52-1.58a20.24,20.24,0,0,0,2.69-9.48C116.43,17.78,116.05,15.5,114.43,14.26Z"/><path class="cls-2" d="M112.5,65.7a20.92,20.92,0,0,0,10.18-10.45,12.79,12.79,0,0,0,.81-2.57c-.39.46-.81.89-1.23,1.32a60.75,60.75,0,0,1-6.84,6.09A40.26,40.26,0,0,1,91.93,68c3.69,1.14,7.67.37,11.46-.41Z"/><path class="cls-2" d="M93.29,47.51c3-.38,5.59-2.22,7.91-4.16a63,63,0,0,0,11.32-12.48c.43-.63.85-1.26,1.32-1.87a20.13,20.13,0,0,0,2.53-9.19c.06-2-.32-4.31-1.94-5.54a3.83,3.83,0,0,0-2-.78,7.46,7.46,0,0,1,.78,1c1.19,1.86.92,4,.44,6A42.79,42.79,0,0,1,93.29,47.51Z"/><path class="cls-2" d="M117.18,69.7c-2.61,9.73-20.08,14.24-32.94,8.38-.47.72-1.32,4.36-.87,5.11,1.33.36,2.71.73,4.19,1.15C96.59,86.84,117.4,80.74,117.18,69.7Z"/><path class="cls-2" d="M117.88,45.72a18.12,18.12,0,0,0,4.41-6.81,9.13,9.13,0,0,0-.56-7.25,13.81,13.81,0,0,1-1.76,4A44.09,44.09,0,0,1,93.34,55.36c3.25.54,6.37-1.28,9.25-2.88A91.85,91.85,0,0,1,117.88,45.72Z"/><path class="cls-2" d="M113.15,65.56a2.9,2.9,0,0,0-.65.14Z"/><path class="cls-3" d="M111.41,21.9c.73-1.5,2.51-6.95-1.12-6.5-2.2.28-4.08,3.71-4.77,5.5-.82,2.14-1.18,4.42-1.8,6.62a28.12,28.12,0,0,1-4.87,9.58,6.61,6.61,0,0,0-1.73,3.15c3.43-.74,5.95-3.62,7.9-6.54A98.06,98.06,0,0,0,111.41,21.9Z"/><path class="cls-3" d="M118.45,32.07a1.47,1.47,0,0,0-2.72-.61c-1.07,1.38-1.34,3.54-2,5.12A17.87,17.87,0,0,1,110.89,41a28.61,28.61,0,0,1-10.28,7.75c7.07-2.65,14.08-6.89,17.3-13.73A4.41,4.41,0,0,0,118.45,32.07Z"/><path class="cls-3" d="M120.56,49.56c0-2.88-3.48-.84-4.34.31-.66.9-1.1,1.94-1.71,2.88a13.82,13.82,0,0,1-6.76,4.88c-2.63,1-5.41,1.67-8,2.8a30,30,0,0,0,17-5.26C118.66,53.82,120.61,51.92,120.56,49.56Z"/><path class="cls-8" d="M113.37,71.51a2.87,2.87,0,0,0,.92-2.38c-.4-2.74-2.48-1.06-3.45,0a17.83,17.83,0,0,1-7.46,4.71,52.52,52.52,0,0,1-8.68,2c5.58.9,11.32-.55,16.44-2.95A7.63,7.63,0,0,0,113.37,71.51Z"/><path class="cls-9" d="M110.91,16.7c-.88-1.23-2.09.63-2.56,1.35-1.41,2.15-1.92,4.76-2.48,7.22s-1.19,4.81-1.91,7.17a101,101,0,0,1,4.31-9.77,17.3,17.3,0,0,1,1.45-2.5C110.35,19.32,111.72,17.84,110.91,16.7Z"/><polygon class="cls-11" points="67.81 97.58 99.22 64.31 99.22 55.13 66.53 22.67 57.89 24.16 24.46 55.13 25.63 64.41 57.82 97.16 67.81 97.58"/><polygon class="cls-12" points="24.7 61.53 25.67 65.26 57.76 97.16 66.98 96.86 98.25 65.26 99.15 55.13 66.85 23.05 57.32 22.97 24.52 56.11 24.55 59.27 30.68 58.26 31.6 54.22 57.34 27.77 67.73 27.77 95.19 54.87 95.19 65.26 67.93 92.86 57.54 92.86 29.95 65.55 30.17 60.42 24.7 61.53"/><path class="cls-13" d="M58.59,99h6.35a4.8,4.8,0,0,0,3.45-1.43L99.46,66.44A4.85,4.85,0,0,0,100.88,63V56.66a4.93,4.93,0,0,0-1.44-3.46L68.25,22.3a4.82,4.82,0,0,0-3.43-1.41H58.48A4.8,4.8,0,0,0,55,22.32L23.89,53.5a4.85,4.85,0,0,0-1.42,3.44v6.33a4.88,4.88,0,0,0,1.45,3.46L55.17,97.61A4.86,4.86,0,0,0,58.59,99ZM25.74,63.27V56.94a1.59,1.59,0,0,1,.47-1.13L57.34,24.63a1.61,1.61,0,0,1,1.14-.47h6.34a1.58,1.58,0,0,1,1.13.46l31.18,30.9a1.6,1.6,0,0,1,.48,1.14V63a1.59,1.59,0,0,1-.47,1.13L66.08,95.27a1.63,1.63,0,0,1-1.14.47H58.59a1.57,1.57,0,0,1-1.12-.46L26.22,64.41A1.64,1.64,0,0,1,25.74,63.27Z"/><path class="cls-14" d="M26.21,55.81,57.34,24.63a1.61,1.61,0,0,1,1.14-.47H57.1a1.63,1.63,0,0,0-1.14.47L24.83,55.81a1.59,1.59,0,0,0-.47,1.13v6.33a1.64,1.64,0,0,0,.48,1.14L56.09,95.28a1.57,1.57,0,0,0,1.12.46h1.38a1.57,1.57,0,0,1-1.12-.46L26.22,64.41a1.64,1.64,0,0,1-.48-1.14V56.94A1.59,1.59,0,0,1,26.21,55.81Z"/><path class="cls-14" d="M98.08,66.44,67,97.58A4.8,4.8,0,0,1,63.56,99h1.38a4.8,4.8,0,0,0,3.45-1.43L99.46,66.44A4.85,4.85,0,0,0,100.88,63V56.66a4.93,4.93,0,0,0-1.44-3.46L68.25,22.3a4.82,4.82,0,0,0-3.43-1.41H63.45a4.81,4.81,0,0,1,3.42,1.41L98.06,53.2a4.93,4.93,0,0,1,1.44,3.46V63A4.85,4.85,0,0,1,98.08,66.44Z"/><path class="cls-14" d="M59.28,89h4.93A2.52,2.52,0,0,0,66,88.27L90.11,64.09a2.51,2.51,0,0,0,.73-1.78V57.4a2.54,2.54,0,0,0-.74-1.79l-24.21-24a2.54,2.54,0,0,0-1.77-.72H59.19a2.55,2.55,0,0,0-1.78.73L33.25,55.84a2.47,2.47,0,0,0-.74,1.77v4.92a2.49,2.49,0,0,0,.75,1.78l24.26,24A2.52,2.52,0,0,0,59.28,89Z"/><polygon class="cls-15" points="65.08 87.62 89.45 63.19 89.45 56.52 64.99 32.28 58.32 32.28 33.9 56.73 33.9 63.4 58.41 87.62 65.08 87.62"/><polygon class="cls-16" points="64.47 82.61 84.42 62.6 84.42 57.14 64.39 37.29 58.93 37.29 38.93 57.32 38.93 62.78 59 82.61 64.47 82.61"/><rect class="cls-17" x="47.7" y="45.92" width="28.07" height="28.07" transform="translate(-24.32 61.21) rotate(-45)"/><rect class="cls-18" x="51.91" y="50.14" width="19.64" height="19.64" transform="translate(-24.32 61.21) rotate(-45)"/><polygon class="cls-19" points="39.76 62.67 41.88 59.96 39.76 57.41 39.76 62.67"/><polygon class="cls-20" points="59.1 81.79 64.36 81.79 61.65 79.77 59.1 81.79"/><polygon class="cls-21" points="81.58 59.96 83.59 62.51 83.59 57.24 81.58 59.96"/><polygon class="cls-19" points="59.03 38.11 61.74 40.13 64.29 38.11 59.03 38.11"/><polygon class="cls-22" points="81.58 59.96 61.65 79.77 64.36 81.79 83.59 62.51 81.58 59.96"/><polygon class="cls-23" points="64.29 38.11 61.74 40.13 81.58 59.96 83.59 57.24 64.29 38.11"/><polygon class="cls-24" points="59.03 38.11 39.76 57.41 41.88 59.96 61.74 40.13 59.03 38.11"/><polygon class="cls-23" points="41.88 59.96 39.76 62.67 59.1 81.79 61.65 79.77 41.88 59.96"/><polygon class="cls-25" points="61.73 73.85 61.65 79.77 81.58 59.96 75.62 59.96 61.73 73.85"/><polygon class="cls-26" points="61.74 40.13 61.73 46.07 75.62 59.96 81.58 59.96 61.74 40.13"/><path class="cls-27" d="M61.73,46.07V40.13L41.88,60c.46.11,6,0,6,0Z"/><polygon class="cls-28" points="47.84 59.96 41.88 59.96 61.65 79.77 61.73 73.85 47.84 59.96"/><path class="cls-29" d="M47.84,60,61.73,73.85,66.6,69a13.15,13.15,0,0,1-2.17.18,12.2,12.2,0,0,1-9.54-4.6,10.91,10.91,0,0,1-1.73-9.92Z"/><g class="cls-30"><path class="cls-31" d="M63.86,65.51a30.8,30.8,0,0,1,6-8.61c.42-.46.85-.91,1.29-1.36l-3.43-3.42A98.61,98.61,0,0,0,54.13,66.26l7.37,7.37L62,71.54A37.18,37.18,0,0,1,63.86,65.51Z"/><path class="cls-31" d="M54.29,57.45a109.81,109.81,0,0,1,11.57-7.24l-2.68-2.67c-2.15,1.3-4.26,2.67-6.31,4.13L48.2,60.33l1.19,1.2A33.05,33.05,0,0,1,54.29,57.45Z"/></g><polygon class="cls-31" points="47.84 59.96 61.73 73.85 49.78 59.96 58.41 49.39 47.84 59.96"/><path class="cls-32" d="M61.73,73.85l-.08,5.92a29.36,29.36,0,0,1,3-6.41c2-2.84,10.94-13.4,10.94-13.4Z"/><polygon class="cls-21" points="61.73 73.85 61.65 79.77 62.48 74.14 73.35 62.3 61.73 73.85"/><polygon class="cls-21" points="75.11 60.47 81.58 59.96 75.62 59.96 75.11 60.47"/><polygon class="cls-21" points="47.84 59.96 41.88 59.96 47.84 60.47 59.97 72.08 47.84 59.96"/><polygon class="cls-33" points="83.59 57.24 82.89 61.62 63.72 81.24 59.1 81.79 64.36 81.79 83.59 62.51 83.59 57.24"/><polygon class="cls-34" points="64.29 38.11 59.03 38.11 39.76 57.41 40.3 58.06 59.64 38.54 64.29 38.11"/><path class="cls-35" d="M61.65,79.77,41.88,60s6.36,8.22,10.79,13.42a79.45,79.45,0,0,1,6.43,8.41Z"/><polygon class="cls-36" points="61.65 79.77 46.17 64.24 60.51 79.77 59.1 81.79 61.65 79.77"/><polygon class="cls-33" points="61.65 79.77 64.17 81.63 62.66 79.55 70.6 70.87 61.65 79.77"/><polygon class="cls-37" points="61.74 40.13 70.66 49.04 62.66 40.13 64.29 38.11 61.74 40.13"/><path class="cls-32" d="M61.73,46.07s.84.87,2.13,2.13Z"/><path class="cls-32" d="M81.58,60s-2-.33-6.66-2.72c-3.23-1.63-8.23-6.28-11.06-9L75.62,60Z"/><path class="cls-38" d="M44,57.85l.23-.22Z"/><path class="cls-38" d="M61.73,46.07V40.13S46.25,55.62,44.2,57.63c2-1.87,16.5-15.3,16.5-15.3Z"/><path class="cls-39" d="M44.11,60.11a6.47,6.47,0,0,1,3.35,2.59,12.35,12.35,0,0,1,1.68,4A14.6,14.6,0,0,1,50.38,63,6.44,6.44,0,0,1,53,60.17a7.18,7.18,0,0,1-3.15-3,12.13,12.13,0,0,1-1.44-4.11c.16.84-1.18,3.93-1.72,4.74A6.08,6.08,0,0,1,44.11,60.11Z"/><path class="cls-40" d="M42.9,60.32a8.16,8.16,0,0,1,4.26,3.2,15.11,15.11,0,0,1,2.14,4.9,17.58,17.58,0,0,1,1.56-4.58,8.24,8.24,0,0,1,3.37-3.45,9.09,9.09,0,0,1-4-3.64,15,15,0,0,1-1.82-5.08c.19,1-1.5,4.86-2.19,5.86A7.65,7.65,0,0,1,42.9,60.32Z"/><path class="cls-31" d="M47.35,60a1.78,1.78,0,0,1,.92.71,3.22,3.22,0,0,1,.45,1.08,4.29,4.29,0,0,1,.34-1,1.81,1.81,0,0,1,.73-.77,1.9,1.9,0,0,1-.86-.8,3.25,3.25,0,0,1-.4-1.13,3.36,3.36,0,0,1-.47,1.3A1.64,1.64,0,0,1,47.35,60Z"/><path class="cls-41" d="M46.08,60A3.58,3.58,0,0,1,48,61.46a6.77,6.77,0,0,1,.94,2.21,8,8,0,0,1,.69-2.07A3.63,3.63,0,0,1,51.05,60,4,4,0,0,1,49.3,58.4a6.65,6.65,0,0,1-.8-2.29,7.29,7.29,0,0,1-1,2.64A3.43,3.43,0,0,1,46.08,60Z"/><polygon class="cls-37" points="81.58 58.9 72.24 50.63 81.58 59.96 83.59 57.24 81.58 58.9"/><polygon class="cls-42" points="61.73 46.07 62.34 59.51 75.62 59.96 61.73 46.07"/><polygon class="cls-42" points="61.35 60.91 61.73 73.85 66.2 69.38 61.35 60.91"/><polygon class="cls-43" points="58.32 32.28 33.9 56.73 38.93 57.32 58.93 37.29 58.32 32.28"/><polygon class="cls-2" points="84.42 62.6 64.47 82.61 65.08 87.62 89.45 63.19 84.42 62.6"/><polygon class="cls-44" points="64.99 32.28 64.39 37.29 84.42 57.14 89.45 56.52 64.99 32.28"/><path class="cls-44" d="M64.47,82.61H59l-.59,5h.91A7.5,7.5,0,0,1,61,84.43,6.2,6.2,0,0,1,64.47,82.61Z"/><polygon class="cls-31" points="58.32 32.28 57.87 37.29 38.93 56.11 33.9 56.73 38.93 57.32 58.93 37.29 58.32 32.28"/><polygon class="cls-31" points="33.9 63.4 38.93 62.78 38.93 60.91 33.9 63.4"/><polygon class="cls-43" points="63.41 37.29 64.39 37.29 64.99 32.28 63.41 37.29"/><path class="cls-45" d="M60.53,35.67a2.35,2.35,0,0,0,1.25.6,2.32,2.32,0,0,0,1.25-.6,9.83,9.83,0,0,0,2.24-2.94,12.9,12.9,0,0,0,1.71-5,2.53,2.53,0,0,0-2.2,0,11.78,11.78,0,0,0-2.17-5.86,5.26,5.26,0,0,0-.83-1.24A5.26,5.26,0,0,0,61,21.92a11.87,11.87,0,0,0-2.16,5.86,2.53,2.53,0,0,0-2.2,0,12.88,12.88,0,0,0,1.7,5A10,10,0,0,0,60.53,35.67Z"/><path class="cls-2" d="M64.82,27.93a2.12,2.12,0,0,1,.11-.21l-.15.06a11.78,11.78,0,0,0-2.17-5.86c-.21-.33-.48-1-.83-1.24-.05.15.14.56.13.76,0,1.5.24,3.06.27,4.57s0,3.21,0,4.82c0,.9-.07,1.79-.11,2.69a12.55,12.55,0,0,1-.14,2.61A48.17,48.17,0,0,1,64.82,27.93Z"/><path class="cls-2" d="M65.27,32.74a12.94,12.94,0,0,0,1.71-5l-.17-.07a3.09,3.09,0,0,1-.14.43c-1.1,2.71-2.25,5.5-4.33,7.54a5.16,5.16,0,0,0-.53.6,2.34,2.34,0,0,0,1.22-.6A9.91,9.91,0,0,0,65.27,32.74Z"/><g class="cls-46"><path class="cls-2" d="M60.53,35.64a2.35,2.35,0,0,0,1.25.6l.21,0a10.89,10.89,0,0,1-3.33-3.85,14.4,14.4,0,0,1-2-4.64l0,0a12.83,12.83,0,0,0,1.7,5A10,10,0,0,0,60.53,35.64Z"/><path class="cls-2" d="M60.73,22.37a9.51,9.51,0,0,0,.47-.91c-.08.14-.16.29-.25.43a11.87,11.87,0,0,0-2.16,5.85h0a2.72,2.72,0,0,1,.47.69c.19.32.37.65.56,1a2.56,2.56,0,0,1-.12-.92c0-.32,0-.65,0-1a11.92,11.92,0,0,1,.12-1.89A12.38,12.38,0,0,1,60.73,22.37Z"/></g><path class="cls-14" d="M61.78,20.68s.2,15.08.21,15,.91-5.94.91-8.21A40.08,40.08,0,0,0,61.78,20.68Z"/><path class="cls-47" d="M61.45,23a.37.37,0,0,0,0-.23c-.16-.45-.53.32-.56.41a8.22,8.22,0,0,0-.4,1.08A11.63,11.63,0,0,0,60,26.48,12.78,12.78,0,0,0,60.25,31c.1.4.21.8.35,1.19a8.11,8.11,0,0,1,.46,1.15,22,22,0,0,1-.5-5.77A34.43,34.43,0,0,1,61.45,23Z"/><path class="cls-47" d="M57.66,29a4.91,4.91,0,0,1,2,2.47A15.19,15.19,0,0,1,59.32,30a3.06,3.06,0,0,0-.64-1.36,1.53,1.53,0,0,0-1-.5c-.31,0-.76.06-.5.5A1.2,1.2,0,0,0,57.66,29Z"/><path class="cls-14" d="M60.56,35.67a2.28,2.28,0,0,0,1.25.6,2.35,2.35,0,0,0,1.25-.6,10.17,10.17,0,0,0,2.24-2.94,12.88,12.88,0,0,0,1.7-5l0,0a13.72,13.72,0,0,1-1.65,4.5,10.45,10.45,0,0,1-2.24,2.94,2.33,2.33,0,0,1-1.25.59,2.27,2.27,0,0,1-1.25-.59,10.09,10.09,0,0,1-2.24-2.94,13.28,13.28,0,0,1-1.65-4.5l-.06,0a12.9,12.9,0,0,0,1.71,5A9.83,9.83,0,0,0,60.56,35.67Z"/><path class="cls-48" d="M65.92,28.15c-.41-.25-.84.33-1,.62a13.83,13.83,0,0,0-1.38,3.61,7,7,0,0,1,1.35-2.22C65.11,29.85,66.46,28.48,65.92,28.15Z"/><path class="cls-49" d="M22.13,60.33a5.24,5.24,0,0,0,1.24.82,11.78,11.78,0,0,0,5.86,2.17,2.53,2.53,0,0,0,0,2.2,12.68,12.68,0,0,0,5-1.71,10,10,0,0,0,2.94-2.23,2.35,2.35,0,0,0,.6-1.25,2.35,2.35,0,0,0-.6-1.26,10,10,0,0,0-2.94-2.23,12.68,12.68,0,0,0-5-1.71,2.53,2.53,0,0,0,0,2.2,11.78,11.78,0,0,0-5.86,2.17A5,5,0,0,0,22.13,60.33Z"/><path class="cls-2" d="M29.38,63.36a48.17,48.17,0,0,1,8.2-2.92,11.9,11.9,0,0,1-2.61.14l-2.68.11c-1.61.05-3.22.08-4.83,0s-3.07-.32-4.57-.27c-.2,0-.6-.18-.76-.13.23.34.91.61,1.24.82a11.82,11.82,0,0,0,5.87,2.17,1,1,0,0,0-.07.15Z"/><path class="cls-2" d="M37.13,61.58a2.43,2.43,0,0,0,.59-1.23,5.11,5.11,0,0,0-.59.54c-2.05,2.08-4.84,3.23-7.55,4.32a3,3,0,0,1-.42.15l.06.16a12.72,12.72,0,0,0,5-1.71A10.24,10.24,0,0,0,37.13,61.58Z"/><g class="cls-46"><path class="cls-2" d="M37.66,60.54a1.52,1.52,0,0,0,0-.21,2.28,2.28,0,0,0-.6-1.26,10.06,10.06,0,0,0-2.93-2.23,12.72,12.72,0,0,0-5-1.71s0,0,0,.06a14.38,14.38,0,0,1,4.64,2A10.82,10.82,0,0,1,37.66,60.54Z"/><path class="cls-2" d="M29,58.21c.33,0,.65,0,1,0a2.8,2.8,0,0,1,.92.12l-1-.55a3,3,0,0,1-.69-.48v0a11.78,11.78,0,0,0-5.85,2.17l-.43.25c.32-.12.67-.37.91-.48a12.77,12.77,0,0,1,3.27-.94A12,12,0,0,1,29,58.21Z"/></g><path class="cls-14" d="M22.13,60.33a40.41,40.41,0,0,0,6.78,1.11c2.27,0,8.12-.89,8.21-.9S22.13,60.33,22.13,60.33Z"/><path class="cls-47" d="M24.49,60a34.46,34.46,0,0,1,4.5-.9,22.47,22.47,0,0,1,5.77.51,9.27,9.27,0,0,1-1.15-.47c-.39-.13-.79-.25-1.19-.34a12.51,12.51,0,0,0-4.48-.24,13.57,13.57,0,0,0-2.19.48c-.37.12-.73.25-1.08.4-.09,0-.86.41-.41.57A.6.6,0,0,0,24.49,60Z"/><path class="cls-47" d="M31.45,57.87c.5.12,1,.19,1.48.35a4.91,4.91,0,0,1-2.47-2,1.17,1.17,0,0,0-.37-.45c-.44-.27-.52.18-.5.5a1.53,1.53,0,0,0,.5,1A3.07,3.07,0,0,0,31.45,57.87Z"/><path class="cls-14" d="M33.7,63.84a13.28,13.28,0,0,1-4.5,1.65s0,0,0,.06a12.84,12.84,0,0,0,5-1.71,9.83,9.83,0,0,0,2.94-2.24,2.32,2.32,0,0,0,.6-1.25,2.35,2.35,0,0,0-.6-1.25,10,10,0,0,0-2.94-2.24,13,13,0,0,0-5-1.71s0,0,0,.06a13.5,13.5,0,0,1,4.5,1.65,10.27,10.27,0,0,1,2.94,2.24,2.26,2.26,0,0,1,.59,1.25,2.23,2.23,0,0,1-.59,1.25A10.09,10.09,0,0,1,33.7,63.84Z"/><path class="cls-48" d="M31.61,63.42a7.07,7.07,0,0,1,2.22-1.36,14,14,0,0,0-3.61,1.38c-.28.18-.87.61-.62,1S31.3,63.66,31.61,63.42Z"/><path class="cls-50" d="M61.15,98.71A5.58,5.58,0,0,0,62,100a5.26,5.26,0,0,0,.83-1.24A11.82,11.82,0,0,0,65,92.85a2.53,2.53,0,0,0,2.2,0,12.89,12.89,0,0,0-1.71-5A9.91,9.91,0,0,0,63.23,85a2.25,2.25,0,0,0-1.25-.6,2.28,2.28,0,0,0-1.25.6,10.26,10.26,0,0,0-2.24,2.93,12.87,12.87,0,0,0-1.7,5,2.53,2.53,0,0,0,2.2,0A11.91,11.91,0,0,0,61.15,98.71Z"/><path class="cls-2" d="M62,100a4.49,4.49,0,0,0,.83-1.24A11.82,11.82,0,0,0,65,92.84l.15.07L65,92.7a48.17,48.17,0,0,1-2.92-8.2,12.55,12.55,0,0,1,.14,2.61c0,.89.08,1.79.11,2.68,0,1.61.07,3.22,0,4.83s-.32,3.07-.27,4.57C62.12,99.39,61.93,99.79,62,100Z"/><path class="cls-2" d="M67,92.92l.17-.06a12.89,12.89,0,0,0-1.71-5A10.09,10.09,0,0,0,63.23,85,2.4,2.4,0,0,0,62,84.36a5,5,0,0,0,.54.59c2.08,2,3.22,4.84,4.32,7.55A2.07,2.07,0,0,1,67,92.92Z"/><g class="cls-46"><path class="cls-2" d="M62.19,84.42a1.52,1.52,0,0,0-.21,0,2.33,2.33,0,0,0-1.25.59,10.45,10.45,0,0,0-2.24,2.94,12.87,12.87,0,0,0-1.7,5l.05,0a14.68,14.68,0,0,1,2-4.65A10.86,10.86,0,0,1,62.19,84.42Z"/><path class="cls-2" d="M60,91.21l-.56,1a2.91,2.91,0,0,1-.47.69h0a11.87,11.87,0,0,0,2.16,5.85c.09.14.17.28.25.43a8.45,8.45,0,0,0-.47-.91A12.49,12.49,0,0,1,60,95a12,12,0,0,1-.12-1.89c0-.33,0-.65.05-1A2.8,2.8,0,0,1,60,91.21Z"/></g><path class="cls-14" d="M62,100a40.08,40.08,0,0,0,1.12-6.78c0-2.28-.9-8.12-.91-8.22S62,100,62,100Z"/><path class="cls-47" d="M60.8,88.47a11.66,11.66,0,0,0-.35,1.19,12.74,12.74,0,0,0-.23,4.48,11.73,11.73,0,0,0,.48,2.19,10,10,0,0,0,.4,1.08c0,.09.41.86.56.41a.37.37,0,0,0,0-.23,34.43,34.43,0,0,1-.89-4.5,21.62,21.62,0,0,1,.51-5.77A9.27,9.27,0,0,1,60.8,88.47Z"/><path class="cls-47" d="M57.91,92.49a1.53,1.53,0,0,0,1-.5,3.06,3.06,0,0,0,.64-1.36,14.52,14.52,0,0,1,.36-1.48,5,5,0,0,1-2,2.47,1.2,1.2,0,0,0-.46.37C57.14,92.43,57.59,92.51,57.91,92.49Z"/><path class="cls-14" d="M60.76,85.44a2.32,2.32,0,0,1,1.25-.6,2.35,2.35,0,0,1,1.25.6,10.45,10.45,0,0,1,2.24,2.94,13.5,13.5,0,0,1,1.65,4.5l0,0a12.87,12.87,0,0,0-1.7-5A10.26,10.26,0,0,0,63.26,85a2.28,2.28,0,0,0-1.25-.6,2.25,2.25,0,0,0-1.25.6,9.91,9.91,0,0,0-2.24,2.93,12.89,12.89,0,0,0-1.71,5l.06,0a13.28,13.28,0,0,1,1.65-4.5A10.09,10.09,0,0,1,60.76,85.44Z"/><path class="cls-48" d="M66.12,92.48c.54-.34-.81-1.71-1.05-2a7.35,7.35,0,0,1-1.35-2.22,13.76,13.76,0,0,0,1.38,3.6C65.28,92.14,65.71,92.73,66.12,92.48Z"/><path class="cls-51" d="M94.45,54.84a12.9,12.9,0,0,0-5,1.71,10.09,10.09,0,0,0-2.94,2.24A2.23,2.23,0,0,0,86,60a2.26,2.26,0,0,0,.59,1.25,10.27,10.27,0,0,0,2.94,2.24,12.88,12.88,0,0,0,5,1.7,2.5,2.5,0,0,0,0-2.2,11.94,11.94,0,0,0,5.87-2.16,5.47,5.47,0,0,0,1.24-.83,5.47,5.47,0,0,0-1.24-.83A11.86,11.86,0,0,0,94.44,57,2.5,2.5,0,0,0,94.45,54.84Z"/><path class="cls-2" d="M101.55,60c-.16,0-.57.14-.76.13-1.51-.05-3.06.24-4.57.27s-3.22,0-4.83,0c-.9,0-1.79-.07-2.68-.12a12,12,0,0,1-2.62-.13,47,47,0,0,1,8.2,2.92l.21.11L94.44,63a11.87,11.87,0,0,0,5.86-2.16C100.64,60.65,101.31,60.39,101.55,60Z"/><path class="cls-2" d="M89.49,63.53a12.88,12.88,0,0,0,5,1.7,1.11,1.11,0,0,0,.07-.16,3.09,3.09,0,0,1-.43-.14c-2.71-1.1-5.49-2.25-7.54-4.33a6.1,6.1,0,0,0-.59-.54,2.24,2.24,0,0,0,.59,1.23A10,10,0,0,0,89.49,63.53Z"/><g class="cls-46"><path class="cls-2" d="M89.86,56.92a14.36,14.36,0,0,1,4.65-2l0-.06a12.9,12.9,0,0,0-5,1.71,10.09,10.09,0,0,0-2.94,2.24A2.32,2.32,0,0,0,86,60a1.55,1.55,0,0,0,0,.21A10.77,10.77,0,0,1,89.86,56.92Z"/><path class="cls-2" d="M96.59,58.05a12,12,0,0,1,3.26.94c.24.1.59.35.92.47a4.41,4.41,0,0,1-.43-.25,11.87,11.87,0,0,0-5.85-2.16h0a3,3,0,0,1-.68.48l-1,.56a2.85,2.85,0,0,1,.92-.13c.33,0,.65,0,1,0A13.38,13.38,0,0,1,96.59,58.05Z"/></g><path class="cls-14" d="M86.55,60.25c.09,0,5.94.91,8.21.91A40.26,40.26,0,0,0,101.55,60S86.46,60.24,86.55,60.25Z"/><path class="cls-47" d="M99.19,59.71a.44.44,0,0,0,.23,0c.45-.16-.32-.53-.42-.57-.35-.15-.71-.28-1.07-.4a12.88,12.88,0,0,0-6.68-.24c-.4.1-.8.21-1.19.35a9.51,9.51,0,0,1-1.15.46,22.55,22.55,0,0,1,5.78-.51A35.13,35.13,0,0,1,99.19,59.71Z"/><path class="cls-47" d="M94.08,56c0-.31-.06-.76-.5-.5a1.17,1.17,0,0,0-.37.45,4.89,4.89,0,0,1-2.47,2,15.19,15.19,0,0,1,1.48-.36,2.92,2.92,0,0,0,1.36-.65A1.48,1.48,0,0,0,94.08,56Z"/><path class="cls-14" d="M90,56.58a13.34,13.34,0,0,1,4.51-1.65l0-.06a12.73,12.73,0,0,0-5,1.71,10.24,10.24,0,0,0-2.94,2.23,1.63,1.63,0,0,0,0,2.51,10.24,10.24,0,0,0,2.94,2.23,12.73,12.73,0,0,0,5,1.71l0-.06A13.34,13.34,0,0,1,90,63.55,10.06,10.06,0,0,1,87,61.32a2.28,2.28,0,0,1-.6-1.26,2.28,2.28,0,0,1,.6-1.25A10.06,10.06,0,0,1,90,56.58Z"/><path class="cls-48" d="M94.07,64.18c.26-.41-.33-.85-.62-1a13.55,13.55,0,0,0-3.6-1.38,7.11,7.11,0,0,1,2.21,1.35C92.37,63.37,93.74,64.72,94.07,64.18Z"/></g></g></svg>