<svg xmlns="http://www.w3.org/2000/svg" xmlns:xlink="http://www.w3.org/1999/xlink" viewBox="0 0 72.89 72.89"><defs><style>.cls-1{fill:#b76615;}.cls-2{fill:url(#linear-gradient);}.cls-22,.cls-3{fill:#fff30b;}.cls-4{fill:#d37816;}.cls-5{fill:#704621;}.cls-6{fill:#187c18;opacity:0.6;}.cls-7{fill:url(#linear-gradient-2);}.cls-8{fill:#1da020;opacity:0.35;}.cls-9{fill:url(#linear-gradient-3);}.cls-10,.cls-11,.cls-13,.cls-14,.cls-15,.cls-16,.cls-17,.cls-21{fill:#fff;}.cls-10{opacity:0.22;}.cls-12{opacity:0.27;}.cls-13{opacity:0.25;}.cls-14{opacity:0.68;}.cls-15{opacity:0.18;}.cls-16{opacity:0.12;}.cls-17{opacity:0.52;}.cls-18{fill:url(#linear-gradient-4);}.cls-19{fill:url(#linear-gradient-5);}.cls-20{opacity:0.59;}.cls-21{opacity:0.45;}.cls-22{opacity:0.48;}.cls-23{fill:url(#linear-gradient-6);}.cls-24{fill:url(#linear-gradient-7);}.cls-25{fill:url(#linear-gradient-8);}</style><linearGradient id="linear-gradient" x1="19.79" y1="20.69" x2="69.2" y2="67.25" gradientUnits="userSpaceOnUse"><stop offset="0.02" stop-color="#f4e203"/><stop offset="0.7" stop-color="#f49308"/></linearGradient><linearGradient id="linear-gradient-2" x1="20.5" y1="29.07" x2="55.53" y2="45.8" gradientTransform="translate(56.47 -10.84) rotate(67.78)" gradientUnits="userSpaceOnUse"><stop offset="0.02" stop-color="#f3f746"/><stop offset="0.38" stop-color="#7adc3f"/><stop offset="0.67" stop-color="#1ba82f"/></linearGradient><linearGradient id="linear-gradient-3" x1="24.74" y1="33.01" x2="49.85" y2="39.93" gradientUnits="userSpaceOnUse"><stop offset="0.2" stop-color="#f3f746"/><stop offset="0.71" stop-color="#7adc3f"/><stop offset="1" stop-color="#1ba82f"/></linearGradient><linearGradient id="linear-gradient-4" x1="1.59" y1="36.14" x2="71.28" y2="36.14" xlink:href="#linear-gradient"/><linearGradient id="linear-gradient-5" x1="3.66" y1="33.91" x2="15.7" y2="41.15" xlink:href="#linear-gradient"/><linearGradient id="linear-gradient-6" x1="33.01" y1="6.05" x2="41.92" y2="11.41" xlink:href="#linear-gradient"/><linearGradient id="linear-gradient-7" x1="33.11" y1="63" x2="42.02" y2="68.36" xlink:href="#linear-gradient"/><linearGradient id="linear-gradient-8" x1="60.61" y1="33.81" x2="72.65" y2="41.05" xlink:href="#linear-gradient"/></defs><g id="Layer_2" data-name="Layer 2"><g id="Layer_1-2" data-name="Layer 1"><circle class="cls-1" cx="36.43" cy="36.39" r="26.49"/><circle class="cls-2" cx="36.51" cy="36.45" r="25.14"/><path class="cls-3" d="M20,34.3A27.1,27.1,0,0,1,38.27,19.61q1.14-4,1.9-8.06a25.17,25.17,0,0,0-28.36,20C15.2,32.82,19.87,34.5,20,34.3Z"/><path class="cls-4" d="M35.39,59.89c-7.57,0-15.17-4.18-19.78-9.48,4,6.94,12.79,11.21,21.16,11.21A25.13,25.13,0,0,0,55.74,20a25.14,25.14,0,0,1-20.35,39.9Z"/><circle class="cls-5" cx="36.51" cy="36.45" r="20.9"/><circle class="cls-6" cx="36.51" cy="36.59" r="20.09" transform="translate(-15.18 36.54) rotate(-45)"/><circle class="cls-7" cx="36.3" cy="36.61" r="19.4" transform="translate(-11.32 56.37) rotate(-67.78)"/><path class="cls-8" d="M39.22,41.05a9.84,9.84,0,0,1-3.07,3.86,13.56,13.56,0,0,1-7.35,3.32A11.31,11.31,0,0,1,20,44.73a14.07,14.07,0,0,1-2.38-3.35,5,5,0,0,1-.31-.74,19.41,19.41,0,1,0,29-20.7,5.66,5.66,0,0,1,.1,2.62,5.92,5.92,0,0,1-5.3,4.54,2.14,2.14,0,0,0-1.3.31c-.47.4-.4,1.14-.31,1.75a37.59,37.59,0,0,1,.35,8.8A10.77,10.77,0,0,1,39.22,41.05Z"/><circle class="cls-6" cx="36.3" cy="36.76" r="13.02" transform="matrix(0.99, -0.16, 0.16, 0.99, -5.44, 6.32)"/><circle class="cls-9" cx="36.09" cy="36.14" r="13.02"/><path class="cls-10" d="M23.28,36.14a13,13,0,0,0,13,13,12.83,12.83,0,0,0,11.83-8,12.61,12.61,0,0,1-9,3.82,13,13,0,0,1-12-18.06A13,13,0,0,0,23.28,36.14Z"/><path class="cls-11" d="M23.08,36.19A13,13,0,0,0,46.54,44,13,13,0,0,1,26.3,27.61,13,13,0,0,0,23.08,36.19Z"/><g class="cls-12"><path class="cls-11" d="M26.35,38A169.44,169.44,0,0,1,41.93,24.51a13,13,0,0,0-4.6-1.36,126.35,126.35,0,0,0-11.27,9.24q-1.57,1.48-3.06,3c0,.22,0,.45,0,.67a13,13,0,0,0,.81,4.53C24.61,39.73,25.48,38.86,26.35,38Z"/><path class="cls-11" d="M37.21,49.07c3.68-5.49,7.38-11,11.4-16.21a13.11,13.11,0,0,0-3.49-6.05c-2,1.74-3.89,3.56-5.8,5.38q-6.54,6.29-12.93,12.7A13,13,0,0,0,36,49.12C36.41,49.12,36.81,49.1,37.21,49.07Z"/></g><path class="cls-13" d="M20.84,26.56l.17-.31.21-.38A1.25,1.25,0,0,0,20.84,26.56Z"/><path class="cls-13" d="M18,36.67c0,.3.23.68.52.61a.61.61,0,0,0,.28-.25c.35-.48.7-1,1.06-1.45a19.68,19.68,0,0,0,.9,5c.27.84.79,1.8,1.68,1.82-1.58-5.05-1.37-10.89,1.65-15.22,2.32-3.31,6-5.43,9.9-6.62.52-.16,1.16-.48,1.08-1a3.87,3.87,0,0,0-1.75-.2l.91-.95A13.82,13.82,0,0,0,30,19.61c-3.27,1.35-7.2,3.57-9,6.64C19.16,29.63,17.5,32.84,18,36.67Z"/><path class="cls-14" d="M24.67,23.18a8.93,8.93,0,0,0-.8.57,8.77,8.77,0,0,0-1.12,1.16,15.27,15.27,0,0,0-2.32,3.72A14.09,14.09,0,0,0,19.62,31l.74-.63a8.27,8.27,0,0,0-.19,3.05c0,.13.13.3.25.24a.21.21,0,0,0,.1-.16c.27-1,.43-2.05.72-3.06a13.17,13.17,0,0,1,5.06-7.09,1.51,1.51,0,0,0,.69-.77,5.07,5.07,0,0,0-1.81.91c.15-.24.31-.48.47-.72C25.55,22.91,24.85,23.08,24.67,23.18Z"/><path class="cls-6" d="M34.11,52.57a14.37,14.37,0,0,1-6.79-3,14.59,14.59,0,0,0,8.54,4.61c8.45,1.29,16.44-5.15,17.85-14.38a17.18,17.18,0,0,0-6-16.08A17.43,17.43,0,0,1,52,38.19C50.55,47.42,42.56,53.86,34.11,52.57Z"/><path class="cls-15" d="M38.08,24.83a6.87,6.87,0,0,1,3.56,2.75,13.07,13.07,0,0,1,1.78,4.21,15.66,15.66,0,0,1,1.31-3.93,6.92,6.92,0,0,1,2.82-3,7.62,7.62,0,0,1-3.35-3.13,12.94,12.94,0,0,1-1.52-4.36c.16.89-1.26,4.17-1.83,5A6.5,6.5,0,0,1,38.08,24.83Z"/><path class="cls-16" d="M36.8,25.05a8.67,8.67,0,0,1,4.52,3.4,16.21,16.21,0,0,1,2.27,5.2,18.62,18.62,0,0,1,1.66-4.86,8.69,8.69,0,0,1,3.57-3.66,9.63,9.63,0,0,1-4.24-3.87,15.71,15.71,0,0,1-1.94-5.39c.21,1.11-1.59,5.16-2.32,6.22A8.25,8.25,0,0,1,36.8,25.05Z"/><path class="cls-11" d="M41.51,24.66a1.88,1.88,0,0,1,1,.75A3.77,3.77,0,0,1,43,26.56a4,4,0,0,1,.36-1.07,1.85,1.85,0,0,1,.77-.82,2.1,2.1,0,0,1-.92-.85,3.65,3.65,0,0,1-.42-1.2,3.55,3.55,0,0,1-.5,1.38A1.75,1.75,0,0,1,41.51,24.66Z"/><path class="cls-17" d="M40.17,24.72a3.89,3.89,0,0,1,2,1.54,7.34,7.34,0,0,1,1,2.34,9,9,0,0,1,.73-2.19,3.91,3.91,0,0,1,1.57-1.65A4.28,4.28,0,0,1,43.59,23a7.31,7.31,0,0,1-.85-2.44,7.66,7.66,0,0,1-1,2.81A3.58,3.58,0,0,1,40.17,24.72Z"/><path class="cls-11" d="M14.7,29.08a1.32,1.32,0,0,0,1.15-.67A12.23,12.23,0,0,0,17,26,21.49,21.49,0,0,1,28.88,14.61c1.39-.54,2.84-.93,4.27-1.36.23-.06.5-.17.54-.4.08-.41-.53-.54-.94-.47-6.5,1.12-11.88,4.91-15.92,10A16.36,16.36,0,0,0,14.17,27a2.42,2.42,0,0,0-.2,1.18A1,1,0,0,0,14.7,29.08Z"/><path class="cls-11" d="M37.7,13.07c.34-.09.74-.32.71-.67s-.49-.49-.85-.52c-.52,0-2.82-.18-2.82.7S37.18,13.2,37.7,13.07Z"/><path class="cls-18" d="M71.28,36.14A34.85,34.85,0,1,0,36.43,71,34.88,34.88,0,0,0,71.28,36.14Zm-66.42,0A31.58,31.58,0,1,1,36.43,67.71,31.61,31.61,0,0,1,4.86,36.14Z"/><path class="cls-4" d="M36.43,4.56a31.42,31.42,0,0,1,18.72,6.16A31.56,31.56,0,1,0,17,61,31.57,31.57,0,0,1,36.43,4.56Z"/><path class="cls-4" d="M35.71,70.44A34.64,34.64,0,0,1,15,63.62,34.83,34.83,0,1,0,57.1,8.1,34.83,34.83,0,0,1,35.71,70.44Z"/><path class="cls-11" d="M6.14,22.3A35.79,35.79,0,0,1,16.47,9.12a2.59,2.59,0,0,0,1-1.15A2.14,2.14,0,0,0,16,8.63a49.68,49.68,0,0,0-5.1,4.95,36.87,36.87,0,0,0-3.88,4.69,14.12,14.12,0,0,0-1.62,3.79c-.06.25-.08.59.16.67S6,22.54,6.14,22.3Z"/><path class="cls-11" d="M31,2.7a3.89,3.89,0,0,0-3,.18c-1.13.39-10.56,3.69-9.88,4.92a4.11,4.11,0,0,0,1.48-.59A50.39,50.39,0,0,1,31,2.7Z"/><path class="cls-5" d="M10.68,42.19c.14,0,.27-.08.36-.19a13.91,13.91,0,0,1,2.9-2.46,8.39,8.39,0,0,0,1.29-.92,1.9,1.9,0,0,0,.64-1.41A1.62,1.62,0,0,0,15.15,36a2.6,2.6,0,0,0-1.38-.45,3.47,3.47,0,0,0-1.59.27,3.43,3.43,0,0,0-1.75,1.95A4.69,4.69,0,0,0,10.22,40a8.43,8.43,0,0,0,.24,1.93C10.5,42,10.56,42.16,10.68,42.19Z"/><path class="cls-19" d="M0,36.62a5.26,5.26,0,0,0,1.24.83,11.91,11.91,0,0,0,5.87,2.16,2.5,2.5,0,0,0,0,2.2,12.87,12.87,0,0,0,5-1.7A10.45,10.45,0,0,0,15,37.87a2.33,2.33,0,0,0,.59-1.25A2.3,2.3,0,0,0,15,35.37a10.09,10.09,0,0,0-2.94-2.24,12.89,12.89,0,0,0-5-1.71,2.5,2.5,0,0,0,0,2.2,11.82,11.82,0,0,0-5.87,2.17A5.26,5.26,0,0,0,0,36.62Z"/><path class="cls-4" d="M7.25,39.66a47.33,47.33,0,0,1,8.2-2.92,12.56,12.56,0,0,1-2.61.13c-.89.05-1.79.09-2.68.11-1.61.06-3.22.08-4.83,0S2.26,36.7.76,36.75c-.2,0-.6-.18-.76-.13.24.35.91.61,1.24.83a11.94,11.94,0,0,0,5.87,2.16.77.77,0,0,0-.07.16Z"/><path class="cls-4" d="M15,37.87a2.39,2.39,0,0,0,.59-1.23,6.1,6.1,0,0,0-.59.54c-2.05,2.08-4.84,3.23-7.54,4.33a3.59,3.59,0,0,1-.43.14,1.11,1.11,0,0,0,.07.16,12.88,12.88,0,0,0,5-1.7A10.27,10.27,0,0,0,15,37.87Z"/><g class="cls-20"><path class="cls-4" d="M15.53,36.83a.76.76,0,0,0,0-.21A2.3,2.3,0,0,0,15,35.37,10.09,10.09,0,0,0,12,33.13a12.89,12.89,0,0,0-5-1.71.14.14,0,0,1,0,.06,14.65,14.65,0,0,1,4.65,2A10.9,10.9,0,0,1,15.53,36.83Z"/><path class="cls-4" d="M6.85,34.5c.33,0,.65,0,1,0a2.81,2.81,0,0,1,.92.13l-1-.56a3,3,0,0,1-.68-.48h0a11.87,11.87,0,0,0-5.85,2.16L.78,36c.33-.12.67-.37.92-.48A12.29,12.29,0,0,1,5,34.63,13.34,13.34,0,0,1,6.85,34.5Z"/></g><path class="cls-1" d="M0,36.62a40.08,40.08,0,0,0,6.78,1.12c2.28,0,8.13-.9,8.22-.91S0,36.62,0,36.62Z"/><path class="cls-21" d="M2.36,36.29a35.13,35.13,0,0,1,4.5-.9,22.43,22.43,0,0,1,5.77.51,11,11,0,0,1-1.15-.46,11.66,11.66,0,0,0-1.19-.35,12.5,12.5,0,0,0-4.48-.23,12.56,12.56,0,0,0-2.19.47c-.36.12-.72.25-1.08.4-.09,0-.86.41-.41.57A.45.45,0,0,0,2.36,36.29Z"/><path class="cls-21" d="M9.32,34.16a13.9,13.9,0,0,1,1.48.36,4.9,4.9,0,0,1-2.46-2A1.29,1.29,0,0,0,8,32c-.43-.26-.52.18-.49.5a1.52,1.52,0,0,0,.49,1A3,3,0,0,0,9.32,34.16Z"/><path class="cls-1" d="M11.57,40.13a13.28,13.28,0,0,1-4.5,1.65s0,0,0,.06a12.89,12.89,0,0,0,5-1.71A10.09,10.09,0,0,0,15,37.89a2.27,2.27,0,0,0,.59-1.25A2.33,2.33,0,0,0,15,35.39a10.45,10.45,0,0,0-2.94-2.24,12.87,12.87,0,0,0-5-1.7s0,0,0,.06a13.48,13.48,0,0,1,4.5,1.64,10.17,10.17,0,0,1,2.94,2.24,2.35,2.35,0,0,1,.6,1.25,2.28,2.28,0,0,1-.6,1.25A9.83,9.83,0,0,1,11.57,40.13Z"/><path class="cls-22" d="M9.48,39.71a7.15,7.15,0,0,1,2.22-1.35,13.55,13.55,0,0,0-3.6,1.38c-.29.17-.88.6-.62,1S9.18,40,9.48,39.71Z"/><path class="cls-5" d="M36.5,15.91a1.58,1.58,0,0,0,1.2-.2,2.8,2.8,0,0,0,.67-.78c.5-.8.91-1.65,1.41-2.46a6.61,6.61,0,0,1,1.89-2.08,11.74,11.74,0,0,1-1.57-.29,2.44,2.44,0,0,0-.71-.1,2,2,0,0,0-.58.18,5.89,5.89,0,0,0-3.26,4.7c0,.22-.07.42.08.6A1.63,1.63,0,0,0,36.5,15.91Z"/><path class="cls-23" d="M34.83,15a2.33,2.33,0,0,0,1.25.59A2.3,2.3,0,0,0,37.33,15a10.09,10.09,0,0,0,2.24-2.94,12.89,12.89,0,0,0,1.71-5,2.5,2.5,0,0,0-2.2,0,11.82,11.82,0,0,0-2.17-5.87A5.26,5.26,0,0,0,36.08,0a5.26,5.26,0,0,0-.83,1.24,11.91,11.91,0,0,0-2.16,5.87,2.5,2.5,0,0,0-2.2,0,12.87,12.87,0,0,0,1.7,5A10.45,10.45,0,0,0,34.83,15Z"/><path class="cls-4" d="M39.12,7.25,39.23,7l-.15.07a11.86,11.86,0,0,0-2.17-5.87A4.49,4.49,0,0,0,36.08,0c0,.16.14.56.14.76,0,1.5.23,3.06.27,4.57s0,3.22,0,4.83c0,.89-.07,1.79-.11,2.68a12.55,12.55,0,0,1-.14,2.61A48.17,48.17,0,0,1,39.12,7.25Z"/><path class="cls-4" d="M39.57,12.06a12.9,12.9,0,0,0,1.71-5L41.11,7a2.39,2.39,0,0,1-.14.43c-1.1,2.7-2.24,5.49-4.32,7.54a5,5,0,0,0-.54.59A2.4,2.4,0,0,0,37.33,15,10.09,10.09,0,0,0,39.57,12.06Z"/><g class="cls-20"><path class="cls-4" d="M34.83,15a2.33,2.33,0,0,0,1.25.59.76.76,0,0,0,.21,0A10.77,10.77,0,0,1,33,11.69a14.46,14.46,0,0,1-2-4.65l-.05,0a12.87,12.87,0,0,0,1.7,5A10.45,10.45,0,0,0,34.83,15Z"/><path class="cls-4" d="M35,1.7A9.76,9.76,0,0,0,35.5.78c-.08.15-.16.29-.25.43a11.87,11.87,0,0,0-2.16,5.85l0,0a2.66,2.66,0,0,1,.47.68c.19.33.37.66.56,1A2.8,2.8,0,0,1,34,7.82c0-.32-.05-.64-.05-1A12,12,0,0,1,34.09,5,12.31,12.31,0,0,1,35,1.7Z"/></g><path class="cls-1" d="M36.08,0s.2,15.09.21,15,.91-5.94.91-8.22A40.08,40.08,0,0,0,36.08,0Z"/><path class="cls-21" d="M35.75,2.36a.36.36,0,0,0,0-.23c-.16-.45-.52.32-.56.41-.15.36-.29.72-.4,1.08a11.73,11.73,0,0,0-.48,2.19,12.74,12.74,0,0,0,.23,4.48,11.66,11.66,0,0,0,.35,1.19,7.88,7.88,0,0,1,.46,1.15,22,22,0,0,1-.5-5.77A35.09,35.09,0,0,1,35.75,2.36Z"/><path class="cls-21" d="M32,8.34a4.89,4.89,0,0,1,2,2.46,14.52,14.52,0,0,1-.36-1.48A3.11,3.11,0,0,0,33,8a1.52,1.52,0,0,0-1-.49c-.32,0-.77.06-.51.49A1.32,1.32,0,0,0,32,8.34Z"/><path class="cls-1" d="M34.86,15a2.3,2.3,0,0,0,1.25.59A2.33,2.33,0,0,0,37.36,15a10.45,10.45,0,0,0,2.24-2.94,12.87,12.87,0,0,0,1.7-5l0,0a13.5,13.5,0,0,1-1.65,4.5,10.17,10.17,0,0,1-2.24,2.94,2.35,2.35,0,0,1-1.25.6,2.32,2.32,0,0,1-1.25-.6,9.83,9.83,0,0,1-2.24-2.94A13.28,13.28,0,0,1,31,7.07l-.06,0a12.89,12.89,0,0,0,1.71,5A10.09,10.09,0,0,0,34.86,15Z"/><path class="cls-22" d="M40.22,7.48c-.41-.26-.84.33-1,.62a13.9,13.9,0,0,0-1.38,3.6,7.35,7.35,0,0,1,1.35-2.22C39.41,9.18,40.76,7.81,40.22,7.48Z"/><path class="cls-5" d="M32.84,62.35l5.52.13,1.37,0c.44,0,.52.15,1,.1A14.62,14.62,0,0,0,43.05,62a10.52,10.52,0,0,1-1.85-.6,15,15,0,0,1-2.9-2.73,2.28,2.28,0,0,0-.56-.42,1.89,1.89,0,0,0-.71-.12,5.53,5.53,0,0,0-3.42,1.76,8.91,8.91,0,0,1-3.17,2.27,14.34,14.34,0,0,0,1.91.41C32.79,62.63,32.4,62.34,32.84,62.35Z"/><path class="cls-24" d="M35.59,71.65a5.26,5.26,0,0,0,.83,1.24,5.26,5.26,0,0,0,.83-1.24,11.81,11.81,0,0,0,2.16-5.86,2.56,2.56,0,0,0,2.21,0,12.89,12.89,0,0,0-1.71-5,10.08,10.08,0,0,0-2.24-2.93,2.25,2.25,0,0,0-1.25-.6,2.25,2.25,0,0,0-1.25.6,10.08,10.08,0,0,0-2.24,2.93,12.89,12.89,0,0,0-1.71,5,2.56,2.56,0,0,0,2.21,0A11.81,11.81,0,0,0,35.59,71.65Z"/><path class="cls-4" d="M36.42,72.89c.35-.24.61-.91.83-1.24a11.81,11.81,0,0,0,2.16-5.87l.16.07a2.12,2.12,0,0,1-.11-.21,48.17,48.17,0,0,1-2.92-8.2,12.55,12.55,0,0,1,.14,2.61c0,.89.08,1.79.11,2.68.05,1.61.07,3.22,0,4.83s-.31,3.07-.27,4.57C36.56,72.33,36.37,72.73,36.42,72.89Z"/><path class="cls-4" d="M41.45,65.86l.17-.06a12.89,12.89,0,0,0-1.71-5,10.27,10.27,0,0,0-2.24-2.94,2.4,2.4,0,0,0-1.22-.59,6,6,0,0,0,.53.59c2.08,2,3.23,4.84,4.33,7.55A3,3,0,0,1,41.45,65.86Z"/><g class="cls-20"><path class="cls-4" d="M36.63,57.36l-.21,0a2.3,2.3,0,0,0-1.25.59,10.27,10.27,0,0,0-2.24,2.94,12.89,12.89,0,0,0-1.71,5l.06,0a14.46,14.46,0,0,1,2-4.65A11,11,0,0,1,36.63,57.36Z"/><path class="cls-4" d="M34.48,64.15l-.56,1a3.28,3.28,0,0,1-.48.69h0a11.87,11.87,0,0,0,2.16,5.85c.09.14.17.28.25.43-.11-.33-.37-.67-.47-.91a12.49,12.49,0,0,1-.94-3.27A13.34,13.34,0,0,1,34.3,66c0-.33,0-.65.06-1A2.56,2.56,0,0,1,34.48,64.15Z"/></g><path class="cls-1" d="M36.42,72.89a40.08,40.08,0,0,0,1.12-6.78c0-2.28-.9-8.12-.91-8.22S36.42,72.89,36.42,72.89Z"/><path class="cls-21" d="M35.24,61.41a11.66,11.66,0,0,0-.35,1.19,12.74,12.74,0,0,0-.23,4.48,11.73,11.73,0,0,0,.48,2.19,9.9,9.9,0,0,0,.39,1.08c0,.09.41.86.57.41a.37.37,0,0,0,0-.23A34.43,34.43,0,0,1,35.2,66a22,22,0,0,1,.5-5.77A9.19,9.19,0,0,1,35.24,61.41Z"/><path class="cls-21" d="M32.34,65.43a1.55,1.55,0,0,0,1-.5A3.06,3.06,0,0,0,34,63.57a14.52,14.52,0,0,1,.36-1.48,5,5,0,0,1-2,2.47,1.24,1.24,0,0,0-.45.37C31.58,65.37,32,65.45,32.34,65.43Z"/><path class="cls-1" d="M35.19,58.38a2.35,2.35,0,0,1,1.26-.6,2.35,2.35,0,0,1,1.25.6,10.24,10.24,0,0,1,2.23,2.94,13.28,13.28,0,0,1,1.65,4.5l.06,0a12.72,12.72,0,0,0-1.71-5A10.06,10.06,0,0,0,37.7,57.9a2.28,2.28,0,0,0-1.25-.6,2.28,2.28,0,0,0-1.26.6A10.06,10.06,0,0,0,33,60.83a12.72,12.72,0,0,0-1.71,5l.06,0A13.28,13.28,0,0,1,33,61.32,10.24,10.24,0,0,1,35.19,58.38Z"/><path class="cls-22" d="M40.56,65.42c.54-.34-.81-1.71-1.05-2a7.15,7.15,0,0,1-1.35-2.22,13.42,13.42,0,0,0,1.38,3.6C39.72,65.08,40.15,65.67,40.56,65.42Z"/><path class="cls-5" d="M62.23,42.28a11.33,11.33,0,0,0,.34-3.61,4.09,4.09,0,0,0-1.74-3.06,2.74,2.74,0,0,0-2.27-.24c-.64.22-1.51.88-1.36,1.62a2.18,2.18,0,0,0,.45.85C59,39.53,61.08,40.48,62.23,42.28Z"/><path class="cls-25" d="M65.8,31.08a13.05,13.05,0,0,0-5,1.71A10.08,10.08,0,0,0,57.9,35a2.28,2.28,0,0,0-.6,1.25,2.25,2.25,0,0,0,.6,1.25,10.08,10.08,0,0,0,2.93,2.24,12.89,12.89,0,0,0,5,1.71,2.56,2.56,0,0,0,0-2.21,11.81,11.81,0,0,0,5.86-2.16,5.26,5.26,0,0,0,1.24-.83,5.26,5.26,0,0,0-1.24-.83,11.81,11.81,0,0,0-5.86-2.16A2.56,2.56,0,0,0,65.8,31.08Z"/><path class="cls-4" d="M72.89,36.28c-.16-.05-.56.14-.76.13-1.5,0-3.06.24-4.57.27s-3.22,0-4.83,0l-2.68-.11a12.55,12.55,0,0,1-2.61-.14,48.17,48.17,0,0,1,8.2,2.92l.21.11a1.11,1.11,0,0,0-.07-.16,11.81,11.81,0,0,0,5.87-2.16C72,36.89,72.65,36.63,72.89,36.28Z"/><path class="cls-4" d="M60.83,39.77a12.89,12.89,0,0,0,5,1.71l.06-.17a3,3,0,0,1-.42-.14c-2.71-1.1-5.5-2.25-7.55-4.33a6,6,0,0,0-.59-.53,2.4,2.4,0,0,0,.59,1.22A10.27,10.27,0,0,0,60.83,39.77Z"/><g class="cls-20"><path class="cls-4" d="M61.2,33.16a14.46,14.46,0,0,1,4.65-2s0,0,0-.06a13.05,13.05,0,0,0-5,1.71A10.27,10.27,0,0,0,57.92,35a2.3,2.3,0,0,0-.59,1.25,1.52,1.52,0,0,0,0,.21A10.86,10.86,0,0,1,61.2,33.16Z"/><path class="cls-4" d="M67.93,34.29a12.49,12.49,0,0,1,3.27.94c.24.1.58.36.91.47l-.43-.25a11.87,11.87,0,0,0-5.85-2.16v0a3.65,3.65,0,0,1-.69.47l-1,.56a2.56,2.56,0,0,1,.92-.12c.32,0,.64,0,1,0A12,12,0,0,1,67.93,34.29Z"/></g><path class="cls-1" d="M72.89,36.28s-15.09.2-15,.21,5.94.91,8.22.91A40.08,40.08,0,0,0,72.89,36.28Z"/><path class="cls-21" d="M66,35.06a34.43,34.43,0,0,1,4.5.89.37.37,0,0,0,.23,0c.45-.16-.32-.53-.41-.57A9.9,9.9,0,0,0,69.27,35a11.73,11.73,0,0,0-2.19-.48,12.74,12.74,0,0,0-4.48.23,11.66,11.66,0,0,0-1.19.35,9.19,9.19,0,0,1-1.15.46A22,22,0,0,1,66,35.06Z"/><path class="cls-21" d="M65.43,32.2c0-.31-.06-.76-.5-.5a1.24,1.24,0,0,0-.37.45,5,5,0,0,1-2.47,2,14.52,14.52,0,0,1,1.48-.36,3.06,3.06,0,0,0,1.36-.64A1.55,1.55,0,0,0,65.43,32.2Z"/><path class="cls-1" d="M61.32,32.82a13.28,13.28,0,0,1,4.5-1.65s0,0,0-.06a12.72,12.72,0,0,0-5,1.71,9.91,9.91,0,0,0-2.93,2.24,2.22,2.22,0,0,0-.6,1.25,2.28,2.28,0,0,0,.6,1.25,10.26,10.26,0,0,0,2.93,2.24,12.87,12.87,0,0,0,5,1.7s0,0,0-.06a13.48,13.48,0,0,1-4.5-1.64,10.45,10.45,0,0,1-2.94-2.24,2.35,2.35,0,0,1-.6-1.25,2.28,2.28,0,0,1,.6-1.25A10.09,10.09,0,0,1,61.32,32.82Z"/><path class="cls-22" d="M65.42,40.42c.25-.41-.34-.84-.63-1A13.42,13.42,0,0,0,61.19,38a7.15,7.15,0,0,1,2.22,1.35C63.71,39.61,65.08,41,65.42,40.42Z"/><path class="cls-3" d="M57.67,60.82a28,28,0,0,1-4.49,3.25c-3,1.72-6,2.38-9.16,3.62a25.67,25.67,0,0,0,17.12-9.8c.24-.33.49-.76.29-1.12C61.7,57.24,58.1,60.44,57.67,60.82Z"/></g></g></svg>