<svg xmlns="http://www.w3.org/2000/svg" xmlns:xlink="http://www.w3.org/1999/xlink" viewBox="0 0 54.09 51.68"><defs><style>.cls-1{fill:#b76615;}.cls-2{fill:url(#linear-gradient);}.cls-3{fill:#fff30b;}.cls-4{fill:#d37816;}.cls-5{fill:#ef8216;opacity:0.77;}.cls-18,.cls-20,.cls-21,.cls-22,.cls-23,.cls-24,.cls-6{fill:#fff;}.cls-7{fill:#704621;}.cls-8{fill:#ffa608;}.cls-9{fill:url(#linear-gradient-2);}.cls-10{fill:#ff7d12;}.cls-11{fill:url(#linear-gradient-3);}.cls-12{fill:#ff5a08;}.cls-13{fill:url(#linear-gradient-4);}.cls-14{fill:#ff7610;}.cls-15{fill:#ffb600;}.cls-16{opacity:0.42;}.cls-17{fill:#b21b0b;}.cls-18{opacity:0.3;}.cls-19{fill:url(#linear-gradient-5);}.cls-20{opacity:0.11;}.cls-21{opacity:0.18;}.cls-22{opacity:0.12;}.cls-23{opacity:0.52;}.cls-24{opacity:0.26;}</style><linearGradient id="linear-gradient" x1="11.35" y1="15.31" x2="50.94" y2="48.81" gradientUnits="userSpaceOnUse"><stop offset="0.02" stop-color="#f4e203"/><stop offset="0.7" stop-color="#f49308"/></linearGradient><linearGradient id="linear-gradient-2" x1="27.14" y1="53.26" x2="26.85" y2="33.97" gradientUnits="userSpaceOnUse"><stop offset="0" stop-color="#ff7d12"/><stop offset="0.18" stop-color="#fb7811"/><stop offset="0.37" stop-color="#f06b0f"/><stop offset="0.58" stop-color="#de540b"/><stop offset="0.8" stop-color="#c43506"/><stop offset="0.82" stop-color="#c13105"/></linearGradient><linearGradient id="linear-gradient-3" x1="14.58" y1="9.72" x2="25.58" y2="24.95" gradientUnits="userSpaceOnUse"><stop offset="0" stop-color="#ffa608"/><stop offset="0.54" stop-color="#ff5f08"/><stop offset="0.57" stop-color="#ff5a08"/></linearGradient><linearGradient id="linear-gradient-4" x1="50.27" y1="34.92" x2="39.26" y2="30.45" gradientUnits="userSpaceOnUse"><stop offset="0" stop-color="#ff7d12"/><stop offset="0.77" stop-color="#c53606"/><stop offset="0.82" stop-color="#c13105"/></linearGradient><linearGradient id="linear-gradient-5" x1="27.03" y1="17.15" x2="45.43" y2="17.15" xlink:href="#linear-gradient-4"/></defs><g id="Layer_2" data-name="Layer 2"><g id="Layer_1-2" data-name="Layer 1"><path class="cls-1" d="M54.09,22.75h0l-2.56-7.89-.08.09.08-.09L41.3,7.43,32.08.73A3.83,3.83,0,0,0,29.82,0L24.09,0a3.85,3.85,0,0,0-2.22.73L14.42,6.17h0L9.79,9.54,3.4,14.18A3.79,3.79,0,0,0,2,16.07L.19,21.61A3.87,3.87,0,0,0,.19,24L3.71,34.83,7.23,45.67a3.81,3.81,0,0,0,1.39,1.91L13.27,51a3.77,3.77,0,0,0,2.24.73H38.33A3.77,3.77,0,0,0,40.57,51l4.71-3.41a3.88,3.88,0,0,0,1.38-1.91l3.53-10.85,3.9-12Z"/><polygon class="cls-2" points="52.87 22.89 52.87 22.89 52.87 22.89 50.43 15.35 50.35 15.44 50.43 15.35 40.66 8.25 30.88 1.16 23.05 1.2 14.99 7.06 14.99 7.06 10.56 10.27 3.51 15.4 1.02 22.93 4.75 34.42 8.49 45.91 14.85 50.52 39 50.52 45.41 45.86 49.14 34.38 52.87 22.89 52.87 22.89 52.87 22.89 52.87 22.89"/><polygon class="cls-3" points="7.99 17.39 23.79 5.91 23.05 1.2 3.51 15.4 7.99 17.39"/><polygon class="cls-4" points="36.7 45.8 39 50.52 45.41 45.86 52.87 22.89 47.92 23.45 41.88 42.03 36.7 45.8"/><polygon class="cls-5" points="45.94 17.36 50.43 15.35 30.88 1.16 30.13 5.88 45.94 17.36"/><polygon class="cls-5" points="14.85 50.52 39 50.52 36.7 45.8 17.16 45.8 14.85 50.52"/><path class="cls-5" d="M8.49,45.91l.91.66s.92-1.06,3.82-1.43a5.62,5.62,0,0,1,3.69.48L12,42.07Z"/><path class="cls-5" d="M16.91,45.62l.25.18A1.35,1.35,0,0,0,16.91,45.62Z"/><polygon class="cls-6" points="8.03 16.25 3.51 15.4 7.99 17.39 23.79 5.91 23.05 1.2 22.62 5.88 8.03 16.25"/><polygon class="cls-6" points="6.56 21.72 1.02 22.93 5.98 23.49 6.56 21.72"/><polygon class="cls-7" points="48.5 23.4 48.5 23.4 48.5 23.4 46.48 17.17 46.41 17.24 46.48 17.17 38.39 11.29 30.3 5.42 23.82 5.45 17.15 10.3 17.15 10.3 13.49 12.96 7.65 17.2 5.59 23.44 8.68 32.94 11.77 42.45 17.03 46.26 37.02 46.26 42.32 42.41 45.41 32.91 48.5 23.4 48.5 23.4 48.5 23.4 48.5 23.4"/><polygon class="cls-7" points="48.5 23.4 48.5 23.4 48.5 23.4 48.5 23.4"/><polygon class="cls-8" points="18.18 39.1 35.88 39.1 41.34 22.27 27.03 11.87 12.71 22.27 18.18 39.1"/><polygon class="cls-9" points="18.18 39.1 17.38 45.59 27.03 45.59 36.68 45.59 35.88 39.1 27.03 39.1 18.18 39.1"/><polygon class="cls-10" points="6.33 23.55 9.32 32.73 12.3 41.91 18.22 39.14 15.49 30.73 12.75 22.31 6.33 23.55"/><polygon class="cls-11" points="8.32 17.53 12.78 22.31 19.94 17.11 27.03 11.87 23.93 6.19 16.13 11.86 8.32 17.53"/><polygon class="cls-12" points="27.03 11.87 34.18 17.07 41.34 22.27 45.8 17.5 38 11.82 30.19 6.15 27.03 11.87"/><polygon class="cls-13" points="35.87 39.1 41.8 41.87 44.78 32.7 47.76 23.52 41.34 22.27 38.61 30.69 35.87 39.1"/><polygon class="cls-12" points="12.78 22.31 8.32 17.53 6.33 23.55 12.78 22.31"/><polygon class="cls-8" points="18.22 39.14 12.3 41.91 17.38 45.59 18.22 39.14"/><polygon class="cls-14" points="41.8 41.87 35.87 39.1 36.68 45.59 41.8 41.87"/><polygon class="cls-8" points="30.19 6.15 23.93 6.19 27.03 11.87 30.19 6.15"/><polygon class="cls-10" points="41.04 22.27 47.76 23.52 45.8 17.5 41.34 22.27 41.04 22.27"/><path class="cls-15" d="M22.64,15.11l-9.86,7.16L18.25,39.1H36l2.45-7.76a10.57,10.57,0,0,1-9,1.3A12.93,12.93,0,0,1,23,28.32,11.11,11.11,0,0,1,20.65,21,12.58,12.58,0,0,1,22.64,15.11Z"/><g class="cls-16"><path class="cls-6" d="M14.58,27.37a96.06,96.06,0,0,1,16.22-10l2-1.06-4.21-3.07C23.78,17.56,19,21.75,14,26Z"/><path class="cls-6" d="M17.93,37.69a170.19,170.19,0,0,1,21-8l2.36-7.28-5.1-3.71c-6.71,5-13.13,10-19.48,15.44Z"/></g><polygon class="cls-6" points="18.25 39.1 35.95 39.1 18.9 38.25 12.75 22.31 18.25 39.1"/><polygon class="cls-17" points="42.26 23.27 47.76 23.52 41.34 22.43 35.95 39.1 42.26 23.27"/><polygon class="cls-17" points="34.98 39.96 36.68 45.59 35.95 39.1 18.25 39.1 34.98 39.96"/><path class="cls-18" d="M11.26,33.63A4.8,4.8,0,0,1,10,34.77l2.31,7.1,5.92-2.77-2.73-8.41-2.78-8.35-1,.17a3.3,3.3,0,0,0,.27,1.28,12.23,12.23,0,0,1,.56,6.64A7.66,7.66,0,0,1,11.26,33.63Z"/><polygon class="cls-6" points="18.74 38.87 18.15 37.59 12.33 41.87 18.74 38.87"/><path class="cls-6" d="M18.38,38.44l-.89.49c0,.08-.11,6.66-.11,6.66Z"/><polygon class="cls-19" points="41.34 22.43 45.43 17.9 41.34 21.09 27.03 11.87 41.34 22.43"/><polygon class="cls-6" points="27.03 11.87 24.35 6.94 26.15 11.58 13.19 21.98 27.03 11.87"/><path class="cls-20" d="M41.14,37.32a15.08,15.08,0,0,0,0,2.77,9.46,9.46,0,0,0,.29,1.5l.34.16,3-9.18,2.93-9c-2.59,1.19-4.37,5.08-5.2,7.34A23.22,23.22,0,0,0,41.14,37.32Z"/><path class="cls-21" d="M13.25,39A7.19,7.19,0,0,1,17,41.91a13.83,13.83,0,0,1,1.87,4.42,16.19,16.19,0,0,1,1.38-4.13,7.29,7.29,0,0,1,3-3.11,8.11,8.11,0,0,1-3.52-3.29,13.71,13.71,0,0,1-1.6-4.59c.17.95-1.32,4.39-1.91,5.29A6.84,6.84,0,0,1,13.25,39Z"/><path class="cls-22" d="M11.91,39.25a9.17,9.17,0,0,1,4.75,3.58A17.13,17.13,0,0,1,19,48.28a19.39,19.39,0,0,1,1.74-5.09,9.15,9.15,0,0,1,3.76-3.86,10.06,10.06,0,0,1-4.46-4,16.63,16.63,0,0,1-2-5.67c.22,1.16-1.67,5.42-2.43,6.53A8.61,8.61,0,0,1,11.91,39.25Z"/><path class="cls-6" d="M16.86,38.84a2,2,0,0,1,1,.79,3.73,3.73,0,0,1,.52,1.21,4.4,4.4,0,0,1,.37-1.13,2,2,0,0,1,.81-.85,2.31,2.31,0,0,1-1-.9,3.71,3.71,0,0,1-.44-1.26,3.91,3.91,0,0,1-.52,1.45A1.84,1.84,0,0,1,16.86,38.84Z"/><path class="cls-23" d="M15.45,38.91a4.07,4.07,0,0,1,2.09,1.61,8.06,8.06,0,0,1,1,2.47,8.65,8.65,0,0,1,.77-2.3A4,4,0,0,1,21,39,4.53,4.53,0,0,1,19,37.12a7.74,7.74,0,0,1-.9-2.56,8,8,0,0,1-1.06,2.95A3.88,3.88,0,0,1,15.45,38.91Z"/><path class="cls-24" d="M8.32,17.53s4.44,4.88,4.42,4.81-2-2.83-3.06-4.35l7.81-7.12Z"/></g></g></svg>