<svg xmlns="http://www.w3.org/2000/svg" xmlns:xlink="http://www.w3.org/1999/xlink" viewBox="0 0 43.96 42.24"><defs><style>.cls-1{fill:url(#linear-gradient);}.cls-2{fill:#ff109e;}.cls-3{fill:#d60ba1;}.cls-10,.cls-11,.cls-4,.cls-7,.cls-8,.cls-9{fill:#fff;}.cls-5{fill:url(#linear-gradient-2);}.cls-6{opacity:0.3;}.cls-7{opacity:0.31;}.cls-8{opacity:0.45;}.cls-9{opacity:0.18;}.cls-10{opacity:0.12;}.cls-11{opacity:0.52;}</style><linearGradient id="linear-gradient" x1="0.1" y1="21.12" x2="43.96" y2="21.12" gradientUnits="userSpaceOnUse"><stop offset="0.1" stop-color="#ff57f7"/><stop offset="0.52" stop-color="#ff4cec"/><stop offset="1" stop-color="#ff39da"/></linearGradient><linearGradient id="linear-gradient-2" x1="4.36" y1="15.47" x2="36.38" y2="28.92" gradientUnits="userSpaceOnUse"><stop offset="0.25" stop-color="#ffabfd"/><stop offset="0.41" stop-color="#ff8af8"/><stop offset="0.73" stop-color="#ff3eed"/></linearGradient></defs><g id="Layer_2" data-name="Layer 2"><g id="Layer_1-2" data-name="Layer 1"><path class="cls-1" d="M42.38,21.12a5.22,5.22,0,0,0-2.88-8.9l-6.12-.9a5.2,5.2,0,0,1-3.92-2.85L26.73,2.91a5.22,5.22,0,0,0-9.35,0L14.63,8.44a5.22,5.22,0,0,1-3.92,2.85l-6.13.88a5.21,5.21,0,0,0-2.9,8.89L6.1,25.38A5.22,5.22,0,0,1,7.6,30L6.54,36.1a5.21,5.21,0,0,0,7.55,5.5l5.49-2.87a5.2,5.2,0,0,1,4.85,0l5.47,2.89a5.22,5.22,0,0,0,7.57-5.49l-1-6.1a5.24,5.24,0,0,1,1.51-4.61Z"/><path class="cls-2" d="M42.38,21.12a5.22,5.22,0,0,0-2.88-8.9l-6.12-.9a5.2,5.2,0,0,1-3.92-2.85L26.73,2.91A5.13,5.13,0,0,0,24.87.82a7.34,7.34,0,0,1-.59,3.05c-.7,1.69-1.81,3.2-2.44,4.92a26.17,26.17,0,0,0-1,6.12,49.52,49.52,0,0,1-5.68,17.53,21.61,21.61,0,0,1-3.94,5.69,10.41,10.41,0,0,1-3.51,2.24,5.19,5.19,0,0,0,6.38,1.23l5.49-2.87a5.2,5.2,0,0,1,4.85,0l5.47,2.89a5.22,5.22,0,0,0,7.57-5.49l-1-6.1a5.24,5.24,0,0,1,1.51-4.61Z"/><path class="cls-3" d="M24.88,1.05c-.27.84-.35,1.3-.48,1.65a9.16,9.16,0,0,1-1.12,2.15,1.2,1.2,0,0,0-.28.63,1.11,1.11,0,0,0,.15.43,53.53,53.53,0,0,0,5,7.89,27.65,27.65,0,0,1-2.4-5.24C25.09,7,24.37,5.08,24.67,3.41A18.14,18.14,0,0,0,24.88,1.05Z"/><path class="cls-3" d="M12.51,42.12A5.1,5.1,0,0,0,14,41.6l5.48-2.87a5.2,5.2,0,0,1,3.23-.53,5.15,5.15,0,0,1-.89-2.87,20.48,20.48,0,0,1,.29-3.21.49.49,0,0,0-.52-.67,10,10,0,0,0-5.4,1,12.12,12.12,0,0,0-1.66,1,22.13,22.13,0,0,1-2.45,3.67l.13.21a3.13,3.13,0,0,1,.46,2C12.65,39.6,12.61,41.11,12.51,42.12Z"/><path class="cls-3" d="M12.94,39.58a4.86,4.86,0,0,1,.58-1.34,4.9,4.9,0,0,1,1.31-1.13c1.89-1.23,3.91-2.24,5.86-3.36a2.43,2.43,0,0,0,.61-.44,2.29,2.29,0,0,0-.86.11,26.49,26.49,0,0,0-7.85,3.2c-.21.13-.74.37-.68.68s.26.32.34.48a1.88,1.88,0,0,1,.13.58,20.33,20.33,0,0,1,.19,3A8,8,0,0,1,12.94,39.58Z"/><path class="cls-3" d="M12.57,41.82v-.44A3.23,3.23,0,0,0,12.57,41.82Z"/><path class="cls-4" d="M19.44,1.1C19.57,1.47,20.56,6,20.68,6l1.83-.61A3.57,3.57,0,0,1,21.17,4.1,14,14,0,0,1,19.44,1.1Z"/><path class="cls-3" d="M34.39,24c1.55-1.62,3.54-2.78,5-4.44a2.84,2.84,0,0,0,.75-1.24A1.93,1.93,0,0,0,37.84,16a27.84,27.84,0,0,0-4.41,1.82c-3.67,2.1-5.58,6.35-9,8.88a41.91,41.91,0,0,1-4,2.37,4,4,0,0,0-1.16.9A1.48,1.48,0,0,0,19,31.3c.22.66.95.95,1.59,1.21a15.77,15.77,0,0,1,2.16,1c2.26,1.27,4.17,3.12,6.52,4.2a5.21,5.21,0,0,0,2.91.57,2.26,2.26,0,0,0,1.32-.62,3.27,3.27,0,0,0,.4-2.91,37,37,0,0,1-1.12-7A5.67,5.67,0,0,1,33,26.05,5.58,5.58,0,0,1,34.39,24Z"/><path class="cls-5" d="M38.71,19a2.06,2.06,0,0,0-1.14-3.51L29.14,14.2a2,2,0,0,1-1.54-1.13L23.84,5.43a2.06,2.06,0,0,0-3.7,0l-3.78,7.64a2.08,2.08,0,0,1-1.55,1.12L6.37,15.39A2.06,2.06,0,0,0,5.23,18.9l6.09,6a2,2,0,0,1,.59,1.82l-1.45,8.4a2.06,2.06,0,0,0,3,2.17l7.55-4a2,2,0,0,1,1.92,0l7.53,4a2.06,2.06,0,0,0,3-2.17L32,26.71a2.05,2.05,0,0,1,.6-1.82Z"/><g class="cls-6"><path class="cls-4" d="M10.8,33.17l-.34,1.94a2.06,2.06,0,0,0,3,2.17l7.54-4a2,2,0,0,1,1.92,0l1.3.68a119,119,0,0,1,7.31-11.43c1.79-2.46,3.67-4.85,5.61-7.18l-8-1.17h0Z"/><path class="cls-4" d="M18.24,9.31l-1.87,3.77a2.1,2.1,0,0,1-1.56,1.13l-3,.43-1.1,1C9.18,17.06,7.73,18.5,6.32,20L9,22.65q8-7,16.72-13.28L23.84,5.45l0-.06Q21,7.25,18.24,9.31Z"/></g><path class="cls-4" d="M10.46,35.11a2.06,2.06,0,0,0,3,2.17L18,34.89a23.57,23.57,0,0,0-3.54,1,2.86,2.86,0,0,1-1.54.28,1.93,1.93,0,0,1-1.4-1.47,5.5,5.5,0,0,1,0-2.14c.32-2.57.73-5.14,1.22-7.69a1,1,0,0,0,0-.38.81.81,0,0,0-.35-.36,32.88,32.88,0,0,1-6-5.13,3,3,0,0,1-1-2,2,2,0,0,1,.4-1.06,5.7,5.7,0,0,1,.49-.47,2.06,2.06,0,0,0-1,3.48l6.09,6a2,2,0,0,1,.59,1.82Z"/><path class="cls-3" d="M29.32,37.54a3,3,0,0,0-.6-.42C28.76,37.31,29,37.45,29.32,37.54Z"/><path class="cls-3" d="M33,37.73a5.5,5.5,0,0,1-2.32.06,7.52,7.52,0,0,1-1.32-.25,8.17,8.17,0,0,1,1.11,1.36,17.4,17.4,0,0,1,1.46,2.93,5.37,5.37,0,0,1-.27-2.31A2.25,2.25,0,0,1,33,37.73Z"/><path class="cls-3" d="M35.12,36.73a7.3,7.3,0,0,1,1.84.46L36,36.73a7.63,7.63,0,0,1-1.51-.9,2.61,2.61,0,0,1-.93-1.46,6.79,6.79,0,0,1-.14,2.94C33.58,36.63,34.6,36.66,35.12,36.73Z"/><path class="cls-4" d="M4.91,17.49c-.13-.08-.15,0-.24.16a1.13,1.13,0,0,1-.56.37Q2.38,18.65.6,19.13l1.54-.27a17.68,17.68,0,0,1,2-.28,2.61,2.61,0,0,1,1.59.27,5,5,0,0,1-.48-.66C5.19,18.05,5,17.56,4.91,17.49Z"/><path class="cls-4" d="M5.85,15.57l-1-.82c-.27-.24-.55-.47-.83-.69a7.46,7.46,0,0,0-1.3-.78,15.48,15.48,0,0,1,1.75,1.49,3.15,3.15,0,0,1,.61.8,1.32,1.32,0,0,1,.11,1A2.2,2.2,0,0,1,5.85,15.57Z"/><path class="cls-4" d="M10.58,34.73a19.86,19.86,0,0,1-2.32,2c-.48.34-1,.65-1.48,1l2.35-.95a2.92,2.92,0,0,1,.86-.25,3,3,0,0,1,1.75.66c-.11-.07-.2-.65-.24-.78s-.16-.55-.25-.82S11.09,34.27,10.58,34.73Z"/><path class="cls-3" d="M39.25,18.88c-.07.13-.22.41-.39.67h0c.42-.21,3.47,0,4.55-.23-.9-.07-3.59-1.73-3.62-2.19A3.68,3.68,0,0,1,39.25,18.88Z"/><path class="cls-3" d="M38.19,20.11c.21,0,.46-.25.67-.56A1.55,1.55,0,0,0,38.19,20.11Z"/><path class="cls-7" d="M38.44,13.72A8.33,8.33,0,0,1,35,14a16.62,16.62,0,0,0-3.38.23q2.85.5,5.72.87a3.29,3.29,0,0,0,.7,0,2.31,2.31,0,0,0,1.49-.84c.16-.18,1.72-1.15,1.33-1.4S38.73,13.6,38.44,13.72Z"/><path class="cls-8" d="M18.35,2.42A43.4,43.4,0,0,0,16.12,7a13,13,0,0,1-2.79,4.17,8.94,8.94,0,0,0,3.34-3.4q.93-1.4,1.77-2.82a4.86,4.86,0,0,0,.78-2C19.27,2.2,18.82,1.66,18.35,2.42Z"/><path class="cls-8" d="M25.81,3.39l4.43,8.09C29.16,9.08,28.08,6.67,27,4.27a6.33,6.33,0,0,0-.9-1.63C25.47,2,25.58,3,25.81,3.39Z"/><path class="cls-9" d="M1.18,16a6.36,6.36,0,0,1,3.27,2.54,12,12,0,0,1,1.64,3.86,14.32,14.32,0,0,1,1.2-3.61,6.44,6.44,0,0,1,2.59-2.73,6.92,6.92,0,0,1-3.07-2.87,11.9,11.9,0,0,1-1.4-4C5.55,10,4.25,13,3.73,13.82A5.9,5.9,0,0,1,1.18,16Z"/><path class="cls-10" d="M0,16.23a8,8,0,0,1,4.16,3.13,14.83,14.83,0,0,1,2.08,4.77,17.19,17.19,0,0,1,1.53-4.46,8,8,0,0,1,3.28-3.37,8.87,8.87,0,0,1-3.9-3.55,14.6,14.6,0,0,1-1.78-5c.19,1-1.46,4.75-2.13,5.72A7.53,7.53,0,0,1,0,16.23Z"/><path class="cls-4" d="M4.34,15.87a1.73,1.73,0,0,1,.89.69,3.42,3.42,0,0,1,.45,1.06,4.27,4.27,0,0,1,.33-1,1.77,1.77,0,0,1,.71-.75,1.92,1.92,0,0,1-.84-.78A3.37,3.37,0,0,1,5.49,14,3.53,3.53,0,0,1,5,15.27,1.69,1.69,0,0,1,4.34,15.87Z"/><path class="cls-11" d="M3.1,15.93a3.6,3.6,0,0,1,1.83,1.41,7,7,0,0,1,.91,2.16,7.86,7.86,0,0,1,.67-2A3.58,3.58,0,0,1,8,16a3.94,3.94,0,0,1-1.71-1.6,6.79,6.79,0,0,1-.78-2.24,7,7,0,0,1-.94,2.58A3.32,3.32,0,0,1,3.1,15.93Z"/><path class="cls-3" d="M33.32,24.63a3.2,3.2,0,0,0-.49.67c-.21.39-.57,3.27-.37,2.83.41-.9,1-1.15,1.43-1.15a8.42,8.42,0,0,1,2.19.13c-.63-.35-1.47-.43-1.9-1a1.83,1.83,0,0,1-.27-2C33.81,24.3,33.46,24.47,33.32,24.63Z"/></g></g></svg>