<svg xmlns="http://www.w3.org/2000/svg" xmlns:xlink="http://www.w3.org/1999/xlink" viewBox="0 0 81.27 78.28"><defs><style>.cls-1{fill:url(#linear-gradient);}.cls-2{fill:#b76615;}.cls-3{fill:url(#linear-gradient-2);}.cls-29,.cls-4{fill:#fff30b;}.cls-5{fill:#d37816;}.cls-6{fill:#ef8216;opacity:0.77;}.cls-19,.cls-21,.cls-22,.cls-23,.cls-24,.cls-25,.cls-28,.cls-7{fill:#fff;}.cls-8{fill:#704621;}.cls-9{fill:#ffa608;}.cls-10{fill:url(#linear-gradient-3);}.cls-11{fill:#ff7d12;}.cls-12{fill:url(#linear-gradient-4);}.cls-13{fill:#ff5a08;}.cls-14{fill:url(#linear-gradient-5);}.cls-15{fill:#ff7610;}.cls-16{fill:#ffb600;}.cls-17{opacity:0.42;}.cls-18{fill:#b21b0b;}.cls-19{opacity:0.3;}.cls-20{fill:url(#linear-gradient-6);}.cls-21{opacity:0.11;}.cls-22{opacity:0.18;}.cls-23{opacity:0.12;}.cls-24{opacity:0.52;}.cls-25{opacity:0.26;}.cls-26{fill:url(#linear-gradient-7);}.cls-27{opacity:0.59;}.cls-28{opacity:0.45;}.cls-29{opacity:0.48;}.cls-30{fill:url(#linear-gradient-8);}.cls-31{fill:url(#linear-gradient-9);}.cls-32{fill:url(#linear-gradient-10);}.cls-33{fill:url(#linear-gradient-11);}</style><linearGradient id="linear-gradient" x1="9.12" y1="16.91" x2="70.95" y2="69.22" gradientUnits="userSpaceOnUse"><stop offset="0.02" stop-color="#f4e203"/><stop offset="0.7" stop-color="#f49308"/></linearGradient><linearGradient id="linear-gradient-2" x1="22.06" y1="27.13" x2="68.91" y2="66.77" xlink:href="#linear-gradient"/><linearGradient id="linear-gradient-3" x1="40.75" y1="72.04" x2="40.41" y2="49.2" gradientUnits="userSpaceOnUse"><stop offset="0" stop-color="#ff7d12"/><stop offset="0.18" stop-color="#fb7811"/><stop offset="0.37" stop-color="#f06b0f"/><stop offset="0.58" stop-color="#de540b"/><stop offset="0.8" stop-color="#c43506"/><stop offset="0.82" stop-color="#c13105"/></linearGradient><linearGradient id="linear-gradient-4" x1="25.89" y1="20.52" x2="38.9" y2="38.53" gradientUnits="userSpaceOnUse"><stop offset="0" stop-color="#ffa608"/><stop offset="0.54" stop-color="#ff5f08"/><stop offset="0.57" stop-color="#ff5a08"/></linearGradient><linearGradient id="linear-gradient-5" x1="68.12" y1="50.34" x2="55.08" y2="45.05" gradientUnits="userSpaceOnUse"><stop offset="0" stop-color="#ff7d12"/><stop offset="0.77" stop-color="#c53606"/><stop offset="0.82" stop-color="#c13105"/></linearGradient><linearGradient id="linear-gradient-6" x1="40.61" y1="29.31" x2="62.39" y2="29.31" xlink:href="#linear-gradient-5"/><linearGradient id="linear-gradient-7" x1="38.1" y1="5.94" x2="46.56" y2="11.02" xlink:href="#linear-gradient"/><linearGradient id="linear-gradient-8" x1="3.83" y1="27.23" x2="17.03" y2="35.17" xlink:href="#linear-gradient"/><linearGradient id="linear-gradient-9" x1="68.85" y1="29.04" x2="78.62" y2="34.91" xlink:href="#linear-gradient"/><linearGradient id="linear-gradient-10" x1="17.24" y1="66.79" x2="26.71" y2="72.49" xlink:href="#linear-gradient"/><linearGradient id="linear-gradient-11" x1="56.03" y1="64.85" x2="69.95" y2="73.22" xlink:href="#linear-gradient"/></defs><g id="Layer_2" data-name="Layer 2"><g id="Layer_1-2" data-name="Layer 1"><path class="cls-1" d="M59.21,78.28l10.56-7.67,11.5-35.4-4-12.42L47.12.91,34.2,1,4.09,22.85,0,35.27l11.5,35.4L22,78.28Zm-55.14-43,3.31-10L35.47,4.84l10.4,0L74,25.18l3.25,10-10.72,33L58,74.41H23.25L14.8,68.28Z"/><polygon class="cls-2" points="57.84 78.28 59.21 78.28 69.77 70.61 81.27 35.21 77.24 22.79 47.12 0.91 45.77 0.91 75.87 22.79 79.91 35.21 68.4 70.61 57.84 78.28"/><polygon class="cls-2" points="35.47 4.84 44.52 4.79 44.51 4.79 34.1 4.84 6.01 25.25 2.71 35.28 13.43 68.28 21.88 74.41 23.25 74.41 14.8 68.28 4.08 35.28 7.38 25.25 35.47 4.84"/><path class="cls-2" d="M20.22,20.29l-7.57,5.5A4.46,4.46,0,0,0,11,28L8.85,34.58a4.5,4.5,0,0,0,0,2.81L13,50.22l4.17,12.84a4.49,4.49,0,0,0,1.64,2.26l5.51,4a4.49,4.49,0,0,0,2.65.86H54a4.51,4.51,0,0,0,2.65-.86l5.57-4A4.56,4.56,0,0,0,63.85,63L68,50.17l4.62-14.24h0l-3-9.34-.1.11.1-.11L57.5,17.8,46.59,9.87A4.48,4.48,0,0,0,43.92,9l-6.78,0a4.47,4.47,0,0,0-2.63.86l-8.81,6.4h0Z"/><polygon class="cls-3" points="21.13 21.16 12.78 27.23 9.84 36.15 14.25 49.74 18.67 63.34 26.2 68.79 54.78 68.79 62.37 63.29 66.78 49.69 71.2 36.1 71.2 36.1 71.2 36.1 71.2 36.1 71.2 36.1 71.2 36.1 68.3 27.18 68.21 27.28 68.3 27.18 56.74 18.78 45.18 10.38 35.91 10.43 26.36 17.36 26.36 17.36 21.13 21.16"/><polygon class="cls-4" points="36.79 16 35.91 10.43 12.78 27.23 18.08 29.59 36.79 16"/><polygon class="cls-5" points="71.2 36.1 65.33 36.77 58.19 58.75 52.05 63.21 54.78 68.79 62.37 63.29 71.2 36.1"/><polygon class="cls-6" points="45.18 10.38 44.29 15.96 62.99 29.55 68.3 27.18 45.18 10.38"/><polygon class="cls-6" points="28.93 63.21 26.2 68.79 54.78 68.79 52.05 63.21 28.93 63.21"/><path class="cls-6" d="M28.64,63l.29.21A1.63,1.63,0,0,0,28.64,63Z"/><path class="cls-6" d="M24.27,62.43a6.66,6.66,0,0,1,4.37.57l-5.79-4.2-4.18,4.54,1.08.78S20.84,62.87,24.27,62.43Z"/><polygon class="cls-7" points="36.79 16 35.91 10.43 35.4 15.96 18.13 28.24 12.78 27.23 18.08 29.59 36.79 16"/><polygon class="cls-7" points="9.84 36.15 15.7 36.81 16.39 34.72 9.84 36.15"/><polygon class="cls-8" points="24.59 24.34 17.68 29.37 15.25 36.75 18.9 47.99 22.56 59.24 28.79 63.76 52.44 63.76 58.72 59.2 62.37 47.95 66.02 36.7 66.02 36.7 66.02 36.7 66.02 36.7 66.02 36.7 66.02 36.7 63.63 29.32 63.55 29.41 63.63 29.32 54.06 22.37 44.49 15.42 36.82 15.46 28.92 21.2 28.92 21.2 24.59 24.34"/><polygon class="cls-9" points="57.55 35.37 40.61 23.06 23.67 35.37 30.14 55.28 51.08 55.28 57.55 35.37"/><polygon class="cls-10" points="51.08 55.28 40.61 55.28 30.14 55.28 29.19 62.96 40.61 62.96 52.03 62.96 51.08 55.28"/><polygon class="cls-11" points="30.19 55.33 26.96 45.37 23.72 35.41 16.13 36.88 19.65 47.74 23.18 58.6 30.19 55.33"/><polygon class="cls-12" points="40.61 23.06 36.95 16.33 27.71 23.04 18.48 29.76 23.75 35.41 32.23 29.26 40.61 23.06"/><polygon class="cls-13" points="62.83 29.71 53.6 23 44.36 16.29 40.61 23.06 49.08 29.21 57.55 35.37 62.83 29.71"/><polygon class="cls-14" points="65.15 36.84 57.55 35.37 54.32 45.33 51.08 55.29 58.09 58.56 61.62 47.7 65.15 36.84"/><polygon class="cls-13" points="16.13 36.88 23.75 35.41 18.48 29.76 16.13 36.88"/><polygon class="cls-9" points="23.18 58.6 29.19 62.96 30.19 55.33 23.18 58.6"/><polygon class="cls-15" points="51.08 55.29 52.03 62.96 58.09 58.56 51.08 55.29"/><polygon class="cls-9" points="36.95 16.33 40.61 23.06 44.36 16.29 36.95 16.33"/><polygon class="cls-11" points="62.83 29.71 57.55 35.37 57.19 35.37 65.15 36.84 62.83 29.71"/><path class="cls-16" d="M35.42,26.89,23.75,35.37l6.48,19.91H51.17l2.9-9.18a12.54,12.54,0,0,1-10.69,1.54,15.35,15.35,0,0,1-7.52-5.12,13.1,13.1,0,0,1-2.79-8.61A14.71,14.71,0,0,1,35.42,26.89Z"/><g class="cls-17"><path class="cls-7" d="M47.5,28.25l-5-3.63c-5.74,5.17-11.39,10.13-17.26,15.16l.63,1.61C31.81,36.61,38.31,33,45.07,29.5Z"/><path class="cls-7" d="M57.55,35.55l-6-4.39C43.57,37.09,36,43,28.46,49.43l1.39,4.18a201.11,201.11,0,0,1,24.91-9.44Z"/></g><polygon class="cls-7" points="31 54.28 23.72 35.41 30.23 55.28 51.17 55.28 31 54.28"/><polygon class="cls-18" points="57.55 35.55 51.17 55.28 58.64 36.55 65.15 36.84 57.55 35.55"/><polygon class="cls-18" points="51.17 55.28 30.23 55.28 50.03 56.3 52.03 62.96 51.17 55.28"/><path class="cls-19" d="M22,48.81a5.54,5.54,0,0,1-1.47,1.34l2.74,8.41,7-3.27L27,45.33,23.7,35.45l-1.13.19a3.73,3.73,0,0,0,.32,1.52A14.53,14.53,0,0,1,23.55,45,8.94,8.94,0,0,1,22,48.81Z"/><polygon class="cls-7" points="23.22 58.56 30.8 55.01 30.11 53.49 23.22 58.56"/><path class="cls-7" d="M29.19,63l1.19-8.46-1.05.58C29.33,55.17,29.19,63,29.19,63Z"/><polygon class="cls-20" points="57.55 33.97 40.61 23.06 57.55 35.55 62.39 30.19 57.55 33.97"/><polygon class="cls-7" points="40.61 23.06 37.44 17.22 39.57 22.71 24.24 35.01 40.61 23.06"/><path class="cls-21" d="M58.09,58.41l3.53-10.86,3.46-10.67c-3,1.41-5.16,6-6.15,8.68a27.56,27.56,0,0,0-1.61,7.61,17.12,17.12,0,0,0,0,3.28,12.14,12.14,0,0,0,.34,1.78Z"/><path class="cls-22" d="M24.31,55.18a8.53,8.53,0,0,1,4.42,3.43A16.48,16.48,0,0,1,31,63.84,19.53,19.53,0,0,1,32.58,59a8.6,8.6,0,0,1,3.5-3.69,9.51,9.51,0,0,1-4.16-3.88A16.33,16.33,0,0,1,30,46c.2,1.11-1.56,5.19-2.27,6.26A8.07,8.07,0,0,1,24.31,55.18Z"/><path class="cls-23" d="M22.72,55.46a10.84,10.84,0,0,1,5.62,4.23,20,20,0,0,1,2.82,6.46,23.24,23.24,0,0,1,2.06-6,10.7,10.7,0,0,1,4.45-4.56,12,12,0,0,1-5.28-4.8A19.86,19.86,0,0,1,30,44.05c.26,1.38-2,6.42-2.88,7.73A10.07,10.07,0,0,1,22.72,55.46Z"/><path class="cls-7" d="M28.58,55a2.3,2.3,0,0,1,1.21.94,4.42,4.42,0,0,1,.61,1.43A5.29,5.29,0,0,1,30.85,56a2.37,2.37,0,0,1,.95-1,2.52,2.52,0,0,1-1.13-1.06,4.36,4.36,0,0,1-.52-1.48,4.85,4.85,0,0,1-.62,1.71A2.19,2.19,0,0,1,28.58,55Z"/><path class="cls-24" d="M26.91,55.06A4.67,4.67,0,0,1,29.38,57a9.17,9.17,0,0,1,1.24,2.91,10.73,10.73,0,0,1,.9-2.72,4.79,4.79,0,0,1,1.95-2.06,5.21,5.21,0,0,1-2.31-2.17,9,9,0,0,1-1.06-3,9.7,9.7,0,0,1-1.26,3.49A4.57,4.57,0,0,1,26.91,55.06Z"/><path class="cls-25" d="M18.47,29.76s5.26,5.77,5.23,5.69-2.35-3.36-3.61-5.15l9.24-8.43Z"/><path class="cls-26" d="M39.81,14.58a2.08,2.08,0,0,0,1.18.57,2.08,2.08,0,0,0,1.17-.57,10,10,0,0,0,2.11-2.86,12.83,12.83,0,0,0,1.61-4.83,2.31,2.31,0,0,0-2.08,0,11.77,11.77,0,0,0-2-5.71A5.63,5.63,0,0,0,41,0a5.29,5.29,0,0,0-.78,1.2,11.77,11.77,0,0,0-2,5.71,2.29,2.29,0,0,0-2.07,0,12.65,12.65,0,0,0,1.6,4.83A10,10,0,0,0,39.81,14.58Z"/><path class="cls-5" d="M43.85,7.05a1.24,1.24,0,0,1,.1-.2l-.15.06a11.73,11.73,0,0,0-2-5.7A4.61,4.61,0,0,0,41,0c-.05.15.13.55.12.74,0,1.46.22,3,.26,4.44s0,3.13,0,4.69c0,.87-.06,1.74-.1,2.61A12.58,12.58,0,0,1,41.1,15,47.2,47.2,0,0,1,43.85,7.05Z"/><path class="cls-5" d="M44.27,11.72A12.84,12.84,0,0,0,45.88,6.9l-.16-.07a3.38,3.38,0,0,1-.13.42c-1,2.63-2.12,5.34-4.07,7.33a4.61,4.61,0,0,0-.51.57,2.09,2.09,0,0,0,1.15-.57A10,10,0,0,0,44.27,11.72Z"/><g class="cls-27"><path class="cls-5" d="M39.81,14.55a2.16,2.16,0,0,0,1.18.58l.19,0a10.49,10.49,0,0,1-3.13-3.74,14.17,14.17,0,0,1-1.9-4.52l0,0a12.66,12.66,0,0,0,1.6,4.82A10,10,0,0,0,39.81,14.55Z"/><path class="cls-5" d="M40,1.65a9.16,9.16,0,0,0,.45-.89c-.07.14-.15.28-.23.42a11.7,11.7,0,0,0-2,5.68l0,0a2.92,2.92,0,0,1,.44.66l.53,1A2.65,2.65,0,0,1,39,7.6c0-.31,0-.62,0-.94a12.62,12.62,0,0,1,.11-1.84A12.44,12.44,0,0,1,40,1.65Z"/></g><path class="cls-2" d="M41,0s.18,14.67.19,14.58.86-5.78.86-8A40.4,40.4,0,0,0,41,0Z"/><path class="cls-28" d="M40.68,2.3a.45.45,0,0,0,0-.23c-.14-.44-.49.31-.53.4-.14.34-.26.69-.37,1a11.06,11.06,0,0,0-.45,2.13A12.54,12.54,0,0,0,39.55,10c.09.39.2.77.32,1.15a8.65,8.65,0,0,1,.44,1.12,22.53,22.53,0,0,1-.48-5.61A34.4,34.4,0,0,1,40.68,2.3Z"/><path class="cls-28" d="M37.1,8.1A4.73,4.73,0,0,1,39,10.5a13.71,13.71,0,0,1-.34-1.44,2.87,2.87,0,0,0-.61-1.32,1.41,1.41,0,0,0-.91-.48c-.3,0-.72,0-.47.48A1.14,1.14,0,0,0,37.1,8.1Z"/><path class="cls-2" d="M39.83,14.58a2.11,2.11,0,0,0,1.18.57,2.11,2.11,0,0,0,1.18-.57,9.82,9.82,0,0,0,2.1-2.86A12.66,12.66,0,0,0,45.9,6.89l0,0a13.46,13.46,0,0,1-1.56,4.38,9.64,9.64,0,0,1-2.1,2.85,2.06,2.06,0,0,1-1.18.58,2.06,2.06,0,0,1-1.18-.58,9.64,9.64,0,0,1-2.1-2.85,13.46,13.46,0,0,1-1.56-4.38l-.05,0a12.66,12.66,0,0,0,1.61,4.83A9.82,9.82,0,0,0,39.83,14.58Z"/><path class="cls-29" d="M44.88,7.27c-.39-.25-.79.32-1,.6a13.76,13.76,0,0,0-1.3,3.5A6.82,6.82,0,0,1,43.9,9.22C44.12,8.92,45.39,7.59,44.88,7.27Z"/><path class="cls-30" d="M2.84,27.15a5.22,5.22,0,0,0-1.4.34,5.57,5.57,0,0,0,.89,1.13A11.67,11.67,0,0,0,7,32.42a2.29,2.29,0,0,0-.69,1.95,12.62,12.62,0,0,0,5.08.07,9.55,9.55,0,0,0,3.39-1,2.15,2.15,0,0,0,.94-.92,2.13,2.13,0,0,0-.16-1.3,9.9,9.9,0,0,0-2-2.93,12.87,12.87,0,0,0-4-3.11,2.34,2.34,0,0,0-.67,2A11.79,11.79,0,0,0,2.84,27.15Z"/><path class="cls-5" d="M2.84,27.15a4.23,4.23,0,0,0-1.4.34c.13.09.57.05.74.12,1.37.52,2.89.77,4.28,1.22s3,1,4.42,1.58l2.43.95a12.83,12.83,0,0,1,2.36,1A47.31,47.31,0,0,1,9,27.1c0-.05-.1-.11-.16-.16s0,.1,0,.16A11.72,11.72,0,0,0,2.84,27.15Z"/><path class="cls-5" d="M15.39,31.78a6.29,6.29,0,0,0,.37.67,2.22,2.22,0,0,0-.16-1.28,9.9,9.9,0,0,0-2-2.93,12.66,12.66,0,0,0-4-3.1l-.12.12a3.18,3.18,0,0,1,.35.26C12,27.36,14.15,29.27,15.39,31.78Z"/><g class="cls-27"><path class="cls-5" d="M11.41,34.43a9.68,9.68,0,0,0,3.39-1,2.12,2.12,0,0,0,.93-.92,1.18,1.18,0,0,0,0-.2A10.46,10.46,0,0,1,11.21,34a14.39,14.39,0,0,1-4.89.3v.06A12.67,12.67,0,0,0,11.41,34.43Z"/><path class="cls-5" d="M7,32.4H7a2.91,2.91,0,0,1,.77-.2L8.87,32A2.72,2.72,0,0,1,8,31.82c-.31-.08-.61-.16-.91-.26a13.33,13.33,0,0,1-1.7-.72A12.28,12.28,0,0,1,2.67,29,8.88,8.88,0,0,0,2,28.25l.32.36A11.69,11.69,0,0,0,7,32.4Z"/></g><path class="cls-2" d="M1.44,27.49s13.92,4.64,13.84,4.6S10.1,29.39,8,28.66A40.87,40.87,0,0,0,1.44,27.49Z"/><path class="cls-28" d="M4.37,29.79a13.5,13.5,0,0,0,1.86,1.12,12.79,12.79,0,0,0,4.19,1.22c.4,0,.8.07,1.2.08a8.09,8.09,0,0,1,1.2-.05,22.12,22.12,0,0,1-5.46-1.39,36.06,36.06,0,0,1-3.85-2.24.39.39,0,0,0-.21-.08c-.46,0,.13.57.2.64C3.78,29.33,4.07,29.57,4.37,29.79Z"/><path class="cls-28" d="M7.34,34.1a1.38,1.38,0,0,0,.48-.28,4.68,4.68,0,0,1,2.89-1c-.49,0-1-.11-1.47-.16a3,3,0,0,0-1.45.14A1.41,1.41,0,0,0,7,33.5C6.91,33.77,6.85,34.2,7.34,34.1Z"/><path class="cls-2" d="M14.39,33.21a9.68,9.68,0,0,1-3.39,1,13.19,13.19,0,0,1-4.65,0,.13.13,0,0,0,0,.06,12.8,12.8,0,0,0,5.08.07,10,10,0,0,0,3.39-1.05,2.17,2.17,0,0,0,.93-.92,2.09,2.09,0,0,0-.16-1.31,9.8,9.8,0,0,0-2-2.93,13,13,0,0,0-4-3.1l0,.05a13.12,13.12,0,0,1,3.63,2.9,9.86,9.86,0,0,1,2,2.93,2.13,2.13,0,0,1,.16,1.3A2.07,2.07,0,0,1,14.39,33.21Z"/><path class="cls-29" d="M12.72,29.68a7,7,0,0,1-1.61-1.91c-.21-.31-1-1.95-1.52-1.58s0,.86.25,1.11A13.48,13.48,0,0,0,12.72,29.68Z"/><path class="cls-31" d="M72,26.19A12.93,12.93,0,0,0,67.79,29a9.67,9.67,0,0,0-2.2,2.78,2.07,2.07,0,0,0-.25,1.29,2.12,2.12,0,0,0,.86,1,9.82,9.82,0,0,0,3.31,1.29,12.82,12.82,0,0,0,5.07.29,2.24,2.24,0,0,0-.55-2,11.77,11.77,0,0,0,5-3.46,5.56,5.56,0,0,0,1-1.07,5.37,5.37,0,0,0-1.37-.43,11.71,11.71,0,0,0-6-.49A2.29,2.29,0,0,0,72,26.19Z"/><path class="cls-5" d="M79,30.18c.26-.28.83-.69,1-1.07-.16,0-.5.27-.68.32-1.43.34-2.82,1-4.23,1.4s-3,.83-4.54,1.19L68,32.6a12.19,12.19,0,0,1-2.49.54,47.3,47.3,0,0,1,8.42.57l.22,0-.1-.12A11.67,11.67,0,0,0,79,30.18Z"/><path class="cls-5" d="M69.51,35.34a12.82,12.82,0,0,0,5.07.29l0-.16-.44,0c-2.81-.31-5.71-.65-8.14-2a4.92,4.92,0,0,0-.69-.34,2.13,2.13,0,0,0,.86,1A9.82,9.82,0,0,0,69.51,35.34Z"/><g class="cls-27"><path class="cls-5" d="M68.23,29.24a14.31,14.31,0,0,1,3.87-3l0-.05A12.82,12.82,0,0,0,67.82,29a9.89,9.89,0,0,0-2.21,2.78,2.16,2.16,0,0,0-.25,1.29,1.42,1.42,0,0,0,.08.18A10.48,10.48,0,0,1,68.23,29.24Z"/><path class="cls-5" d="M74.82,28.56a12.15,12.15,0,0,1,3.3,0c.25,0,.64.17,1,.2-.16,0-.31-.07-.46-.12a11.76,11.76,0,0,0-6-.49v0a3.1,3.1,0,0,1-.53.61l-.79.75a3.29,3.29,0,0,1,.84-.34c.29-.11.59-.2.89-.29A12.63,12.63,0,0,1,74.82,28.56Z"/></g><path class="cls-2" d="M65.94,33.11c.09,0,5.8-.69,7.93-1.26A40.35,40.35,0,0,0,80,29.11S65.86,33.12,65.94,33.11Z"/><path class="cls-28" d="M77.89,29.36c.38-.25-.43-.39-.53-.41-.37,0-.74-.07-1.11-.08a12.14,12.14,0,0,0-2.17.11,12.66,12.66,0,0,0-4.15,1.36,10.72,10.72,0,0,0-1,.61,7.91,7.91,0,0,1-1,.71,22.19,22.19,0,0,1,5.29-1.92,32.91,32.91,0,0,1,4.44-.32A.46.46,0,0,0,77.89,29.36Z"/><path class="cls-28" d="M71.73,28.31a1.39,1.39,0,0,0,.23-1c0-.29-.24-.68-.59-.33a1.2,1.2,0,0,0-.24.51,4.7,4.7,0,0,1-1.82,2.46c.41-.27.87-.46,1.3-.7A2.83,2.83,0,0,0,71.73,28.31Z"/><path class="cls-2" d="M68.26,28.9a13.15,13.15,0,0,1,3.82-2.64.1.1,0,0,1,0-.05A13,13,0,0,0,67.8,29a9.89,9.89,0,0,0-2.21,2.78,2.16,2.16,0,0,0-.25,1.29,2.1,2.1,0,0,0,.87,1,9.65,9.65,0,0,0,3.3,1.29,12.69,12.69,0,0,0,5.08.3s0,0,0-.06A13.45,13.45,0,0,1,70,35.24,9.82,9.82,0,0,1,66.66,34a2.12,2.12,0,0,1-.86-1,2.07,2.07,0,0,1,.25-1.29A9.71,9.71,0,0,1,68.26,28.9Z"/><path class="cls-29" d="M74,34.77c.13-.44-.52-.68-.84-.77a13.58,13.58,0,0,0-3.72-.34,6.93,6.93,0,0,1,2.41.67C72.17,34.47,73.79,35.35,74,34.77Z"/><path class="cls-32" d="M15.83,75.57A5.36,5.36,0,0,0,17.29,75a12.77,12.77,0,0,0,5.46-3.74,2.51,2.51,0,0,0,1.83,1.34,14.07,14.07,0,0,0,1.67-5.3,10.72,10.72,0,0,0,0-3.88,2.37,2.37,0,0,0-.67-1.27,2.37,2.37,0,0,0-1.41-.24,10.85,10.85,0,0,0-3.7,1.18,13.87,13.87,0,0,0-4.51,3.24,2.48,2.48,0,0,0,1.84,1.32A12.83,12.83,0,0,0,15.91,74,5.6,5.6,0,0,0,15.83,75.57Z"/><path class="cls-5" d="M22.75,71.26l.09.15a2.17,2.17,0,0,1,0-.25,52,52,0,0,1,2.67-8.82A13.45,13.45,0,0,1,24,64.67c-.52.8-1.05,1.59-1.58,2.38-1,1.42-1.94,2.82-3,4.18S17.31,73.68,16.41,75c-.11.17-.52.41-.58.57A4.58,4.58,0,0,0,17.29,75,12.72,12.72,0,0,0,22.75,71.26Z"/><path class="cls-5" d="M24.4,72.56l.18,0a14.07,14.07,0,0,0,1.67-5.3,10.72,10.72,0,0,0,0-3.88,2.35,2.35,0,0,0-.65-1.25,5.56,5.56,0,0,0,.08.83c.46,3-.32,6.11-1.09,9.1A4.11,4.11,0,0,1,24.4,72.56Z"/><g class="cls-27"><path class="cls-5" d="M25.68,62.33a1.14,1.14,0,0,0-.16-.15,2.28,2.28,0,0,0-1.41-.24,10.43,10.43,0,0,0-3.7,1.18,13.83,13.83,0,0,0-4.51,3.24l0,0a15.82,15.82,0,0,1,4.57-2.78A11.55,11.55,0,0,1,25.68,62.33Z"/><path class="cls-5" d="M17.26,70.1a14.27,14.27,0,0,1,1.07-1.7c.21-.28.42-.55.65-.81a3,3,0,0,1,.67-.71l-1.07.51a3.69,3.69,0,0,1-.82.3h0A12.85,12.85,0,0,0,15.89,74a4.6,4.6,0,0,1-.06.52c.11-.35.12-.8.18-1.07A13.36,13.36,0,0,1,17.26,70.1Z"/></g><path class="cls-2" d="M21,70.41c1.42-2,4.32-7.53,4.36-7.62s-9.51,12.78-9.51,12.78A44,44,0,0,0,21,70.41Z"/><path class="cls-28" d="M16.89,73.54a.43.43,0,0,0,.14-.2,37.54,37.54,0,0,1,2-4.41,24.45,24.45,0,0,1,4-4.66A8.91,8.91,0,0,1,22,65c-.36.26-.7.53-1,.82a13.8,13.8,0,0,0-3,3.72,13.18,13.18,0,0,0-1,2.17c-.13.38-.24.77-.34,1.17C16.65,73,16.48,73.84,16.89,73.54Z"/><path class="cls-28" d="M18.2,66.85a3.29,3.29,0,0,0,1.39-.79c.4-.35.78-.74,1.22-1.06a5.15,5.15,0,0,1-3.23.91A1.26,1.26,0,0,0,17,66c-.49.21-.17.56.11.73A1.55,1.55,0,0,0,18.2,66.85Z"/><path class="cls-2" d="M24.53,72.6l.07,0a14.11,14.11,0,0,0,1.67-5.31,10.67,10.67,0,0,0,0-3.87,2.33,2.33,0,0,0-.67-1.27,2.35,2.35,0,0,0-1.41-.24,10.63,10.63,0,0,0-3.7,1.18,13.83,13.83,0,0,0-4.51,3.24l0,.05a14.61,14.61,0,0,1,4.18-2.88,10.87,10.87,0,0,1,3.69-1.18,2.32,2.32,0,0,1,1.42.25,2.34,2.34,0,0,1,.67,1.26,10.72,10.72,0,0,1,0,3.88A14.48,14.48,0,0,1,24.53,72.6Z"/><path class="cls-29" d="M23.47,70.48c0,.36,0,1.12.47,1.16s.38-2,.37-2.37a7.8,7.8,0,0,1,.25-2.72A15.23,15.23,0,0,0,23.47,70.48Z"/><path class="cls-33" d="M65.68,65A13.85,13.85,0,0,0,61,62a10.58,10.58,0,0,0-3.76-.95,1.62,1.62,0,0,0-2,1.63,10.71,10.71,0,0,0,.2,3.88,14.14,14.14,0,0,0,2,5.19,2.5,2.5,0,0,0,1.74-1.45,12.93,12.93,0,0,0,5.68,3.4,5.55,5.55,0,0,0,1.49.47,5.47,5.47,0,0,0-.17-1.56,12.86,12.86,0,0,0-2.24-6.22A2.55,2.55,0,0,0,65.68,65Z"/><path class="cls-5" d="M63.86,66.25A52.15,52.15,0,0,1,56,61.42a13.08,13.08,0,0,1,1.87,2.06c.64.7,1.28,1.41,1.9,2.13q1.69,1.92,3.29,3.94c1,1.26,1.82,2.72,2.87,3.92.13.16.26.61.4.71a4.6,4.6,0,0,0-.18-1.56,12.74,12.74,0,0,0-2.23-6.23l.16,0Z"/><path class="cls-5" d="M65.59,65.13l.09-.16A14,14,0,0,0,61,62a10.58,10.58,0,0,0-3.76-.95,2.38,2.38,0,0,0-1.37.31,6.12,6.12,0,0,0,.82.14c3,.32,5.83,1.86,8.53,3.36A2.75,2.75,0,0,1,65.59,65.13Z"/><g class="cls-27"><path class="cls-5" d="M55.84,61.41a2.31,2.31,0,0,0-.6,1.31,10.68,10.68,0,0,0,.21,3.87,14.07,14.07,0,0,0,2,5.19l.06,0A15.7,15.7,0,0,1,56,66.63,11.29,11.29,0,0,1,56,61.3,1.18,1.18,0,0,0,55.84,61.41Z"/><path class="cls-5" d="M59.19,70.34a12.79,12.79,0,0,0,5.67,3.39,4.94,4.94,0,0,1,.49.19c-.31-.19-.75-.31-1-.44a13.35,13.35,0,0,1-2.94-2.07A12.78,12.78,0,0,1,60,69.94c-.21-.27-.42-.54-.61-.83a3.07,3.07,0,0,1-.53-.83c.08.39.15.78.22,1.17a3.22,3.22,0,0,1,.09.87Z"/></g><path class="cls-2" d="M62.65,67.89c-1.54-1.87-6.19-6.08-6.26-6.15s9.94,12.44,9.94,12.44A43.72,43.72,0,0,0,62.65,67.89Z"/><path class="cls-28" d="M61,70.57a14,14,0,0,0,1.85,1.48c.34.22.69.43,1.05.62.09.06.9.45.72,0a.46.46,0,0,0-.16-.18,38.42,38.42,0,0,1-3.75-3.11,24.62,24.62,0,0,1-3.49-5.06,10,10,0,0,1,.41,1.24,10.67,10.67,0,0,0,.53,1.2A13.73,13.73,0,0,0,61,70.57Z"/><path class="cls-28" d="M57.32,70.64c.09.53.51.31.74.08a1.61,1.61,0,0,0,.44-1,3.25,3.25,0,0,0-.41-1.54c-.24-.49-.52-1-.72-1.45A5.07,5.07,0,0,1,57.43,70,1.36,1.36,0,0,0,57.32,70.64Z"/><path class="cls-2" d="M56.16,61.77a2.34,2.34,0,0,1,1.4-.33,10.8,10.8,0,0,1,3.76,1A14.27,14.27,0,0,1,65.67,65l0-.06A14,14,0,0,0,61,62a10.8,10.8,0,0,0-3.76-1,1.62,1.62,0,0,0-2,1.64,10.67,10.67,0,0,0,.2,3.87,14.07,14.07,0,0,0,2,5.19l.06,0A14.35,14.35,0,0,1,55.78,67a10.68,10.68,0,0,1-.21-3.87A2.34,2.34,0,0,1,56.16,61.77Z"/><path class="cls-29" d="M64.58,65.34c.21-.62-1.79-.86-2.19-1a7.85,7.85,0,0,1-2.57-.93,15.26,15.26,0,0,0,3.53,2C63.69,65.62,64.42,65.82,64.58,65.34Z"/></g></g></svg>