<svg xmlns="http://www.w3.org/2000/svg" xmlns:xlink="http://www.w3.org/1999/xlink" viewBox="0 0 123.67 94.58"><defs><style>.cls-1{fill:url(#linear-gradient);}.cls-2{fill:#d37816;}.cls-22,.cls-24,.cls-26,.cls-27,.cls-29,.cls-3,.cls-31,.cls-36,.cls-4,.cls-43,.cls-44,.cls-5,.cls-6,.cls-8,.cls-9{fill:#fff;}.cls-3{opacity:0.42;}.cls-4{opacity:0.56;}.cls-5{opacity:0.2;}.cls-6{opacity:0.88;}.cls-7{fill:url(#linear-gradient-2);}.cls-8{opacity:0.29;}.cls-9{opacity:0.65;}.cls-10{fill:url(#linear-gradient-3);}.cls-11{fill:#7c430f;}.cls-12{fill:#563511;}.cls-13{fill:url(#linear-gradient-4);}.cls-14{fill:#b76615;}.cls-15{fill:url(#linear-gradient-5);}.cls-16{fill:#704621;}.cls-17{fill:url(#linear-gradient-6);}.cls-18{fill:url(#linear-gradient-7);}.cls-19{fill:#cc1305;}.cls-20{fill:#d31602;}.cls-21{fill:#a50024;}.cls-22{opacity:0.09;}.cls-23{opacity:0.22;}.cls-25{fill:url(#linear-gradient-8);}.cls-26{opacity:0.23;}.cls-27{opacity:0.52;}.cls-28{fill:#ea1106;}.cls-29{opacity:0.05;}.cls-30,.cls-37{opacity:0.48;}.cls-30{fill:url(#linear-gradient-9);}.cls-31{opacity:0.3;}.cls-32,.cls-37{fill:#fff30b;}.cls-33{fill:#ef8216;}.cls-34{fill:url(#linear-gradient-10);}.cls-35{opacity:0.59;}.cls-36{opacity:0.45;}.cls-38{fill:url(#linear-gradient-11);}.cls-39{fill:url(#linear-gradient-12);}.cls-40{fill:url(#linear-gradient-13);}.cls-41{fill:url(#linear-gradient-14);}.cls-42{fill:url(#linear-gradient-15);}.cls-43{opacity:0.18;}.cls-44{opacity:0.12;}</style><linearGradient id="linear-gradient" x1="46.53" y1="10.56" x2="79.04" y2="29.08" gradientUnits="userSpaceOnUse"><stop offset="0.09" stop-color="#f4e203"/><stop offset="0.3" stop-color="#f4c005"/><stop offset="0.55" stop-color="#f49f07"/><stop offset="0.69" stop-color="#f49308"/></linearGradient><linearGradient id="linear-gradient-2" x1="-9.31" y1="32.33" x2="62.32" y2="77.4" gradientUnits="userSpaceOnUse"><stop offset="0.18" stop-color="#f4e203"/><stop offset="0.24" stop-color="#f4db03"/><stop offset="0.31" stop-color="#f4c905"/><stop offset="0.4" stop-color="#f4ab06"/><stop offset="0.46" stop-color="#f49308"/></linearGradient><linearGradient id="linear-gradient-3" x1="72.11" y1="33.35" x2="124.89" y2="66.55" xlink:href="#linear-gradient-2"/><linearGradient id="linear-gradient-4" x1="32.54" y1="38.22" x2="91.14" y2="82" gradientUnits="userSpaceOnUse"><stop offset="0.02" stop-color="#f4e203"/><stop offset="0.7" stop-color="#f49308"/></linearGradient><linearGradient id="linear-gradient-5" x1="39.66" y1="43.54" x2="86.25" y2="78.35" xlink:href="#linear-gradient-4"/><linearGradient id="linear-gradient-6" x1="38.89" y1="59.78" x2="84.78" y2="59.78" gradientUnits="userSpaceOnUse"><stop offset="0" stop-color="#ff7a73"/><stop offset="0.36" stop-color="#eb352c"/><stop offset="0.5" stop-color="#e2180e"/></linearGradient><linearGradient id="linear-gradient-7" x1="53" y1="67.3" x2="76.21" y2="47.56" gradientUnits="userSpaceOnUse"><stop offset="0" stop-color="#ffaeae"/><stop offset="0.38" stop-color="#ff6767"/><stop offset="0.67" stop-color="#ff2c2c"/></linearGradient><linearGradient id="linear-gradient-8" x1="60.8" y1="36.32" x2="67.15" y2="58.37" gradientUnits="userSpaceOnUse"><stop offset="0" stop-color="#ffaeae"/><stop offset="0.2" stop-color="#ff6767"/><stop offset="0.35" stop-color="#ff2c2c"/></linearGradient><linearGradient id="linear-gradient-9" x1="75.04" y1="67.08" x2="84.63" y2="73.39" gradientUnits="userSpaceOnUse"><stop offset="0" stop-color="#ff7a73"/><stop offset="0.35" stop-color="#eb352c"/><stop offset="0.5" stop-color="#e2180e"/></linearGradient><linearGradient id="linear-gradient-10" x1="41.2" y1="29.82" x2="53.46" y2="37.19" xlink:href="#linear-gradient-4"/><linearGradient id="linear-gradient-11" x1="74.5" y1="30.32" x2="83.74" y2="35.87" xlink:href="#linear-gradient-4"/><linearGradient id="linear-gradient-12" x1="26.24" y1="57.14" x2="38.28" y2="64.38" xlink:href="#linear-gradient-4"/><linearGradient id="linear-gradient-13" x1="89.33" y1="57.71" x2="101.37" y2="64.95" xlink:href="#linear-gradient-4"/><linearGradient id="linear-gradient-14" x1="42.41" y1="85.67" x2="51.65" y2="91.23" xlink:href="#linear-gradient-4"/><linearGradient id="linear-gradient-15" x1="73.58" y1="84.87" x2="85.78" y2="92.21" xlink:href="#linear-gradient-4"/></defs><g id="Layer_2" data-name="Layer 2"><g id="Layer_1-2" data-name="Layer 1"><path class="cls-1" d="M61,31.88a17.13,17.13,0,0,1,2-.16l.28.12c3.5,1.4,11.13,1.95,12.18-2.73,1.21-5.46,3.58-10.69,5-16.14.16-.67.23-1.55-.38-1.86a1.56,1.56,0,0,0-1,0,51.39,51.39,0,0,0-9.46,3.12A60.77,60.77,0,0,0,64.47,3.33,9.83,9.83,0,0,0,61.8.11L61.64,0a.91.91,0,0,0-.16.11,10,10,0,0,0-2.57,3.31,61.39,61.39,0,0,0-4.76,11.05,50.64,50.64,0,0,0-9.56-2.81,1.49,1.49,0,0,0-1,0c-.6.32-.51,1.2-.32,1.86,1.55,5.41,4.08,10.56,5.47,16C49.93,34.18,57.54,33.39,61,31.88Z"/><path class="cls-2" d="M74.45,22.24a3.48,3.48,0,0,1-.84,1,3.46,3.46,0,0,1-2.26.33,72.13,72.13,0,0,0-13.14-.26,29.52,29.52,0,0,0-10.49,2.83c.38,1.13.73,2.26,1,3.41,1.19,4.65,8.81,3.85,12.25,2.34a19.81,19.81,0,0,1,2-.16l.29.12c3.49,1.4,11.13,1.95,12.17-2.73,1.21-5.46,3.58-10.68,5-16.14.17-.67.23-1.55-.38-1.86a1.25,1.25,0,0,0-.79,0,4,4,0,0,1-.17,2.46A42.44,42.44,0,0,1,74.45,22.24Z"/><path class="cls-2" d="M69.71,14.17l-.12.05A60.77,60.77,0,0,0,64.47,3.33,13.5,13.5,0,0,0,62.76.94c.07.14.13.28.2.43A43.84,43.84,0,0,1,66.77,18,24.5,24.5,0,0,1,69.71,14.17Z"/><path class="cls-2" d="M55.47,19.6a41.41,41.41,0,0,1-1.28-5.25.56.56,0,0,0,0,.12,50.07,50.07,0,0,0-8.38-2.57,15.52,15.52,0,0,1,6.67,3.62A14.27,14.27,0,0,1,55.47,19.6Z"/><path class="cls-3" d="M62.35,7.27c.5-1.29.79-4.24-.5-5.06s-2.37,2.12-2.73,3.16c-1.75,5-2.72,10.7-1.48,15.87a15.36,15.36,0,0,1,1.92-9.78C60.48,10.05,61.72,8.9,62.35,7.27Z"/><path class="cls-4" d="M47.17,13.42c-.51-.61-1.89-.87-2.42-.17-.38.49-.16,1.2.07,1.77.89,2.18,1.83,4.33,2.8,6.47a12.65,12.65,0,0,0,1.54,2.7c-.46-1.37-.9-2.74-1.3-4.13a8.45,8.45,0,0,1-.49-3.37C47.51,15.65,48,14.35,47.17,13.42Z"/><path class="cls-5" d="M76.87,14.67c.57-.45,1.51-1.83.25-2.14a1.61,1.61,0,0,0-.84.08,14.14,14.14,0,0,0-8.66,7,9.32,9.32,0,0,1,4.45-2.75A16.38,16.38,0,0,0,76.87,14.67Z"/><path class="cls-6" d="M45.19,14.07a1.72,1.72,0,0,0,.17,1c.49,1.25,1,2.5,1.48,3.74a11.44,11.44,0,0,1-.49-4.54A.59.59,0,1,0,45.19,14.07Z"/><path class="cls-6" d="M59.14,10.19c.53-1,1.23-2,1.79-3a5.21,5.21,0,0,0,.8-3.59c-.45-1.58-1.38.56-1.58,1.15a25.81,25.81,0,0,0-1.33,5,.63.63,0,0,0,0,.36A.23.23,0,0,0,59.14,10.19Z"/><path class="cls-7" d="M.44,48.57C-.42,50.7.09,53.14,1,55.25A20.9,20.9,0,0,0,11.18,65.7C9,65,6.67,67,6.51,69.26,5.72,80.58,27,86.87,36.11,84.33c5.51-1.52,9.76-2.53,14.06-4.56,4.72-2.23,8.37-6.21,11.57-10.33,1.47-1.9,2.94-4.1,2.65-6.49a8.75,8.75,0,0,0-1.52-3.57A45.33,45.33,0,0,0,51.81,47.5a38.76,38.76,0,0,0-6.54-4.21c-2.48-1.14-5.19-1.57-7.65-2.91A34.58,34.58,0,0,1,30,34.64a64.14,64.14,0,0,1-10.5-14.51c-1.11-2-2.22-4-4-5.38S11,12.9,9.24,14.26c-1.62,1.24-2,3.52-1.94,5.55A20.14,20.14,0,0,0,10,29.29c-2.36-1.54-5.79-.64-7.53,1.58a8.87,8.87,0,0,0-1.09,8,18.54,18.54,0,0,0,4.59,7C3.9,44.92,1.29,46.43.44,48.57Z"/><path class="cls-2" d="M11.18,65.7l9.11,1.88c3.78.78,7.76,1.55,11.45.41a40.26,40.26,0,0,1-23.49-7.9A60.75,60.75,0,0,1,1.41,54C1,53.57.57,53.14.18,52.68A12.79,12.79,0,0,0,1,55.25,20.9,20.9,0,0,0,11.18,65.7Z"/><path class="cls-2" d="M11.2,13.49a3.86,3.86,0,0,0-2,.78c-1.62,1.23-2,3.51-1.94,5.54A20.27,20.27,0,0,0,9.84,29c.46.61.89,1.24,1.31,1.87A62.77,62.77,0,0,0,22.48,43.35c2.31,1.94,4.91,3.78,7.91,4.16A42.76,42.76,0,0,1,10,20.51c-.49-2.05-.75-4.18.43-6A8.46,8.46,0,0,1,11.2,13.49Z"/><path class="cls-2" d="M36.11,84.34c1.48-.42,2.87-.79,4.19-1.15.46-.75-.39-4.39-.87-5.11C26.58,83.94,9.11,79.43,6.5,69.7,6.27,80.74,27.08,86.84,36.11,84.34Z"/><path class="cls-2" d="M21.08,52.48c2.89,1.6,6,3.42,9.25,2.88A44.15,44.15,0,0,1,3.7,35.63a14.09,14.09,0,0,1-1.76-4,9.22,9.22,0,0,0-.56,7.25,18.24,18.24,0,0,0,4.41,6.81A91.49,91.49,0,0,1,21.08,52.48Z"/><path class="cls-2" d="M11.18,65.7a3.16,3.16,0,0,0-.65-.14Z"/><path class="cls-3" d="M26.55,40.25a6.59,6.59,0,0,0-1.72-3.15A27.77,27.77,0,0,1,20,27.52c-.63-2.2-1-4.48-1.8-6.62-.69-1.79-2.57-5.22-4.78-5.5-3.63-.45-1.85,5-1.12,6.5a96.74,96.74,0,0,0,6.4,11.81C20.6,36.63,23.12,39.51,26.55,40.25Z"/><path class="cls-3" d="M23.06,48.71A28.66,28.66,0,0,1,12.79,41,18.21,18.21,0,0,1,10,36.58c-.69-1.58-1-3.74-2-5.12a1.46,1.46,0,0,0-2.71.61A4.35,4.35,0,0,0,5.76,35C9,41.82,16,46.06,23.06,48.71Z"/><path class="cls-3" d="M23.92,60.43c-2.59-1.13-5.36-1.78-8-2.8a13.87,13.87,0,0,1-6.76-4.88c-.61-.94-1-2-1.71-2.88-.85-1.15-4.28-3.19-4.34-.31,0,2.36,1.9,4.26,3.85,5.61A30,30,0,0,0,23.92,60.43Z"/><path class="cls-8" d="M29,75.88a52.41,52.41,0,0,1-8.67-2,17.71,17.71,0,0,1-7.46-4.71c-1-1.1-3.05-2.78-3.46,0a2.9,2.9,0,0,0,.92,2.38,7.77,7.77,0,0,0,2.23,1.42C17.65,75.33,23.39,76.78,29,75.88Z"/><path class="cls-9" d="M19.72,32.44q-1.09-3.54-1.92-7.16c-.56-2.47-1.06-5.08-2.47-7.23-.47-.72-1.69-2.58-2.56-1.35s.55,2.62,1.18,3.47a18.34,18.34,0,0,1,1.46,2.5A106.11,106.11,0,0,1,19.72,32.44Z"/><path class="cls-10" d="M114.43,14.26c-1.78-1.36-4.47-.88-6.26.49a16.71,16.71,0,0,0-4,5.38A64.18,64.18,0,0,1,93.66,34.64a34.12,34.12,0,0,1-7.61,5.74c-2.46,1.34-5.17,1.77-7.65,2.91a39.58,39.58,0,0,0-6.54,4.21,45.3,45.3,0,0,0-11,11.88A8.91,8.91,0,0,0,59.28,63c-.29,2.39,1.19,4.59,2.66,6.49,3.2,4.12,6.85,8.1,11.57,10.33,4.29,2,8.55,3,14,4.56,9.15,2.54,30.39-3.75,29.6-15.07C117,67,114.68,65,112.5,65.7a20.92,20.92,0,0,0,10.18-10.45c.9-2.11,1.41-4.55.56-6.68s-3.46-3.65-5.54-2.66a18.42,18.42,0,0,0,4.59-7,8.81,8.81,0,0,0-1.09-8c-1.74-2.22-5.17-3.12-7.52-1.58a20.24,20.24,0,0,0,2.69-9.48C116.43,17.78,116.05,15.5,114.43,14.26Z"/><path class="cls-2" d="M112.5,65.7a20.92,20.92,0,0,0,10.18-10.45,12.79,12.79,0,0,0,.81-2.57c-.39.46-.81.89-1.23,1.32a60.75,60.75,0,0,1-6.84,6.09A40.26,40.26,0,0,1,91.93,68c3.69,1.14,7.67.37,11.46-.41Z"/><path class="cls-2" d="M93.29,47.51c3-.38,5.59-2.22,7.91-4.16a63,63,0,0,0,11.32-12.48c.43-.63.85-1.26,1.32-1.87a20.13,20.13,0,0,0,2.53-9.19c.06-2-.32-4.31-1.94-5.54a3.83,3.83,0,0,0-2-.78,7.46,7.46,0,0,1,.78,1c1.19,1.86.92,4,.44,6A42.79,42.79,0,0,1,93.29,47.51Z"/><path class="cls-2" d="M117.18,69.7c-2.61,9.73-20.08,14.24-32.94,8.38-.47.72-1.32,4.36-.87,5.11,1.33.36,2.71.73,4.19,1.15C96.59,86.84,117.4,80.74,117.18,69.7Z"/><path class="cls-2" d="M117.88,45.72a18.12,18.12,0,0,0,4.41-6.81,9.13,9.13,0,0,0-.56-7.25,13.81,13.81,0,0,1-1.76,4A44.09,44.09,0,0,1,93.34,55.36c3.25.54,6.37-1.28,9.25-2.88A91.85,91.85,0,0,1,117.88,45.72Z"/><path class="cls-2" d="M113.15,65.56a2.9,2.9,0,0,0-.65.14Z"/><path class="cls-3" d="M111.41,21.9c.73-1.5,2.51-6.95-1.12-6.5-2.2.28-4.08,3.71-4.77,5.5-.82,2.14-1.18,4.42-1.8,6.62a28.12,28.12,0,0,1-4.87,9.58,6.61,6.61,0,0,0-1.73,3.15c3.43-.74,5.95-3.62,7.9-6.54A98.06,98.06,0,0,0,111.41,21.9Z"/><path class="cls-3" d="M118.45,32.07a1.47,1.47,0,0,0-2.72-.61c-1.07,1.38-1.34,3.54-2,5.12A17.87,17.87,0,0,1,110.89,41a28.61,28.61,0,0,1-10.28,7.75c7.07-2.65,14.08-6.89,17.3-13.73A4.41,4.41,0,0,0,118.45,32.07Z"/><path class="cls-3" d="M120.56,49.56c0-2.88-3.48-.84-4.34.31-.66.9-1.1,1.94-1.71,2.88a13.82,13.82,0,0,1-6.76,4.88c-2.63,1-5.41,1.67-8,2.8a30,30,0,0,0,17-5.26C118.66,53.82,120.61,51.92,120.56,49.56Z"/><path class="cls-8" d="M113.37,71.51a2.87,2.87,0,0,0,.92-2.38c-.4-2.74-2.48-1.06-3.45,0a17.83,17.83,0,0,1-7.46,4.71,52.52,52.52,0,0,1-8.68,2c5.58.9,11.32-.55,16.44-2.95A7.63,7.63,0,0,0,113.37,71.51Z"/><path class="cls-9" d="M110.91,16.7c-.88-1.23-2.09.63-2.56,1.35-1.41,2.15-1.92,4.76-2.48,7.23s-1.19,4.8-1.91,7.16a101,101,0,0,1,4.31-9.77,17.3,17.3,0,0,1,1.45-2.5C110.35,19.32,111.72,17.84,110.91,16.7Z"/><polygon class="cls-11" points="80.97 92.19 99.05 61.73 80.73 27.5 42.73 27.06 23.93 60.11 42.71 93.44 80.97 92.19"/><polygon class="cls-12" points="46.17 89.09 43.82 92.19 80.32 92.55 99.24 59.86 81.65 29.86 79.86 31.6 96.28 60.59 78.84 89.09 46.17 89.09"/><polygon class="cls-12" points="42.28 34.85 49.75 30.32 73.3 30.56 79.69 35.3 82.72 34.27 80.88 28.04 43.82 27.93 24.94 59.53 39.35 86.83 43.82 92.19 45.17 89.41 30.89 64.75 30.89 54.81 42.28 34.85"/><path class="cls-13" d="M81.74,94.58l19.9-34.47L81.74,25.64H41.93L22,60.11l19.9,34.47ZM43.82,28.91h36l18,31.2-18,31.2h-36l-18-31.2Z"/><polygon class="cls-14" points="41.94 28.91 23.93 60.11 41.94 91.31 43.82 91.31 25.81 60.11 43.82 28.91 41.94 28.91"/><polygon class="cls-14" points="81.74 94.58 101.64 60.11 81.74 25.64 79.86 25.64 99.76 60.11 79.86 94.58 81.74 94.58"/><path class="cls-14" d="M47.26,86.83H76.41a1.47,1.47,0,0,0,1.28-.74L92.27,60.85a1.5,1.5,0,0,0,0-1.48L77.69,34.13a1.47,1.47,0,0,0-1.28-.74H47.26a1.48,1.48,0,0,0-1.28.74L31.41,59.37a1.45,1.45,0,0,0,0,1.48L46,86.09A1.48,1.48,0,0,0,47.26,86.83Z"/><polygon class="cls-15" points="76.37 85.29 90.91 60.11 76.37 34.93 47.3 34.93 32.76 60.11 47.3 85.29 76.37 85.29"/><polygon class="cls-16" points="73.78 80.79 85.72 60.11 73.78 39.43 49.9 39.43 37.96 60.11 49.9 80.79 73.78 80.79"/><polygon class="cls-17" points="73.31 79.66 84.78 59.78 73.31 39.91 50.37 39.91 38.89 59.78 50.37 79.66 73.31 79.66"/><polygon class="cls-18" points="77.07 59.78 69.45 46.59 54.22 46.59 46.6 59.78 54.22 72.98 69.45 72.98 77.07 59.78"/><polygon class="cls-19" points="77.07 59.78 69.45 72.98 54.22 72.98 50.37 79.66 73.31 79.66 84.78 59.78 77.07 59.78"/><path class="cls-20" d="M76.16,58.2l0,.09Z"/><path class="cls-20" d="M69.45,46.59,76.16,58.2a22.41,22.41,0,0,1-2.79-9.31c-.19-4.93-.06-9-.06-9Z"/><polygon class="cls-21" points="69.45 72.98 54.22 72.98 69.45 74.01 73.31 79.66 70.72 72.98 77.07 59.78 69.45 72.98"/><polygon class="cls-21" points="50.37 79.66 55.36 72.98 54.22 72.98 50.37 79.66"/><path class="cls-22" d="M46.6,59.78,54.22,73H69.45l4-7a18.29,18.29,0,0,1-8.37,1.53A15.46,15.46,0,0,1,53.22,60.9a13.13,13.13,0,0,1-1.77-4.06,13.42,13.42,0,0,1-.28-5Z"/><g class="cls-23"><path class="cls-24" d="M61.74,46.59C58,48.43,54.38,50.41,50.81,52.5L48.6,56.32A225.79,225.79,0,0,1,70.27,48l-.82-1.4Z"/><path class="cls-24" d="M73.16,66.57l3.91-6.79-4.63-8L50.31,66.2l3.15,5.47c2.13-.71,4.29-1.32,6.46-1.9Q66.49,68,73.16,66.57Z"/></g><polygon class="cls-25" points="73.31 39.91 50.37 39.91 54.22 46.59 69.45 46.59 73.31 39.91"/><path class="cls-26" d="M54.22,73,46.66,59.8,39,59.7s2.87.89,7.41,4.85A60.81,60.81,0,0,1,54.22,73Z"/><polygon class="cls-27" points="54.79 45.79 50.37 39.91 54.22 46.59 65.04 46.59 54.79 45.79"/><polygon class="cls-28" points="52.28 69.8 46.66 59.8 38.95 59.7 46.25 60.8 52.28 69.8"/><path class="cls-29" d="M47.85,51.45c2.7-4.71,2.51-11.54,2.51-11.54L39,59.7S45.15,56.17,47.85,51.45Z"/><path class="cls-30" d="M75.35,69.72a23.41,23.41,0,0,0-2,9.93L84.78,59.78S77.61,65,75.35,69.72Z"/><polygon class="cls-21" points="69.45 46.59 74.14 54.81 70.7 46.59 73.31 39.91 69.45 46.59"/><polygon class="cls-24" points="46.66 59.8 54.22 72.98 47.96 59.78 54.22 46.59 46.66 59.8"/><polygon class="cls-24" points="69.45 71.67 60.04 72.98 69.45 72.98 77.07 59.78 69.45 71.67"/><polygon class="cls-21" points="73.47 79.37 50.37 79.66 73.8 80.31 84.78 59.78 73.47 79.37"/><polygon class="cls-31" points="38.95 59.7 45.62 71.43 40.17 59.7 50.37 39.91 38.95 59.7"/><polygon class="cls-32" points="47.3 34.93 32.76 60.11 37.96 60.11 49.9 39.43 47.3 34.93"/><polygon class="cls-2" points="85.72 60.11 73.78 80.79 76.37 85.29 90.91 60.11 85.72 60.11"/><path class="cls-2" d="M73.78,80.79H49.9l-2.6,4.5s1.35-2,12.36-3.22C71,80.84,73.78,80.79,73.78,80.79Z"/><path class="cls-33" d="M76.37,34.93c-.3,0-2.59,4.5-2.59,4.5L85.72,60.11h5.19Z"/><path class="cls-24" d="M36,58.94a2.23,2.23,0,0,0,.93-1,35.16,35.16,0,0,0,1.53-3.57c2-5,5.24-9.43,7.74-14.22.17-.34.33-.77.1-1.07a32.9,32.9,0,0,0-2.59,3.76c-.71,1.45-1.56,2.83-2.38,4.22l-6,10.09a2.57,2.57,0,0,0-.39.94.83.83,0,0,0,.41.87A.79.79,0,0,0,36,58.94Z"/><path class="cls-34" d="M40.73,34.3a12.86,12.86,0,0,0,4,3.45,9.9,9.9,0,0,0,3.4,1.43,2.28,2.28,0,0,0,1.38-.11,2.27,2.27,0,0,0,.79-1.14,10.15,10.15,0,0,0,.47-3.66,12.79,12.79,0,0,0-1-5.15,2.52,2.52,0,0,0-1.91,1.11,11.92,11.92,0,0,0-4.8-4,5.73,5.73,0,0,0-1.34-.66,5.49,5.49,0,0,0-.1,1.49,12,12,0,0,0,1,6.17A2.5,2.5,0,0,0,40.73,34.3Z"/><path class="cls-2" d="M42.19,26.16c.71,1.32,1.73,2.53,2.51,3.82s1.62,2.78,2.38,4.2c.42.79.83,1.59,1.24,2.38a12.28,12.28,0,0,1,1.19,2.34A47.47,47.47,0,0,1,48,30.33a1.77,1.77,0,0,1,0-.23.64.64,0,0,0-.1.13,11.78,11.78,0,0,0-4.81-4,4.55,4.55,0,0,0-1.34-.67C41.73,25.72,42.1,26,42.19,26.16Z"/><path class="cls-2" d="M49.5,39.06a2.38,2.38,0,0,0,.76-1.12,10.2,10.2,0,0,0,.48-3.67,13,13,0,0,0-1-5.15l-.18,0a3.58,3.58,0,0,1,.09.45c.4,2.89.8,5.88,0,8.69A5.16,5.16,0,0,0,49.5,39.06Z"/><g class="cls-35"><path class="cls-2" d="M48.08,39.16a2.29,2.29,0,0,0,1.38-.11l.17-.13a10.88,10.88,0,0,1-4.81-1.67,14.62,14.62,0,0,1-4.07-3l0,.05a12.84,12.84,0,0,0,4,3.45A10.26,10.26,0,0,0,48.08,39.16Z"/><path class="cls-2" d="M42.62,33.18h0a3,3,0,0,1,.75.35l1,.58a2.78,2.78,0,0,1-.56-.74c-.19-.26-.36-.53-.53-.81a14.11,14.11,0,0,1-.84-1.7,12.55,12.55,0,0,1-.81-3.3c0-.27,0-.69-.05-1a4.17,4.17,0,0,1,0,.5A12,12,0,0,0,42.62,33.18Z"/></g><path class="cls-14" d="M41.69,25.56s7.71,13,7.67,12.89-2.18-5.6-3.31-7.56A40.8,40.8,0,0,0,41.69,25.56Z"/><path class="cls-36" d="M43.06,31.48a12.89,12.89,0,0,0,2.45,3.77,12,12,0,0,0,.89.86,9.15,9.15,0,0,1,1,.76,21.92,21.92,0,0,1-3.32-4.75,34.76,34.76,0,0,1-1.47-4.35.49.49,0,0,0-.11-.2c-.36-.31-.3.54-.29.64.05.38.12.76.2,1.13A13.28,13.28,0,0,0,43.06,31.48Z"/><path class="cls-36" d="M42.28,34.85a4.81,4.81,0,0,1,3,1.13c-.38-.34-.7-.74-1-1.11A3,3,0,0,0,43,34a1.52,1.52,0,0,0-1.09.06c-.29.13-.64.43-.19.68A1.25,1.25,0,0,0,42.28,34.85Z"/><path class="cls-14" d="M49.25,38.64a2.28,2.28,0,0,1-1.38.11,10.1,10.1,0,0,1-3.4-1.43,13.15,13.15,0,0,1-3.68-3.08l0,0a13,13,0,0,0,4,3.45,10.3,10.3,0,0,0,3.4,1.43,2.31,2.31,0,0,0,1.39-.11,2.29,2.29,0,0,0,.78-1.14,10.18,10.18,0,0,0,.48-3.66,13,13,0,0,0-1-5.16H49.7a13.45,13.45,0,0,1,.81,4.73A10,10,0,0,1,50,37.5,2.25,2.25,0,0,1,49.25,38.64Z"/><path class="cls-37" d="M49,30c-.48,0-.56.71-.58,1A14.18,14.18,0,0,0,49,34.84a7.11,7.11,0,0,1,.07-2.6C49.16,31.85,49.65,30,49,30Z"/><path class="cls-38" d="M81.65,25.52a5.41,5.41,0,0,0-1.33.68,11.82,11.82,0,0,0-4.77,4.05,2.51,2.51,0,0,0-1.91-1.1,12.87,12.87,0,0,0-1,5.17A10.18,10.18,0,0,0,73.2,38a1.61,1.61,0,0,0,2.18,1.22,10.05,10.05,0,0,0,3.39-1.46,12.89,12.89,0,0,0,3.93-3.49,2.56,2.56,0,0,0-1.93-1.07,11.72,11.72,0,0,0,1-6.17A5.48,5.48,0,0,0,81.65,25.52Z"/><path class="cls-2" d="M81.65,25.52c-.12.12-.16.56-.26.73-.78,1.29-1.3,2.78-2,4.12s-1.56,2.81-2.4,4.18c-.46.77-.93,1.53-1.41,2.29a12.54,12.54,0,0,1-1.4,2.21,47.6,47.6,0,0,1,6.57-5.72l.19-.12-.16,0a11.85,11.85,0,0,0,1-6.18A4.4,4.4,0,0,0,81.65,25.52Z"/><path class="cls-2" d="M78.77,37.74a12.84,12.84,0,0,0,3.92-3.48.76.76,0,0,0-.11-.14,3.08,3.08,0,0,1-.33.3C80,36.24,77.6,38.1,74.78,38.87a5.2,5.2,0,0,0-.76.25,2.39,2.39,0,0,0,1.36.09A10.08,10.08,0,0,0,78.77,37.74Z"/><g class="cls-35"><path class="cls-2" d="M73.65,29.13a13,13,0,0,0-.94,5.16,10.12,10.12,0,0,0,.5,3.66,2.31,2.31,0,0,0,.8,1.13.84.84,0,0,0,.2.08,10.82,10.82,0,0,1-1-5,14.44,14.44,0,0,1,.53-5Z"/><path class="cls-2" d="M75.67,32.19a2.62,2.62,0,0,1,.34-.86c.13-.3.28-.59.43-.87a12.08,12.08,0,0,1,1-1.59,12.45,12.45,0,0,1,2.42-2.39,8.8,8.8,0,0,0,.86-.56,3.7,3.7,0,0,1-.43.25,11.88,11.88,0,0,0-4.75,4v0a2.89,2.89,0,0,1,.08.83C75.66,31.44,75.66,31.81,75.67,32.19Z"/></g><path class="cls-14" d="M74.47,38.69c.06-.07,3.71-4.73,4.82-6.71a39.86,39.86,0,0,0,2.36-6.46S74.42,38.77,74.47,38.69Z"/><path class="cls-36" d="M80.32,27.22c.09-.47-.61,0-.69.08-.31.24-.6.49-.88.75a13.16,13.16,0,0,0-1.49,1.67,12.49,12.49,0,0,0-2,4c-.12.4-.21.8-.29,1.21a9.84,9.84,0,0,1-.15,1.23,21.85,21.85,0,0,1,2.38-5.28,36.59,36.59,0,0,1,3-3.48A.35.35,0,0,0,80.32,27.22Z"/><path class="cls-36" d="M74.93,32.44a3.07,3.07,0,0,0,.11-1.5,1.55,1.55,0,0,0-.61-.91c-.26-.18-.69-.32-.68.19a1.38,1.38,0,0,0,.21.54,4.87,4.87,0,0,1,.55,3.15C74.6,33.41,74.79,32.93,74.93,32.44Z"/><path class="cls-14" d="M73.66,29.17a13.14,13.14,0,0,0-1,5.16A10.37,10.37,0,0,0,73.22,38a2.31,2.31,0,0,0,.8,1.13,2.29,2.29,0,0,0,1.38.1,10.13,10.13,0,0,0,3.4-1.47,12.84,12.84,0,0,0,3.92-3.48l0-.05A13.31,13.31,0,0,1,79,37.33a9.85,9.85,0,0,1-3.39,1.46,1.61,1.61,0,0,1-2.18-1.22A10.18,10.18,0,0,1,73,33.91a13.4,13.4,0,0,1,.77-4.73Z"/><path class="cls-37" d="M81.59,34.07c-.24-.43-.9-.13-1.2,0a13.7,13.7,0,0,0-3,2.46,7.11,7.11,0,0,1,2.27-1.26C80.05,35.15,81.9,34.62,81.59,34.07Z"/><path class="cls-39" d="M22.58,59.85a5.26,5.26,0,0,0,1.24.83,11.82,11.82,0,0,0,5.87,2.17,2.5,2.5,0,0,0,0,2.2,12.89,12.89,0,0,0,5-1.71,10.09,10.09,0,0,0,2.94-2.24,2.27,2.27,0,0,0,.59-1.25,2.33,2.33,0,0,0-.59-1.25,10.45,10.45,0,0,0-2.94-2.24,12.87,12.87,0,0,0-5-1.7,2.5,2.5,0,0,0,0,2.2A11.82,11.82,0,0,0,23.82,59,5.24,5.24,0,0,0,22.58,59.85Z"/><path class="cls-2" d="M29.83,62.89A48.17,48.17,0,0,1,38,60a12.55,12.55,0,0,1-2.61.14l-2.68.11c-1.61.05-3.22.07-4.83,0s-3.07-.32-4.57-.27c-.2,0-.6-.18-.76-.14a4.49,4.49,0,0,0,1.24.83,11.86,11.86,0,0,0,5.87,2.17,1,1,0,0,0-.07.15Z"/><path class="cls-2" d="M37.58,61.1a2.4,2.4,0,0,0,.59-1.22,5,5,0,0,0-.59.54c-2,2.08-4.84,3.23-7.54,4.32a2.39,2.39,0,0,1-.43.14,1.22,1.22,0,0,0,.07.17,12.9,12.9,0,0,0,5-1.71A10.09,10.09,0,0,0,37.58,61.1Z"/><g class="cls-35"><path class="cls-2" d="M38.11,60.06a.76.76,0,0,0,0-.21,2.33,2.33,0,0,0-.59-1.25,10.45,10.45,0,0,0-2.94-2.24,12.87,12.87,0,0,0-5-1.7.14.14,0,0,1,0,.06,14.43,14.43,0,0,1,4.65,2A10.77,10.77,0,0,1,38.11,60.06Z"/><path class="cls-2" d="M29.43,57.74c.33,0,.65,0,1,0a2.8,2.8,0,0,1,.92.12l-1-.56a2.66,2.66,0,0,1-.68-.47l0,0A11.78,11.78,0,0,0,23.79,59l-.43.25c.33-.12.67-.37.92-.48a12.31,12.31,0,0,1,3.26-.94A12,12,0,0,1,29.43,57.74Z"/></g><path class="cls-14" d="M22.58,59.85A40.08,40.08,0,0,0,29.36,61c2.28,0,8.13-.9,8.22-.91S22.58,59.85,22.58,59.85Z"/><path class="cls-36" d="M24.94,59.53a33.49,33.49,0,0,1,4.5-.9,21.58,21.58,0,0,1,5.77.51,9.27,9.27,0,0,1-1.15-.47,11.62,11.62,0,0,0-1.19-.34,12.51,12.51,0,0,0-4.48-.24,11.73,11.73,0,0,0-2.19.48c-.36.11-.72.25-1.08.4-.09,0-.86.41-.41.56A.45.45,0,0,0,24.94,59.53Z"/><path class="cls-36" d="M31.9,57.39a13.9,13.9,0,0,1,1.48.36,4.89,4.89,0,0,1-2.46-2,1.42,1.42,0,0,0-.38-.46c-.43-.26-.52.19-.49.51a1.52,1.52,0,0,0,.49,1A3.11,3.11,0,0,0,31.9,57.39Z"/><path class="cls-14" d="M34.15,63.37A13.5,13.5,0,0,1,29.65,65s0,0,0,0a12.87,12.87,0,0,0,5-1.7,10.27,10.27,0,0,0,2.94-2.24,2.33,2.33,0,0,0,.59-1.25,2.3,2.3,0,0,0-.59-1.25,10.09,10.09,0,0,0-2.94-2.24,12.89,12.89,0,0,0-5-1.71l0,.06a13.28,13.28,0,0,1,4.5,1.65,9.83,9.83,0,0,1,2.94,2.24,2.32,2.32,0,0,1,.6,1.25,2.35,2.35,0,0,1-.6,1.25A10,10,0,0,1,34.15,63.37Z"/><path class="cls-37" d="M32.06,63a7.18,7.18,0,0,1,2.22-1.36A13.9,13.9,0,0,0,30.68,63c-.29.18-.88.61-.62,1S31.76,63.18,32.06,63Z"/><path class="cls-40" d="M94.51,55a12.73,12.73,0,0,0-5,1.71,10.24,10.24,0,0,0-2.94,2.23,2.35,2.35,0,0,0-.6,1.25,2.35,2.35,0,0,0,.6,1.26,10.24,10.24,0,0,0,2.94,2.23,12.73,12.73,0,0,0,5,1.71,2.5,2.5,0,0,0,0-2.2A11.86,11.86,0,0,0,100.37,61a5.16,5.16,0,0,0,1.24-.83,5.45,5.45,0,0,0-1.24-.82,11.86,11.86,0,0,0-5.87-2.17A2.5,2.5,0,0,0,94.51,55Z"/><path class="cls-2" d="M101.61,60.18c-.16,0-.57.14-.76.14-1.51,0-3.06.23-4.57.27s-3.22,0-4.83,0l-2.69-.11a12.63,12.63,0,0,1-2.61-.14,48.17,48.17,0,0,1,8.2,2.92l.21.11-.06-.15A11.78,11.78,0,0,0,100.36,61,4.54,4.54,0,0,0,101.61,60.18Z"/><path class="cls-2" d="M89.55,63.67a12.68,12.68,0,0,0,5,1.71.87.87,0,0,0,.07-.17,2.16,2.16,0,0,1-.43-.14c-2.71-1.09-5.49-2.24-7.54-4.32a5.22,5.22,0,0,0-.6-.54,2.37,2.37,0,0,0,.6,1.23A10,10,0,0,0,89.55,63.67Z"/><g class="cls-35"><path class="cls-2" d="M89.92,57.06a14.38,14.38,0,0,1,4.64-2,.14.14,0,0,0,0-.06,12.73,12.73,0,0,0-5,1.71,10,10,0,0,0-2.94,2.23,2.35,2.35,0,0,0-.6,1.25l0,.22A10.82,10.82,0,0,1,89.92,57.06Z"/><path class="cls-2" d="M96.64,58.19a12.38,12.38,0,0,1,3.27.94c.24.11.59.36.91.48l-.43-.25a11.71,11.71,0,0,0-5.85-2.17v0a3.22,3.22,0,0,1-.68.48l-1,.55a2.8,2.8,0,0,1,.92-.12c.32,0,.65,0,1,0A11.92,11.92,0,0,1,96.64,58.19Z"/></g><path class="cls-14" d="M86.61,60.4c.09,0,5.94.9,8.21.9a40.26,40.26,0,0,0,6.79-1.12S86.52,60.39,86.61,60.4Z"/><path class="cls-36" d="M99.24,59.86a.45.45,0,0,0,.23,0c.45-.15-.31-.52-.41-.56-.35-.15-.71-.28-1.08-.4a12.51,12.51,0,0,0-6.67-.24c-.4.09-.8.21-1.19.34a8.16,8.16,0,0,1-1.15.47A22.47,22.47,0,0,1,94.74,59,32.88,32.88,0,0,1,99.24,59.86Z"/><path class="cls-36" d="M94.14,56.11c0-.32-.06-.77-.5-.5a1.17,1.17,0,0,0-.37.45,4.91,4.91,0,0,1-2.47,2,15.19,15.19,0,0,1,1.48-.36,3.06,3.06,0,0,0,1.36-.64A1.53,1.53,0,0,0,94.14,56.11Z"/><path class="cls-14" d="M90,56.72a13.47,13.47,0,0,1,4.51-1.65l0-.06a13.07,13.07,0,0,0-5,1.71A10.27,10.27,0,0,0,86.61,59a2.35,2.35,0,0,0-.6,1.25,2.32,2.32,0,0,0,.6,1.25,10.27,10.27,0,0,0,2.94,2.24,12.9,12.9,0,0,0,5,1.71l0-.06A13.47,13.47,0,0,1,90,63.7a10.27,10.27,0,0,1-2.94-2.24,2.3,2.3,0,0,1-.59-1.25A2.33,2.33,0,0,1,87.09,59,10.27,10.27,0,0,1,90,56.72Z"/><path class="cls-37" d="M94.13,64.33c.26-.42-.33-.85-.62-1a13.83,13.83,0,0,0-3.61-1.38,7.07,7.07,0,0,1,2.22,1.36C92.43,63.51,93.8,64.87,94.13,64.33Z"/><path class="cls-41" d="M41.81,94.41a5.54,5.54,0,0,0,1.34-.66,11.9,11.9,0,0,0,4.8-4,2.57,2.57,0,0,0,1.9,1.11,12.68,12.68,0,0,0,1-5.16A10.18,10.18,0,0,0,50.38,82a2.31,2.31,0,0,0-.79-1.14,2.29,2.29,0,0,0-1.38-.11,10.35,10.35,0,0,0-3.41,1.43,13.07,13.07,0,0,0-3.95,3.45,2.52,2.52,0,0,0,1.91,1.09,11.92,11.92,0,0,0-1,6.16A5.49,5.49,0,0,0,41.81,94.41Z"/><path class="cls-2" d="M48,89.74l.1.14a1.93,1.93,0,0,0,0-.24,47.22,47.22,0,0,1,1.57-8.56,12.2,12.2,0,0,1-1.19,2.33c-.41.8-.82,1.59-1.24,2.38-.76,1.42-1.54,2.83-2.38,4.2s-1.8,2.5-2.51,3.83c-.1.17-.46.43-.5.59a4.53,4.53,0,0,0,1.34-.66A11.84,11.84,0,0,0,48,89.74Z"/><path class="cls-2" d="M49.68,90.83l.18,0a12.79,12.79,0,0,0,1-5.15A10.15,10.15,0,0,0,50.38,82a2.36,2.36,0,0,0-.77-1.13c0,.27.11.54.17.78.78,2.82.39,5.81,0,8.7A3.43,3.43,0,0,1,49.68,90.83Z"/><g class="cls-35"><path class="cls-2" d="M44.94,82.72a10.82,10.82,0,0,1,4.8-1.66,1.07,1.07,0,0,0-.16-.14,2.29,2.29,0,0,0-1.38-.1,10,10,0,0,0-3.41,1.42,13,13,0,0,0-4,3.45l0,0A14.68,14.68,0,0,1,44.94,82.72Z"/><path class="cls-2" d="M42.56,89.12a13.54,13.54,0,0,1,.84-1.71c.16-.27.34-.55.53-.81a3,3,0,0,1,.56-.74l-1,.58a3.08,3.08,0,0,1-.76.35h0a11.77,11.77,0,0,0-1,6.15c0,.16,0,.33,0,.49a9.49,9.49,0,0,0,0-1A12.4,12.4,0,0,1,42.56,89.12Z"/></g><path class="cls-14" d="M41.81,94.41a40.47,40.47,0,0,0,4.36-5.32c1.13-2,3.27-7.49,3.31-7.57S41.81,94.41,41.81,94.41Z"/><path class="cls-36" d="M42.6,92.4a.49.49,0,0,0,.11-.2,34.71,34.71,0,0,1,1.46-4.35,23.17,23.17,0,0,1,3.32-4.75,9.38,9.38,0,0,1-1,.77,10.3,10.3,0,0,0-.89.86,12.37,12.37,0,0,0-2.45,3.77,12.24,12.24,0,0,0-.67,2.13,10.68,10.68,0,0,0-.2,1.13C42.3,91.86,42.24,92.72,42.6,92.4Z"/><path class="cls-36" d="M43.1,86a3,3,0,0,0,1.23-.86c.35-.37.67-.77,1.05-1.1a4.93,4.93,0,0,1-3,1.13,1.24,1.24,0,0,0-.58.09c-.45.25-.1.55.18.69A1.54,1.54,0,0,0,43.1,86Z"/><path class="cls-14" d="M49.81,90.86h.07a12.8,12.8,0,0,0,1-5.16,10,10,0,0,0-.47-3.66,2.25,2.25,0,0,0-.79-1.14,2.28,2.28,0,0,0-1.38-.11,10.3,10.3,0,0,0-3.4,1.43,13,13,0,0,0-4,3.45l0,0a13.49,13.49,0,0,1,3.68-3.08A10.3,10.3,0,0,1,48,81.22a2.29,2.29,0,0,1,1.38.11,2.31,2.31,0,0,1,.79,1.14,10.18,10.18,0,0,1,.47,3.66A13.24,13.24,0,0,1,49.81,90.86Z"/><path class="cls-37" d="M48.55,89c0,.34.09,1.06.58,1s.15-1.88.09-2.27a7.05,7.05,0,0,1-.06-2.59A13.78,13.78,0,0,0,48.55,89Z"/><path class="cls-42" d="M82.81,85.72a12.87,12.87,0,0,0-3.92-3.49,10.25,10.25,0,0,0-3.39-1.46,2.29,2.29,0,0,0-1.38.09,2.33,2.33,0,0,0-.8,1.14,10.11,10.11,0,0,0-.51,3.66,12.82,12.82,0,0,0,1,5.16,2.52,2.52,0,0,0,1.91-1.09,11.82,11.82,0,0,0,4.77,4,5.73,5.73,0,0,0,1.33.67A5.48,5.48,0,0,0,81.88,93a11.92,11.92,0,0,0-1-6.17A2.51,2.51,0,0,0,82.81,85.72Z"/><path class="cls-2" d="M80.86,86.64a47.6,47.6,0,0,1-6.57-5.72,12.91,12.91,0,0,1,1.4,2.21c.48.76,1,1.52,1.41,2.29.84,1.37,1.65,2.77,2.4,4.19s1.23,2.83,2,4.11c.1.17.14.62.26.73A5,5,0,0,0,81.88,93a11.92,11.92,0,0,0-1-6.17l.16,0Z"/><path class="cls-2" d="M82.7,85.86a1.34,1.34,0,0,0,.11-.14,12.74,12.74,0,0,0-3.92-3.49,10.05,10.05,0,0,0-3.39-1.46,2.3,2.3,0,0,0-1.36.08,4.22,4.22,0,0,0,.76.25c2.82.77,5.19,2.63,7.47,4.45C82.48,85.65,82.6,85.75,82.7,85.86Z"/><g class="cls-35"><path class="cls-2" d="M74.33,80.81l-.2.08a2.31,2.31,0,0,0-.8,1.13,10.37,10.37,0,0,0-.51,3.66,13.14,13.14,0,0,0,1,5.16h.07a14.26,14.26,0,0,1-.53-5A10.88,10.88,0,0,1,74.33,80.81Z"/><path class="cls-2" d="M80.88,94.05c-.26-.22-.65-.4-.86-.56A12.45,12.45,0,0,1,77.6,91.1a11.14,11.14,0,0,1-1-1.59c-.15-.28-.3-.57-.43-.86a2.84,2.84,0,0,1-.35-.87v1.13a2.86,2.86,0,0,1-.08.83v0a11.88,11.88,0,0,0,4.76,4Z"/></g><path class="cls-14" d="M74.59,81.28c0-.08,7.18,13.17,7.18,13.17A39.86,39.86,0,0,0,79.41,88C78.3,86,74.65,81.35,74.59,81.28Z"/><path class="cls-36" d="M77.38,90.25a12.44,12.44,0,0,0,1.49,1.67,10.54,10.54,0,0,0,.88.75c.08.06.78.55.69.08a.41.41,0,0,0-.12-.2,34.09,34.09,0,0,1-3-3.48,22.28,22.28,0,0,1-2.39-5.28A8.27,8.27,0,0,1,75.1,85c.08.41.17.81.28,1.21A12.73,12.73,0,0,0,77.38,90.25Z"/><path class="cls-36" d="M73.87,89.76c0,.51.42.36.68.18a1.47,1.47,0,0,0,.6-.91,3,3,0,0,0-.1-1.5,15.15,15.15,0,0,1-.42-1.46,4.84,4.84,0,0,1-.55,3.14A1.13,1.13,0,0,0,73.87,89.76Z"/><path class="cls-14" d="M74.38,81.27a2.29,2.29,0,0,1,1.38-.09,10.05,10.05,0,0,1,3.39,1.46,13.35,13.35,0,0,1,3.65,3.12.1.1,0,0,1,0-.05,12.89,12.89,0,0,0-3.93-3.49,10.05,10.05,0,0,0-3.39-1.46,2.29,2.29,0,0,0-1.38.09,2.36,2.36,0,0,0-.8,1.13,10.18,10.18,0,0,0-.51,3.66,12.83,12.83,0,0,0,1,5.17h.06a13.46,13.46,0,0,1-.77-4.74,10.09,10.09,0,0,1,.51-3.65A2.33,2.33,0,0,1,74.38,81.27Z"/><path class="cls-37" d="M81.71,85.9c.31-.55-1.54-1.08-1.9-1.23a7.14,7.14,0,0,1-2.27-1.27,13.7,13.7,0,0,0,3,2.46C80.81,86,81.47,86.33,81.71,85.9Z"/><path class="cls-43" d="M49.53,46.66a6.87,6.87,0,0,1,3.57,2.76,13.32,13.32,0,0,1,1.79,4.21A15,15,0,0,1,56.2,49.7a7,7,0,0,1,2.82-3,7.62,7.62,0,0,1-3.35-3.13,13.16,13.16,0,0,1-1.53-4.37c.17.9-1.25,4.18-1.82,5A6.5,6.5,0,0,1,49.53,46.66Z"/><path class="cls-44" d="M48.25,46.88a8.68,8.68,0,0,1,4.53,3.41,16,16,0,0,1,2.27,5.2,19,19,0,0,1,1.67-4.86A8.68,8.68,0,0,1,60.3,47a9.6,9.6,0,0,1-4.25-3.87,15.76,15.76,0,0,1-1.94-5.4c.2,1.11-1.6,5.17-2.32,6.23A8.23,8.23,0,0,1,48.25,46.88Z"/><path class="cls-24" d="M53,46.49a1.85,1.85,0,0,1,1,.75,3.5,3.5,0,0,1,.49,1.16,4.29,4.29,0,0,1,.36-1.08,1.89,1.89,0,0,1,.77-.81,2.16,2.16,0,0,1-.91-.86,3.65,3.65,0,0,1-.42-1.2,3.72,3.72,0,0,1-.5,1.38A1.8,1.8,0,0,1,53,46.49Z"/><path class="cls-27" d="M51.63,46.56a3.78,3.78,0,0,1,2,1.53,7.41,7.41,0,0,1,1,2.35,8.42,8.42,0,0,1,.73-2.19,3.82,3.82,0,0,1,1.57-1.66,4.31,4.31,0,0,1-1.87-1.74,7.54,7.54,0,0,1-.85-2.44,7.66,7.66,0,0,1-1,2.81A3.67,3.67,0,0,1,51.63,46.56Z"/></g></g></svg>