<svg xmlns="http://www.w3.org/2000/svg" xmlns:xlink="http://www.w3.org/1999/xlink" viewBox="0 0 61.26 53.44"><defs><style>.cls-1{fill:#b76615;}.cls-2{fill:url(#linear-gradient);}.cls-3{fill:#704621;}.cls-4{fill:url(#linear-gradient-2);}.cls-5{fill:url(#linear-gradient-3);}.cls-6{fill:#cc1305;}.cls-7{fill:#d31602;}.cls-8{fill:#a50024;}.cls-11,.cls-13,.cls-14,.cls-16,.cls-18,.cls-22,.cls-23,.cls-9{fill:#fff;}.cls-9{opacity:0.09;}.cls-10{opacity:0.22;}.cls-12{fill:url(#linear-gradient-4);}.cls-13{opacity:0.23;}.cls-14{opacity:0.52;}.cls-15{fill:#ea1106;}.cls-16{opacity:0.05;}.cls-17{opacity:0.48;fill:url(#linear-gradient-5);}.cls-18{opacity:0.3;}.cls-19{fill:#fff30b;}.cls-20{fill:#d37816;}.cls-21{fill:#ef8216;}.cls-22{opacity:0.18;}.cls-23{opacity:0.12;}</style><linearGradient id="linear-gradient" x1="8.45" y1="10.16" x2="55.04" y2="44.96" gradientUnits="userSpaceOnUse"><stop offset="0.02" stop-color="#f4e203"/><stop offset="0.7" stop-color="#f49308"/></linearGradient><linearGradient id="linear-gradient-2" x1="7.68" y1="26.4" x2="53.57" y2="26.4" gradientUnits="userSpaceOnUse"><stop offset="0" stop-color="#ff7a73"/><stop offset="0.36" stop-color="#eb352c"/><stop offset="0.5" stop-color="#e2180e"/></linearGradient><linearGradient id="linear-gradient-3" x1="21.79" y1="33.92" x2="45" y2="14.18" gradientUnits="userSpaceOnUse"><stop offset="0" stop-color="#ffaeae"/><stop offset="0.38" stop-color="#ff6767"/><stop offset="0.67" stop-color="#ff2c2c"/></linearGradient><linearGradient id="linear-gradient-4" x1="29.59" y1="2.93" x2="35.94" y2="24.98" gradientUnits="userSpaceOnUse"><stop offset="0" stop-color="#ffaeae"/><stop offset="0.2" stop-color="#ff6767"/><stop offset="0.35" stop-color="#ff2c2c"/></linearGradient><linearGradient id="linear-gradient-5" x1="43.83" y1="33.7" x2="53.42" y2="40.01" gradientUnits="userSpaceOnUse"><stop offset="0" stop-color="#ff7a73"/><stop offset="0.35" stop-color="#eb352c"/><stop offset="0.5" stop-color="#e2180e"/></linearGradient></defs><g id="Layer_2" data-name="Layer 2"><g id="Layer_1-2" data-name="Layer 1"><path class="cls-1" d="M45.2,0H16.05a1.48,1.48,0,0,0-1.28.74L.2,26a1.45,1.45,0,0,0,0,1.48L14.77,52.71a1.49,1.49,0,0,0,1.28.73H45.2a1.48,1.48,0,0,0,1.28-.73L61.06,27.46a1.5,1.5,0,0,0,0-1.48L46.48.74A1.47,1.47,0,0,0,45.2,0Z"/><polygon class="cls-2" points="1.55 26.72 16.09 51.9 45.16 51.9 59.7 26.72 45.16 1.54 16.09 1.54 1.55 26.72"/><polygon class="cls-3" points="6.75 26.72 18.69 47.41 42.57 47.41 54.51 26.72 42.57 6.04 18.69 6.04 6.75 26.72"/><polygon class="cls-4" points="7.68 26.4 19.16 46.27 42.1 46.27 53.57 26.4 42.1 6.53 19.16 6.53 7.68 26.4"/><polygon class="cls-5" points="15.39 26.4 23.01 39.59 38.24 39.59 45.86 26.4 38.24 13.2 23.01 13.2 15.39 26.4"/><polygon class="cls-6" points="23.01 39.59 19.16 46.27 42.1 46.27 53.57 26.4 45.86 26.4 38.24 39.59 23.01 39.59"/><path class="cls-7" d="M38.25,13.2,45,24.81a22.34,22.34,0,0,1-2.79-9.3c-.19-4.94-.06-9-.06-9Z"/><path class="cls-7" d="M45,24.81l0,.09Z"/><polygon class="cls-8" points="38.24 39.59 23.01 39.59 38.24 40.62 42.1 46.27 39.51 39.59 45.86 26.4 38.24 39.59"/><polygon class="cls-8" points="24.15 39.59 23.01 39.59 19.16 46.27 24.15 39.59"/><path class="cls-9" d="M15.39,26.4,23,39.59H38.25l4-7a18.14,18.14,0,0,1-8.37,1.54A15.5,15.5,0,0,1,22,27.51a12.92,12.92,0,0,1-1.76-4.05,13.27,13.27,0,0,1-.29-5Z"/><g class="cls-10"><path class="cls-11" d="M19.6,19.11l-2.21,3.82a223.11,223.11,0,0,1,21.67-8.32l-.81-1.41H30.53Q25,16,19.6,19.11Z"/><path class="cls-11" d="M22.25,38.28c2.13-.71,4.29-1.32,6.46-1.9q6.57-1.77,13.24-3.2l3.91-6.78-4.63-8L19.1,32.81Z"/></g><polygon class="cls-12" points="38.24 13.2 42.1 6.53 19.16 6.53 23.01 13.2 38.24 13.2"/><path class="cls-13" d="M15.15,31.17A60.33,60.33,0,0,1,23,39.59L15.45,26.41l-7.71-.09S10.61,27.21,15.15,31.17Z"/><polygon class="cls-14" points="23.01 13.2 33.83 13.2 23.58 12.41 19.16 6.53 23.01 13.2"/><polygon class="cls-15" points="15.04 27.41 21.07 36.41 15.45 26.41 7.74 26.32 15.04 27.41"/><path class="cls-16" d="M16.64,18.07c2.7-4.72,2.52-11.54,2.52-11.54L7.74,26.32S13.94,22.78,16.64,18.07Z"/><path class="cls-17" d="M42.1,46.27,53.57,26.4s-7.17,5.21-9.43,9.93A23.45,23.45,0,0,0,42.1,46.27Z"/><polygon class="cls-8" points="38.24 13.2 42.93 21.43 39.49 13.2 42.1 6.53 38.24 13.2"/><polygon class="cls-11" points="15.45 26.41 23.01 39.59 16.75 26.4 23.01 13.2 15.45 26.41"/><polygon class="cls-11" points="38.24 39.59 45.86 26.4 38.24 38.28 28.83 39.59 38.24 39.59"/><polygon class="cls-8" points="42.59 46.92 53.57 26.4 42.26 45.99 19.16 46.27 42.59 46.92"/><polygon class="cls-18" points="7.74 26.32 14.41 38.04 8.96 26.32 19.16 6.53 7.74 26.32"/><polygon class="cls-19" points="6.75 26.72 18.69 6.04 16.09 1.54 1.55 26.72 6.75 26.72"/><polygon class="cls-20" points="59.7 26.72 54.51 26.72 42.57 47.41 45.16 51.9 59.7 26.72"/><path class="cls-20" d="M28.46,48.69c11.37-1.24,14.11-1.29,14.11-1.29H18.69l-2.6,4.5S17.44,49.88,28.46,48.69Z"/><path class="cls-21" d="M42.57,6,54.51,26.72H59.7L45.16,1.54C44.86,1.54,42.57,6,42.57,6Z"/><path class="cls-11" d="M12.52,9.44c-.71,1.46-1.56,2.83-2.38,4.22l-6,10.1a2.51,2.51,0,0,0-.39.94.84.84,0,0,0,.41.87.84.84,0,0,0,.64,0,2.08,2.08,0,0,0,.93-1A36,36,0,0,0,7.27,21c2-5,5.24-9.44,7.74-14.23.17-.34.33-.77.1-1.06A31.82,31.82,0,0,0,12.52,9.44Z"/><path class="cls-22" d="M18.59,13.69a6.92,6.92,0,0,1,3.57,2.76,13.07,13.07,0,0,1,1.78,4.21,15.42,15.42,0,0,1,1.32-3.93,7,7,0,0,1,2.81-3,7.67,7.67,0,0,1-3.35-3.13A13.14,13.14,0,0,1,23.2,6.25c.16.9-1.26,4.18-1.83,5A6.46,6.46,0,0,1,18.59,13.69Z"/><path class="cls-23" d="M17.31,13.91a8.72,8.72,0,0,1,4.53,3.41,16.21,16.21,0,0,1,2.27,5.2,18.62,18.62,0,0,1,1.66-4.86A8.79,8.79,0,0,1,29.35,14a9.7,9.7,0,0,1-4.25-3.87,16,16,0,0,1-1.94-5.4c.21,1.11-1.59,5.17-2.32,6.23A8.08,8.08,0,0,1,17.31,13.91Z"/><path class="cls-11" d="M22,13.52a1.85,1.85,0,0,1,1,.76,3.57,3.57,0,0,1,.49,1.15,4.16,4.16,0,0,1,.36-1.08,1.83,1.83,0,0,1,.77-.81,2.12,2.12,0,0,1-.92-.86,3.56,3.56,0,0,1-.41-1.2,3.91,3.91,0,0,1-.5,1.38A1.7,1.7,0,0,1,22,13.52Z"/><path class="cls-14" d="M20.69,13.59a3.79,3.79,0,0,1,2,1.54,7.34,7.34,0,0,1,1,2.34,8.81,8.81,0,0,1,.73-2.19A3.89,3.89,0,0,1,26,13.62a4.25,4.25,0,0,1-1.87-1.74,7.31,7.31,0,0,1-.85-2.44,7.66,7.66,0,0,1-1,2.81A3.66,3.66,0,0,1,20.69,13.59Z"/></g></g></svg>