<svg xmlns="http://www.w3.org/2000/svg" xmlns:xlink="http://www.w3.org/1999/xlink" viewBox="0 0 123.67 95.21"><defs><style>.cls-1{fill:url(#linear-gradient);}.cls-2{fill:#d37816;}.cls-21,.cls-22,.cls-24,.cls-25,.cls-26,.cls-27,.cls-28,.cls-3,.cls-33,.cls-4,.cls-5,.cls-6,.cls-8,.cls-9{fill:#fff;}.cls-3{opacity:0.42;}.cls-4{opacity:0.56;}.cls-5{opacity:0.2;}.cls-6{opacity:0.88;}.cls-7{fill:url(#linear-gradient-2);}.cls-8{opacity:0.29;}.cls-9{opacity:0.65;}.cls-10{fill:url(#linear-gradient-3);}.cls-11{fill:#7c430f;}.cls-12{fill:#563511;}.cls-13{fill:#c66a18;}.cls-14{fill:url(#linear-gradient-4);}.cls-15,.cls-34{fill:#fff30b;}.cls-16{fill:#704621;}.cls-17{fill:#187c18;opacity:0.6;}.cls-18{fill:url(#linear-gradient-5);}.cls-19{fill:#1da020;opacity:0.35;}.cls-20{fill:url(#linear-gradient-6);}.cls-21{opacity:0.22;}.cls-23{opacity:0.27;}.cls-24{opacity:0.25;}.cls-25{opacity:0.68;}.cls-26{opacity:0.18;}.cls-27{opacity:0.12;}.cls-28{opacity:0.52;}.cls-29{fill:url(#linear-gradient-7);}.cls-30{fill:url(#linear-gradient-8);}.cls-31{opacity:0.59;}.cls-32{fill:#b76615;}.cls-33{opacity:0.45;}.cls-34{opacity:0.48;}.cls-35{fill:url(#linear-gradient-9);}.cls-36{fill:url(#linear-gradient-10);}.cls-37{fill:url(#linear-gradient-11);}</style><linearGradient id="linear-gradient" x1="46.26" y1="10.56" x2="78.77" y2="29.08" gradientUnits="userSpaceOnUse"><stop offset="0.09" stop-color="#f4e203"/><stop offset="0.3" stop-color="#f4c005"/><stop offset="0.55" stop-color="#f49f07"/><stop offset="0.69" stop-color="#f49308"/></linearGradient><linearGradient id="linear-gradient-2" x1="-9.31" y1="34.46" x2="62.32" y2="79.53" gradientUnits="userSpaceOnUse"><stop offset="0.18" stop-color="#f4e203"/><stop offset="0.24" stop-color="#f4db03"/><stop offset="0.31" stop-color="#f4c905"/><stop offset="0.4" stop-color="#f4ab06"/><stop offset="0.46" stop-color="#f49308"/></linearGradient><linearGradient id="linear-gradient-3" x1="72.11" y1="35.48" x2="124.89" y2="68.67" xlink:href="#linear-gradient-2"/><linearGradient id="linear-gradient-4" x1="46.36" y1="43" x2="95.76" y2="89.56" gradientTransform="translate(111.07 -12.86) rotate(80.85)" gradientUnits="userSpaceOnUse"><stop offset="0.02" stop-color="#f4e203"/><stop offset="0.7" stop-color="#f49308"/></linearGradient><linearGradient id="linear-gradient-5" x1="47.07" y1="51.38" x2="82.09" y2="68.11" gradientTransform="translate(92.85 -21.85) rotate(67.22)" gradientUnits="userSpaceOnUse"><stop offset="0.02" stop-color="#f3f746"/><stop offset="0.38" stop-color="#7adc3f"/><stop offset="0.67" stop-color="#1ba82f"/></linearGradient><linearGradient id="linear-gradient-6" x1="51.31" y1="55.33" x2="76.42" y2="62.24" gradientTransform="translate(59.68 -27.19) rotate(45)" gradientUnits="userSpaceOnUse"><stop offset="0.2" stop-color="#f3f746"/><stop offset="0.71" stop-color="#7adc3f"/><stop offset="1" stop-color="#1ba82f"/></linearGradient><linearGradient id="linear-gradient-7" x1="28.15" y1="58.45" x2="97.85" y2="58.45" gradientTransform="matrix(1, 0, 0, 1, 0, 0)" xlink:href="#linear-gradient-4"/><linearGradient id="linear-gradient-8" x1="30.23" y1="56.22" x2="42.27" y2="63.46" gradientTransform="matrix(1, 0, 0, 1, 0, 0)" xlink:href="#linear-gradient-4"/><linearGradient id="linear-gradient-9" x1="59.58" y1="28.37" x2="68.49" y2="33.72" gradientTransform="matrix(1, 0, 0, 1, 0, 0)" xlink:href="#linear-gradient-4"/><linearGradient id="linear-gradient-10" x1="59.68" y1="85.32" x2="68.59" y2="90.67" gradientTransform="matrix(1, 0, 0, 1, 0, 0)" xlink:href="#linear-gradient-4"/><linearGradient id="linear-gradient-11" x1="87.18" y1="56.12" x2="99.22" y2="63.36" gradientTransform="matrix(1, 0, 0, 1, 0, 0)" xlink:href="#linear-gradient-4"/></defs><g id="Layer_2" data-name="Layer 2"><g id="Layer_1-2" data-name="Layer 1"><path class="cls-1" d="M60.72,31.88a17.13,17.13,0,0,1,2-.16l.28.12c3.5,1.4,11.13,1.95,12.17-2.73,1.22-5.46,3.58-10.69,5-16.14.17-.67.24-1.55-.37-1.86a1.58,1.58,0,0,0-1,0,51.55,51.55,0,0,0-9.45,3.12A61.47,61.47,0,0,0,64.2,3.33,10,10,0,0,0,61.53.11L61.36,0,61.2.11a9.93,9.93,0,0,0-2.56,3.31,60.73,60.73,0,0,0-4.77,11.05,50.32,50.32,0,0,0-9.55-2.81,1.49,1.49,0,0,0-1,0c-.6.32-.51,1.2-.32,1.86,1.54,5.41,4.08,10.56,5.47,16C49.66,34.18,57.27,33.39,60.72,31.88Z"/><path class="cls-2" d="M74.17,22.24a3.3,3.3,0,0,1-.83,1,3.48,3.48,0,0,1-2.26.33,72.24,72.24,0,0,0-13.15-.26,29.47,29.47,0,0,0-10.48,2.83c.38,1.13.72,2.26,1,3.41,1.19,4.65,8.8,3.85,12.25,2.34a19.81,19.81,0,0,1,2-.16l.28.12c3.5,1.4,11.13,1.95,12.18-2.73,1.21-5.46,3.58-10.68,5-16.14.16-.67.23-1.55-.38-1.86a1.25,1.25,0,0,0-.79,0,4,4,0,0,1-.17,2.46A42,42,0,0,1,74.17,22.24Z"/><path class="cls-2" d="M69.44,14.17l-.12.05A60.77,60.77,0,0,0,64.2,3.33,13.06,13.06,0,0,0,62.48.94l.21.43A44,44,0,0,1,66.5,18,24.5,24.5,0,0,1,69.44,14.17Z"/><path class="cls-2" d="M55.2,19.6a43.23,43.23,0,0,1-1.29-5.25l0,.12A50.36,50.36,0,0,0,45.5,11.9a15.57,15.57,0,0,1,6.67,3.62A14.27,14.27,0,0,1,55.2,19.6Z"/><path class="cls-3" d="M62.07,7.27c.5-1.29.8-4.24-.49-5.06S59.2,4.33,58.84,5.37c-1.75,5-2.71,10.7-1.47,15.87a15.29,15.29,0,0,1,1.92-9.78C60.21,10.05,61.45,8.9,62.07,7.27Z"/><path class="cls-4" d="M46.9,13.42c-.51-.61-1.9-.87-2.43-.17A1.84,1.84,0,0,0,44.55,15c.89,2.18,1.82,4.33,2.8,6.47a12.61,12.61,0,0,0,1.53,2.7c-.46-1.37-.89-2.74-1.3-4.13a8.27,8.27,0,0,1-.48-3.37C47.23,15.65,47.67,14.35,46.9,13.42Z"/><path class="cls-5" d="M76.6,14.67c.56-.45,1.51-1.83.25-2.14a1.61,1.61,0,0,0-.84.08,14.11,14.11,0,0,0-8.66,7,9.32,9.32,0,0,1,4.45-2.75A16.38,16.38,0,0,0,76.6,14.67Z"/><path class="cls-6" d="M44.92,14.07a1.72,1.72,0,0,0,.17,1c.48,1.25,1,2.5,1.47,3.74a11.43,11.43,0,0,1-.48-4.54A.59.59,0,1,0,44.92,14.07Z"/><path class="cls-6" d="M58.87,10.19c.53-1,1.23-2,1.79-3a5.21,5.21,0,0,0,.8-3.59C61,2,60.08,4.12,59.88,4.71a25.81,25.81,0,0,0-1.33,5,.63.63,0,0,0,0,.36A.23.23,0,0,0,58.87,10.19Z"/><path class="cls-7" d="M.44,50.69c-.86,2.14-.35,4.58.55,6.69A20.9,20.9,0,0,0,11.18,67.83C9,67.11,6.67,69.09,6.51,71.39,5.72,82.71,27,89,36.11,86.46c5.51-1.53,9.76-2.53,14.06-4.56,4.72-2.23,8.37-6.21,11.57-10.33,1.47-1.9,2.94-4.1,2.65-6.49a8.75,8.75,0,0,0-1.52-3.57A45.18,45.18,0,0,0,51.81,49.63a38.15,38.15,0,0,0-6.54-4.21c-2.48-1.14-5.19-1.57-7.65-2.92A34.54,34.54,0,0,1,30,36.77a64.14,64.14,0,0,1-10.5-14.51,16.77,16.77,0,0,0-4-5.38C13.71,15.51,11,15,9.24,16.39c-1.62,1.24-2,3.52-1.94,5.55A20.14,20.14,0,0,0,10,31.42C7.64,29.87,4.21,30.78,2.47,33a8.87,8.87,0,0,0-1.09,8A18.43,18.43,0,0,0,6,48C3.9,47.05,1.29,48.56.44,50.69Z"/><path class="cls-2" d="M11.18,67.83l9.11,1.88c3.78.78,7.76,1.55,11.45.41a40.33,40.33,0,0,1-23.49-7.9,59.87,59.87,0,0,1-6.84-6.1C1,55.7.57,55.27.18,54.81A12.79,12.79,0,0,0,1,57.38,20.9,20.9,0,0,0,11.18,67.83Z"/><path class="cls-2" d="M11.2,15.62a3.94,3.94,0,0,0-2,.77c-1.62,1.24-2,3.52-1.94,5.55a20.27,20.27,0,0,0,2.54,9.19c.46.61.89,1.24,1.31,1.87A62.45,62.45,0,0,0,22.48,45.47c2.31,2,4.91,3.78,7.91,4.17A42.76,42.76,0,0,1,10,22.64c-.49-2.05-.75-4.19.43-6A8.46,8.46,0,0,1,11.2,15.62Z"/><path class="cls-2" d="M36.11,86.46l4.19-1.14c.46-.75-.4-4.39-.87-5.11C26.58,86.07,9.11,81.55,6.5,71.82,6.27,82.87,27.08,89,36.11,86.46Z"/><path class="cls-2" d="M21.08,54.61c2.89,1.6,6,3.42,9.25,2.88A44.15,44.15,0,0,1,3.7,37.76a14.09,14.09,0,0,1-1.76-4A9.22,9.22,0,0,0,1.38,41a18.24,18.24,0,0,0,4.41,6.81A91.49,91.49,0,0,1,21.08,54.61Z"/><path class="cls-2" d="M11.18,67.83a3.16,3.16,0,0,0-.65-.14Z"/><path class="cls-3" d="M26.55,42.38a6.59,6.59,0,0,0-1.72-3.15A27.77,27.77,0,0,1,20,29.65c-.63-2.2-1-4.48-1.8-6.62-.69-1.8-2.57-5.23-4.78-5.5-3.63-.45-1.85,5-1.12,6.5a96.74,96.74,0,0,0,6.4,11.81C20.6,38.76,23.12,41.64,26.55,42.38Z"/><path class="cls-3" d="M23.06,50.84a28.66,28.66,0,0,1-10.27-7.75A18.21,18.21,0,0,1,10,38.71c-.69-1.58-1-3.74-2-5.12a1.46,1.46,0,0,0-2.71.61,4.36,4.36,0,0,0,.53,2.91C9,43.94,16,48.19,23.06,50.84Z"/><path class="cls-3" d="M23.92,62.56c-2.59-1.13-5.36-1.78-8-2.8a13.82,13.82,0,0,1-6.76-4.89c-.61-.93-1-2-1.71-2.87-.85-1.15-4.28-3.19-4.34-.31C3.07,54.05,5,56,7,57.3A30,30,0,0,0,23.92,62.56Z"/><path class="cls-8" d="M29,78a53.44,53.44,0,0,1-8.67-2,17.71,17.71,0,0,1-7.46-4.71c-1-1.1-3.05-2.78-3.46,0a2.9,2.9,0,0,0,.92,2.38,7.53,7.53,0,0,0,2.23,1.41C17.65,77.46,23.39,78.91,29,78Z"/><path class="cls-9" d="M19.72,34.57Q18.63,31,17.8,27.4c-.56-2.46-1.06-5.07-2.47-7.22-.47-.72-1.69-2.58-2.56-1.35s.55,2.62,1.18,3.47a18.34,18.34,0,0,1,1.46,2.5A104.93,104.93,0,0,1,19.72,34.57Z"/><path class="cls-10" d="M114.43,16.39c-1.78-1.37-4.47-.88-6.26.49a16.6,16.6,0,0,0-4,5.38A64.18,64.18,0,0,1,93.66,36.77a34.08,34.08,0,0,1-7.61,5.73c-2.46,1.35-5.17,1.78-7.65,2.92a38.94,38.94,0,0,0-6.54,4.21,45.14,45.14,0,0,0-11,11.88,8.91,8.91,0,0,0-1.53,3.57c-.29,2.39,1.19,4.59,2.66,6.49,3.2,4.12,6.85,8.1,11.57,10.33,4.29,2,8.55,3,14,4.56C96.71,89,118,82.71,117.16,71.39c-.16-2.3-2.48-4.28-4.66-3.56a20.92,20.92,0,0,0,10.18-10.45c.9-2.11,1.41-4.55.56-6.69s-3.46-3.64-5.54-2.66a18.31,18.31,0,0,0,4.59-7,8.81,8.81,0,0,0-1.09-8c-1.74-2.22-5.17-3.13-7.52-1.58a20.24,20.24,0,0,0,2.69-9.48C116.43,19.91,116.05,17.63,114.43,16.39Z"/><path class="cls-2" d="M112.5,67.83a20.92,20.92,0,0,0,10.18-10.45,12.79,12.79,0,0,0,.81-2.57c-.39.46-.81.89-1.23,1.31a59,59,0,0,1-6.84,6.1,40.33,40.33,0,0,1-23.49,7.9c3.69,1.14,7.67.37,11.46-.41Z"/><path class="cls-2" d="M93.29,49.64c3-.39,5.59-2.22,7.91-4.17A62.7,62.7,0,0,0,112.52,33c.43-.63.85-1.26,1.32-1.87a20.13,20.13,0,0,0,2.53-9.19c.06-2-.32-4.31-1.94-5.55a3.9,3.9,0,0,0-2-.77,7.46,7.46,0,0,1,.78,1c1.19,1.85.92,4,.44,6A42.79,42.79,0,0,1,93.29,49.64Z"/><path class="cls-2" d="M117.18,71.82c-2.61,9.73-20.08,14.25-32.94,8.39-.47.72-1.32,4.36-.87,5.11l4.19,1.14C96.59,89,117.4,82.87,117.18,71.82Z"/><path class="cls-2" d="M117.88,47.85A18.12,18.12,0,0,0,122.29,41a9.13,9.13,0,0,0-.56-7.25,13.81,13.81,0,0,1-1.76,4A44.09,44.09,0,0,1,93.34,57.49c3.25.54,6.37-1.28,9.25-2.88A91.85,91.85,0,0,1,117.88,47.85Z"/><path class="cls-2" d="M113.15,67.69a2.9,2.9,0,0,0-.65.14Z"/><path class="cls-3" d="M111.41,24c.73-1.5,2.51-7-1.12-6.5-2.2.27-4.08,3.7-4.77,5.5-.82,2.14-1.18,4.42-1.8,6.62a28.12,28.12,0,0,1-4.87,9.58,6.61,6.61,0,0,0-1.73,3.15c3.43-.74,5.95-3.62,7.9-6.54A98.06,98.06,0,0,0,111.41,24Z"/><path class="cls-3" d="M118.45,34.2a1.47,1.47,0,0,0-2.72-.61c-1.07,1.38-1.34,3.54-2,5.12a17.87,17.87,0,0,1-2.81,4.38,28.61,28.61,0,0,1-10.28,7.75c7.07-2.65,14.08-6.9,17.3-13.73A4.42,4.42,0,0,0,118.45,34.2Z"/><path class="cls-3" d="M120.56,51.69c0-2.88-3.48-.84-4.34.31-.66.9-1.1,1.94-1.71,2.87a13.82,13.82,0,0,1-6.76,4.89c-2.63,1-5.41,1.67-8,2.8a30,30,0,0,0,17-5.26C118.66,56,120.61,54.05,120.56,51.69Z"/><path class="cls-8" d="M113.37,73.64a2.87,2.87,0,0,0,.92-2.38c-.4-2.74-2.48-1.06-3.45,0A17.83,17.83,0,0,1,103.38,76a53.56,53.56,0,0,1-8.68,2c5.58.9,11.32-.55,16.44-3A7.4,7.4,0,0,0,113.37,73.64Z"/><path class="cls-9" d="M110.91,18.83c-.88-1.23-2.09.63-2.56,1.35-1.41,2.15-1.92,4.76-2.48,7.22s-1.19,4.81-1.91,7.17a99.9,99.9,0,0,1,4.31-9.77,17.3,17.3,0,0,1,1.45-2.5C110.35,21.45,111.72,20,110.91,18.83Z"/><circle class="cls-11" cx="63.31" cy="59.71" r="35.38"/><path class="cls-12" d="M45.6,86l-2.66-2.56A33.81,33.81,0,0,0,45.6,86Z"/><path class="cls-12" d="M41.82,82.4l.08.08A.3.3,0,0,0,41.82,82.4Z"/><path class="cls-12" d="M43,36.17A25.66,25.66,0,0,1,48.68,32a32.25,32.25,0,0,1,7.22-2.6A43.16,43.16,0,0,1,68,28a33.51,33.51,0,0,1,14.79,4.14c-1.19-3.57-5.28-5.14-8.94-6-6-1.46-12.2-2.35-18.24-1.21-8,1.52-13.4,7.35-19.07,13.26a14.89,14.89,0,0,0-2.63,3.49A19.17,19.17,0,0,0,32,45.47c-2.13,8-3.69,15.85-1.84,23.91a24.77,24.77,0,0,0,3.41,8.53,12.33,12.33,0,0,0,7.34,5.26,1.18,1.18,0,0,0,.85,0,.49.49,0,0,0,.18-.65l-.08-.08a.3.3,0,0,1,.08.08l1,1a35.65,35.65,0,0,1-9.71-21.88A32.59,32.59,0,0,1,43,36.17Z"/><circle class="cls-13" cx="63" cy="58.7" r="26.49"/><circle class="cls-14" cx="63.08" cy="58.76" r="25.14" transform="translate(-4.96 111.7) rotate(-80.85)"/><path class="cls-15" d="M46.53,56.61A27.09,27.09,0,0,1,64.84,41.92q1.14-4,1.9-8.06a25.17,25.17,0,0,0-28.36,20C41.77,55.14,46.44,56.81,46.53,56.61Z"/><path class="cls-2" d="M62,82.21c-7.57,0-15.17-4.18-19.78-9.48,4,6.93,12.79,11.2,21.15,11.2a25.14,25.14,0,0,0,19-41.63A25.15,25.15,0,0,1,62,82.21Z"/><circle class="cls-16" cx="63.08" cy="58.76" r="20.9" transform="translate(-11.9 16.22) rotate(-13.4)"/><circle class="cls-17" cx="63.08" cy="58.9" r="20.09" transform="translate(-10.03 13.04) rotate(-10.94)"/><circle class="cls-18" cx="62.87" cy="58.93" r="19.4" transform="translate(-15.81 94.07) rotate(-67.22)"/><path class="cls-19" d="M65.79,63.36a9.74,9.74,0,0,1-3.08,3.87,13.52,13.52,0,0,1-7.35,3.32A11.3,11.3,0,0,1,46.58,67a13.72,13.72,0,0,1-2.39-3.35,5.69,5.69,0,0,1-.3-.74,19.4,19.4,0,1,0,29-20.7,5.57,5.57,0,0,1,.09,2.63,5.93,5.93,0,0,1-5.29,4.54,2.11,2.11,0,0,0-1.3.3c-.48.41-.41,1.14-.31,1.75a38.2,38.2,0,0,1,.35,8.81A10.71,10.71,0,0,1,65.79,63.36Z"/><circle class="cls-17" cx="62.87" cy="59.08" r="13.02" transform="translate(-10.65 13.94) rotate(-11.67)"/><circle class="cls-20" cx="62.66" cy="58.45" r="13.02" transform="translate(-22.98 61.43) rotate(-45)"/><path class="cls-21" d="M49.85,58.45a13,13,0,0,0,13,13,12.84,12.84,0,0,0,11.83-8,12.63,12.63,0,0,1-9,3.82,13,13,0,0,1-12-18A13,13,0,0,0,49.85,58.45Z"/><path class="cls-22" d="M49.64,58.5a13,13,0,0,0,23.47,7.77A13,13,0,0,1,52.86,49.93,13,13,0,0,0,49.64,58.5Z"/><g class="cls-23"><path class="cls-22" d="M52.92,60.32A168.23,168.23,0,0,1,68.5,46.82a12.84,12.84,0,0,0-4.6-1.35,126.17,126.17,0,0,0-11.28,9.24q-1.57,1.47-3.06,3c0,.22,0,.44,0,.67A12.86,12.86,0,0,0,50.36,63C51.18,62,52,61.17,52.92,60.32Z"/><path class="cls-22" d="M63.78,71.38c3.68-5.48,7.38-11,11.4-16.2a13,13,0,0,0-3.5-6.06c-2,1.75-3.89,3.56-5.79,5.39Q59.35,60.78,53,67.2a13,13,0,0,0,9.61,4.24C63,71.44,63.38,71.42,63.78,71.38Z"/></g><path class="cls-24" d="M47.4,48.88l.18-.31.21-.38A1.26,1.26,0,0,0,47.4,48.88Z"/><path class="cls-24" d="M44.61,59c0,.3.22.69.52.61a.52.52,0,0,0,.27-.24l1.06-1.46a19.61,19.61,0,0,0,.91,5c.27.84.79,1.81,1.67,1.82-1.57-5-1.37-10.88,1.66-15.21,2.31-3.32,6-5.43,9.9-6.62.51-.16,1.15-.48,1.07-1a3.86,3.86,0,0,0-1.75-.2l.92-1a13.82,13.82,0,0,0-4.28,1.24c-3.26,1.34-7.19,3.57-9,6.64C45.73,51.94,44.06,55.16,44.61,59Z"/><path class="cls-25" d="M51.24,45.5a5.54,5.54,0,0,0-.8.57,8.85,8.85,0,0,0-1.13,1.16A15.32,15.32,0,0,0,47,50.94a15.52,15.52,0,0,0-.81,2.38l.74-.64a8.08,8.08,0,0,0-.18,3c0,.14.13.31.25.25a.25.25,0,0,0,.1-.16c.26-1,.43-2.06.72-3.07a13.19,13.19,0,0,1,5.06-7.09,1.44,1.44,0,0,0,.69-.77,5.19,5.19,0,0,0-1.82.91l.47-.71C52.12,45.23,51.42,45.39,51.24,45.5Z"/><path class="cls-17" d="M60.67,74.89a14.33,14.33,0,0,1-6.79-3,14.54,14.54,0,0,0,8.54,4.61c8.45,1.29,16.45-5.15,17.86-14.38a17.15,17.15,0,0,0-6-16.07A17.41,17.41,0,0,1,78.53,60.5C77.12,69.74,69.12,76.18,60.67,74.89Z"/><path class="cls-26" d="M64.64,47.14A6.81,6.81,0,0,1,68.2,49.9,13.26,13.26,0,0,1,70,54.1a15.15,15.15,0,0,1,1.31-3.93,7,7,0,0,1,2.81-3,7.62,7.62,0,0,1-3.34-3.12,13.23,13.23,0,0,1-1.53-4.37c.17.9-1.25,4.18-1.82,5A6.51,6.51,0,0,1,64.64,47.14Z"/><path class="cls-27" d="M63.36,47.36a8.72,8.72,0,0,1,4.53,3.41A16,16,0,0,1,70.15,56a18.82,18.82,0,0,1,1.67-4.85,8.6,8.6,0,0,1,3.57-3.67,9.68,9.68,0,0,1-4.25-3.86,16,16,0,0,1-1.93-5.4c.2,1.11-1.6,5.16-2.32,6.22A8.08,8.08,0,0,1,63.36,47.36Z"/><path class="cls-22" d="M68.08,47a1.92,1.92,0,0,1,1,.75,3.7,3.7,0,0,1,.48,1.16,4.42,4.42,0,0,1,.36-1.08,1.94,1.94,0,0,1,.77-.81,2.1,2.1,0,0,1-.91-.86,3.52,3.52,0,0,1-.42-1.19,3.85,3.85,0,0,1-.5,1.38A1.77,1.77,0,0,1,68.08,47Z"/><path class="cls-28" d="M66.74,47a3.79,3.79,0,0,1,2,1.53,7.41,7.41,0,0,1,1,2.35,8.3,8.3,0,0,1,.73-2.19A3.82,3.82,0,0,1,72,47.07a4.25,4.25,0,0,1-1.87-1.74,7.4,7.4,0,0,1-.85-2.43,7.62,7.62,0,0,1-1,2.8A3.63,3.63,0,0,1,66.74,47Z"/><path class="cls-22" d="M41.27,51.39a1.27,1.27,0,0,0,1.14-.67,12,12,0,0,0,1.18-2.38A21.57,21.57,0,0,1,55.44,36.92c1.4-.54,2.84-.93,4.28-1.35.23-.07.49-.18.54-.41.07-.41-.54-.54-.94-.47-6.5,1.12-11.89,4.91-15.93,10a16.28,16.28,0,0,0-2.65,4.63,2.42,2.42,0,0,0-.2,1.18A1,1,0,0,0,41.27,51.39Z"/><path class="cls-22" d="M64.27,35.38c.34-.09.74-.31.7-.66s-.48-.5-.85-.52c-.52,0-2.82-.19-2.81.7S63.74,35.52,64.27,35.38Z"/><path class="cls-29" d="M97.85,58.45A34.85,34.85,0,1,0,63,93.3,34.9,34.9,0,0,0,97.85,58.45Zm-66.43,0A31.58,31.58,0,1,1,63,90,31.61,31.61,0,0,1,31.42,58.45Z"/><path class="cls-2" d="M63,26.88A31.39,31.39,0,0,1,81.71,33,31.56,31.56,0,1,0,43.56,83.32,31.56,31.56,0,0,1,63,26.88Z"/><path class="cls-2" d="M62.27,92.75A34.66,34.66,0,0,1,41.6,85.94,34.84,34.84,0,1,0,83.67,30.41a34.84,34.84,0,0,1-21.4,62.34Z"/><path class="cls-22" d="M32.71,44.62A35.8,35.8,0,0,1,43,31.43a2.51,2.51,0,0,0,1-1.14,2.06,2.06,0,0,0-1.42.65,50.85,50.85,0,0,0-5.11,4.95,37.74,37.74,0,0,0-3.88,4.69A14.3,14.3,0,0,0,32,44.38c-.07.24-.08.58.16.67S32.6,44.85,32.71,44.62Z"/><path class="cls-22" d="M57.58,25a3.87,3.87,0,0,0-3,.17c-1.13.39-10.56,3.69-9.89,4.92a3.81,3.81,0,0,0,1.48-.59A50.55,50.55,0,0,1,57.58,25Z"/><path class="cls-16" d="M37.24,64.51c.15,0,.27-.09.37-.2a14.16,14.16,0,0,1,2.89-2.46,7.44,7.44,0,0,0,1.3-.92,1.94,1.94,0,0,0,.64-1.41,1.67,1.67,0,0,0-.72-1.22,2.71,2.71,0,0,0-1.38-.44,3.32,3.32,0,0,0-1.59.26,3.43,3.43,0,0,0-1.75,2,4.56,4.56,0,0,0-.21,2.23A8,8,0,0,0,37,64.24C37.06,64.35,37.13,64.48,37.24,64.51Z"/><path class="cls-30" d="M26.57,58.93a5.26,5.26,0,0,0,1.24.83,11.78,11.78,0,0,0,5.86,2.17,2.53,2.53,0,0,0,0,2.2,12.9,12.9,0,0,0,5-1.71,9.83,9.83,0,0,0,2.94-2.24,2.28,2.28,0,0,0,.6-1.25,2.35,2.35,0,0,0-.6-1.25,10.17,10.17,0,0,0-2.94-2.24,12.88,12.88,0,0,0-5-1.7,2.53,2.53,0,0,0,0,2.2,11.78,11.78,0,0,0-5.86,2.17A5.24,5.24,0,0,0,26.57,58.93Z"/><path class="cls-2" d="M33.82,62A48.17,48.17,0,0,1,42,59.05a12.55,12.55,0,0,1-2.61.14l-2.69.11c-1.61.05-3.22.07-4.82,0s-3.07-.32-4.57-.27c-.2,0-.61-.18-.76-.14.23.35.91.62,1.24.83a11.78,11.78,0,0,0,5.86,2.17l-.06.15Z"/><path class="cls-2" d="M41.56,60.18a2.34,2.34,0,0,0,.6-1.22,4.44,4.44,0,0,0-.6.54c-2,2.08-4.83,3.22-7.54,4.32a2,2,0,0,1-.43.14,1.22,1.22,0,0,1,.07.17,12.94,12.94,0,0,0,5-1.71A9.91,9.91,0,0,0,41.56,60.18Z"/><g class="cls-31"><path class="cls-2" d="M42.1,59.14l0-.21a2.35,2.35,0,0,0-.6-1.25,10.17,10.17,0,0,0-2.94-2.24,12.83,12.83,0,0,0-5-1.7s0,0,0,.06a14.38,14.38,0,0,1,4.64,2A10.89,10.89,0,0,1,42.1,59.14Z"/><path class="cls-2" d="M33.42,56.82c.32,0,.65,0,1,0a2.8,2.8,0,0,1,.92.12l-1-.56a2.72,2.72,0,0,1-.69-.47v0a11.78,11.78,0,0,0-5.85,2.17l-.43.24a9.51,9.51,0,0,0,.91-.47,12.38,12.38,0,0,1,3.27-.94A11.92,11.92,0,0,1,33.42,56.82Z"/></g><path class="cls-32" d="M26.57,58.93a40.08,40.08,0,0,0,6.78,1.12c2.27,0,8.12-.9,8.21-.91S26.57,58.93,26.57,58.93Z"/><path class="cls-33" d="M28.93,58.61a32.88,32.88,0,0,1,4.5-.9,21.62,21.62,0,0,1,5.77.51,8.68,8.68,0,0,1-1.15-.47,10.06,10.06,0,0,0-1.19-.34,12.55,12.55,0,0,0-4.49-.24,11.63,11.63,0,0,0-2.18.48,10,10,0,0,0-1.08.4c-.09,0-.86.41-.41.56A.45.45,0,0,0,28.93,58.61Z"/><path class="cls-33" d="M35.89,56.47a15.19,15.19,0,0,1,1.48.36,4.91,4.91,0,0,1-2.47-2,1.28,1.28,0,0,0-.37-.46c-.44-.26-.52.19-.5.51a1.53,1.53,0,0,0,.5,1A3.06,3.06,0,0,0,35.89,56.47Z"/><path class="cls-32" d="M38.14,62.45a13.5,13.5,0,0,1-4.5,1.65.08.08,0,0,0,0,.05,12.88,12.88,0,0,0,5-1.7,10,10,0,0,0,2.94-2.24,2.35,2.35,0,0,0,.6-1.25,2.32,2.32,0,0,0-.6-1.25,9.83,9.83,0,0,0-2.94-2.24,12.9,12.9,0,0,0-5-1.71.14.14,0,0,0,0,.06,13.28,13.28,0,0,1,4.5,1.65,10.09,10.09,0,0,1,2.94,2.24A2.3,2.3,0,0,1,41.67,59a2.33,2.33,0,0,1-.59,1.25A10.27,10.27,0,0,1,38.14,62.45Z"/><path class="cls-34" d="M36.05,62a7.07,7.07,0,0,1,2.22-1.36,13.83,13.83,0,0,0-3.61,1.38c-.29.18-.87.61-.62,1S35.74,62.26,36.05,62Z"/><path class="cls-16" d="M63.06,38.23a1.62,1.62,0,0,0,1.2-.21,2.36,2.36,0,0,0,.67-.77c.5-.8.92-1.66,1.42-2.46a6.4,6.4,0,0,1,1.88-2.09,12.31,12.31,0,0,1-1.57-.28,2.09,2.09,0,0,0-.7-.11,1.77,1.77,0,0,0-.59.19,5.9,5.9,0,0,0-3.25,4.69c0,.23-.08.42.07.61A1.79,1.79,0,0,0,63.06,38.23Z"/><path class="cls-35" d="M61.4,37.31a2.32,2.32,0,0,0,1.25.6,2.35,2.35,0,0,0,1.25-.6,10.45,10.45,0,0,0,2.24-2.94,12.88,12.88,0,0,0,1.7-5,2.5,2.5,0,0,0-2.2,0,11.94,11.94,0,0,0-2.16-5.87,5.47,5.47,0,0,0-.83-1.24,5.47,5.47,0,0,0-.83,1.24,11.86,11.86,0,0,0-2.17,5.87,2.5,2.5,0,0,0-2.2,0,12.9,12.9,0,0,0,1.71,5A10.09,10.09,0,0,0,61.4,37.31Z"/><path class="cls-2" d="M65.69,29.57a2.12,2.12,0,0,1,.11-.21l-.16.06a11.87,11.87,0,0,0-2.16-5.86c-.22-.33-.48-1-.83-1.25,0,.16.14.57.13.76-.05,1.51.24,3.06.27,4.57s0,3.22,0,4.83c0,.9-.06,1.79-.11,2.69a12.63,12.63,0,0,1-.13,2.61A47.33,47.33,0,0,1,65.69,29.57Z"/><path class="cls-2" d="M66.14,34.37a12.83,12.83,0,0,0,1.7-5l-.16-.07c0,.15-.09.29-.14.43-1.1,2.71-2.25,5.49-4.33,7.54a5.22,5.22,0,0,0-.54.6,2.33,2.33,0,0,0,1.23-.6A10.17,10.17,0,0,0,66.14,34.37Z"/><g class="cls-31"><path class="cls-2" d="M61.4,37.28a2.32,2.32,0,0,0,1.25.6l.21,0A11,11,0,0,1,59.52,34a14.6,14.6,0,0,1-2-4.64l-.06,0a12.9,12.9,0,0,0,1.71,5A9.83,9.83,0,0,0,61.4,37.28Z"/><path class="cls-2" d="M61.59,24c.11-.24.36-.59.48-.91-.08.14-.16.29-.25.43a11.9,11.9,0,0,0-2.17,5.85h0a3.22,3.22,0,0,1,.48.68l.55,1a3.1,3.1,0,0,1-.12-.92c0-.32,0-.65,0-1a13.24,13.24,0,0,1,.13-1.89A12.36,12.36,0,0,1,61.59,24Z"/></g><path class="cls-32" d="M62.65,22.31s.2,15.09.21,15,.91-5.94.91-8.21A40.26,40.26,0,0,0,62.65,22.31Z"/><path class="cls-33" d="M62.32,24.68a.45.45,0,0,0,0-.23c-.16-.45-.53.31-.57.41-.15.35-.28.71-.4,1.08a13.46,13.46,0,0,0-.48,2.18,12.79,12.79,0,0,0,.24,4.49c.1.4.21.8.35,1.19A9.51,9.51,0,0,1,61.93,35a22.47,22.47,0,0,1-.51-5.77A34.46,34.46,0,0,1,62.32,24.68Z"/><path class="cls-33" d="M58.52,30.65a4.86,4.86,0,0,1,2,2.47c-.16-.48-.23-1-.35-1.48a3,3,0,0,0-.65-1.36,1.53,1.53,0,0,0-1-.5c-.32,0-.76.06-.5.5A1.17,1.17,0,0,0,58.52,30.65Z"/><path class="cls-32" d="M61.42,37.31a2.35,2.35,0,0,0,1.25.6,2.28,2.28,0,0,0,1.25-.6,10.09,10.09,0,0,0,2.24-2.94,12.9,12.9,0,0,0,1.71-5l-.06,0a13.26,13.26,0,0,1-1.65,4.51,10.09,10.09,0,0,1-2.24,2.94,2.27,2.27,0,0,1-1.25.59,2.33,2.33,0,0,1-1.25-.59,10.45,10.45,0,0,1-2.24-2.94,13.46,13.46,0,0,1-1.64-4.51l-.06,0a12.88,12.88,0,0,0,1.7,5A10.45,10.45,0,0,0,61.42,37.31Z"/><path class="cls-34" d="M66.79,29.79c-.42-.26-.85.33-1,.62A13.48,13.48,0,0,0,64.39,34a7,7,0,0,1,1.35-2.22C66,31.49,67.33,30.12,66.79,29.79Z"/><path class="cls-16" d="M59.41,84.67l5.51.13,1.38,0c.43,0,.52.15,1,.09a12.87,12.87,0,0,0,2.37-.57,9.83,9.83,0,0,1-1.86-.59A15.21,15.21,0,0,1,64.87,81a2,2,0,0,0-.57-.42,1.54,1.54,0,0,0-.71-.12,5.38,5.38,0,0,0-3.41,1.76A9,9,0,0,1,57,84.51a12.65,12.65,0,0,0,1.91.41C59.36,85,59,84.66,59.41,84.67Z"/><path class="cls-36" d="M62.16,94A5.47,5.47,0,0,0,63,95.21,5.45,5.45,0,0,0,63.81,94,11.86,11.86,0,0,0,66,88.1a2.5,2.5,0,0,0,2.2,0,12.88,12.88,0,0,0-1.7-5,10.45,10.45,0,0,0-2.24-2.94,2.35,2.35,0,0,0-1.25-.6,2.28,2.28,0,0,0-1.25.6,10.09,10.09,0,0,0-2.24,2.94,12.9,12.9,0,0,0-1.71,5,2.5,2.5,0,0,0,2.2,0A11.86,11.86,0,0,0,62.16,94Z"/><path class="cls-2" d="M63,95.21A4.59,4.59,0,0,0,63.81,94,11.78,11.78,0,0,0,66,88.1l.15.06A2.12,2.12,0,0,0,66,88a47.29,47.29,0,0,1-2.91-8.2,12.63,12.63,0,0,1,.13,2.61c0,.9.08,1.79.11,2.69,0,1.61.08,3.22,0,4.83s-.32,3.06-.27,4.57C63.13,94.64,62.94,95.05,63,95.21Z"/><path class="cls-2" d="M68,88.18l.16-.07a12.88,12.88,0,0,0-1.7-5,10.17,10.17,0,0,0-2.24-2.94A2.24,2.24,0,0,0,63,79.62a6.1,6.1,0,0,0,.54.59c2.08,2.05,3.23,4.83,4.32,7.54A3.12,3.12,0,0,1,68,88.18Z"/><g class="cls-31"><path class="cls-2" d="M63.2,79.68l-.21,0a2.35,2.35,0,0,0-1.26.6,10,10,0,0,0-2.23,2.94,12.9,12.9,0,0,0-1.71,5l.06,0a14.34,14.34,0,0,1,2-4.65A10.7,10.7,0,0,1,63.2,79.68Z"/><path class="cls-2" d="M61,86.46l-.55,1a3,3,0,0,1-.48.68l0,0A11.71,11.71,0,0,0,62.16,94c.09.14.17.29.25.43-.12-.32-.37-.67-.48-.91A12.36,12.36,0,0,1,61,90.24a11.93,11.93,0,0,1-.13-1.89c0-.32,0-.65.05-1A2.8,2.8,0,0,1,61,86.46Z"/></g><path class="cls-32" d="M63,95.21a40.59,40.59,0,0,0,1.11-6.79c0-2.27-.89-8.12-.9-8.21S63,95.21,63,95.21Z"/><path class="cls-33" d="M61.8,83.72c-.13.39-.25.79-.34,1.19a12.56,12.56,0,0,0-.24,4.49,13.46,13.46,0,0,0,.48,2.18c.12.37.25.73.4,1.08,0,.1.41.87.57.41a.45.45,0,0,0,0-.23,34.46,34.46,0,0,1-.9-4.5,22.47,22.47,0,0,1,.51-5.77A8.16,8.16,0,0,1,61.8,83.72Z"/><path class="cls-33" d="M58.91,87.74a1.53,1.53,0,0,0,1-.5,3,3,0,0,0,.65-1.36c.12-.49.19-1,.35-1.48a4.91,4.91,0,0,1-2,2.47,1.17,1.17,0,0,0-.45.37C58.14,87.68,58.59,87.77,58.91,87.74Z"/><path class="cls-32" d="M61.76,80.69A2.33,2.33,0,0,1,63,80.1a2.3,2.3,0,0,1,1.25.59,10.09,10.09,0,0,1,2.24,2.94,13.26,13.26,0,0,1,1.65,4.51l.06,0a12.9,12.9,0,0,0-1.71-5,10.09,10.09,0,0,0-2.24-2.94,2.32,2.32,0,0,0-1.25-.6,2.35,2.35,0,0,0-1.25.6,10.27,10.27,0,0,0-2.24,2.94,12.88,12.88,0,0,0-1.7,5l0,0a13.47,13.47,0,0,1,1.65-4.51A10.27,10.27,0,0,1,61.76,80.69Z"/><path class="cls-34" d="M67.13,87.73c.54-.33-.81-1.7-1-2a7.07,7.07,0,0,1-1.36-2.22,13.83,13.83,0,0,0,1.38,3.61C66.28,87.4,66.71,88,67.13,87.73Z"/><path class="cls-16" d="M88.8,64.59A11.31,11.31,0,0,0,89.14,61a4.05,4.05,0,0,0-1.75-3,2.72,2.72,0,0,0-2.26-.25c-.64.23-1.52.89-1.36,1.63a2.26,2.26,0,0,0,.44.84C85.52,61.84,87.65,62.79,88.8,64.59Z"/><path class="cls-37" d="M92.36,53.4a12.73,12.73,0,0,0-5,1.71,10.24,10.24,0,0,0-2.94,2.23,1.63,1.63,0,0,0,0,2.51,10.24,10.24,0,0,0,2.94,2.23,12.73,12.73,0,0,0,5,1.71,2.5,2.5,0,0,0,0-2.2,11.86,11.86,0,0,0,5.87-2.17,5.16,5.16,0,0,0,1.24-.83,5.45,5.45,0,0,0-1.24-.82,11.86,11.86,0,0,0-5.87-2.17A2.5,2.5,0,0,0,92.36,53.4Z"/><path class="cls-2" d="M99.46,58.59c-.16,0-.57.14-.76.14-1.51,0-3.06.23-4.57.27s-3.22,0-4.83,0l-2.68-.11A12,12,0,0,1,84,58.71a48.28,48.28,0,0,1,8.21,2.92l.2.11-.06-.15a11.86,11.86,0,0,0,5.87-2.17A4.49,4.49,0,0,0,99.46,58.59Z"/><path class="cls-2" d="M87.4,62.08a12.73,12.73,0,0,0,5,1.71.87.87,0,0,0,.07-.17,2.16,2.16,0,0,1-.43-.14c-2.7-1.09-5.49-2.24-7.54-4.32a6.1,6.1,0,0,0-.59-.54,2.28,2.28,0,0,0,.59,1.23A10,10,0,0,0,87.4,62.08Z"/><g class="cls-31"><path class="cls-2" d="M87.77,55.47a14.43,14.43,0,0,1,4.65-2l0-.06a12.73,12.73,0,0,0-5,1.71,10.24,10.24,0,0,0-2.94,2.23,2.35,2.35,0,0,0-.6,1.25,1.43,1.43,0,0,0,0,.22A10.7,10.7,0,0,1,87.77,55.47Z"/><path class="cls-2" d="M94.5,56.6a12.81,12.81,0,0,1,3.26.94c.24.11.59.36.92.48a4.41,4.41,0,0,1-.43-.25A11.78,11.78,0,0,0,92.4,55.6l0,0a3,3,0,0,1-.68.48l-1,.55a2.84,2.84,0,0,1,.92-.12c.33,0,.65-.05,1-.05A12,12,0,0,1,94.5,56.6Z"/></g><path class="cls-32" d="M84.46,58.81c.09,0,5.94.9,8.21.9a40.26,40.26,0,0,0,6.79-1.12S84.37,58.8,84.46,58.81Z"/><path class="cls-33" d="M97.1,58.27a.59.59,0,0,0,.23,0c.45-.16-.32-.53-.42-.57-.35-.15-.71-.28-1.07-.4a12.79,12.79,0,0,0-2.19-.48,12.56,12.56,0,0,0-4.49.24c-.4.09-.8.21-1.19.34a8.56,8.56,0,0,1-1.14.47,22.43,22.43,0,0,1,5.77-.51A33.49,33.49,0,0,1,97.1,58.27Z"/><path class="cls-33" d="M92,54.52c0-.32-.06-.77-.5-.5a1.17,1.17,0,0,0-.37.45,4.87,4.87,0,0,1-2.47,2,15.19,15.19,0,0,1,1.48-.36,3,3,0,0,0,1.36-.64A1.48,1.48,0,0,0,92,54.52Z"/><path class="cls-32" d="M87.88,55.13a13.55,13.55,0,0,1,4.51-1.65l0-.06a13.07,13.07,0,0,0-5,1.71,10.27,10.27,0,0,0-2.94,2.24,2.26,2.26,0,0,0-.59,1.25,2.23,2.23,0,0,0,.59,1.25,10.27,10.27,0,0,0,2.94,2.24,12.9,12.9,0,0,0,5,1.71l0-.06a13.34,13.34,0,0,1-4.51-1.65A10.08,10.08,0,0,1,85,59.87a2.25,2.25,0,0,1-.6-1.25,2.28,2.28,0,0,1,.6-1.25A10.08,10.08,0,0,1,87.88,55.13Z"/><path class="cls-34" d="M92,62.74c.26-.42-.33-.85-.62-1a13.9,13.9,0,0,0-3.6-1.38A7.14,7.14,0,0,1,90,61.69C90.28,61.92,91.65,63.28,92,62.74Z"/><path class="cls-15" d="M84.23,83.14a28.52,28.52,0,0,1-4.48,3.24c-3,1.73-6,2.38-9.17,3.63A25.62,25.62,0,0,0,87.7,80.2c.25-.32.5-.76.3-1.12C88.26,79.55,84.66,82.76,84.23,83.14Z"/></g></g></svg>