<svg xmlns="http://www.w3.org/2000/svg" xmlns:xlink="http://www.w3.org/1999/xlink" viewBox="0 0 52.97 52.97"><defs><style>.cls-1{fill:#b76615;}.cls-2{fill:url(#linear-gradient);}.cls-3{fill:#fff30b;}.cls-4{fill:#d37816;}.cls-5{fill:#704621;}.cls-6{fill:#187c18;opacity:0.6;}.cls-7{fill:url(#linear-gradient-2);}.cls-8{fill:#1da020;opacity:0.35;}.cls-9{fill:url(#linear-gradient-3);}.cls-10,.cls-11,.cls-13,.cls-14,.cls-15,.cls-16,.cls-17{fill:#fff;}.cls-10{opacity:0.22;}.cls-12{opacity:0.27;}.cls-13{opacity:0.25;}.cls-14{opacity:0.68;}.cls-15{opacity:0.18;}.cls-16{opacity:0.12;}.cls-17{opacity:0.52;}</style><linearGradient id="linear-gradient" x1="9.85" y1="10.79" x2="59.25" y2="57.35" gradientTransform="translate(6.85 -5.42) rotate(13.36)" gradientUnits="userSpaceOnUse"><stop offset="0.02" stop-color="#f4e203"/><stop offset="0.7" stop-color="#f49308"/></linearGradient><linearGradient id="linear-gradient-2" x1="10.55" y1="19.34" x2="45.58" y2="36.07" gradientUnits="userSpaceOnUse"><stop offset="0.02" stop-color="#f3f746"/><stop offset="0.38" stop-color="#7adc3f"/><stop offset="0.67" stop-color="#1ba82f"/></linearGradient><linearGradient id="linear-gradient-3" x1="14.8" y1="23.28" x2="39.91" y2="30.2" gradientTransform="translate(6.73 -5.28) rotate(13.21)" gradientUnits="userSpaceOnUse"><stop offset="0.2" stop-color="#f3f746"/><stop offset="0.71" stop-color="#7adc3f"/><stop offset="1" stop-color="#1ba82f"/></linearGradient></defs><g id="Layer_2" data-name="Layer 2"><g id="Layer_1-2" data-name="Layer 1"><circle class="cls-1" cx="26.49" cy="26.49" r="26.49"/><circle class="cls-2" cx="26.57" cy="26.55" r="25.14" transform="translate(-5.41 6.85) rotate(-13.36)"/><path class="cls-3" d="M1.86,21.63c3.39,1.29,8.06,3,8.16,2.77A27.06,27.06,0,0,1,28.33,9.71c.75-2.66,1.39-5.35,1.89-8.06a25.17,25.17,0,0,0-28.36,20Z"/><path class="cls-4" d="M25.45,50c-7.58,0-15.18-4.18-19.79-9.48,4,6.94,12.8,11.21,21.16,11.21a25.13,25.13,0,0,0,19-41.63A25.14,25.14,0,0,1,25.45,50Z"/><circle class="cls-5" cx="26.57" cy="26.55" r="20.9" transform="translate(-5.43 6.88) rotate(-13.4)"/><circle class="cls-6" cx="26.57" cy="26.86" r="20.09" transform="translate(-11.21 26.65) rotate(-45)"/><circle class="cls-7" cx="26.35" cy="26.89" r="19.4"/><path class="cls-8" d="M29.28,31.32a9.9,9.9,0,0,1-3.08,3.87,13.54,13.54,0,0,1-7.35,3.31A11.24,11.24,0,0,1,10.07,35a14.11,14.11,0,0,1-2.39-3.35c-.11-.22-.21-.48-.31-.74a19.41,19.41,0,1,0,29-20.7,5.53,5.53,0,0,1,.1,2.62,5.9,5.9,0,0,1-5.29,4.54,2.22,2.22,0,0,0-1.31.31c-.47.4-.4,1.14-.3,1.75a38.19,38.19,0,0,1,.34,8.81A10.76,10.76,0,0,1,29.28,31.32Z"/><circle class="cls-6" cx="26.35" cy="27.03" r="13.02" transform="translate(-5.48 6.74) rotate(-13.21)"/><circle class="cls-9" cx="26.15" cy="26.41" r="13.02" transform="translate(-5.34 6.67) rotate(-13.21)"/><path class="cls-10" d="M13.33,26.41a13,13,0,0,0,13,13,12.82,12.82,0,0,0,11.83-8,12.61,12.61,0,0,1-9,3.82,13,13,0,0,1-12-18.05A13,13,0,0,0,13.33,26.41Z"/><path class="cls-11" d="M13.13,26.46a13,13,0,0,0,23.46,7.77A13,13,0,0,1,16.35,17.89,12.92,12.92,0,0,0,13.13,26.46Z"/><g class="cls-12"><path class="cls-11" d="M13.05,25.7c0,.23,0,.45,0,.67a13,13,0,0,0,.81,4.53c.82-.9,1.69-1.77,2.56-2.63A169.44,169.44,0,0,1,32,14.78a12.94,12.94,0,0,0-4.59-1.36,126.49,126.49,0,0,0-11.28,9.24Q14.54,24.14,13.05,25.7Z"/><path class="cls-11" d="M16.44,35.16a13,13,0,0,0,9.61,4.23c.41,0,.81,0,1.21,0,3.68-5.48,7.38-11,11.4-16.21a12.94,12.94,0,0,0-3.49-6.05c-2,1.75-3.89,3.56-5.79,5.39Q22.84,28.74,16.44,35.16Z"/></g><path class="cls-13" d="M10.89,16.84l.17-.32.21-.38A1.34,1.34,0,0,0,10.89,16.84Z"/><path class="cls-13" d="M24.08,10.81c.52-.16,1.16-.48,1.08-1a4,4,0,0,0-1.75-.2l.92-.95a13.82,13.82,0,0,0-4.28,1.24c-3.27,1.34-7.2,3.56-9,6.63-1.85,3.38-3.51,6.59-3,10.42,0,.3.23.69.52.61a.6.6,0,0,0,.28-.24L10,25.85a19.6,19.6,0,0,0,.9,5c.27.84.79,1.81,1.68,1.82-1.58-5-1.37-10.88,1.65-15.21C16.5,14.12,20.22,12,24.08,10.81Z"/><path class="cls-14" d="M10.22,23.69c0,.13.13.31.26.25a.21.21,0,0,0,.09-.17c.27-1,.44-2.05.72-3.06a13.13,13.13,0,0,1,5.07-7.09,1.5,1.5,0,0,0,.68-.77,5.23,5.23,0,0,0-1.81.91L15.7,13c-.09.14-.79.31-1,.41a7.38,7.38,0,0,0-.8.58,8.13,8.13,0,0,0-1.12,1.15,15.27,15.27,0,0,0-2.32,3.72,14.2,14.2,0,0,0-.81,2.38c.24-.22.49-.43.74-.64A8.28,8.28,0,0,0,10.22,23.69Z"/><path class="cls-6" d="M24.16,42.84a14.27,14.27,0,0,1-6.79-3,14.54,14.54,0,0,0,8.54,4.61c8.45,1.29,16.44-5.15,17.85-14.38A17.15,17.15,0,0,0,37.81,14,17.44,17.44,0,0,1,42,28.46C40.6,37.7,32.61,44.13,24.16,42.84Z"/><path class="cls-15" d="M28.13,15.1a6.87,6.87,0,0,1,3.56,2.75,13.16,13.16,0,0,1,1.78,4.21,15.94,15.94,0,0,1,1.31-3.93,7,7,0,0,1,2.82-3A7.71,7.71,0,0,1,34.25,12a13.3,13.3,0,0,1-1.52-4.37c.16.9-1.25,4.18-1.83,5A6.38,6.38,0,0,1,28.13,15.1Z"/><path class="cls-16" d="M26.85,15.32a8.73,8.73,0,0,1,4.52,3.4,16.21,16.21,0,0,1,2.27,5.2,18.43,18.43,0,0,1,1.66-4.85,8.62,8.62,0,0,1,3.58-3.67,9.63,9.63,0,0,1-4.25-3.86,16,16,0,0,1-1.94-5.4c.21,1.11-1.59,5.16-2.31,6.22A8.14,8.14,0,0,1,26.85,15.32Z"/><path class="cls-11" d="M31.57,14.93a1.89,1.89,0,0,1,1,.75A3.77,3.77,0,0,1,33,16.83a4,4,0,0,1,.36-1.07,1.78,1.78,0,0,1,.77-.81,2.18,2.18,0,0,1-.92-.86,3.58,3.58,0,0,1-.41-1.19,3.93,3.93,0,0,1-.5,1.37A1.8,1.8,0,0,1,31.57,14.93Z"/><path class="cls-17" d="M30.22,15a3.85,3.85,0,0,1,2,1.54,7.3,7.3,0,0,1,1,2.35,8.89,8.89,0,0,1,.73-2.2A3.91,3.91,0,0,1,35.5,15a4.28,4.28,0,0,1-1.86-1.74,7.31,7.31,0,0,1-.85-2.44,7.66,7.66,0,0,1-1,2.81A3.58,3.58,0,0,1,30.22,15Z"/><path class="cls-11" d="M22.8,2.48C16.31,3.6,10.92,7.39,6.88,12.5a16.6,16.6,0,0,0-2.66,4.64A2.67,2.67,0,0,0,4,18.32a1,1,0,0,0,.73.86,1.31,1.31,0,0,0,1.15-.67,12.27,12.27,0,0,0,1.18-2.38A21.51,21.51,0,0,1,18.93,4.71c1.39-.54,2.84-.93,4.28-1.36.22-.06.49-.17.53-.4C23.82,2.54,23.21,2.41,22.8,2.48Z"/><path class="cls-11" d="M24.79,2.68c0,.95,2.44.62,3,.49.34-.09.73-.32.7-.67S28,2,27.61,2C27.09,2,24.79,1.8,24.79,2.68Z"/></g></g></svg>