<svg xmlns="http://www.w3.org/2000/svg" xmlns:xlink="http://www.w3.org/1999/xlink" viewBox="0 0 40.18 40.81"><defs><style>.cls-1{fill:#187c18;opacity:0.6;}.cls-2{fill:url(#linear-gradient);}.cls-3{fill:#1da020;}.cls-10,.cls-3{opacity:0.18;}.cls-4{fill:url(#linear-gradient-2);}.cls-10,.cls-11,.cls-12,.cls-5,.cls-6,.cls-8,.cls-9{fill:#fff;}.cls-5{opacity:0.22;}.cls-7{opacity:0.27;}.cls-8{opacity:0.25;}.cls-9{opacity:0.68;}.cls-11{opacity:0.12;}.cls-12{opacity:0.52;}</style><linearGradient id="linear-gradient" x1="4.08" y1="13.2" x2="39.11" y2="29.93" gradientTransform="translate(31.44 -5.56) rotate(67.5)" gradientUnits="userSpaceOnUse"><stop offset="0.02" stop-color="#f3f746"/><stop offset="0.38" stop-color="#7adc3f"/><stop offset="0.67" stop-color="#1ba82f"/></linearGradient><linearGradient id="linear-gradient-2" x1="8.32" y1="17.14" x2="33.43" y2="24.06" gradientTransform="translate(30.87 -5.66) rotate(67.5)" gradientUnits="userSpaceOnUse"><stop offset="0.2" stop-color="#f3f746"/><stop offset="0.71" stop-color="#7adc3f"/><stop offset="1" stop-color="#1ba82f"/></linearGradient></defs><g id="Layer_2" data-name="Layer 2"><g id="Layer_1-2" data-name="Layer 1"><circle class="cls-1" cx="20.09" cy="20.72" r="20.09" transform="translate(-8.76 20.27) rotate(-45)"/><circle class="cls-2" cx="19.88" cy="20.74" r="19.4" transform="translate(-6.89 31.17) rotate(-67.5)"/><path class="cls-3" d="M22.8,25.18a9.87,9.87,0,0,1-3.07,3.87,13.64,13.64,0,0,1-7.36,3.31,11.29,11.29,0,0,1-8.78-3.5A14.11,14.11,0,0,1,1.2,25.51a6.33,6.33,0,0,1-.3-.74,19.4,19.4,0,1,0,29-20.7,5.53,5.53,0,0,1,.09,2.62,5.9,5.9,0,0,1-5.29,4.54,2.12,2.12,0,0,0-1.3.31c-.48.4-.41,1.14-.31,1.75a38.13,38.13,0,0,1,.35,8.8A10.77,10.77,0,0,1,22.8,25.18Z"/><circle class="cls-1" cx="19.88" cy="20.89" r="13.02" transform="translate(-8.95 20.17) rotate(-45)"/><circle class="cls-4" cx="19.67" cy="20.27" r="13.02" transform="translate(-6.58 30.69) rotate(-67.5)"/><path class="cls-5" d="M6.86,20.27a13,13,0,0,0,13,13,12.84,12.84,0,0,0,11.83-8,12.63,12.63,0,0,1-9,3.82,13,13,0,0,1-12-18A13,13,0,0,0,6.86,20.27Z"/><path class="cls-6" d="M6.65,20.32a13,13,0,0,0,23.47,7.77A13,13,0,0,1,9.87,11.74,13,13,0,0,0,6.65,20.32Z"/><g class="cls-7"><path class="cls-6" d="M6.57,19.56c0,.23,0,.45,0,.67a12.82,12.82,0,0,0,.81,4.53c.82-.9,1.68-1.77,2.56-2.63A169.44,169.44,0,0,1,25.51,8.64a13.05,13.05,0,0,0-4.6-1.36A127.93,127.93,0,0,0,9.63,16.52C8.59,17.51,7.56,18.52,6.57,19.56Z"/><path class="cls-6" d="M10,29a13,13,0,0,0,9.61,4.23c.4,0,.81,0,1.21,0,3.68-5.48,7.38-11,11.4-16.21a13,13,0,0,0-3.5-6c-2,1.75-3.89,3.56-5.79,5.39Q16.36,22.6,10,29Z"/></g><path class="cls-8" d="M4.42,10.7c0-.11.11-.21.17-.32L4.8,10A1.22,1.22,0,0,0,4.42,10.7Z"/><path class="cls-8" d="M17.61,4.67c.51-.16,1.15-.48,1.07-1a3.86,3.86,0,0,0-1.75-.2l.92-1a13.67,13.67,0,0,0-4.27,1.23c-3.27,1.35-7.2,3.57-9,6.64C2.74,13.76,1.07,17,1.62,20.8c0,.3.22.69.52.61a.57.57,0,0,0,.27-.24l1.06-1.46a19.61,19.61,0,0,0,.91,5c.27.84.79,1.81,1.67,1.82C4.48,21.46,4.68,15.63,7.71,11.29,10,8,13.74,5.86,17.61,4.67Z"/><path class="cls-9" d="M3.75,17.55c0,.13.13.31.25.24s.08-.09.1-.16c.26-1,.43-2,.72-3.06A13.12,13.12,0,0,1,9.88,7.48a1.51,1.51,0,0,0,.69-.77,5.19,5.19,0,0,0-1.82.91c.16-.24.32-.48.47-.72-.09.14-.79.31-1,.41a6.52,6.52,0,0,0-.8.58A8.19,8.19,0,0,0,6.32,9a15.44,15.44,0,0,0-3.13,6.1l.74-.64A8.07,8.07,0,0,0,3.75,17.55Z"/><path class="cls-1" d="M17.68,36.7a14.32,14.32,0,0,1-6.79-3,14.59,14.59,0,0,0,8.54,4.61C27.88,39.62,35.88,33.18,37.29,24a17.17,17.17,0,0,0-6-16.08,17.4,17.4,0,0,1,4.21,14.45C34.13,31.55,26.13,38,17.68,36.7Z"/><path class="cls-10" d="M21.65,9a6.79,6.79,0,0,1,3.56,2.75A13.32,13.32,0,0,1,27,15.92,15.15,15.15,0,0,1,28.31,12a6.89,6.89,0,0,1,2.81-3,7.65,7.65,0,0,1-3.34-3.13,13.18,13.18,0,0,1-1.53-4.36c.17.89-1.25,4.18-1.82,5A6.46,6.46,0,0,1,21.65,9Z"/><path class="cls-11" d="M20.37,9.18a8.75,8.75,0,0,1,4.53,3.4,16.19,16.19,0,0,1,2.26,5.2,19,19,0,0,1,1.67-4.86A8.63,8.63,0,0,1,32.4,9.26,9.74,9.74,0,0,1,28.15,5.4,16,16,0,0,1,26.22,0c.2,1.11-1.6,5.16-2.32,6.22A8.08,8.08,0,0,1,20.37,9.18Z"/><path class="cls-6" d="M25.09,8.79a1.92,1.92,0,0,1,1,.75,3.74,3.74,0,0,1,.48,1.15,4.35,4.35,0,0,1,.36-1.07,2,2,0,0,1,.77-.82A2.08,2.08,0,0,1,26.77,8a3.65,3.65,0,0,1-.42-1.2,3.55,3.55,0,0,1-.5,1.38A1.87,1.87,0,0,1,25.09,8.79Z"/><path class="cls-12" d="M23.75,8.85a3.86,3.86,0,0,1,2,1.54,7.36,7.36,0,0,1,1,2.34,8.55,8.55,0,0,1,.73-2.19A3.85,3.85,0,0,1,29,8.89a4.31,4.31,0,0,1-1.87-1.74,7.54,7.54,0,0,1-.85-2.44,7.82,7.82,0,0,1-1,2.81A3.69,3.69,0,0,1,23.75,8.85Z"/></g></g></svg>