<svg xmlns="http://www.w3.org/2000/svg" xmlns:xlink="http://www.w3.org/1999/xlink" viewBox="0 0 41.42 42.13"><defs><style>.cls-1{fill:#ffa608;}.cls-2{fill:url(#linear-gradient);}.cls-3{fill:#ff7d12;}.cls-4{fill:url(#linear-gradient-2);}.cls-5{fill:#ff5a08;}.cls-6{fill:url(#linear-gradient-3);}.cls-7{fill:#ff7610;}.cls-8{fill:#ffb600;}.cls-9{opacity:0.42;}.cls-10,.cls-12,.cls-14,.cls-15,.cls-16,.cls-17,.cls-18{fill:#fff;}.cls-11{fill:#b21b0b;}.cls-12{opacity:0.3;}.cls-13{fill:url(#linear-gradient-4);}.cls-14{opacity:0.11;}.cls-15{opacity:0.18;}.cls-16{opacity:0.12;}.cls-17{opacity:0.52;}.cls-18{opacity:0.26;}</style><linearGradient id="linear-gradient" x1="20.81" y1="47.11" x2="20.52" y2="27.81" gradientUnits="userSpaceOnUse"><stop offset="0" stop-color="#ff7d12"/><stop offset="0.18" stop-color="#fb7811"/><stop offset="0.37" stop-color="#f06b0f"/><stop offset="0.58" stop-color="#de540b"/><stop offset="0.8" stop-color="#c43506"/><stop offset="0.82" stop-color="#c13105"/></linearGradient><linearGradient id="linear-gradient-2" x1="8.25" y1="3.57" x2="19.25" y2="18.79" gradientUnits="userSpaceOnUse"><stop offset="0" stop-color="#ffa608"/><stop offset="0.54" stop-color="#ff5f08"/><stop offset="0.57" stop-color="#ff5a08"/></linearGradient><linearGradient id="linear-gradient-3" x1="43.93" y1="28.77" x2="32.92" y2="24.3" gradientUnits="userSpaceOnUse"><stop offset="0" stop-color="#ff7d12"/><stop offset="0.77" stop-color="#c53606"/><stop offset="0.82" stop-color="#c13105"/></linearGradient><linearGradient id="linear-gradient-4" x1="20.69" y1="11" x2="39.09" y2="11" xlink:href="#linear-gradient-3"/></defs><g id="Layer_2" data-name="Layer 2"><g id="Layer_1-2" data-name="Layer 1"><polygon class="cls-1" points="11.85 32.95 29.54 32.95 35.01 16.12 20.69 5.72 6.38 16.12 11.85 32.95"/><polygon class="cls-2" points="11.85 32.95 11.04 39.44 20.69 39.44 30.34 39.44 29.54 32.95 20.69 32.95 11.85 32.95"/><polygon class="cls-3" points="0 17.4 2.98 26.58 5.96 35.75 11.89 32.99 9.15 24.57 6.42 16.16 0 17.4"/><polygon class="cls-4" points="1.99 11.38 6.45 16.16 13.61 10.96 20.69 5.72 17.6 0.04 9.79 5.71 1.99 11.38"/><polygon class="cls-5" points="20.69 5.72 27.85 10.92 35.01 16.12 39.47 11.34 31.66 5.67 23.86 0 20.69 5.72"/><polygon class="cls-6" points="29.54 32.95 35.46 35.72 38.44 26.54 41.42 17.36 35.01 16.12 32.27 24.54 29.54 32.95"/><polygon class="cls-5" points="6.45 16.16 1.99 11.38 0 17.4 6.45 16.16"/><polygon class="cls-1" points="11.89 32.99 5.96 35.75 11.04 39.44 11.89 32.99"/><polygon class="cls-7" points="35.46 35.72 29.54 32.95 30.34 39.44 35.46 35.72"/><polygon class="cls-1" points="23.86 0 17.6 0.04 20.69 5.72 23.86 0"/><polygon class="cls-3" points="34.7 16.12 41.42 17.36 39.47 11.34 35.01 16.12 34.7 16.12"/><path class="cls-8" d="M16.3,9,6.45,16.12,11.92,33H29.61l2.45-7.76a10.6,10.6,0,0,1-9,1.3,12.93,12.93,0,0,1-6.36-4.33,11.07,11.07,0,0,1-2.36-7.27A12.55,12.55,0,0,1,16.3,9Z"/><g class="cls-9"><path class="cls-10" d="M8.24,21.21a96,96,0,0,1,16.22-10l2.05-1.07L22.3,7c-4.86,4.37-9.63,8.56-14.59,12.8Z"/><path class="cls-10" d="M11.6,31.54a168.47,168.47,0,0,1,21-8L35,16.28,29.9,12.57c-6.71,5-13.13,10-19.48,15.44Z"/></g><polygon class="cls-10" points="11.92 32.95 29.61 32.95 12.57 32.1 6.42 16.16 11.92 32.95"/><polygon class="cls-11" points="35.92 17.12 41.42 17.36 35.01 16.28 29.61 32.95 35.92 17.12"/><polygon class="cls-11" points="28.65 33.81 30.34 39.44 29.61 32.95 11.92 32.95 28.65 33.81"/><path class="cls-12" d="M4.93,27.48a5,5,0,0,1-1.25,1.13L6,35.72,11.92,33,9.18,24.54,6.4,16.19l-1,.16a3.38,3.38,0,0,0,.27,1.29,12.22,12.22,0,0,1,.56,6.64A7.76,7.76,0,0,1,4.93,27.48Z"/><polygon class="cls-10" points="12.4 32.72 11.82 31.44 5.99 35.72 12.4 32.72"/><path class="cls-10" d="M12.05,32.29l-.89.49c0,.08-.12,6.66-.12,6.66Z"/><polygon class="cls-13" points="35.01 16.28 39.09 11.75 35.01 14.94 20.69 5.72 35.01 16.28"/><polygon class="cls-10" points="20.69 5.72 18.02 0.79 19.81 5.43 6.86 15.82 20.69 5.72"/><path class="cls-14" d="M34.81,31.16a14.34,14.34,0,0,0,0,2.78,10.89,10.89,0,0,0,.29,1.49l.34.16,3-9.18,2.93-9c-2.58,1.19-4.36,5.07-5.2,7.33A23.2,23.2,0,0,0,34.81,31.16Z"/><path class="cls-15" d="M6.91,32.86a7.32,7.32,0,0,1,3.75,2.9,14,14,0,0,1,1.87,4.42,16.57,16.57,0,0,1,1.37-4.13,7.31,7.31,0,0,1,3-3.12,8.06,8.06,0,0,1-3.51-3.28,13.79,13.79,0,0,1-1.6-4.59c.17.94-1.32,4.39-1.92,5.29A6.77,6.77,0,0,1,6.91,32.86Z"/><path class="cls-16" d="M5.57,33.1a9.11,9.11,0,0,1,4.75,3.57,16.84,16.84,0,0,1,2.38,5.46A19.49,19.49,0,0,1,14.45,37a9.1,9.1,0,0,1,3.75-3.85,10.19,10.19,0,0,1-4.46-4.06,16.77,16.77,0,0,1-2-5.66C11.93,24.62,10,28.88,9.27,30A8.56,8.56,0,0,1,5.57,33.1Z"/><path class="cls-10" d="M10.53,32.69a1.94,1.94,0,0,1,1,.79,3.71,3.71,0,0,1,.51,1.21,4.43,4.43,0,0,1,.38-1.13,2,2,0,0,1,.81-.86,2.12,2.12,0,0,1-1-.89,3.79,3.79,0,0,1-.44-1.26A3.82,3.82,0,0,1,11.32,32,1.88,1.88,0,0,1,10.53,32.69Z"/><path class="cls-17" d="M9.11,32.76a4,4,0,0,1,2.09,1.61,7.54,7.54,0,0,1,1,2.46,9.29,9.29,0,0,1,.77-2.3,4.08,4.08,0,0,1,1.65-1.74,4.44,4.44,0,0,1-2-1.83,7.67,7.67,0,0,1-.89-2.55,8.19,8.19,0,0,1-1.07,2.94A3.78,3.78,0,0,1,9.11,32.76Z"/><path class="cls-18" d="M2,11.38s4.44,4.88,4.41,4.81-2-2.84-3.05-4.35l7.81-7.12Z"/></g></g></svg>