<svg xmlns="http://www.w3.org/2000/svg" xmlns:xlink="http://www.w3.org/1999/xlink" viewBox="0 0 43.84 43.67"><defs><style>.cls-1{fill:#27b7ff;}.cls-2{fill:url(#linear-gradient);}.cls-3{fill:#39ecff;}.cls-4{fill:#069aff;}.cls-16,.cls-19,.cls-5{fill:#0092ff;}.cls-6{fill:url(#linear-gradient-2);}.cls-7{fill:#03b8ff;}.cls-8{fill:#03d0ff;}.cls-9{fill:url(#linear-gradient-3);}.cls-10{fill:url(#linear-gradient-4);}.cls-11{fill:url(#linear-gradient-5);}.cls-12{fill:url(#linear-gradient-6);}.cls-13,.cls-15,.cls-22,.cls-23,.cls-24,.cls-25,.cls-26{fill:#fff;}.cls-13,.cls-14{opacity:0.33;}.cls-16{opacity:0.37;}.cls-17,.cls-20,.cls-21{fill:#0062ff;}.cls-18{fill:#5ff4ff;}.cls-19,.cls-21{opacity:0.54;}.cls-20{opacity:0.5;}.cls-22{opacity:0.57;}.cls-23{opacity:0.18;}.cls-24{opacity:0.12;}.cls-25{opacity:0.52;}.cls-26{opacity:0.25;}</style><linearGradient id="linear-gradient" x1="19.45" y1="24.75" x2="35.15" y2="6.69" gradientTransform="translate(21.88 -9.14) rotate(45)" gradientUnits="userSpaceOnUse"><stop offset="0.12" stop-color="#6efffb"/><stop offset="0.23" stop-color="#61f7fb"/><stop offset="0.43" stop-color="#3ee2fd"/><stop offset="0.71" stop-color="#06c0ff"/><stop offset="0.73" stop-color="#00bdff"/></linearGradient><linearGradient id="linear-gradient-2" x1="38.05" y1="40.28" x2="25.29" y2="22.43" gradientUnits="userSpaceOnUse"><stop offset="0.06" stop-color="#39f6ff"/><stop offset="0.14" stop-color="#30e9ff"/><stop offset="0.3" stop-color="#19c6ff"/><stop offset="0.43" stop-color="#03a5ff"/></linearGradient><linearGradient id="linear-gradient-3" x1="30.95" y1="30.77" x2="9.27" y2="7.27" gradientUnits="userSpaceOnUse"><stop offset="0" stop-color="#39f6ff"/><stop offset="0.03" stop-color="#2ce9ff"/><stop offset="0.09" stop-color="#09c6ff"/><stop offset="0.11" stop-color="#00bdff"/></linearGradient><linearGradient id="linear-gradient-4" x1="32.41" y1="11.48" x2="24.9" y2="18.21" gradientUnits="userSpaceOnUse"><stop offset="0" stop-color="#39f6ff"/><stop offset="0.11" stop-color="#2ce9ff"/><stop offset="0.31" stop-color="#09c6ff"/><stop offset="0.36" stop-color="#00bdff"/></linearGradient><linearGradient id="linear-gradient-5" x1="23.47" y1="4.37" x2="-14.75" y2="38.63" gradientUnits="userSpaceOnUse"><stop offset="0.13" stop-color="#39f6ff"/><stop offset="0.3" stop-color="#2ce9ff"/><stop offset="0.61" stop-color="#09c6ff"/><stop offset="0.68" stop-color="#00bdff"/></linearGradient><linearGradient id="linear-gradient-6" x1="10.6" y1="33.91" x2="16.11" y2="25.46" xlink:href="#linear-gradient-5"/></defs><g id="Layer_2" data-name="Layer 2"><g id="Layer_1-2" data-name="Layer 1"><rect class="cls-1" x="7.94" y="7.81" width="28.07" height="28.07" transform="translate(-9.01 21.94) rotate(-45)"/><rect class="cls-2" x="12.16" y="12.02" width="19.64" height="19.64" transform="translate(-9.01 21.94) rotate(-45)"/><polygon class="cls-3" points="2.13 21.84 0 19.3 0 24.56 2.13 21.84"/><polygon class="cls-4" points="24.61 43.67 21.89 41.65 19.34 43.67 24.61 43.67"/><polygon class="cls-5" points="43.84 19.13 41.82 21.85 43.84 24.39 43.84 19.13"/><polygon class="cls-3" points="24.53 0 19.27 0 21.99 2.02 24.53 0"/><polygon class="cls-6" points="24.61 43.67 43.84 24.39 41.82 21.85 21.89 41.65 24.61 43.67"/><polygon class="cls-7" points="41.82 21.85 43.84 19.13 24.53 0 21.99 2.02 41.82 21.85"/><polygon class="cls-8" points="2.13 21.84 21.99 2.02 19.27 0 0 19.3 2.13 21.84"/><polygon class="cls-7" points="19.34 43.67 21.89 41.65 2.13 21.84 0 24.56 19.34 43.67"/><polygon class="cls-9" points="21.89 41.65 41.82 21.85 35.87 21.84 21.98 35.73 21.89 41.65"/><polygon class="cls-10" points="35.87 21.84 41.82 21.85 21.99 2.02 21.98 7.95 35.87 21.84"/><path class="cls-11" d="M8.09,21.84,22,8V2L2.13,21.84C2.58,22,8.09,21.84,8.09,21.84Z"/><polygon class="cls-12" points="21.89 41.65 21.98 35.73 8.09 21.84 2.13 21.84 21.89 41.65"/><path class="cls-13" d="M8.09,21.84,22,35.73l4.86-4.86a13.05,13.05,0,0,1-2.17.17,12.18,12.18,0,0,1-9.54-4.59,10.9,10.9,0,0,1-1.72-9.93Z"/><g class="cls-14"><path class="cls-15" d="M14.37,28.15l7.37,7.37.51-2.09a39.28,39.28,0,0,1,1.85-6,31.2,31.2,0,0,1,6-8.62l1.29-1.35L28,14A98.74,98.74,0,0,0,14.37,28.15Z"/><path class="cls-15" d="M8.44,22.22l1.2,1.19a34.33,34.33,0,0,1,4.9-4.08A109.58,109.58,0,0,1,26.1,12.1L23.42,9.42q-3.23,2-6.31,4.13Z"/></g><polygon class="cls-15" points="8.09 21.84 21.98 35.73 10.02 21.85 18.66 11.27 8.09 21.84"/><path class="cls-16" d="M24.93,35.24c2-2.84,10.94-13.4,10.94-13.4L22,35.73l-.09,5.92A29.61,29.61,0,0,1,24.93,35.24Z"/><polygon class="cls-5" points="22.73 36.03 33.59 24.18 21.98 35.73 21.89 41.65 22.73 36.03"/><polygon class="cls-5" points="41.82 21.85 35.87 21.84 35.35 22.36 41.82 21.85"/><polygon class="cls-5" points="8.09 22.36 20.21 33.97 8.09 21.84 2.13 21.84 8.09 22.36"/><polygon class="cls-17" points="19.34 43.67 24.61 43.67 43.84 24.39 43.84 19.13 43.13 23.5 23.97 43.12 19.34 43.67"/><polygon class="cls-18" points="0.54 19.94 19.88 0.43 24.53 0 19.27 0 0 19.3 0.54 19.94"/><path class="cls-19" d="M19.35,43.67l2.54-2L2.13,21.84s6.36,8.23,10.78,13.43A80.12,80.12,0,0,1,19.35,43.67Z"/><polygon class="cls-20" points="21.89 41.65 6.41 26.13 20.76 41.65 19.34 43.67 21.89 41.65"/><polygon class="cls-17" points="21.89 41.65 24.41 43.51 22.9 41.43 30.84 32.76 21.89 41.65"/><polygon class="cls-21" points="21.99 2.02 30.91 10.92 22.9 2.02 24.53 0 21.99 2.02"/><path class="cls-16" d="M24.11,10.08,22,8S22.81,8.82,24.11,10.08Z"/><path class="cls-16" d="M35.87,21.84h6s-2-.34-6.66-2.72c-3.22-1.64-8.23-6.29-11-9Z"/><path class="cls-22" d="M22,8V2S6.5,17.5,4.44,19.52C6.43,17.64,21,4.22,21,4.22Z"/><path class="cls-22" d="M4.22,19.74l.22-.22A1.84,1.84,0,0,0,4.22,19.74Z"/><path class="cls-23" d="M4.35,22a6.5,6.5,0,0,1,3.36,2.6,12.86,12.86,0,0,1,1.68,4,14.13,14.13,0,0,1,1.23-3.7,6.63,6.63,0,0,1,2.65-2.8,7.27,7.27,0,0,1-3.15-2.94A12.47,12.47,0,0,1,8.69,15c.15.85-1.19,3.94-1.72,4.75A6.14,6.14,0,0,1,4.35,22Z"/><path class="cls-24" d="M3.15,22.2a8.22,8.22,0,0,1,4.26,3.21A15.13,15.13,0,0,1,9.54,30.3a17.66,17.66,0,0,1,1.57-4.57,8.07,8.07,0,0,1,3.37-3.45,9.18,9.18,0,0,1-4-3.64,15.09,15.09,0,0,1-1.82-5.08c.2,1-1.5,4.86-2.18,5.86A7.69,7.69,0,0,1,3.15,22.2Z"/><path class="cls-15" d="M7.59,21.83a1.81,1.81,0,0,1,.92.71A3.61,3.61,0,0,1,9,23.63a3.71,3.71,0,0,1,.34-1,1.82,1.82,0,0,1,.72-.76A1.92,1.92,0,0,1,9.17,21a3.39,3.39,0,0,1-.39-1.12,3.72,3.72,0,0,1-.47,1.3A1.7,1.7,0,0,1,7.59,21.83Z"/><path class="cls-25" d="M6.32,21.9A3.63,3.63,0,0,1,8.2,23.34a7.07,7.07,0,0,1,.93,2.21,8.19,8.19,0,0,1,.69-2.06,3.6,3.6,0,0,1,1.48-1.56,4.1,4.1,0,0,1-1.76-1.64,7.07,7.07,0,0,1-.8-2.3,7.09,7.09,0,0,1-1,2.65A3.43,3.43,0,0,1,6.32,21.9Z"/><polygon class="cls-21" points="41.82 21.85 43.84 19.13 41.82 20.79 32.49 12.52 41.82 21.85"/><polygon class="cls-26" points="35.87 21.84 21.98 7.95 22.59 21.4 35.87 21.84"/><polygon class="cls-26" points="26.45 31.26 21.59 22.79 21.98 35.73 26.45 31.26"/></g></g></svg>