<svg xmlns="http://www.w3.org/2000/svg" xmlns:xlink="http://www.w3.org/1999/xlink" viewBox="0 0 45.89 42.47"><defs><style>.cls-1{fill:url(#linear-gradient);}.cls-2{fill:url(#linear-gradient-2);}.cls-3{fill:#cc1305;}.cls-4{fill:#d31602;}.cls-5{fill:#a50024;}.cls-10,.cls-11,.cls-13,.cls-15,.cls-16,.cls-17,.cls-6,.cls-8{fill:#fff;}.cls-6{opacity:0.09;}.cls-7{opacity:0.22;}.cls-9{fill:url(#linear-gradient-3);}.cls-10{opacity:0.23;}.cls-11{opacity:0.52;}.cls-12{fill:#ea1106;}.cls-13{opacity:0.05;}.cls-14{opacity:0.48;fill:url(#linear-gradient-4);}.cls-15{opacity:0.3;}.cls-16{opacity:0.18;}.cls-17{opacity:0.12;}</style><linearGradient id="linear-gradient" y1="21.95" x2="45.89" y2="21.95" gradientUnits="userSpaceOnUse"><stop offset="0" stop-color="#ff7a73"/><stop offset="0.36" stop-color="#eb352c"/><stop offset="0.5" stop-color="#e2180e"/></linearGradient><linearGradient id="linear-gradient-2" x1="14.1" y1="29.47" x2="37.32" y2="9.73" gradientUnits="userSpaceOnUse"><stop offset="0" stop-color="#ffaeae"/><stop offset="0.38" stop-color="#ff6767"/><stop offset="0.67" stop-color="#ff2c2c"/></linearGradient><linearGradient id="linear-gradient-3" x1="21.91" y1="-1.51" x2="28.25" y2="20.54" gradientUnits="userSpaceOnUse"><stop offset="0" stop-color="#ffaeae"/><stop offset="0.2" stop-color="#ff6767"/><stop offset="0.35" stop-color="#ff2c2c"/></linearGradient><linearGradient id="linear-gradient-4" x1="36.15" y1="29.25" x2="45.73" y2="35.56" gradientUnits="userSpaceOnUse"><stop offset="0" stop-color="#ff7a73"/><stop offset="0.35" stop-color="#eb352c"/><stop offset="0.5" stop-color="#e2180e"/></linearGradient></defs><g id="Layer_2" data-name="Layer 2"><g id="Layer_1-2" data-name="Layer 1"><polygon class="cls-1" points="0 21.95 11.47 41.82 34.42 41.82 45.89 21.95 34.42 2.08 11.47 2.08 0 21.95"/><polygon class="cls-2" points="7.71 21.95 15.33 35.15 30.56 35.15 38.18 21.95 30.56 8.76 15.33 8.76 7.71 21.95"/><polygon class="cls-3" points="15.33 35.15 11.47 41.82 34.42 41.82 45.89 21.95 38.18 21.95 30.56 35.15 15.33 35.15"/><path class="cls-4" d="M37.27,20.37l0,.08Z"/><path class="cls-4" d="M30.56,8.76l6.71,11.61a22.52,22.52,0,0,1-2.8-9.31c-.19-4.94,0-9,0-9Z"/><polygon class="cls-5" points="30.56 35.15 15.33 35.15 30.56 36.18 34.42 41.82 31.83 35.15 38.18 21.95 30.56 35.15"/><polygon class="cls-5" points="16.47 35.15 15.33 35.15 11.47 41.82 16.47 35.15"/><path class="cls-6" d="M7.71,22l7.62,13.2H30.56l4-7a18.29,18.29,0,0,1-8.37,1.53,15.5,15.5,0,0,1-11.89-6.66,13.19,13.19,0,0,1-1.76-4,13.46,13.46,0,0,1-.28-5Z"/><g class="cls-7"><path class="cls-8" d="M11.92,14.67,9.71,18.49a226.63,226.63,0,0,1,21.66-8.33l-.81-1.4H22.84C19.14,10.6,15.49,12.57,11.92,14.67Z"/><path class="cls-8" d="M14.57,33.84c2.13-.72,4.29-1.33,6.46-1.91,4.38-1.17,8.8-2.24,13.23-3.19L38.18,22l-4.63-8L11.41,28.37Z"/></g><polygon class="cls-9" points="30.56 8.76 34.42 2.08 11.47 2.08 15.33 8.76 30.56 8.76"/><path class="cls-10" d="M7.47,26.72a60.81,60.81,0,0,1,7.86,8.43L7.77,22,.06,21.87S2.93,22.76,7.47,26.72Z"/><polygon class="cls-11" points="15.33 8.76 26.15 8.76 15.89 7.96 11.47 2.08 15.33 8.76"/><polygon class="cls-12" points="7.36 22.96 13.39 31.97 7.77 21.96 0.06 21.87 7.36 22.96"/><path class="cls-13" d="M9,13.62c2.69-4.71,2.51-11.54,2.51-11.54L.06,21.87S6.26,18.34,9,13.62Z"/><path class="cls-14" d="M34.42,41.82,45.89,22s-7.17,5.22-9.43,9.94A23.41,23.41,0,0,0,34.42,41.82Z"/><polygon class="cls-5" points="30.56 8.76 35.25 16.98 31.81 8.76 34.42 2.08 30.56 8.76"/><polygon class="cls-8" points="7.77 21.96 15.33 35.15 9.07 21.95 15.33 8.76 7.77 21.96"/><polygon class="cls-8" points="30.56 35.15 38.18 21.95 30.56 33.84 21.14 35.15 30.56 35.15"/><polygon class="cls-5" points="34.91 42.47 45.89 21.95 34.58 41.54 11.47 41.82 34.91 42.47"/><polygon class="cls-15" points="0.06 21.87 6.72 33.6 1.27 21.87 11.47 2.08 0.06 21.87"/><path class="cls-16" d="M10.77,9a6.87,6.87,0,0,1,3.57,2.76,13.07,13.07,0,0,1,1.78,4.21A15.42,15.42,0,0,1,17.44,12a7,7,0,0,1,2.81-3A7.72,7.72,0,0,1,16.9,5.9a13.14,13.14,0,0,1-1.52-4.37c.16.9-1.26,4.18-1.83,5A6.46,6.46,0,0,1,10.77,9Z"/><path class="cls-17" d="M9.49,9.19A8.72,8.72,0,0,1,14,12.6a16.21,16.21,0,0,1,2.27,5.2A18.62,18.62,0,0,1,18,12.94a8.74,8.74,0,0,1,3.58-3.67A9.7,9.7,0,0,1,17.28,5.4,16,16,0,0,1,15.34,0c.21,1.11-1.59,5.17-2.32,6.23A8.08,8.08,0,0,1,9.49,9.19Z"/><path class="cls-8" d="M14.21,8.8a1.85,1.85,0,0,1,1,.76,3.57,3.57,0,0,1,.49,1.15A4.16,4.16,0,0,1,16,9.63a1.88,1.88,0,0,1,.77-.81A2.12,2.12,0,0,1,15.89,8a3.56,3.56,0,0,1-.41-1.2A3.91,3.91,0,0,1,15,8.14,1.7,1.7,0,0,1,14.21,8.8Z"/><path class="cls-11" d="M12.87,8.87a3.79,3.79,0,0,1,2,1.54,7.34,7.34,0,0,1,1,2.34,8.81,8.81,0,0,1,.73-2.19A3.89,3.89,0,0,1,18.16,8.9a4.25,4.25,0,0,1-1.87-1.74,7.31,7.31,0,0,1-.85-2.44,7.66,7.66,0,0,1-1,2.81A3.66,3.66,0,0,1,12.87,8.87Z"/></g></g></svg>