<svg xmlns="http://www.w3.org/2000/svg" xmlns:xlink="http://www.w3.org/1999/xlink" viewBox="0 0 68.54 65.49"><defs><style>.cls-1{fill:#b76615;}.cls-2{fill:url(#linear-gradient);}.cls-3{fill:#704621;}.cls-4{fill:url(#linear-gradient-2);}.cls-5{fill:#ff109e;}.cls-6{fill:#d60ba1;}.cls-10,.cls-11,.cls-12,.cls-13,.cls-14,.cls-7{fill:#fff;}.cls-8{fill:url(#linear-gradient-3);}.cls-9{opacity:0.3;}.cls-10{opacity:0.31;}.cls-11{opacity:0.45;}.cls-12{opacity:0.18;}.cls-13{opacity:0.12;}.cls-14{opacity:0.52;}.cls-15,.cls-16{fill:#ef8216;}.cls-15{opacity:0.77;}.cls-16{opacity:0.39;}.cls-17{fill:#fff30b;}</style><linearGradient id="linear-gradient" x1="2.3" y1="18.22" x2="57.41" y2="53.43" gradientUnits="userSpaceOnUse"><stop offset="0.02" stop-color="#f4e203"/><stop offset="0.7" stop-color="#f49308"/></linearGradient><linearGradient id="linear-gradient-2" x1="12.04" y1="33.71" x2="55.9" y2="33.71" gradientUnits="userSpaceOnUse"><stop offset="0.1" stop-color="#ff57f7"/><stop offset="0.52" stop-color="#ff4cec"/><stop offset="1" stop-color="#ff39da"/></linearGradient><linearGradient id="linear-gradient-3" x1="16.29" y1="28.06" x2="48.31" y2="41.51" gradientUnits="userSpaceOnUse"><stop offset="0.25" stop-color="#ffabfd"/><stop offset="0.41" stop-color="#ff8af8"/><stop offset="0.73" stop-color="#ff3eed"/></linearGradient></defs><g id="Layer_2" data-name="Layer 2"><g id="Layer_1-2" data-name="Layer 1"><path class="cls-1" d="M67.68,27.74a2.82,2.82,0,0,0-1.55-4.82L47.34,20.16a2.8,2.8,0,0,1-2.12-1.54l-8.38-17a2.82,2.82,0,0,0-5.06,0l-8.43,17a2.85,2.85,0,0,1-2.13,1.55l-18.8,2.7A2.82,2.82,0,0,0,.85,27.64L14.43,40.91a2.84,2.84,0,0,1,.81,2.5L12,62.12a2.83,2.83,0,0,0,4.09,3L32.91,56.3a2.81,2.81,0,0,1,2.63,0l16.79,8.86a2.82,2.82,0,0,0,4.1-3L53.25,43.47a2.82,2.82,0,0,1,.82-2.5Z"/><path class="cls-2" d="M66.16,28a2.7,2.7,0,0,0-1.49-4.6L46.74,20.74a2.69,2.69,0,0,1-2-1.48L36.72,3a2.69,2.69,0,0,0-4.83,0l-8,16.24a2.74,2.74,0,0,1-2,1.47L3.88,23.28a2.69,2.69,0,0,0-1.5,4.59l13,12.67a2.69,2.69,0,0,1,.78,2.39L13,60.78a2.69,2.69,0,0,0,3.9,2.85l16-8.41a2.69,2.69,0,0,1,2.51,0l16,8.45a2.69,2.69,0,0,0,3.91-2.83L52.38,43a2.73,2.73,0,0,1,.78-2.38Z"/><path class="cls-3" d="M55.12,33.71a5.4,5.4,0,0,0-3-9.22l-6.34-.93a5.38,5.38,0,0,1-4.06-3l-2.83-5.75a5.4,5.4,0,0,0-9.68,0l-2.85,5.75a5.43,5.43,0,0,1-4.07,3L16,24.44a5.4,5.4,0,0,0-3,9.2l4.58,4.48a5.43,5.43,0,0,1,1.55,4.79L18,49.22a5.4,5.4,0,0,0,7.82,5.71l5.68-3a5.42,5.42,0,0,1,5,0l5.67,3A5.4,5.4,0,0,0,50,49.27L49,43a5.44,5.44,0,0,1,1.56-4.78Z"/><path class="cls-4" d="M54.31,33.71a5.22,5.22,0,0,0-2.87-8.9l-6.13-.9a5.25,5.25,0,0,1-3.92-2.85L38.66,15.5a5.21,5.21,0,0,0-9.34,0L26.57,21a5.22,5.22,0,0,1-3.93,2.85l-6.12.88a5.21,5.21,0,0,0-2.91,8.88L18,38a5.25,5.25,0,0,1,1.49,4.62l-1.06,6.09A5.22,5.22,0,0,0,26,54.19l5.48-2.87a5.2,5.2,0,0,1,4.85,0l5.47,2.88a5.21,5.21,0,0,0,7.58-5.48l-1-6.1A5.2,5.2,0,0,1,49.87,38Z"/><path class="cls-5" d="M54.31,33.71a5.22,5.22,0,0,0-2.87-8.9l-6.13-.9a5.25,5.25,0,0,1-3.92-2.85L38.66,15.5a5.13,5.13,0,0,0-1.86-2.09,7,7,0,0,1-.59,3.05c-.7,1.69-1.81,3.2-2.44,4.92a25.65,25.65,0,0,0-1,6.12A49.72,49.72,0,0,1,27.1,45a21.41,21.41,0,0,1-4,5.69A10.22,10.22,0,0,1,19.64,53,5.2,5.2,0,0,0,26,54.19l5.48-2.87a5.2,5.2,0,0,1,4.85,0l5.47,2.88a5.21,5.21,0,0,0,7.58-5.48l-1-6.1A5.2,5.2,0,0,1,49.87,38Z"/><path class="cls-6" d="M36.81,13.64c-.26.84-.35,1.3-.48,1.65a9.13,9.13,0,0,1-1.11,2.15,1.06,1.06,0,0,0-.28.63,1,1,0,0,0,.14.43,52.91,52.91,0,0,0,5,7.88,26.92,26.92,0,0,1-2.39-5.23C37,19.58,36.3,17.67,36.6,16A16.39,16.39,0,0,0,36.81,13.64Z"/><path class="cls-6" d="M24.45,54.71a5,5,0,0,0,1.48-.52l5.48-2.87a5.23,5.23,0,0,1,3.24-.53,5,5,0,0,1-.89-2.87A20.36,20.36,0,0,1,34,44.71a.59.59,0,0,0-.06-.47.63.63,0,0,0-.46-.2,9.87,9.87,0,0,0-5.39,1,11.55,11.55,0,0,0-1.66,1A22.83,22.83,0,0,1,24,49.7l.14.21A3.12,3.12,0,0,1,24.6,52C24.59,52.19,24.54,53.7,24.45,54.71Z"/><path class="cls-6" d="M24.88,52.17a3.57,3.57,0,0,1,1.89-2.47c1.88-1.23,3.9-2.24,5.85-3.36a3,3,0,0,0,.62-.44,2.29,2.29,0,0,0-.86.11,26.55,26.55,0,0,0-7.86,3.2c-.2.13-.74.37-.67.68,0,.16.26.32.33.48a1.89,1.89,0,0,1,.14.58,23.44,23.44,0,0,1,.19,3A7.39,7.39,0,0,1,24.88,52.17Z"/><path class="cls-6" d="M24.5,54.41c0-.15,0-.29,0-.44C24.5,54.12,24.5,54.26,24.5,54.41Z"/><path class="cls-7" d="M31.37,13.69c.14.37,1.13,4.93,1.24,4.89L34.45,18a3.68,3.68,0,0,1-1.35-1.28A14,14,0,0,1,31.37,13.69Z"/><path class="cls-6" d="M46.32,36.54c1.55-1.62,3.54-2.78,5-4.44a3,3,0,0,0,.75-1.24,1.94,1.94,0,0,0-2.34-2.31,27,27,0,0,0-4.42,1.82c-3.66,2.1-5.57,6.35-9,8.87a40,40,0,0,1-4,2.38,4.26,4.26,0,0,0-1.16.9,1.48,1.48,0,0,0-.32,1.37c.22.66.95,1,1.59,1.2a17.23,17.23,0,0,1,2.17,1c2.25,1.27,4.16,3.12,6.52,4.2a5.17,5.17,0,0,0,2.9.57,2.23,2.23,0,0,0,1.32-.62,3.27,3.27,0,0,0,.41-2.91,35.5,35.5,0,0,1-1.12-7,4.82,4.82,0,0,1,1.6-3.84Z"/><path class="cls-8" d="M50.64,31.54A2.05,2.05,0,0,0,49.51,28l-8.43-1.24a2.06,2.06,0,0,1-1.55-1.13L35.77,18a2.06,2.06,0,0,0-3.69,0L28.3,25.64a2.1,2.1,0,0,1-1.56,1.13L18.31,28a2.06,2.06,0,0,0-1.15,3.51l6.1,6a2.08,2.08,0,0,1,.59,1.82l-1.46,8.4a2.06,2.06,0,0,0,3,2.17l7.54-4a2,2,0,0,1,1.92,0l7.54,4a2.06,2.06,0,0,0,3-2.17l-1.43-8.4a2.08,2.08,0,0,1,.59-1.82Z"/><g class="cls-9"><path class="cls-7" d="M22.73,45.76,22.4,47.7a2.06,2.06,0,0,0,3,2.17l7.55-3.95a2,2,0,0,1,1.92,0l1.29.68a119.07,119.07,0,0,1,7.32-11.43c1.78-2.46,3.66-4.85,5.61-7.18l-8-1.17h0Z"/><path class="cls-7" d="M30.17,21.9,28.3,25.67a2.06,2.06,0,0,1-1.55,1.13l-3,.43-1.11,1c-1.49,1.4-2.95,2.84-4.35,4.34L21,35.24Q29,28.19,37.7,22L35.78,18l0-.06Q32.89,19.84,30.17,21.9Z"/></g><path class="cls-7" d="M22.39,47.7a2.06,2.06,0,0,0,3,2.17l4.55-2.39a23.57,23.57,0,0,0-3.54,1,2.86,2.86,0,0,1-1.54.28,2,2,0,0,1-1.4-1.47,5.5,5.5,0,0,1,0-2.14c.32-2.57.73-5.14,1.22-7.69a.7.7,0,0,0,0-.38.76.76,0,0,0-.35-.36,33.56,33.56,0,0,1-6-5.13,3,3,0,0,1-1-2,2,2,0,0,1,.39-1.06,6,6,0,0,1,.5-.47,2.07,2.07,0,0,0-1,3.48l6.1,6a2.08,2.08,0,0,1,.59,1.82Z"/><path class="cls-6" d="M41.25,50.13a2.9,2.9,0,0,0-.59-.42C40.7,49.9,40.94,50,41.25,50.13Z"/><path class="cls-6" d="M44.9,50.32a5.54,5.54,0,0,1-2.33.06,7.87,7.87,0,0,1-1.32-.25,7.28,7.28,0,0,1,1.11,1.36,17.45,17.45,0,0,1,1.47,2.93,5.22,5.22,0,0,1-.27-2.31A2.23,2.23,0,0,1,44.9,50.32Z"/><path class="cls-6" d="M47.06,49.32a7.23,7.23,0,0,1,1.83.46L48,49.32a7.22,7.22,0,0,1-1.51-.91A2.55,2.55,0,0,1,45.52,47a6.5,6.5,0,0,1-.14,2.94C45.51,49.22,46.54,49.25,47.06,49.32Z"/><path class="cls-7" d="M16.85,30.08c-.13-.08-.15,0-.25.16a1.17,1.17,0,0,1-.55.37q-1.74.63-3.51,1.11l1.54-.27a17.21,17.21,0,0,1,2-.28,2.73,2.73,0,0,1,1.6.26,5.26,5.26,0,0,1-.49-.65C17.13,30.64,17,30.15,16.85,30.08Z"/><path class="cls-7" d="M17.78,28.16l-1-.82c-.28-.24-.55-.47-.84-.69a8.1,8.1,0,0,0-1.29-.79,16.65,16.65,0,0,1,1.74,1.49,3.42,3.42,0,0,1,.62.81,1.37,1.37,0,0,1,.11,1A2.18,2.18,0,0,1,17.78,28.16Z"/><path class="cls-7" d="M22.52,47.31a21.76,21.76,0,0,1-2.32,2c-.49.34-1,.65-1.49,1l2.35-1a2.92,2.92,0,0,1,.86-.25,2.9,2.9,0,0,1,1.75.66c-.11-.07-.19-.65-.24-.78l-.24-.82C23.07,47.72,23,46.86,22.52,47.31Z"/><path class="cls-6" d="M50.13,32.7c.21,0,.45-.25.66-.56A1.58,1.58,0,0,0,50.13,32.7Z"/><path class="cls-6" d="M51.19,31.47c-.08.13-.23.41-.4.67h0c.41-.21,3.47,0,4.54-.23-.89-.07-3.59-1.74-3.61-2.19A3.79,3.79,0,0,1,51.19,31.47Z"/><path class="cls-10" d="M50.38,26.31a8.51,8.51,0,0,1-3.49.25,16.72,16.72,0,0,0-3.39.23q2.85.5,5.72.87a3.33,3.33,0,0,0,.7,0,2.33,2.33,0,0,0,1.5-.84c.15-.18,1.72-1.15,1.32-1.4S50.66,26.19,50.38,26.31Z"/><path class="cls-11" d="M30.28,15a41.44,41.44,0,0,0-2.22,4.54,13.3,13.3,0,0,1-2.8,4.17,8.93,8.93,0,0,0,3.35-3.41c.61-.92,1.21-1.86,1.76-2.82a4.78,4.78,0,0,0,.79-2C31.2,14.79,30.76,14.25,30.28,15Z"/><path class="cls-11" d="M37.75,16l4.42,8.09c-1.07-2.4-2.15-4.81-3.23-7.21a5.65,5.65,0,0,0-.9-1.63C37.41,14.55,37.52,15.56,37.75,16Z"/><path class="cls-12" d="M13.11,28.61a6.28,6.28,0,0,1,3.27,2.54A12,12,0,0,1,18,35a14,14,0,0,1,1.21-3.61,6.42,6.42,0,0,1,2.58-2.73,7.09,7.09,0,0,1-3.07-2.87,11.9,11.9,0,0,1-1.4-4c.15.82-1.15,3.84-1.68,4.62A5.85,5.85,0,0,1,13.11,28.61Z"/><path class="cls-13" d="M11.93,28.82A8,8,0,0,1,16.09,32a14.64,14.64,0,0,1,2.09,4.77,17,17,0,0,1,1.52-4.46A8,8,0,0,1,23,28.89a8.88,8.88,0,0,1-3.9-3.55,14.4,14.4,0,0,1-1.78-5c.19,1-1.47,4.74-2.13,5.72A7.56,7.56,0,0,1,11.93,28.82Z"/><path class="cls-7" d="M16.27,28.46a1.71,1.71,0,0,1,.9.69,3.42,3.42,0,0,1,.45,1.06,3.82,3.82,0,0,1,.32-1,1.77,1.77,0,0,1,.71-.75,2,2,0,0,1-.84-.78,3.35,3.35,0,0,1-.38-1.1A3.62,3.62,0,0,1,17,27.86,1.71,1.71,0,0,1,16.27,28.46Z"/><path class="cls-14" d="M15,28.52a3.48,3.48,0,0,1,1.82,1.41,6.78,6.78,0,0,1,.92,2.16,7.86,7.86,0,0,1,.67-2,3.53,3.53,0,0,1,1.44-1.52A4,4,0,0,1,18.17,27a7,7,0,0,1-.78-2.24,6.94,6.94,0,0,1-.93,2.58A3.32,3.32,0,0,1,15,28.52Z"/><path class="cls-6" d="M45.25,37.22a3.16,3.16,0,0,0-.48.67c-.21.38-.58,3.27-.38,2.83.41-.9,1-1.15,1.43-1.15A8.39,8.39,0,0,1,48,39.7c-.62-.35-1.46-.43-1.9-1a1.83,1.83,0,0,1-.27-2C45.74,36.89,45.4,37.06,45.25,37.22Z"/><path class="cls-15" d="M66.16,28a2.7,2.7,0,0,0,.09-3.78,4.46,4.46,0,0,1-.3,1.44,10.94,10.94,0,0,1-3.34,4.11c-2,1.72-4,3.36-6.18,4.9s-4.27,3-5.44,5.26c-1.61,3.12-.85,6.91.2,10.27S53.53,57,52.88,60.48a1.77,1.77,0,0,1-.72,1.3c-.57.33-1.28,0-1.86-.3L36.71,54.14A8.71,8.71,0,0,0,33.61,53c-2.22-.25-4.23,1.19-6.05,2.48a76.32,76.32,0,0,1-10.22,6.09,5.94,5.94,0,0,1-3,.83A2.48,2.48,0,0,1,13,61.83a2.7,2.7,0,0,0,3.88,1.8l16-8.41a2.71,2.71,0,0,1,2.51,0l16,8.46a2.69,2.69,0,0,0,3.91-2.84L52.39,43a2.69,2.69,0,0,1,.77-2.38Z"/><path class="cls-16" d="M11.64,34.15q-2-1.63-3.92-3.31c-2-1.77-4.4-3.47-5.81-5.8l-.1-.16a2.67,2.67,0,0,0,.57,3l13,12.67a2.7,2.7,0,0,1,.78,1.5,5.47,5.47,0,0,0-.53-3.75A14.55,14.55,0,0,0,11.64,34.15Z"/><path class="cls-16" d="M36.7,3a2.7,2.7,0,0,0-3.53-1.27,5.44,5.44,0,0,1,2.51,2,17.73,17.73,0,0,1,1.78,3.85A51,51,0,0,0,43.11,18.3a6,6,0,0,0,1.1,1.3,3.27,3.27,0,0,0,1.37.68,2.57,2.57,0,0,1-.88-1Z"/><path class="cls-17" d="M3.24,25.56A1.72,1.72,0,0,0,4.77,26a15.72,15.72,0,0,0,2.94-.7q6.75-2.05,13.67-3.46c.21,0,.47-.13.51-.34,0,.18-7.5,1.1-8.2,1.2L5.34,23.91C4.68,24,2.12,24.15,3.24,25.56Z"/><path class="cls-17" d="M32.23,3.84a5.35,5.35,0,0,0-.81,1.46l-5.1,12.28A2.93,2.93,0,0,0,26,18.83c1-1.91,2-3.83,3-5.75.91-1.77,1.82-3.54,2.89-5.22a4.68,4.68,0,0,1,1.29-1.47c.36-.24.78-.38,1.15-.62a1.38,1.38,0,0,0-.57-2.54A1.69,1.69,0,0,0,32.23,3.84Z"/><path class="cls-17" d="M16.52,47.05c-.79,1.49-.78,3.61-1,5.26-.31,2-.59,4-.81,6a4.12,4.12,0,0,0,.12,2,1.46,1.46,0,0,0,1.63,1,1.58,1.58,0,0,0,.89-1.81,12.42,12.42,0,0,0-.77-2.08A9.45,9.45,0,0,1,16.23,54C16.3,51.66,16.48,49.36,16.52,47.05Z"/></g></g></svg>