<svg xmlns="http://www.w3.org/2000/svg" xmlns:xlink="http://www.w3.org/1999/xlink" viewBox="0 0 87.29 83.65"><defs><style>.cls-1{fill:url(#linear-gradient);}.cls-2{fill:#b76615;}.cls-3{fill:url(#linear-gradient-2);}.cls-4{fill:#704621;}.cls-5{fill:url(#linear-gradient-3);}.cls-6{fill:#ff109e;}.cls-7{fill:#d60ba1;}.cls-11,.cls-12,.cls-13,.cls-14,.cls-15,.cls-8{fill:#fff;}.cls-9{fill:url(#linear-gradient-4);}.cls-10{opacity:0.3;}.cls-11{opacity:0.31;}.cls-12{opacity:0.45;}.cls-13{opacity:0.18;}.cls-14{opacity:0.12;}.cls-15{opacity:0.52;}.cls-16,.cls-17{fill:#ef8216;}.cls-16{opacity:0.77;}.cls-17{opacity:0.39;}.cls-18,.cls-22{fill:#fff30b;}.cls-19{fill:url(#linear-gradient-5);}.cls-20{fill:#d37816;}.cls-21{opacity:0.59;}.cls-22{opacity:0.48;}.cls-23{fill:url(#linear-gradient-6);}.cls-24{fill:url(#linear-gradient-7);}.cls-25{fill:url(#linear-gradient-8);}.cls-26{fill:url(#linear-gradient-9);}</style><linearGradient id="linear-gradient" x1="4.68" y1="24.18" x2="78.06" y2="71.06" gradientUnits="userSpaceOnUse"><stop offset="0.02" stop-color="#f4e203"/><stop offset="0.7" stop-color="#f49308"/></linearGradient><linearGradient id="linear-gradient-2" x1="11.64" y1="27.3" x2="66.75" y2="62.51" xlink:href="#linear-gradient"/><linearGradient id="linear-gradient-3" x1="21.38" y1="42.79" x2="65.24" y2="42.79" gradientUnits="userSpaceOnUse"><stop offset="0.1" stop-color="#ff57f7"/><stop offset="0.52" stop-color="#ff4cec"/><stop offset="1" stop-color="#ff39da"/></linearGradient><linearGradient id="linear-gradient-4" x1="25.63" y1="37.14" x2="57.65" y2="50.59" gradientUnits="userSpaceOnUse"><stop offset="0.25" stop-color="#ffabfd"/><stop offset="0.41" stop-color="#ff8af8"/><stop offset="0.73" stop-color="#ff3eed"/></linearGradient><linearGradient id="linear-gradient-5" x1="2.97" y1="31" x2="16.34" y2="39.04" xlink:href="#linear-gradient"/><linearGradient id="linear-gradient-6" x1="40.63" y1="6.05" x2="49.54" y2="11.41" xlink:href="#linear-gradient"/><linearGradient id="linear-gradient-7" x1="18.36" y1="73.94" x2="27.6" y2="79.5" xlink:href="#linear-gradient"/><linearGradient id="linear-gradient-8" x1="61.15" y1="73.34" x2="73.88" y2="81" xlink:href="#linear-gradient"/><linearGradient id="linear-gradient-9" x1="75.67" y1="31.71" x2="86.03" y2="37.94" xlink:href="#linear-gradient"/></defs><g id="Layer_2" data-name="Layer 2"><g id="Layer_1-2" data-name="Layer 1"><path class="cls-1" d="M85.14,38.5a6.82,6.82,0,0,0-3.76-11.65l-20-2.94A3.54,3.54,0,0,1,58.7,22L49.77,3.81A6.77,6.77,0,0,0,43.66,0h0a6.78,6.78,0,0,0-6.12,3.8l-9,18.12a3.57,3.57,0,0,1-2.68,1.94l-20,2.88a6.82,6.82,0,0,0-3.8,11.63L16.52,52.51a3.54,3.54,0,0,1,1,3.15L14.09,75.58A6.82,6.82,0,0,0,24,82.79L41.9,73.41a3.53,3.53,0,0,1,3.3,0l17.89,9.43A6.82,6.82,0,0,0,73,75.67L69.61,55.74a3.58,3.58,0,0,1,1-3.15ZM66.39,56.28l3.39,19.94A3.56,3.56,0,0,1,64.62,80L46.73,70.52a6.82,6.82,0,0,0-6.35,0L22.46,79.9a3.56,3.56,0,0,1-5.15-3.76l3.45-19.93a6.84,6.84,0,0,0-2-6L4.35,36a3.55,3.55,0,0,1,2-6.06l20-2.87a6.84,6.84,0,0,0,5.15-3.73l9-18.12a3.48,3.48,0,0,1,3.18-2h0a3.51,3.51,0,0,1,3.19,2l8.92,18.15a6.84,6.84,0,0,0,5.13,3.74l20,2.94a3.55,3.55,0,0,1,2,6.06l-14.5,14.1A6.8,6.8,0,0,0,66.39,56.28Z"/><path class="cls-2" d="M6.32,30l20-2.87a6.84,6.84,0,0,0,5.15-3.73l9-18.12A3.47,3.47,0,0,1,42.38,3.5a3.27,3.27,0,0,0-.54,0h0a3.51,3.51,0,0,0-3.19,2l-9,18.13a6.85,6.85,0,0,1-5.15,3.72l-20,2.88a3.56,3.56,0,0,0-2,6.06L17,50.36a6.82,6.82,0,0,1,2,6L15.5,76.33a3.55,3.55,0,0,0,4.74,3.93,3.57,3.57,0,0,1-2.93-4.12l3.45-19.93a6.84,6.84,0,0,0-2-6L4.35,36a3.55,3.55,0,0,1,2-6.06Z"/><path class="cls-2" d="M65.72,80.33a3.41,3.41,0,0,1-1.1-.37L46.73,70.52a6.89,6.89,0,0,0-4.79-.6,6.9,6.9,0,0,1,3,.79L62.8,80.15A3.48,3.48,0,0,0,65.72,80.33Z"/><path class="cls-2" d="M41.9,73.41a2.59,2.59,0,0,1,.38-.17,3.53,3.53,0,0,0-2.2.36L22.17,83a6.79,6.79,0,0,1-1.59.59,6.71,6.71,0,0,0,3.4-.78Z"/><path class="cls-2" d="M85.14,38.5a6.82,6.82,0,0,0-3.76-11.65l-20-2.94A3.54,3.54,0,0,1,58.7,22L49.77,3.81A6.77,6.77,0,0,0,43.66,0h0A7.16,7.16,0,0,0,42,.19,6.78,6.78,0,0,1,48,4l8.92,18.15a3.57,3.57,0,0,0,2.68,2l20,2.94a6.82,6.82,0,0,1,3.76,11.64l-14.5,14.1a3.56,3.56,0,0,0-1,3.14l3.39,19.94a6.78,6.78,0,0,1-2.73,6.67,6.56,6.56,0,0,1-2.4,1.11h.22a6.84,6.84,0,0,0,6.72-8L69.61,55.74a3.58,3.58,0,0,1,1-3.15Z"/><path class="cls-2" d="M77,36.82A2.82,2.82,0,0,0,75.46,32L56.68,29.24a2.82,2.82,0,0,1-2.13-1.54l-8.37-17a2.83,2.83,0,0,0-5.07,0l-8.43,17a2.78,2.78,0,0,1-2.12,1.54l-18.8,2.71a2.82,2.82,0,0,0-1.57,4.81L23.77,50a2.87,2.87,0,0,1,.81,2.5L21.34,71.2a2.82,2.82,0,0,0,4.09,3l16.82-8.81a2.81,2.81,0,0,1,2.63,0l16.79,8.86a2.82,2.82,0,0,0,4.1-3L62.59,52.55a2.83,2.83,0,0,1,.81-2.5Z"/><path class="cls-3" d="M75.5,37.05A2.7,2.7,0,0,0,74,32.45L56.08,29.82a2.71,2.71,0,0,1-2-1.48l-8-16.26a2.69,2.69,0,0,0-4.83,0l-8,16.24a2.7,2.7,0,0,1-2,1.47L13.21,32.36A2.69,2.69,0,0,0,11.71,37l13,12.67A2.68,2.68,0,0,1,25.44,52L22.35,69.86a2.7,2.7,0,0,0,3.91,2.85L42.31,64.3a2.71,2.71,0,0,1,2.51,0l16,8.46a2.69,2.69,0,0,0,3.91-2.83l-3-17.87a2.71,2.71,0,0,1,.78-2.38Z"/><path class="cls-4" d="M64.46,42.79a5.4,5.4,0,0,0-3-9.22l-6.34-.93a5.4,5.4,0,0,1-4.06-3l-2.83-5.75a5.4,5.4,0,0,0-9.69,0l-2.84,5.75a5.39,5.39,0,0,1-4.07,2.94l-6.35.92a5.39,5.39,0,0,0-3,9.2l4.58,4.48A5.42,5.42,0,0,1,28.43,52l-1.1,6.32A5.4,5.4,0,0,0,35.16,64l5.68-3a5.4,5.4,0,0,1,5,0l5.67,3a5.4,5.4,0,0,0,7.85-5.68L58.3,52a5.41,5.41,0,0,1,1.56-4.78Z"/><path class="cls-5" d="M63.65,42.79a5.21,5.21,0,0,0-2.87-8.9L54.65,33a5.23,5.23,0,0,1-3.92-2.86L48,24.58a5.21,5.21,0,0,0-9.35,0l-2.74,5.54A5.22,5.22,0,0,1,32,33l-6.13.88A5.21,5.21,0,0,0,23,42.72l4.43,4.33a5.25,5.25,0,0,1,1.49,4.62l-1.06,6.09a5.22,5.22,0,0,0,7.56,5.51l5.48-2.87a5.17,5.17,0,0,1,4.85,0l5.47,2.88a5.21,5.21,0,0,0,7.57-5.48l-1-6.1a5.2,5.2,0,0,1,1.5-4.61Z"/><path class="cls-6" d="M43.11,30.46a25.57,25.57,0,0,0-1,6.12,49.72,49.72,0,0,1-5.68,17.53,21.43,21.43,0,0,1-3.95,5.68A10.19,10.19,0,0,1,29,62a5.2,5.2,0,0,0,6.39,1.23l5.48-2.87a5.17,5.17,0,0,1,4.85,0l5.47,2.88a5.21,5.21,0,0,0,7.57-5.48l-1-6.1a5.2,5.2,0,0,1,1.5-4.61l4.44-4.31a5.21,5.21,0,0,0-2.87-8.9L54.65,33a5.23,5.23,0,0,1-3.92-2.86L48,24.58a5.13,5.13,0,0,0-1.86-2.09,7.11,7.11,0,0,1-.59,3C44.85,27.23,43.74,28.73,43.11,30.46Z"/><path class="cls-7" d="M46.15,22.72c-.27.84-.35,1.3-.48,1.65a9.06,9.06,0,0,1-1.11,2.14,1.09,1.09,0,0,0-.28.64,1,1,0,0,0,.14.43,52.91,52.91,0,0,0,5,7.88A27.56,27.56,0,0,1,47,30.23c-.65-1.57-1.37-3.48-1.07-5.15A16.39,16.39,0,0,0,46.15,22.72Z"/><path class="cls-7" d="M43.32,53.32a.63.63,0,0,0-.46-.2,9.92,9.92,0,0,0-5.4,1,11.19,11.19,0,0,0-1.66,1,22.13,22.13,0,0,1-2.45,3.67l.14.21a3.12,3.12,0,0,1,.45,2c0,.22-.06,1.73-.15,2.75a5.82,5.82,0,0,0,1.48-.52l5.48-2.87A5.21,5.21,0,0,1,44,59.87,5.18,5.18,0,0,1,43.09,57a20.38,20.38,0,0,1,.29-3.21A.63.63,0,0,0,43.32,53.32Z"/><path class="cls-7" d="M34.22,61.24a4.64,4.64,0,0,1,.58-1.33,4.71,4.71,0,0,1,1.3-1.13C38,57.55,40,56.54,42,55.42a2.71,2.71,0,0,0,.61-.44,2.08,2.08,0,0,0-.85.11,26.8,26.8,0,0,0-7.86,3.19c-.21.14-.74.38-.67.68s.25.32.33.49a2.26,2.26,0,0,1,.14.57,22,22,0,0,1,.18,3A8.11,8.11,0,0,1,34.22,61.24Z"/><path class="cls-7" d="M33.84,63.49v-.44C33.84,63.2,33.83,63.34,33.84,63.49Z"/><path class="cls-8" d="M43.78,27.05a3.65,3.65,0,0,1-1.34-1.28,14,14,0,0,1-1.73-3c.14.37,1.12,4.93,1.24,4.89Z"/><path class="cls-7" d="M55.66,45.62c1.55-1.62,3.54-2.78,5-4.45a2.87,2.87,0,0,0,.75-1.23,1.93,1.93,0,0,0-2.33-2.31,26.67,26.67,0,0,0-4.42,1.82c-3.66,2.1-5.57,6.35-9,8.87a40,40,0,0,1-4,2.38,3.94,3.94,0,0,0-1.16.9A1.48,1.48,0,0,0,40.27,53c.22.65.95,1,1.59,1.2a18.53,18.53,0,0,1,2.16,1c2.26,1.28,4.17,3.13,6.52,4.21a5.21,5.21,0,0,0,2.91.57,2.23,2.23,0,0,0,1.32-.62,3.31,3.31,0,0,0,.41-2.91,35.5,35.5,0,0,1-1.12-7,4.82,4.82,0,0,1,1.6-3.84Z"/><path class="cls-9" d="M60,40.62a2.05,2.05,0,0,0-1.13-3.51l-8.43-1.24a2.06,2.06,0,0,1-1.55-1.13l-3.76-7.65a2.06,2.06,0,0,0-3.69,0l-3.79,7.63a2.06,2.06,0,0,1-1.55,1.13l-8.43,1.21a2.06,2.06,0,0,0-1.15,3.51l6.09,6a2,2,0,0,1,.59,1.82l-1.45,8.4a2.06,2.06,0,0,0,3,2.17l7.55-4a2,2,0,0,1,1.92,0l7.53,4a2.06,2.06,0,0,0,3-2.17l-1.42-8.4a2,2,0,0,1,.59-1.82Z"/><g class="cls-10"><path class="cls-8" d="M34.72,59l7.55-4a2,2,0,0,1,1.91,0l1.3.68A114.81,114.81,0,0,1,52.8,44.25c1.78-2.46,3.66-4.85,5.61-7.18l-8-1.17h0l-18.33,19-.34,1.93A2.06,2.06,0,0,0,34.72,59Z"/><path class="cls-8" d="M45.11,27.12l0-.06c-1.9,1.24-3.76,2.55-5.57,3.91l-1.87,3.78a2.06,2.06,0,0,1-1.55,1.13l-3,.43c-.37.34-.74.67-1.11,1-1.5,1.39-2.95,2.84-4.35,4.33l2.71,2.66A212,212,0,0,1,47,31Z"/></g><path class="cls-8" d="M27.47,37.12a2.06,2.06,0,0,0-1,3.48l6.09,5.95a2,2,0,0,1,.59,1.83l-1.45,8.39a2.06,2.06,0,0,0,3,2.18l4.56-2.39a22.44,22.44,0,0,0-3.54,1,2.86,2.86,0,0,1-1.54.28,1.94,1.94,0,0,1-1.4-1.48,5.45,5.45,0,0,1,0-2.13q.48-3.87,1.22-7.69a.82.82,0,0,0,0-.38.76.76,0,0,0-.35-.36,33.56,33.56,0,0,1-6-5.13,3,3,0,0,1-1-2A2,2,0,0,1,27,37.59C27.09,37.45,27.3,37.29,27.47,37.12Z"/><path class="cls-7" d="M50.59,59.21a3.21,3.21,0,0,0-.59-.42C50,59,50.28,59.11,50.59,59.21Z"/><path class="cls-7" d="M54.23,59.4a5.49,5.49,0,0,1-2.32.06,9.05,9.05,0,0,1-1.32-.25,7,7,0,0,1,1.11,1.36,17.45,17.45,0,0,1,1.47,2.93,5.08,5.08,0,0,1-.27-2.31A2.24,2.24,0,0,1,54.23,59.4Z"/><path class="cls-7" d="M56.39,58.4a7.3,7.3,0,0,1,1.84.46l-.93-.46a7.67,7.67,0,0,1-1.51-.91A2.55,2.55,0,0,1,54.86,56,6.64,6.64,0,0,1,54.72,59C54.85,58.3,55.87,58.33,56.39,58.4Z"/><path class="cls-8" d="M27,40.51a6.42,6.42,0,0,1-.48-.65c-.08-.14-.24-.64-.36-.71s-.15.05-.25.17a1.22,1.22,0,0,1-.55.37c-1.16.42-2.33.78-3.51,1.1l1.54-.27c.67-.11,1.34-.23,2-.28A2.76,2.76,0,0,1,27,40.51Z"/><path class="cls-8" d="M27.12,37.24l-1-.82c-.27-.24-.54-.47-.83-.69a8.19,8.19,0,0,0-1.3-.79,16.59,16.59,0,0,1,1.75,1.49,3.14,3.14,0,0,1,.61.81,1.32,1.32,0,0,1,.11,1A2.28,2.28,0,0,1,27.12,37.24Z"/><path class="cls-8" d="M33,58.78c-.11-.07-.2-.65-.24-.78l-.24-.82c-.12-.39-.17-1.24-.67-.79a21.76,21.76,0,0,1-2.32,2c-.49.33-1,.65-1.49,1l2.35-1a2.92,2.92,0,0,1,.86-.25A2.92,2.92,0,0,1,33,58.78Z"/><path class="cls-7" d="M64.69,41c-.9-.07-3.59-1.74-3.61-2.19a3.8,3.8,0,0,1-.56,1.76c-.07.13-.22.41-.39.67h0C60.56,41,63.62,41.21,64.69,41Z"/><path class="cls-7" d="M60.13,41.22a1.48,1.48,0,0,0-.67.56C59.67,41.81,59.92,41.53,60.13,41.22Z"/><path class="cls-11" d="M59.26,36.78a2.29,2.29,0,0,0,1.49-.84c.16-.18,1.72-1.16,1.33-1.4s-2.08.73-2.36.85a8.55,8.55,0,0,1-3.5.24,17.43,17.43,0,0,0-3.38.24q2.85.5,5.72.87A3.29,3.29,0,0,0,59.26,36.78Z"/><path class="cls-12" d="M39.71,26.57a4.81,4.81,0,0,0,.78-2c0-.68-.39-1.22-.87-.46a41.44,41.44,0,0,0-2.22,4.54,13.3,13.3,0,0,1-2.8,4.17A8.93,8.93,0,0,0,38,29.39C38.56,28.47,39.16,27.53,39.71,26.57Z"/><path class="cls-12" d="M48.28,25.94a5.76,5.76,0,0,0-.9-1.63c-.64-.68-.52.32-.29.75l4.42,8.09C50.43,30.75,49.36,28.34,48.28,25.94Z"/><path class="cls-13" d="M22.45,37.69a6.36,6.36,0,0,1,3.27,2.54,12,12,0,0,1,1.64,3.86,14.32,14.32,0,0,1,1.2-3.61,6.38,6.38,0,0,1,2.59-2.73,7,7,0,0,1-3.07-2.87,11.88,11.88,0,0,1-1.4-4c.15.83-1.16,3.84-1.68,4.63A6,6,0,0,1,22.45,37.69Z"/><path class="cls-14" d="M21.27,37.9A7.93,7.93,0,0,1,25.43,41a14.83,14.83,0,0,1,2.08,4.77A17.43,17.43,0,0,1,29,41.34,8,8,0,0,1,32.33,38a9,9,0,0,1-3.91-3.55,14.9,14.9,0,0,1-1.78-5c.19,1-1.46,4.74-2.13,5.72A7.53,7.53,0,0,1,21.27,37.9Z"/><path class="cls-8" d="M25.61,37.54a1.65,1.65,0,0,1,.89.69A3.12,3.12,0,0,1,27,39.29a4.27,4.27,0,0,1,.33-1,1.72,1.72,0,0,1,.71-.75,2,2,0,0,1-.84-.78,3.35,3.35,0,0,1-.38-1.1,3.51,3.51,0,0,1-.46,1.26A1.72,1.72,0,0,1,25.61,37.54Z"/><path class="cls-15" d="M24.37,37.6A3.49,3.49,0,0,1,26.2,39a6.8,6.8,0,0,1,.91,2.15,7.92,7.92,0,0,1,.67-2,3.55,3.55,0,0,1,1.45-1.52A4,4,0,0,1,27.51,36a6.87,6.87,0,0,1-.78-2.24,6.94,6.94,0,0,1-.93,2.58A3.34,3.34,0,0,1,24.37,37.6Z"/><path class="cls-7" d="M54.59,46.3a3.6,3.6,0,0,0-.49.67c-.2.38-.57,3.27-.37,2.83.41-.9,1-1.15,1.43-1.15a8.87,8.87,0,0,1,2.19.12c-.62-.34-1.46-.43-1.9-1a1.83,1.83,0,0,1-.27-2C55.08,46,54.74,46.14,54.59,46.3Z"/><path class="cls-16" d="M61.5,70.86a2,2,0,0,1-1.86-.3q-6.8-3.68-13.6-7.34A8.64,8.64,0,0,0,42.94,62c-2.21-.25-4.22,1.19-6,2.48A76.32,76.32,0,0,1,26.68,70.6a5.94,5.94,0,0,1-3,.83,2.45,2.45,0,0,1-1.29-.52,2.7,2.7,0,0,0,3.88,1.8L42.31,64.3a2.71,2.71,0,0,1,2.51,0l16,8.46a2.69,2.69,0,0,0,3.91-2.84l-3-17.86a2.72,2.72,0,0,1,.78-2.39L75.5,37a2.69,2.69,0,0,0,.09-3.77,5.06,5.06,0,0,1-.3,1.44A10.83,10.83,0,0,1,72,38.81q-3,2.59-6.18,4.91c-2.06,1.49-4.27,3-5.44,5.25-1.61,3.13-.85,6.92.19,10.28s2.35,6.85,1.7,10.31A1.8,1.8,0,0,1,61.5,70.86Z"/><path class="cls-17" d="M25.45,51.17a5.46,5.46,0,0,0-.53-3.75A14.55,14.55,0,0,0,21,43.23c-1.32-1.09-2.63-2.2-3.92-3.31-2-1.78-4.4-3.47-5.82-5.81l-.1-.15a2.68,2.68,0,0,0,.57,3l13,12.67A2.7,2.7,0,0,1,25.45,51.17Z"/><path class="cls-17" d="M46.8,16.67a51,51,0,0,0,5.65,10.71,6,6,0,0,0,1.1,1.3,3.27,3.27,0,0,0,1.37.68,2.64,2.64,0,0,1-.88-1L46,12.08a2.69,2.69,0,0,0-3.53-1.27,5.49,5.49,0,0,1,2.51,2A17.51,17.51,0,0,1,46.8,16.67Z"/><path class="cls-18" d="M14.11,35.05a15.88,15.88,0,0,0,2.94-.69q6.75-2.05,13.67-3.46c.21,0,.47-.13.51-.34,0,.18-7.5,1.1-8.2,1.2L14.68,33c-.66.1-3.23.25-2.1,1.66A1.69,1.69,0,0,0,14.11,35.05Z"/><path class="cls-18" d="M42.47,15.47c.37-.24.79-.38,1.16-.62a1.38,1.38,0,0,0-.57-2.54,1.68,1.68,0,0,0-1.49.61,5,5,0,0,0-.81,1.46q-2.55,6.13-5.11,12.28a3.07,3.07,0,0,0-.31,1.25c1-1.91,2-3.83,3-5.75s1.82-3.54,2.89-5.22A4.44,4.44,0,0,1,42.47,15.47Z"/><path class="cls-18" d="M25.86,56.13c-.79,1.49-.78,3.61-1,5.26-.3,2-.58,4-.8,6a4.14,4.14,0,0,0,.12,2,1.46,1.46,0,0,0,1.63,1,1.59,1.59,0,0,0,.88-1.82,12.59,12.59,0,0,0-.76-2.07A9.45,9.45,0,0,1,25.57,63C25.64,60.74,25.82,58.43,25.86,56.13Z"/><path class="cls-19" d="M1.69,31.26a5.27,5.27,0,0,0-1.42.47,5.63,5.63,0,0,0,1,1.13,11.94,11.94,0,0,0,5.1,3.62,2.56,2.56,0,0,0-.59,2.12A12.76,12.76,0,0,0,11,38.25a10,10,0,0,0,3.42-1.39,2.31,2.31,0,0,0,.9-1,2.32,2.32,0,0,0-.24-1.37,10.31,10.31,0,0,0-2.26-2.93,12.92,12.92,0,0,0-4.34-2.94,2.53,2.53,0,0,0-.57,2.13A11.79,11.79,0,0,0,1.69,31.26Z"/><path class="cls-20" d="M6.48,36.56a46.69,46.69,0,0,1,8.68-.67,12.09,12.09,0,0,1-2.56-.56c-.87-.19-1.75-.38-2.62-.59-1.56-.37-3.12-.77-4.67-1.23S2.44,32.41,1,32.06c-.19,0-.53-.33-.7-.33.14.4.72.83,1,1.13a11.91,11.91,0,0,0,5.09,3.62l-.1.13Z"/><path class="cls-20" d="M11,38.25a10,10,0,0,0,3.42-1.39,2.33,2.33,0,0,0,.9-1c-.25.1-.49.24-.72.36-2.52,1.48-5.51,1.86-8.41,2.21a2.23,2.23,0,0,1-.45,0l0,.18A12.72,12.72,0,0,0,11,38.25Z"/><g class="cls-21"><path class="cls-20" d="M15.21,36l.09-.19a2.36,2.36,0,0,0-.25-1.36,10.17,10.17,0,0,0-2.25-2.93,13,13,0,0,0-4.35-3,.1.1,0,0,1,0,.05,14.53,14.53,0,0,1,4,3.16A10.84,10.84,0,0,1,15.21,36Z"/><path class="cls-20" d="M5.58,31.11a11.77,11.77,0,0,1,1.86.37q.46.14.93.3a3.07,3.07,0,0,1,.85.36l-.8-.79a3.28,3.28,0,0,1-.54-.64v0a11.84,11.84,0,0,0-6.21.56l-.48.13c.34,0,.74-.18,1-.22A12.42,12.42,0,0,1,5.58,31.11Z"/></g><path class="cls-2" d="M.27,31.73a40.11,40.11,0,0,0,6.26,2.85c2.19.6,8.07,1.26,8.17,1.27Z"/><path class="cls-12" d="M2.64,32a35,35,0,0,1,4.58.31,22.32,22.32,0,0,1,5.43,2,8.5,8.5,0,0,1-1-.75A11.47,11.47,0,0,0,10.61,33a12.62,12.62,0,0,0-4.27-1.4,12.82,12.82,0,0,0-2.23-.11c-.39,0-.77,0-1.15.1-.1,0-.94.17-.55.44A.37.37,0,0,0,2.64,32Z"/><path class="cls-12" d="M9.92,31.79c.44.25.91.45,1.33.74a4.91,4.91,0,0,1-1.85-2.6,1.47,1.47,0,0,0-.24-.54c-.36-.37-.56.05-.62.36a1.57,1.57,0,0,0,.23,1.07A2.94,2.94,0,0,0,9.92,31.79Z"/><path class="cls-2" d="M14,36.76a10.43,10.43,0,0,1-3.42,1.39,13.36,13.36,0,0,1-4.78.41.15.15,0,0,0,0,.07A13.07,13.07,0,0,0,11,38.28a10.2,10.2,0,0,0,3.43-1.4,2.32,2.32,0,0,0,.9-1.05,2.29,2.29,0,0,0-.25-1.36,10,10,0,0,0-2.25-2.93A12.72,12.72,0,0,0,8.47,28.6l0,0a13.49,13.49,0,0,1,3.92,2.77,10.13,10.13,0,0,1,2.25,2.93,2.31,2.31,0,0,1,.25,1.36A2.28,2.28,0,0,1,14,36.76Z"/><path class="cls-22" d="M8.62,37.2a6.92,6.92,0,0,1,2.5-.73,13.66,13.66,0,0,0-3.84.39c-.33.09-1,.36-.87.82S8.26,37.34,8.62,37.2Z"/><path class="cls-23" d="M42.45,15a2.3,2.3,0,0,0,1.25.59A2.33,2.33,0,0,0,45,15a10.27,10.27,0,0,0,2.24-2.94,12.87,12.87,0,0,0,1.7-5,2.5,2.5,0,0,0-2.2,0,11.91,11.91,0,0,0-2.16-5.87A5.26,5.26,0,0,0,43.7,0a5.26,5.26,0,0,0-.83,1.24A11.82,11.82,0,0,0,40.7,7.11a2.5,2.5,0,0,0-2.2,0,12.89,12.89,0,0,0,1.71,5A10.09,10.09,0,0,0,42.45,15Z"/><path class="cls-20" d="M46.74,7.25A2.12,2.12,0,0,1,46.85,7l-.16.07a11.94,11.94,0,0,0-2.16-5.87c-.22-.33-.48-1-.83-1.24-.05.16.14.56.13.76,0,1.5.24,3.06.27,4.57s0,3.22,0,4.83C44,11.05,44,12,44,12.84a11.91,11.91,0,0,1-.13,2.61A47.33,47.33,0,0,1,46.74,7.25Z"/><path class="cls-20" d="M47.19,12.06a12.88,12.88,0,0,0,1.7-5L48.73,7a3.59,3.59,0,0,1-.14.43c-1.1,2.7-2.25,5.49-4.33,7.54a6.1,6.1,0,0,0-.54.59A2.39,2.39,0,0,0,45,15,10.27,10.27,0,0,0,47.19,12.06Z"/><g class="cls-21"><path class="cls-20" d="M42.45,15a2.3,2.3,0,0,0,1.25.59.76.76,0,0,0,.21,0,10.77,10.77,0,0,1-3.33-3.84,14.46,14.46,0,0,1-2-4.65l-.06,0a12.89,12.89,0,0,0,1.71,5A10.09,10.09,0,0,0,42.45,15Z"/><path class="cls-20" d="M42.65,1.7c.1-.25.35-.59.47-.92-.08.15-.16.29-.25.43a11.87,11.87,0,0,0-2.16,5.85v0a3,3,0,0,1,.48.68c.19.33.37.66.56,1a2.81,2.81,0,0,1-.13-.92c0-.32,0-.64-.05-1A13.34,13.34,0,0,1,41.71,5,12,12,0,0,1,42.65,1.7Z"/></g><path class="cls-2" d="M43.7,0s.2,15.09.21,15,.91-5.94.91-8.22A40.08,40.08,0,0,0,43.7,0Z"/><path class="cls-12" d="M43.37,2.36a.45.45,0,0,0,0-.23c-.16-.45-.53.32-.57.41-.15.36-.28.72-.4,1.08a12.56,12.56,0,0,0-.47,2.19,12.74,12.74,0,0,0,.23,4.48,11.66,11.66,0,0,0,.35,1.19A11,11,0,0,1,43,12.63a22.43,22.43,0,0,1-.51-5.77A35.13,35.13,0,0,1,43.37,2.36Z"/><path class="cls-12" d="M39.57,8.34a4.9,4.9,0,0,1,2,2.46,14.52,14.52,0,0,1-.36-1.48A3,3,0,0,0,40.59,8a1.52,1.52,0,0,0-1-.49c-.31,0-.76.06-.5.49A1.29,1.29,0,0,0,39.57,8.34Z"/><path class="cls-2" d="M42.47,15a2.33,2.33,0,0,0,1.25.59A2.33,2.33,0,0,0,45,15a10.24,10.24,0,0,0,2.23-2.94,12.72,12.72,0,0,0,1.71-5l-.06,0a13.28,13.28,0,0,1-1.65,4.5A10,10,0,0,1,45,14.51a2.35,2.35,0,0,1-1.26.6,2.35,2.35,0,0,1-1.25-.6,10,10,0,0,1-2.23-2.94,13.28,13.28,0,0,1-1.65-4.5l-.06,0a12.72,12.72,0,0,0,1.71,5A10.24,10.24,0,0,0,42.47,15Z"/><path class="cls-22" d="M47.84,7.48c-.41-.26-.85.33-1,.62a13.55,13.55,0,0,0-1.38,3.6,7.15,7.15,0,0,1,1.35-2.22C47,9.18,48.38,7.81,47.84,7.48Z"/><path class="cls-24" d="M17.62,82.59A5.43,5.43,0,0,0,19,82a12,12,0,0,0,4.9-3.88,2.53,2.53,0,0,0,1.87,1.15,12.81,12.81,0,0,0,1.13-5.13,10.27,10.27,0,0,0-.39-3.67,2.3,2.3,0,0,0-.76-1.16,2.27,2.27,0,0,0-1.38-.14,10.33,10.33,0,0,0-3.44,1.34,13.06,13.06,0,0,0-4,3.36A2.53,2.53,0,0,0,18.75,75a12,12,0,0,0-1.2,6.14A5.55,5.55,0,0,0,17.62,82.59Z"/><path class="cls-20" d="M23.87,78.07l.1.14c0-.08,0-.16,0-.24a48,48,0,0,1,1.77-8.52,12.48,12.48,0,0,1-1.24,2.3c-.43.79-.86,1.57-1.3,2.35-.79,1.4-1.61,2.79-2.48,4.14S18.86,80.7,18.12,82c-.09.17-.46.42-.5.58A4.62,4.62,0,0,0,19,82,11.85,11.85,0,0,0,23.87,78.07Z"/><path class="cls-20" d="M25.57,79.2l.17,0a12.81,12.81,0,0,0,1.13-5.13,10,10,0,0,0-.39-3.67,2.3,2.3,0,0,0-.74-1.15,6.5,6.5,0,0,0,.15.79c.72,2.83.25,5.81-.22,8.69C25.64,78.91,25.61,79.06,25.57,79.2Z"/><g class="cls-21"><path class="cls-20" d="M21,71a10.82,10.82,0,0,1,4.85-1.55,1.07,1.07,0,0,0-.16-.14,2.37,2.37,0,0,0-1.38-.14,10.07,10.07,0,0,0-3.44,1.35,12.78,12.78,0,0,0-4,3.35l0,.05A14.39,14.39,0,0,1,21,71Z"/><path class="cls-20" d="M17.6,80.59a12.46,12.46,0,0,1,.89-3.28,13.42,13.42,0,0,1,.88-1.68c.17-.27.36-.54.55-.8s.36-.6.58-.72l-1,.55a3.29,3.29,0,0,1-.77.34h0a11.76,11.76,0,0,0-1.19,6.12c0,.17,0,.33,0,.5C17.6,81.28,17.56,80.85,17.6,80.59Z"/></g><path class="cls-2" d="M25.59,69.89c0-.09-8,12.7-8,12.7a40.38,40.38,0,0,0,4.48-5.22C23.28,75.43,25.55,70,25.59,69.89Z"/><path class="cls-12" d="M18.45,80.6a.4.4,0,0,0,.11-.2,34.15,34.15,0,0,1,1.58-4.31,22.29,22.29,0,0,1,3.43-4.67,8,8,0,0,1-1,.74c-.32.27-.63.55-.92.84a12.92,12.92,0,0,0-2.53,3.71,12.06,12.06,0,0,0-.73,2.12c-.09.37-.16.75-.22,1.12C18.17,80.05,18.08,80.9,18.45,80.6Z"/><path class="cls-12" d="M19.1,74.17a3,3,0,0,0,1.26-.83c.36-.36.68-.75,1.08-1.08a4.86,4.86,0,0,1-3,1.06,1.3,1.3,0,0,0-.59.08c-.45.24-.11.55.17.69A1.53,1.53,0,0,0,19.1,74.17Z"/><path class="cls-2" d="M25.7,79.23h.06a12.76,12.76,0,0,0,1.13-5.12,10.08,10.08,0,0,0-.39-3.68,2.3,2.3,0,0,0-.76-1.16,2.33,2.33,0,0,0-1.37-.14,10.07,10.07,0,0,0-3.44,1.35,12.78,12.78,0,0,0-4,3.35l0,0a13.52,13.52,0,0,1,3.75-3,10.12,10.12,0,0,1,3.44-1.34,2.27,2.27,0,0,1,1.38.14,2.22,2.22,0,0,1,.76,1.16,10,10,0,0,1,.39,3.67A13.39,13.39,0,0,1,25.7,79.23Z"/><path class="cls-22" d="M24.49,77.29c0,.34.06,1.07.55,1.07s.19-1.88.15-2.27a7.27,7.27,0,0,1,0-2.59A13.69,13.69,0,0,0,24.49,77.29Z"/><path class="cls-25" d="M70.42,73.7a12.91,12.91,0,0,0-4.23-3.1,10.21,10.21,0,0,0-3.52-1.14,1.61,1.61,0,0,0-2.05,1.43,10,10,0,0,0-.16,3.69,12.84,12.84,0,0,0,1.43,5,2.5,2.5,0,0,0,1.8-1.26A11.89,11.89,0,0,0,68.81,82a5.38,5.38,0,0,0,1.39.54,5.37,5.37,0,0,0,0-1.49,11.81,11.81,0,0,0-1.56-6A2.51,2.51,0,0,0,70.42,73.7Z"/><path class="cls-20" d="M68.56,74.8a47.37,47.37,0,0,1-7.08-5.07,12.42,12.42,0,0,1,1.6,2.07c.55.71,1.09,1.42,1.63,2.14,1,1.29,1.89,2.6,2.78,4s1.49,2.7,2.39,3.9c.11.16.19.6.32.7a4.39,4.39,0,0,0,0-1.49,11.79,11.79,0,0,0-1.57-6l.17,0Z"/><path class="cls-20" d="M70.32,73.85l.1-.15a12.91,12.91,0,0,0-4.23-3.1,10.21,10.21,0,0,0-3.52-1.14,2.38,2.38,0,0,0-1.34.21,4.2,4.2,0,0,0,.78.18C65,70.35,67.52,72,70,73.58A3.07,3.07,0,0,1,70.32,73.85Z"/><g class="cls-21"><path class="cls-20" d="M61.32,69.71a2.35,2.35,0,0,0-.69,1.21,10.26,10.26,0,0,0-.16,3.69,12.89,12.89,0,0,0,1.43,5l.06,0a14.41,14.41,0,0,1-1-5,10.79,10.79,0,0,1,.54-5.06Z"/><path class="cls-20" d="M63.71,78.4A11.92,11.92,0,0,0,68.83,82c.15.06.3.14.45.21-.28-.2-.68-.34-.91-.48a12.37,12.37,0,0,1-2.64-2.15,13,13,0,0,1-1.18-1.48c-.18-.27-.35-.54-.51-.82a2.83,2.83,0,0,1-.42-.83c0,.38.07.75.1,1.13a2.89,2.89,0,0,1,0,.83Z"/></g><path class="cls-2" d="M67.25,76.28c-1.3-1.86-5.37-6.15-5.43-6.22S70.2,82.49,70.2,82.49A40.9,40.9,0,0,0,67.25,76.28Z"/><path class="cls-12" d="M65.44,78.73a12.41,12.41,0,0,0,1.64,1.52,10,10,0,0,0,.94.66c.09,0,.83.48.7,0a.38.38,0,0,0-.14-.19,35.4,35.4,0,0,1-3.3-3.18,22.17,22.17,0,0,1-2.88-5,8.91,8.91,0,0,1,.28,1.21c.11.39.24.79.39,1.17A12.61,12.61,0,0,0,65.44,78.73Z"/><path class="cls-12" d="M61.9,78.57c0,.51.45.32.69.12a1.53,1.53,0,0,0,.52-1,3.05,3.05,0,0,0-.25-1.49c-.18-.47-.41-.93-.55-1.42A5,5,0,0,1,62.06,78,1.17,1.17,0,0,0,61.9,78.57Z"/><path class="cls-2" d="M61.6,70.07A2.31,2.31,0,0,1,63,69.85,10.07,10.07,0,0,1,66.48,71a13.53,13.53,0,0,1,3.93,2.76l0,0a12.81,12.81,0,0,0-4.23-3.1,10.15,10.15,0,0,0-3.52-1.14,2.28,2.28,0,0,0-1.36.22,2.32,2.32,0,0,0-.69,1.21,10,10,0,0,0-.16,3.69,12.89,12.89,0,0,0,1.43,5.05l.06,0A13.37,13.37,0,0,1,60.75,75a10.26,10.26,0,0,1,.16-3.69A2.35,2.35,0,0,1,61.6,70.07Z"/><path class="cls-22" d="M69.34,74c.25-.58-1.64-.93-2-1a7.07,7.07,0,0,1-2.38-1,13.63,13.63,0,0,0,3.19,2.17C68.45,74.2,69.14,74.44,69.34,74Z"/><path class="cls-26" d="M79.2,28.62a13,13,0,0,0-4.44,2.79,10.27,10.27,0,0,0-2.35,2.85,2.33,2.33,0,0,0-.3,1.36A2.31,2.31,0,0,0,73,36.7a10.06,10.06,0,0,0,3.37,1.51,13,13,0,0,0,5.22.53,2.5,2.5,0,0,0-.51-2.14,11.86,11.86,0,0,0,5.22-3.45,5.11,5.11,0,0,0,1-1.09,5.29,5.29,0,0,0-1.39-.52,11.81,11.81,0,0,0-6.21-.77A2.52,2.52,0,0,0,79.2,28.62Z"/><path class="cls-20" d="M86.27,33.15c.28-.28.87-.69,1-1.09-.16,0-.51.27-.71.31-1.47.29-2.92.92-4.38,1.3s-3.13.75-4.71,1.07l-2.64.5a12.83,12.83,0,0,1-2.58.46,47.37,47.37,0,0,1,8.66,1l.22,0-.09-.13A11.77,11.77,0,0,0,86.27,33.15Z"/><path class="cls-20" d="M76.35,38.21a13,13,0,0,0,5.22.53l0-.18a3.27,3.27,0,0,1-.45,0c-2.89-.45-5.86-.93-8.33-2.49a7.87,7.87,0,0,0-.7-.39A2.3,2.3,0,0,0,73,36.7,10.06,10.06,0,0,0,76.35,38.21Z"/><g class="cls-21"><path class="cls-20" d="M75.2,31.69a14.24,14.24,0,0,1,4.07-3l0-.06a12.81,12.81,0,0,0-4.44,2.8,10,10,0,0,0-2.35,2.85,2.3,2.3,0,0,0-.3,1.35,1.19,1.19,0,0,0,.08.2A10.78,10.78,0,0,1,75.2,31.69Z"/><path class="cls-20" d="M82,31.26a12.42,12.42,0,0,1,3.39.16c.26,0,.66.22,1,.26-.16-.05-.32-.09-.47-.15a11.86,11.86,0,0,0-6.19-.77v0a3.31,3.31,0,0,1-.56.62l-.83.76a2.74,2.74,0,0,1,.87-.32,7.11,7.11,0,0,1,.93-.27A10.73,10.73,0,0,1,82,31.26Z"/></g><path class="cls-2" d="M72.74,35.69c.09,0,6-.47,8.2-1a40.33,40.33,0,0,0,6.35-2.64S72.65,35.7,72.74,35.69Z"/><path class="cls-12" d="M84.92,32.28a.45.45,0,0,0,.23,0c.4-.26-.43-.44-.53-.46a10.94,10.94,0,0,0-1.15-.14,11.87,11.87,0,0,0-2.23,0,12.78,12.78,0,0,0-4.32,1.25c-.37.19-.73.39-1.08.61a8.83,8.83,0,0,1-1,.72,22.62,22.62,0,0,1,5.5-1.82A35.15,35.15,0,0,1,84.92,32.28Z"/><path class="cls-12" d="M78.83,30.86a1.56,1.56,0,0,0,.27-1.06c0-.32-.24-.74-.6-.38a1.15,1.15,0,0,0-.26.53,4.9,4.9,0,0,1-1.95,2.53c.43-.27.91-.46,1.36-.69A2.94,2.94,0,0,0,78.83,30.86Z"/><path class="cls-2" d="M75.24,31.33a13.17,13.17,0,0,1,4-2.63l0-.05a12.93,12.93,0,0,0-4.45,2.79,10.13,10.13,0,0,0-2.35,2.85,2.37,2.37,0,0,0-.29,1.35A2.31,2.31,0,0,0,73,36.73a10.19,10.19,0,0,0,3.38,1.5,12.63,12.63,0,0,0,5.22.53.13.13,0,0,1,0-.06,13.23,13.23,0,0,1-4.76-.58,10.06,10.06,0,0,1-3.37-1.51,2.26,2.26,0,0,1-.87-1.08,2.3,2.3,0,0,1,.3-1.35A9.8,9.8,0,0,1,75.24,31.33Z"/><path class="cls-22" d="M81,37.8c.15-.46-.52-.75-.84-.86a14,14,0,0,0-3.82-.52,7,7,0,0,1,2.46.82C79.12,37.4,80.76,38.4,81,37.8Z"/></g></g></svg>