<svg xmlns="http://www.w3.org/2000/svg" xmlns:xlink="http://www.w3.org/1999/xlink" viewBox="0 0 141.52 95.92"><defs><style>.cls-1{fill:url(#linear-gradient);}.cls-2{fill:#d37816;}.cls-20,.cls-23,.cls-24,.cls-25,.cls-26,.cls-27,.cls-3,.cls-4,.cls-5,.cls-6,.cls-8,.cls-9{fill:#fff;}.cls-3{opacity:0.42;}.cls-4{opacity:0.56;}.cls-5{opacity:0.2;}.cls-6{opacity:0.88;}.cls-7{fill:url(#linear-gradient-2);}.cls-8{opacity:0.29;}.cls-9{opacity:0.65;}.cls-10{fill:url(#linear-gradient-3);}.cls-11{fill:#7c430f;}.cls-12{fill:#563511;}.cls-13{fill:url(#linear-gradient-4);}.cls-14{fill:#b76615;}.cls-15{fill:url(#linear-gradient-5);}.cls-16{fill:#704621;}.cls-17{fill:url(#linear-gradient-6);}.cls-18{fill:#ff109e;}.cls-19{fill:#d60ba1;}.cls-21{fill:url(#linear-gradient-7);}.cls-22{opacity:0.3;}.cls-23{opacity:0.31;}.cls-24{opacity:0.45;}.cls-25{opacity:0.18;}.cls-26{opacity:0.12;}.cls-27{opacity:0.52;}.cls-28,.cls-29{fill:#ef8216;}.cls-28{opacity:0.77;}.cls-29{opacity:0.39;}.cls-30,.cls-33{fill:#fff30b;}.cls-31{fill:url(#linear-gradient-8);}.cls-32{opacity:0.59;}.cls-33{opacity:0.48;}.cls-34{fill:url(#linear-gradient-9);}.cls-35{fill:url(#linear-gradient-10);}.cls-36{fill:url(#linear-gradient-11);}.cls-37{fill:url(#linear-gradient-12);}</style><linearGradient id="linear-gradient" x1="60.17" y1="7.07" x2="81.94" y2="19.47" gradientUnits="userSpaceOnUse"><stop offset="0.09" stop-color="#f4e203"/><stop offset="0.3" stop-color="#f4c005"/><stop offset="0.55" stop-color="#f49f07"/><stop offset="0.69" stop-color="#f49308"/></linearGradient><linearGradient id="linear-gradient-2" x1="-11.51" y1="28.69" x2="62.33" y2="75.14" gradientUnits="userSpaceOnUse"><stop offset="0.18" stop-color="#f4e203"/><stop offset="0.24" stop-color="#f4db03"/><stop offset="0.31" stop-color="#f4c905"/><stop offset="0.4" stop-color="#f4ab06"/><stop offset="0.46" stop-color="#f49308"/></linearGradient><linearGradient id="linear-gradient-3" x1="84.15" y1="26.52" x2="139.52" y2="61.35" xlink:href="#linear-gradient-2"/><linearGradient id="linear-gradient-4" x1="31.79" y1="36.44" x2="105.17" y2="83.33" gradientUnits="userSpaceOnUse"><stop offset="0.02" stop-color="#f4e203"/><stop offset="0.7" stop-color="#f49308"/></linearGradient><linearGradient id="linear-gradient-5" x1="38.76" y1="39.56" x2="93.86" y2="74.78" xlink:href="#linear-gradient-4"/><linearGradient id="linear-gradient-6" x1="48.49" y1="55.05" x2="92.35" y2="55.05" gradientUnits="userSpaceOnUse"><stop offset="0.1" stop-color="#ff57f7"/><stop offset="0.52" stop-color="#ff4cec"/><stop offset="1" stop-color="#ff39da"/></linearGradient><linearGradient id="linear-gradient-7" x1="52.75" y1="49.4" x2="84.76" y2="62.86" gradientUnits="userSpaceOnUse"><stop offset="0.25" stop-color="#ffabfd"/><stop offset="0.41" stop-color="#ff8af8"/><stop offset="0.73" stop-color="#ff3eed"/></linearGradient><linearGradient id="linear-gradient-8" x1="30.09" y1="43.27" x2="43.45" y2="51.3" xlink:href="#linear-gradient-4"/><linearGradient id="linear-gradient-9" x1="67.75" y1="18.32" x2="76.65" y2="23.68" xlink:href="#linear-gradient-4"/><linearGradient id="linear-gradient-10" x1="45.47" y1="86.2" x2="54.71" y2="91.76" xlink:href="#linear-gradient-4"/><linearGradient id="linear-gradient-11" x1="88.26" y1="85.61" x2="100.99" y2="93.26" xlink:href="#linear-gradient-4"/><linearGradient id="linear-gradient-12" x1="102.78" y1="43.98" x2="113.14" y2="50.21" xlink:href="#linear-gradient-4"/></defs><g id="Layer_2" data-name="Layer 2"><g id="Layer_1-2" data-name="Layer 1"><path class="cls-1" d="M69.85,21.34c.08,0,.74-.07,1.36-.11l.19.08c2.34.94,7.45,1.31,8.15-1.82.81-3.66,2.4-7.16,3.32-10.81.11-.44.15-1-.26-1.24a1,1,0,0,0-.67,0,34.27,34.27,0,0,0-6.33,2.09,40.75,40.75,0,0,0-3.43-7.29A6.68,6.68,0,0,0,70.4.07L70.29,0l-.11.07a6.71,6.71,0,0,0-1.72,2.22,41.1,41.1,0,0,0-3.19,7.4,33.85,33.85,0,0,0-6.4-1.89,1,1,0,0,0-.66,0c-.41.22-.34.81-.22,1.25,1,3.62,2.73,7.07,3.66,10.69C62.45,22.89,67.54,22.35,69.85,21.34Z"/><path class="cls-2" d="M78.86,14.89a2.37,2.37,0,0,1-.56.66,3.48,3.48,0,0,1-2.61-.38c-2.33-2.55-5.21-2-8.14-1.74-2.42.23-4.16,3.73-6.33,4.82a11.88,11.88,0,0,1,.43,1.52c.8,3.12,5.9,2.59,8.2,1.57.08,0,.74-.07,1.36-.11l.19.09c2.34.94,7.45,1.3,8.15-1.83.82-3.66,2.4-7.16,3.32-10.81.11-.44.15-1-.26-1.24a.84.84,0,0,0-.52,0A2.77,2.77,0,0,1,82,9.05,28.25,28.25,0,0,1,78.86,14.89Z"/><path class="cls-2" d="M75.69,9.49l-.08,0a41.08,41.08,0,0,0-3.43-7.29A9.1,9.1,0,0,0,71,.63c0,.09.09.19.13.29A29.22,29.22,0,0,1,73.72,12,16.61,16.61,0,0,1,75.69,9.49Z"/><path class="cls-2" d="M66.16,13.12a28.51,28.51,0,0,1-.86-3.51l0,.08A34,34,0,0,0,59.66,8a10.42,10.42,0,0,1,4.47,2.43A9.53,9.53,0,0,1,66.16,13.12Z"/><path class="cls-3" d="M70.76,4.87c.34-.87.53-2.84-.33-3.39S68.84,2.9,68.6,3.59a19.38,19.38,0,0,0-1,10.63A10.26,10.26,0,0,1,68.9,7.67,15.66,15.66,0,0,0,70.76,4.87Z"/><path class="cls-4" d="M60.6,9c-.34-.41-1.27-.58-1.62-.11A1.24,1.24,0,0,0,59,10.06c.59,1.45,1.22,2.9,1.87,4.33a8.23,8.23,0,0,0,1,1.8q-.47-1.37-.87-2.76a5.62,5.62,0,0,1-.32-2.25C60.83,10.48,61.12,9.61,60.6,9Z"/><path class="cls-5" d="M80.48,9.82c.38-.3,1-1.22.17-1.43a1.08,1.08,0,0,0-.56,0,9.44,9.44,0,0,0-5.8,4.69,6.36,6.36,0,0,1,3-1.84A10.66,10.66,0,0,0,80.48,9.82Z"/><path class="cls-6" d="M59.28,9.42a1.11,1.11,0,0,0,.11.69c.32.84.65,1.68,1,2.51a7.64,7.64,0,0,1-.33-3C60.1,9,59.42,8.87,59.28,9.42Z"/><path class="cls-6" d="M68.61,6.82c.36-.7.83-1.34,1.2-2a3.45,3.45,0,0,0,.54-2.41c-.31-1.06-.92.38-1.06.77A17.81,17.81,0,0,0,68.4,6.5a.39.39,0,0,0,0,.24A.14.14,0,0,0,68.61,6.82Z"/><path class="cls-7" d="M.75,33a8.82,8.82,0,0,0,.55,8.1A18.33,18.33,0,0,0,7.2,47C5,46.48,2.72,48.49,2.32,50.75s.58,4.54,1.89,6.43a20.88,20.88,0,0,0,12.08,8.18c-2.28-.26-4.15,2.15-3.85,4.43C14,81,36,82.92,44.47,78.59c5.09-2.61,9.05-4.45,12.85-7.3,4.17-3.14,6.95-7.77,9.25-12.46,1.05-2.15,2.05-4.61,1.29-6.89a8.74,8.74,0,0,0-2.21-3.19,45.28,45.28,0,0,0-13.23-9.41,38,38,0,0,0-7.25-2.8c-2.66-.62-5.4-.49-8.08-1.31a34.68,34.68,0,0,1-8.61-4.08,64.6,64.6,0,0,1-13.22-12.1c-1.48-1.7-3-3.49-5-4.46S5.5,13.67,4,15.37c-1.33,1.54-1.24,3.85-.77,5.83a20.22,20.22,0,0,0,4.54,8.74C5.18,28.9,2,30.48.75,33Z"/><path class="cls-2" d="M16.29,65.36h9.3c3.87,0,7.92-.05,11.31-1.91a40.27,40.27,0,0,1-24.6-3,60.74,60.74,0,0,1-7.93-4.59c-.5-.33-1-.67-1.47-1a12.84,12.84,0,0,0,1.31,2.35A20.88,20.88,0,0,0,16.29,65.36Z"/><path class="cls-2" d="M5.79,14.22A4,4,0,0,0,4,15.37c-1.33,1.54-1.24,3.85-.77,5.83a20.14,20.14,0,0,0,4.33,8.49c.58.5,1.12,1,1.67,1.56a62.59,62.59,0,0,0,13.6,9.94c2.66,1.44,5.58,2.71,8.59,2.48A42.75,42.75,0,0,1,6,21.34c-.89-1.9-1.58-3.95-.8-6A7.41,7.41,0,0,1,5.79,14.22Z"/><path class="cls-2" d="M44.47,78.59l3.88-2c.29-.83-1.28-4.22-1.88-4.83-11.42,8.34-29.44,7.43-34-1.57C14.52,81.09,36.13,82.86,44.47,78.59Z"/><path class="cls-2" d="M7,46.88a92,92,0,0,1,16.34,3.53c3.15,1,6.57,2.15,9.64,1A44.08,44.08,0,0,1,2.91,37.42,14.28,14.28,0,0,1,.38,33.89,9.16,9.16,0,0,0,1.3,41.1,18.15,18.15,0,0,0,7,46.88Z"/><path class="cls-2" d="M15.63,65.36h.66A2.91,2.91,0,0,0,15.63,65.36Z"/><path class="cls-3" d="M26.22,37.34A6.58,6.58,0,0,0,23.9,34.6a28,28,0,0,1-6.71-8.4c-1.05-2-1.86-4.19-3.1-6.12-1-1.62-3.57-4.6-5.78-4.43-3.64.29-.8,5.27.21,6.6a100,100,0,0,0,8.65,10.27C19.66,35,22.71,37.3,26.22,37.34Z"/><path class="cls-3" d="M24.51,46.33a28.69,28.69,0,0,1-11.63-5.52,18.59,18.59,0,0,1-3.64-3.72c-1-1.42-1.69-3.48-3-4.61a1.46,1.46,0,0,0-2.53,1.14,4.38,4.38,0,0,0,1.1,2.75C9.32,42.41,17.05,45.16,24.51,46.33Z"/><path class="cls-3" d="M10,55.9a30.09,30.09,0,0,0,17.68,1.74C25,57,22.1,57,19.31,56.5a13.79,13.79,0,0,1-7.6-3.42c-.79-.79-1.43-1.72-2.26-2.47-1.07-1-4.84-2.26-4.31.57C5.57,53.5,7.86,55,10,55.9Z"/><path class="cls-8" d="M16.61,71.23a7.71,7.71,0,0,0,2.47.94c5.49,1.32,11.41,1.58,16.7-.43a52,52,0,0,1-8.91-.21,17.68,17.68,0,0,1-8.25-3.11c-1.17-.87-3.55-2.1-3.39.66A2.88,2.88,0,0,0,16.61,71.23Z"/><path class="cls-9" d="M11.76,22.37A102.23,102.23,0,0,1,18,31.07c-1.19-2.17-2.29-4.39-3.32-6.64s-2.07-4.75-3.88-6.58c-.61-.61-2.17-2.18-2.78-.8S9,19.5,9.83,20.21A17.21,17.21,0,0,1,11.76,22.37Z"/><path class="cls-10" d="M137.5,15.37c-1.48-1.7-4.21-1.76-6.23-.78s-3.53,2.76-5,4.46A64.34,64.34,0,0,1,113,31.15a34.79,34.79,0,0,1-8.6,4.08c-2.69.82-5.43.69-8.09,1.31a38.26,38.26,0,0,0-7.25,2.8,45.54,45.54,0,0,0-13.23,9.41,8.74,8.74,0,0,0-2.21,3.19c-.76,2.28.24,4.74,1.29,6.89,2.31,4.69,5.08,9.32,9.25,12.46C88,74.14,92,76,97.05,78.59c8.45,4.33,30.52,2.45,32-8.8.31-2.28-1.57-4.69-3.85-4.43a20.88,20.88,0,0,0,12.08-8.18c1.31-1.89,2.3-4.18,1.89-6.43s-2.65-4.27-4.88-3.73a18.46,18.46,0,0,0,5.91-5.92,8.88,8.88,0,0,0,.55-8.1c-1.26-2.52-4.44-4.1-7.05-3.06a20.22,20.22,0,0,0,4.54-8.74C138.74,19.22,138.83,16.91,137.5,15.37Z"/><path class="cls-2" d="M137.31,57.18a12.27,12.27,0,0,0,1.31-2.35c-.47.37-1,.71-1.47,1a61.29,61.29,0,0,1-7.92,4.59,40.31,40.31,0,0,1-24.61,3c3.39,1.86,7.44,1.91,11.31,1.91h9.3A20.88,20.88,0,0,0,137.31,57.18Z"/><path class="cls-2" d="M110.08,43.67c3,.23,5.93-1,8.59-2.48a62.59,62.59,0,0,0,13.6-9.94c.55-.52,1.09-1.06,1.67-1.56a20.14,20.14,0,0,0,4.33-8.49c.47-2,.56-4.29-.77-5.83a4,4,0,0,0-1.76-1.15,8.41,8.41,0,0,1,.57,1.12c.78,2.05.1,4.1-.79,6A42.8,42.8,0,0,1,110.08,43.67Z"/><path class="cls-2" d="M129,70.22c-4.52,9-22.54,9.91-33.95,1.57-.61.61-2.18,4-1.88,4.83l3.87,2C105.39,82.86,127,81.09,129,70.22Z"/><path class="cls-2" d="M134.53,46.88a18.15,18.15,0,0,0,5.69-5.78,9.16,9.16,0,0,0,.92-7.21,14.28,14.28,0,0,1-2.53,3.53,44.08,44.08,0,0,1-30.06,13.95c3.08,1.19,6.5,0,9.64-1A92.24,92.24,0,0,1,134.53,46.88Z"/><path class="cls-2" d="M125.23,65.36h.66A2.91,2.91,0,0,0,125.23,65.36Z"/><path class="cls-3" d="M133.21,15.65c-2.21-.17-4.75,2.81-5.78,4.43-1.24,1.93-2.05,4.09-3.1,6.12a27.89,27.89,0,0,1-6.71,8.4,6.58,6.58,0,0,0-2.32,2.74c3.51,0,6.56-2.35,9-4.82A100,100,0,0,0,133,22.25C134,20.92,136.86,15.94,133.21,15.65Z"/><path class="cls-3" d="M137.84,33.62a1.46,1.46,0,0,0-2.54-1.14c-1.33,1.13-2,3.19-3,4.61a18.59,18.59,0,0,1-3.64,3.72A28.69,28.69,0,0,1,117,46.33c7.46-1.17,15.19-3.92,19.72-10A4.45,4.45,0,0,0,137.84,33.62Z"/><path class="cls-3" d="M136.38,51.18c.53-2.83-3.24-1.53-4.31-.57-.83.75-1.47,1.68-2.25,2.47a13.85,13.85,0,0,1-7.61,3.42c-2.79.47-5.64.54-8.4,1.14a30.08,30.08,0,0,0,17.68-1.74C133.66,55,136,53.5,136.38,51.18Z"/><path class="cls-8" d="M124.91,71.23a2.89,2.89,0,0,0,1.39-2.15c.15-2.76-2.22-1.53-3.4-.66a17.68,17.68,0,0,1-8.25,3.11,52,52,0,0,1-8.91.21c5.29,2,11.21,1.75,16.7.43A7.62,7.62,0,0,0,124.91,71.23Z"/><path class="cls-9" d="M131.69,20.21c.79-.71,2.42-1.88,1.86-3.16s-2.17.19-2.78.8c-1.81,1.83-2.83,4.28-3.88,6.58s-2.13,4.47-3.32,6.64a102.23,102.23,0,0,1,6.19-8.7A18,18,0,0,1,131.69,20.21Z"/><path class="cls-11" d="M96,64.12a9.78,9.78,0,0,1,2.68-2.84,80.13,80.13,0,0,0,11.7-11.88c1.08-1.36,2.17-2.91,2-4.63a5,5,0,0,0-3.15-4,14.63,14.63,0,0,0-5.19-.92l-10.52-.57c-2.77-.15-5.77-.4-7.8-2.29a12,12,0,0,1-2.22-3.22L75.06,18.05c-2.69-5-7-5.31-10.1-.27a29.44,29.44,0,0,0-2.66,7c-1.88,6.32-4,14.51-16.37,14.14-2-.06-3.84.83-5.79,1.06-2.21.26-4.47,0-6.66.37s-4.46,1.66-5,3.81c-.48,1.8.33,3.68,1.27,5.28a29.35,29.35,0,0,0,6.68,7.83c3.08,2.55,6.87,4.68,8.37,8.39,1.37,3.36.49,7.16-.14,10.73A75,75,0,0,0,43.5,89.55a6.21,6.21,0,0,0,.5,2.87c1,1.86,3.58,2.29,5.57,1.6s3.57-2.18,5.27-3.41A47.67,47.67,0,0,1,65,85.45,14.78,14.78,0,0,1,70.41,84c2.51,0,4.82,1.24,7,2.46L85.57,91a16.83,16.83,0,0,0,6.32,2.47c2.27.22,4.82-.72,5.78-2.79s.15-4.34-.49-6.46a47.84,47.84,0,0,1-1.94-16.74A8.44,8.44,0,0,1,96,64.12Z"/><path class="cls-12" d="M42.38,84.54a21.49,21.49,0,0,0,.75,8.55c.26.86.68,1.8,1.54,2A2.74,2.74,0,0,0,46,95.05a33.37,33.37,0,0,0,7.1-2.59,2.33,2.33,0,0,0,.84-.61.81.81,0,0,0,0-1,1.3,1.3,0,0,0-1-.29,6.4,6.4,0,0,1-5.62-4.18c-.71-2-.35-4.23,0-6.33s.75-4.26,1.12-6.39A18,18,0,0,0,48.86,67a7,7,0,0,0-2.06-3.76c-1-1-2.41-1.25-3.41-2.31,1.31,1.4,2.68,2.9,3,4.77a8.25,8.25,0,0,1,0,2.67C45.77,73.91,43,79,42.38,84.54Z"/><path class="cls-12" d="M40.66,42.19a40.44,40.44,0,0,1,7.05-.75,41.43,41.43,0,0,0,7.42-1.28,7,7,0,0,0,2.95-1.38,7.52,7.52,0,0,0,1.61-2.55q2.6-5.67,5.2-11.35C65.74,23,66.7,21,68.49,20c2.22-1.22,5-.54,7.39.17a15.56,15.56,0,0,0-2.41-4.73,3.4,3.4,0,0,0-1.1-1.07,3.08,3.08,0,0,0-2.12-.12,9,9,0,0,0-5.13,4,36,36,0,0,0-2.82,6,45,45,0,0,1-5.7,10.29,11.2,11.2,0,0,1-3.45,3.2,12.24,12.24,0,0,1-5.26,1.07c-5.82.26-12,0-17.1,2.69a3.3,3.3,0,0,0-1.37,1.1,3.15,3.15,0,0,0-.35,2c.25,2.94,2.57,6.89,5.45,8,.36-.8-.1-2.15-.09-3a7.8,7.8,0,0,1,.67-3.34A8.27,8.27,0,0,1,40.66,42.19Z"/><path class="cls-13" d="M112.26,50.76a6.82,6.82,0,0,0-3.77-11.64l-20-2.94a3.57,3.57,0,0,1-2.67-2L76.89,16.08a6.78,6.78,0,0,0-6.12-3.81h0a6.78,6.78,0,0,0-6.11,3.79l-9,18.13A3.55,3.55,0,0,1,53,36.12L33,39a6.83,6.83,0,0,0-3.8,11.64L43.63,64.78a3.53,3.53,0,0,1,1,3.14L41.2,87.85a6.83,6.83,0,0,0,9.89,7.21L69,85.68a3.55,3.55,0,0,1,3.31,0L90.2,95.12a6.89,6.89,0,0,0,3.19.8,6.85,6.85,0,0,0,6.73-8L96.73,68a3.55,3.55,0,0,1,1-3.14ZM93.5,68.55l3.39,19.94a3.56,3.56,0,0,1-5.16,3.74L73.84,82.79a6.82,6.82,0,0,0-6.35,0L49.58,92.16a3.54,3.54,0,0,1-5.15-3.75l3.45-19.93a6.82,6.82,0,0,0-2-6L31.46,48.3a3.56,3.56,0,0,1,2-6.06l20-2.88a6.83,6.83,0,0,0,5.14-3.72l9-18.12a3.48,3.48,0,0,1,3.18-2h0a3.47,3.47,0,0,1,3.18,2l8.92,18.14A6.85,6.85,0,0,0,88,39.42l20,2.93a3.56,3.56,0,0,1,2,6.07L95.47,62.51A6.83,6.83,0,0,0,93.5,68.55Z"/><path class="cls-14" d="M33.44,42.24l20-2.88a6.83,6.83,0,0,0,5.14-3.72l9-18.12a3.44,3.44,0,0,1,1.91-1.75,3.08,3.08,0,0,0-.53,0h0a3.47,3.47,0,0,0-3.18,2l-9,18.12a6.82,6.82,0,0,1-5.15,3.73l-20,2.88a3.54,3.54,0,0,0-2,6L44.11,62.62a6.8,6.8,0,0,1,2,6.05L42.61,88.6a3.55,3.55,0,0,0,4.74,3.93,3.62,3.62,0,0,1-1.52-.64,3.5,3.5,0,0,1-1.4-3.48l3.45-19.93a6.82,6.82,0,0,0-2-6L31.46,48.3a3.56,3.56,0,0,1,2-6.06Z"/><path class="cls-14" d="M92.83,92.6a3.76,3.76,0,0,1-1.1-.37L73.84,82.79a6.78,6.78,0,0,0-4.79-.6A6.81,6.81,0,0,1,72,83l17.89,9.44A3.46,3.46,0,0,0,92.83,92.6Z"/><path class="cls-14" d="M69,85.68a3.39,3.39,0,0,1,.39-.18,3.51,3.51,0,0,0-2.2.36L49.28,95.25a7.19,7.19,0,0,1-1.58.59,6.8,6.8,0,0,0,3.39-.78Z"/><path class="cls-14" d="M112.26,50.76a6.82,6.82,0,0,0-3.77-11.64l-20-2.94a3.57,3.57,0,0,1-2.67-2L76.89,16.08a6.78,6.78,0,0,0-6.12-3.81h0a7.16,7.16,0,0,0-1.61.19,6.79,6.79,0,0,1,5.93,3.81L84,34.42a3.52,3.52,0,0,0,2.67,1.94l20,2.94A6.83,6.83,0,0,1,110.45,51L95.94,65a3.58,3.58,0,0,0-1,3.15L98.3,88.13a6.78,6.78,0,0,1-2.72,6.67,7.07,7.07,0,0,1-2.4,1.11h.21a6.85,6.85,0,0,0,6.73-8L96.73,68a3.55,3.55,0,0,1,1-3.14Z"/><path class="cls-14" d="M104.13,49.09a2.82,2.82,0,0,0-1.55-4.82L83.79,41.51A2.79,2.79,0,0,1,81.67,40l-8.38-17a2.82,2.82,0,0,0-5.06,0l-8.43,17a2.82,2.82,0,0,1-2.13,1.54l-18.79,2.7A2.83,2.83,0,0,0,37.3,49L50.88,62.26a2.8,2.8,0,0,1,.81,2.5L48.45,83.47a2.82,2.82,0,0,0,4.09,3l16.82-8.81a2.84,2.84,0,0,1,2.63,0l16.79,8.87a2.82,2.82,0,0,0,4.1-3L89.7,64.82a2.83,2.83,0,0,1,.82-2.5Z"/><path class="cls-15" d="M102.61,49.31a2.69,2.69,0,0,0-1.49-4.59L83.19,42.08a2.68,2.68,0,0,1-2-1.47l-8-16.27a2.69,2.69,0,0,0-4.83,0l-8,16.24a2.74,2.74,0,0,1-2,1.47L40.33,44.63a2.69,2.69,0,0,0-1.5,4.59l13,12.67a2.7,2.7,0,0,1,.77,2.38L49.47,82.13A2.69,2.69,0,0,0,53.37,85l16.05-8.41a2.71,2.71,0,0,1,2.51,0L88,85a2.7,2.7,0,0,0,3.91-2.84l-3-17.86a2.71,2.71,0,0,1,.77-2.39Z"/><path class="cls-16" d="M91.57,55.05a5.4,5.4,0,0,0-3-9.21l-6.34-.93a5.4,5.4,0,0,1-4.06-3l-2.83-5.76a5.4,5.4,0,0,0-9.68,0l-2.85,5.74a5.38,5.38,0,0,1-4.07,2.95l-6.34.91a5.4,5.4,0,0,0-3,9.21L54,59.47a5.4,5.4,0,0,1,1.54,4.78l-1.09,6.32a5.39,5.39,0,0,0,7.82,5.7l5.68-3a5.42,5.42,0,0,1,5,0l5.67,3a5.4,5.4,0,0,0,7.84-5.68L85.42,64.3A5.38,5.38,0,0,1,87,59.52Z"/><path class="cls-17" d="M90.76,55.05a5.21,5.21,0,0,0-2.87-8.89l-6.12-.9a5.2,5.2,0,0,1-3.92-2.86l-2.73-5.55a5.21,5.21,0,0,0-9.35,0L63,42.38a5.19,5.19,0,0,1-3.93,2.84L53,46.1A5.22,5.22,0,0,0,50.06,55l4.43,4.33A5.2,5.2,0,0,1,56,63.93l-1,6.1a5.21,5.21,0,0,0,7.55,5.51L68,72.66a5.23,5.23,0,0,1,4.85,0l5.48,2.89a5.21,5.21,0,0,0,7.57-5.48l-1-6.1a5.22,5.22,0,0,1,1.51-4.62Z"/><path class="cls-18" d="M70.23,42.72a25.17,25.17,0,0,0-1,6.13,49.61,49.61,0,0,1-5.68,17.52,21.28,21.28,0,0,1-3.94,5.69,10.06,10.06,0,0,1-3.52,2.24,5.19,5.19,0,0,0,6.39,1.24L68,72.66a5.23,5.23,0,0,1,4.85,0l5.48,2.89a5.21,5.21,0,0,0,7.57-5.48l-1-6.1a5.22,5.22,0,0,1,1.51-4.62l4.43-4.31a5.21,5.21,0,0,0-2.87-8.89l-6.12-.9a5.2,5.2,0,0,1-3.92-2.86l-2.73-5.55a5.24,5.24,0,0,0-1.86-2.1,7.31,7.31,0,0,1-.59,3C72,39.49,70.85,41,70.23,42.72Z"/><path class="cls-19" d="M73.26,35c-.26.83-.35,1.3-.47,1.65a9.1,9.1,0,0,1-1.12,2.14,1.06,1.06,0,0,0-.28.64,1,1,0,0,0,.15.43,52.55,52.55,0,0,0,5,7.88,27.2,27.2,0,0,1-2.39-5.23c-.66-1.57-1.37-3.48-1.08-5.15A16.39,16.39,0,0,0,73.26,35Z"/><path class="cls-19" d="M70.44,65.58a.67.67,0,0,0-.47-.19,9.87,9.87,0,0,0-5.39,1,11.49,11.49,0,0,0-1.66,1A21.78,21.78,0,0,1,60.46,71l.14.22a3.09,3.09,0,0,1,.45,2c0,.23-.06,1.74-.15,2.75a5.21,5.21,0,0,0,1.48-.51l5.49-2.88a5.19,5.19,0,0,1,3.23-.52,5.05,5.05,0,0,1-.89-2.88,19.13,19.13,0,0,1,.29-3.2A.72.72,0,0,0,70.44,65.58Z"/><path class="cls-19" d="M61.33,73.51a3.58,3.58,0,0,1,1.89-2.46c1.88-1.23,3.9-2.24,5.86-3.37a2.81,2.81,0,0,0,.61-.43,2.28,2.28,0,0,0-.86.1A26.65,26.65,0,0,0,61,70.55c-.21.14-.75.37-.68.68s.26.32.33.49a1.59,1.59,0,0,1,.14.57,20.47,20.47,0,0,1,.19,3A7.56,7.56,0,0,1,61.33,73.51Z"/><path class="cls-19" d="M61,75.75c0-.14,0-.29,0-.43C61,75.46,61,75.61,61,75.75Z"/><path class="cls-20" d="M70.9,39.31A3.65,3.65,0,0,1,69.55,38a14.44,14.44,0,0,1-1.73-3C68,35.4,69,40,69.07,39.92Z"/><path class="cls-19" d="M82.77,57.89c1.55-1.62,3.54-2.78,5-4.45a3.08,3.08,0,0,0,.75-1.23,1.94,1.94,0,0,0-2.34-2.32,27.08,27.08,0,0,0-4.42,1.83c-3.66,2.09-5.57,6.34-9,8.87a41.32,41.32,0,0,1-4,2.38,4.22,4.22,0,0,0-1.16.89,1.55,1.55,0,0,0-.32,1.38c.22.65,1,1,1.59,1.2a17.17,17.17,0,0,1,2.17,1c2.25,1.27,4.17,3.13,6.52,4.21a5.19,5.19,0,0,0,2.91.57,2.23,2.23,0,0,0,1.31-.62,3.29,3.29,0,0,0,.41-2.92,36,36,0,0,1-1.12-7,4.81,4.81,0,0,1,1.6-3.83Z"/><path class="cls-21" d="M87.1,52.89A2.07,2.07,0,0,0,86,49.37l-8.43-1.23A2.09,2.09,0,0,1,76,47l-3.76-7.65a2.06,2.06,0,0,0-3.69,0L64.75,47a2,2,0,0,1-1.55,1.12l-8.44,1.22a2.06,2.06,0,0,0-1.15,3.51l6.1,5.95a2.1,2.1,0,0,1,.59,1.83L58.84,69a2.07,2.07,0,0,0,3,2.18l7.55-4a2,2,0,0,1,1.91,0l7.54,4a2.06,2.06,0,0,0,3-2.16l-1.43-8.4a2.05,2.05,0,0,1,.6-1.82Z"/><g class="cls-22"><path class="cls-20" d="M61.83,71.22l7.55-4a2.1,2.1,0,0,1,1.92,0l1.29.69a116.64,116.64,0,0,1,7.32-11.43c1.78-2.46,3.66-4.85,5.61-7.18l-8-1.18h0l-18.33,19L58.85,69A2.06,2.06,0,0,0,61.83,71.22Z"/><path class="cls-20" d="M72.23,39.39l0-.06q-2.85,1.86-5.57,3.91L64.75,47a2,2,0,0,1-1.55,1.12l-3,.44-1.11,1c-1.49,1.4-3,2.85-4.35,4.34l2.72,2.66A211.8,211.8,0,0,1,74.15,43.3Z"/></g><path class="cls-20" d="M54.59,49.39a2.06,2.06,0,0,0-1,3.47l6.1,6a2.09,2.09,0,0,1,.59,1.82L58.84,69a2.07,2.07,0,0,0,3,2.18l4.55-2.39a23.4,23.4,0,0,0-3.53,1,2.83,2.83,0,0,1-1.55.29,2,2,0,0,1-1.4-1.48,5.86,5.86,0,0,1,0-2.13c.33-2.58.73-5.14,1.22-7.69a.7.7,0,0,0,0-.38.78.78,0,0,0-.35-.37,33.5,33.5,0,0,1-6-5.12,3.06,3.06,0,0,1-1-2,1.9,1.9,0,0,1,.4-1.06A3.18,3.18,0,0,1,54.59,49.39Z"/><path class="cls-19" d="M77.7,71.48a2.56,2.56,0,0,0-.59-.42C77.15,71.25,77.39,71.38,77.7,71.48Z"/><path class="cls-19" d="M81.35,71.67a5.38,5.38,0,0,1-2.33,0,7.67,7.67,0,0,1-1.32-.24,7.1,7.1,0,0,1,1.12,1.36,18.51,18.51,0,0,1,1.46,2.92,5.32,5.32,0,0,1-.27-2.3A2.21,2.21,0,0,1,81.35,71.67Z"/><path class="cls-19" d="M83.51,70.66a7.69,7.69,0,0,1,1.83.47l-.93-.47a7.72,7.72,0,0,1-1.51-.9A2.55,2.55,0,0,1,82,68.31a6.6,6.6,0,0,1-.15,2.93C82,70.57,83,70.6,83.51,70.66Z"/><path class="cls-20" d="M54.15,52.78a4.36,4.36,0,0,1-.48-.65c-.09-.14-.24-.64-.37-.71s-.15,0-.25.16a1.19,1.19,0,0,1-.55.38c-1.15.41-2.33.78-3.51,1.1l1.54-.27a19.81,19.81,0,0,1,2-.28A2.64,2.64,0,0,1,54.15,52.78Z"/><path class="cls-20" d="M54.23,49.5l-.95-.82c-.28-.23-.55-.47-.84-.68a7.43,7.43,0,0,0-1.29-.79A15.48,15.48,0,0,1,52.9,48.7a3.25,3.25,0,0,1,.61.81,1.36,1.36,0,0,1,.11,1A2.21,2.21,0,0,1,54.23,49.5Z"/><path class="cls-20" d="M60.12,71.05c-.11-.07-.19-.65-.23-.79s-.17-.54-.25-.82-.16-1.23-.67-.78a23,23,0,0,1-2.32,2c-.49.33-1,.64-1.49,1l2.35-1a3,3,0,0,1,.86-.24A2.9,2.9,0,0,1,60.12,71.05Z"/><path class="cls-19" d="M91.81,53.25c-.9-.07-3.6-1.74-3.62-2.19a3.83,3.83,0,0,1-.55,1.76c-.08.13-.22.4-.4.66h0C87.67,53.27,90.73,53.48,91.81,53.25Z"/><path class="cls-19" d="M87.24,53.48a1.53,1.53,0,0,0-.66.57C86.79,54.08,87,53.8,87.24,53.48Z"/><path class="cls-23" d="M86.38,49.05a2.33,2.33,0,0,0,1.49-.84c.15-.18,1.72-1.16,1.32-1.41s-2.08.74-2.36.85a8.35,8.35,0,0,1-3.49.25,15.94,15.94,0,0,0-3.38.24q2.85.49,5.71.87A3.39,3.39,0,0,0,86.38,49.05Z"/><path class="cls-24" d="M66.83,38.84a4.81,4.81,0,0,0,.78-2c0-.68-.4-1.23-.88-.46a44.16,44.16,0,0,0-2.22,4.53,13.22,13.22,0,0,1-2.79,4.17,8.94,8.94,0,0,0,3.34-3.4C65.67,40.74,66.27,39.8,66.83,38.84Z"/><path class="cls-24" d="M75.39,38.2a5.81,5.81,0,0,0-.89-1.62c-.64-.69-.53.32-.3.75q2.22,4,4.42,8.09C77.55,43,76.47,40.61,75.39,38.2Z"/><path class="cls-25" d="M49.56,50a6.33,6.33,0,0,1,3.28,2.53,12.51,12.51,0,0,1,1.64,3.87,14.06,14.06,0,0,1,1.2-3.61A6.33,6.33,0,0,1,58.27,50a7.08,7.08,0,0,1-3.08-2.88,12.27,12.27,0,0,1-1.4-4c.15.83-1.15,3.84-1.68,4.63A5.91,5.91,0,0,1,49.56,50Z"/><path class="cls-26" d="M48.39,50.16a8,8,0,0,1,4.15,3.13,14.6,14.6,0,0,1,2.09,4.78,16.7,16.7,0,0,1,1.53-4.46,7.92,7.92,0,0,1,3.28-3.38,8.8,8.8,0,0,1-3.9-3.54,14.47,14.47,0,0,1-1.78-5c.19,1-1.47,4.74-2.13,5.71A7.4,7.4,0,0,1,48.39,50.16Z"/><path class="cls-20" d="M52.72,49.8a1.73,1.73,0,0,1,.9.7,3.27,3.27,0,0,1,.45,1,3.33,3.33,0,0,1,.33-1,1.75,1.75,0,0,1,.7-.75,1.94,1.94,0,0,1-.84-.79,3.2,3.2,0,0,1-.38-1.1,3.49,3.49,0,0,1-.46,1.27A1.57,1.57,0,0,1,52.72,49.8Z"/><path class="cls-27" d="M51.49,49.86a3.5,3.5,0,0,1,1.82,1.42,6.63,6.63,0,0,1,.92,2.15,7.92,7.92,0,0,1,.67-2,3.53,3.53,0,0,1,1.44-1.52,3.94,3.94,0,0,1-1.71-1.6,6.64,6.64,0,0,1-.78-2.24,7.15,7.15,0,0,1-.94,2.58A3.29,3.29,0,0,1,51.49,49.86Z"/><path class="cls-19" d="M81.7,58.56a3.22,3.22,0,0,0-.48.68c-.21.38-.57,3.27-.38,2.83.41-.91,1-1.15,1.43-1.15a8.39,8.39,0,0,1,2.19.12c-.62-.34-1.46-.43-1.9-1a1.79,1.79,0,0,1-.26-2C82.19,58.24,81.85,58.4,81.7,58.56Z"/><path class="cls-28" d="M88.61,83.13a2,2,0,0,1-1.85-.3l-13.6-7.35a9.1,9.1,0,0,0-3.1-1.19c-2.22-.24-4.23,1.2-6,2.48a74.27,74.27,0,0,1-10.22,6.09,5.79,5.79,0,0,1-3,.84,2.48,2.48,0,0,1-1.3-.52A2.69,2.69,0,0,0,53.37,85l16.06-8.41a2.67,2.67,0,0,1,2.5,0L88,85a2.69,2.69,0,0,0,3.91-2.83l-3-17.87a2.68,2.68,0,0,1,.78-2.38l13-12.63a2.68,2.68,0,0,0,.09-3.77,4.61,4.61,0,0,1-.29,1.43,11,11,0,0,1-3.34,4.11c-2,1.73-4.06,3.36-6.19,4.91s-4.27,3-5.44,5.25c-1.61,3.13-.85,6.92.2,10.28s2.35,6.84,1.69,10.3A1.77,1.77,0,0,1,88.61,83.13Z"/><path class="cls-29" d="M52.56,63.44A5.46,5.46,0,0,0,52,59.69a14.71,14.71,0,0,0-3.94-4.2c-1.32-1.09-2.62-2.19-3.92-3.31-2.05-1.77-4.4-3.46-5.81-5.8l-.1-.15a2.67,2.67,0,0,0,.57,3l13,12.66A2.74,2.74,0,0,1,52.56,63.44Z"/><path class="cls-29" d="M73.91,28.94a51.25,51.25,0,0,0,5.65,10.71,6,6,0,0,0,1.1,1.3,3.53,3.53,0,0,0,1.37.68,2.71,2.71,0,0,1-.88-1l-8-16.27a2.68,2.68,0,0,0-3.52-1.27,5.53,5.53,0,0,1,2.5,2A17.35,17.35,0,0,1,73.91,28.94Z"/><path class="cls-30" d="M41.22,47.32a14.81,14.81,0,0,0,2.94-.7q6.75-2.05,13.67-3.46c.22,0,.47-.12.51-.33,0,.17-7.5,1.1-8.2,1.2l-8.35,1.22c-.66.1-3.22.25-2.09,1.65A1.67,1.67,0,0,0,41.22,47.32Z"/><path class="cls-30" d="M69.59,27.73c.36-.24.79-.38,1.15-.61a1.38,1.38,0,0,0-.57-2.54,1.69,1.69,0,0,0-1.49.61,5.07,5.07,0,0,0-.81,1.46l-5.1,12.27a3,3,0,0,0-.32,1.26l3-5.75c.91-1.77,1.82-3.54,2.89-5.22A4.61,4.61,0,0,1,69.59,27.73Z"/><path class="cls-30" d="M53,68.4c-.79,1.49-.78,3.61-1,5.26q-.46,3-.81,6a4.26,4.26,0,0,0,.12,2,1.47,1.47,0,0,0,1.63,1,1.6,1.6,0,0,0,.89-1.82A12.31,12.31,0,0,0,53,78.75a9.45,9.45,0,0,1-.32-3.44C52.75,73,52.93,70.7,53,68.4Z"/><path class="cls-31" d="M28.8,43.53a5.08,5.08,0,0,0-1.41.47,5.28,5.28,0,0,0,1,1.12,11.84,11.84,0,0,0,5.09,3.63,2.51,2.51,0,0,0-.58,2.12,13,13,0,0,0,5.24-.35,10.23,10.23,0,0,0,3.42-1.4,2.32,2.32,0,0,0,.9-1,2.31,2.31,0,0,0-.25-1.36,10.13,10.13,0,0,0-2.25-2.93,12.86,12.86,0,0,0-4.35-2.94A2.52,2.52,0,0,0,35,43,11.81,11.81,0,0,0,28.8,43.53Z"/><path class="cls-2" d="M33.59,48.83a47.57,47.57,0,0,1,8.68-.68,12.11,12.11,0,0,1-2.55-.55L37.1,47c-1.57-.37-3.13-.77-4.67-1.23s-2.88-1.11-4.34-1.45c-.19,0-.54-.33-.7-.33.13.4.72.83,1,1.12a11.87,11.87,0,0,0,5.1,3.63l-.11.13Z"/><path class="cls-2" d="M38.12,50.52a10.23,10.23,0,0,0,3.42-1.4,2.29,2.29,0,0,0,.89-1,5.25,5.25,0,0,0-.71.36c-2.52,1.47-5.51,1.85-8.41,2.21a3.39,3.39,0,0,1-.45,0,1.1,1.1,0,0,0,0,.18A12.94,12.94,0,0,0,38.12,50.52Z"/><g class="cls-32"><path class="cls-2" d="M42.32,48.26a.82.82,0,0,0,.09-.19,2.33,2.33,0,0,0-.25-1.37,10.27,10.27,0,0,0-2.25-2.93,12.86,12.86,0,0,0-4.35-2.94l0,.05A14.3,14.3,0,0,1,39.48,44,10.7,10.7,0,0,1,42.32,48.26Z"/><path class="cls-2" d="M32.7,43.37a13,13,0,0,1,1.86.38c.31.09.62.19.92.3a2.69,2.69,0,0,1,.85.36c-.26-.27-.53-.53-.8-.79A3.28,3.28,0,0,1,35,43v0a11.75,11.75,0,0,0-6.21.56l-.48.13c.35,0,.75-.18,1-.22A12.49,12.49,0,0,1,32.7,43.37Z"/></g><path class="cls-14" d="M27.39,44a39.65,39.65,0,0,0,6.26,2.85c2.19.59,8.07,1.26,8.16,1.27S27.39,44,27.39,44Z"/><path class="cls-24" d="M29.75,44.3a35,35,0,0,1,4.58.31,22.24,22.24,0,0,1,5.44,2,8.59,8.59,0,0,1-1-.75c-.34-.23-.69-.45-1.06-.65a12.55,12.55,0,0,0-4.26-1.39,12.52,12.52,0,0,0-3.39,0c-.1,0-.94.17-.54.44A.4.4,0,0,0,29.75,44.3Z"/><path class="cls-24" d="M37,44.06c.45.25.92.45,1.34.73a4.85,4.85,0,0,1-1.86-2.6,1.12,1.12,0,0,0-.24-.53c-.35-.37-.55,0-.61.35a1.54,1.54,0,0,0,.22,1.07A3,3,0,0,0,37,44.06Z"/><path class="cls-14" d="M41.06,49a10.06,10.06,0,0,1-3.42,1.4,13.36,13.36,0,0,1-4.78.41.13.13,0,0,1,0,.06,12.76,12.76,0,0,0,5.24-.35,10.21,10.21,0,0,0,3.42-1.39,2.26,2.26,0,0,0,.9-1,2.33,2.33,0,0,0-.25-1.37,10.09,10.09,0,0,0-2.25-2.92,12.74,12.74,0,0,0-4.35-3l0,0a13.26,13.26,0,0,1,3.91,2.77,10.21,10.21,0,0,1,2.26,2.93A2.28,2.28,0,0,1,42,48,2.26,2.26,0,0,1,41.06,49Z"/><path class="cls-33" d="M35.74,49.46a7.29,7.29,0,0,1,2.49-.73,14.12,14.12,0,0,0-3.84.39c-.33.1-1,.36-.87.83S35.38,49.61,35.74,49.46Z"/><path class="cls-34" d="M69.56,27.26a2.35,2.35,0,0,0,1.25.6,2.28,2.28,0,0,0,1.25-.6,9.83,9.83,0,0,0,2.24-2.94,12.9,12.9,0,0,0,1.71-5,2.53,2.53,0,0,0-2.2,0,11.78,11.78,0,0,0-2.17-5.86,5.26,5.26,0,0,0-.83-1.24A5.24,5.24,0,0,0,70,13.51a11.78,11.78,0,0,0-2.17,5.86,2.53,2.53,0,0,0-2.2,0,12.88,12.88,0,0,0,1.7,5A10.17,10.17,0,0,0,69.56,27.26Z"/><path class="cls-2" d="M73.85,19.52l.11-.21-.15.06a11.82,11.82,0,0,0-2.17-5.86c-.21-.33-.48-1-.83-1.24,0,.15.14.56.14.76,0,1.5.23,3.06.27,4.57s0,3.22,0,4.82c0,.9-.07,1.79-.11,2.69a12.55,12.55,0,0,1-.14,2.61A48.17,48.17,0,0,1,73.85,19.52Z"/><path class="cls-2" d="M74.3,24.33a12.89,12.89,0,0,0,1.71-5l-.17-.07a2,2,0,0,1-.14.43c-1.1,2.71-2.24,5.5-4.32,7.55a3.82,3.82,0,0,0-.54.59,2.34,2.34,0,0,0,1.22-.6A9.91,9.91,0,0,0,74.3,24.33Z"/><g class="cls-32"><path class="cls-2" d="M69.56,27.23a2.28,2.28,0,0,0,1.25.6l.21,0A10.89,10.89,0,0,1,67.69,24a14.38,14.38,0,0,1-2-4.64l-.06,0a12.93,12.93,0,0,0,1.7,5A10.26,10.26,0,0,0,69.56,27.23Z"/><path class="cls-2" d="M69.76,14a9.51,9.51,0,0,0,.47-.91c-.08.14-.16.29-.25.43a11.87,11.87,0,0,0-2.16,5.85h0a2.72,2.72,0,0,1,.47.69c.19.32.37.65.56,1a2.8,2.8,0,0,1-.12-.92c0-.32,0-.65,0-1a11.92,11.92,0,0,1,.12-1.89A12.38,12.38,0,0,1,69.76,14Z"/></g><path class="cls-14" d="M70.81,12.27s.2,15.09.21,15,.91-5.94.91-8.21A40.08,40.08,0,0,0,70.81,12.27Z"/><path class="cls-24" d="M70.49,14.63a.45.45,0,0,0,0-.23c-.15-.45-.52.32-.56.41a10,10,0,0,0-.4,1.08,11.56,11.56,0,0,0-.48,2.19,12.74,12.74,0,0,0,.23,4.48c.1.4.21.8.35,1.19a9.27,9.27,0,0,1,.47,1.15,21.62,21.62,0,0,1-.51-5.77A32.88,32.88,0,0,1,70.49,14.63Z"/><path class="cls-24" d="M66.69,20.6a4.91,4.91,0,0,1,2,2.47,15.19,15.19,0,0,1-.36-1.48,3.06,3.06,0,0,0-.64-1.36,1.53,1.53,0,0,0-1-.5c-.32,0-.77.06-.51.5A1.28,1.28,0,0,0,66.69,20.6Z"/><path class="cls-14" d="M69.59,27.26a2.32,2.32,0,0,0,1.25.6,2.35,2.35,0,0,0,1.25-.6,10,10,0,0,0,2.24-2.94,12.88,12.88,0,0,0,1.7-5l0,0a13.5,13.5,0,0,1-1.65,4.5,10.27,10.27,0,0,1-2.24,2.94,2.33,2.33,0,0,1-1.25.59,2.3,2.3,0,0,1-1.25-.59,10.09,10.09,0,0,1-2.24-2.94,13.28,13.28,0,0,1-1.65-4.5l-.06,0a12.9,12.9,0,0,0,1.71,5A9.83,9.83,0,0,0,69.59,27.26Z"/><path class="cls-33" d="M75,19.74c-.41-.25-.84.34-1,.62A13.83,13.83,0,0,0,72.55,24a7.07,7.07,0,0,1,1.36-2.22C74.14,21.44,75.49,20.08,75,19.74Z"/><path class="cls-35" d="M44.73,94.85a5.38,5.38,0,0,0,1.35-.62A11.85,11.85,0,0,0,51,90.34a2.51,2.51,0,0,0,1.88,1.16A13,13,0,0,0,54,86.37a10,10,0,0,0-.39-3.67,2.26,2.26,0,0,0-.75-1.16,2.29,2.29,0,0,0-1.38-.14A10,10,0,0,0,48,82.74a12.91,12.91,0,0,0-4,3.35,2.52,2.52,0,0,0,1.89,1.14,11.74,11.74,0,0,0-1.2,6.14A5.11,5.11,0,0,0,44.73,94.85Z"/><path class="cls-2" d="M51,90.34a1.47,1.47,0,0,0,.1.13,2,2,0,0,1,0-.23,46.91,46.91,0,0,1,1.77-8.52A12.26,12.26,0,0,1,51.62,84c-.42.78-.86,1.57-1.3,2.35-.79,1.4-1.61,2.79-2.48,4.14S46,93,45.24,94.27c-.1.17-.47.42-.51.58a4.27,4.27,0,0,0,1.35-.63A11.76,11.76,0,0,0,51,90.34Z"/><path class="cls-2" d="M52.68,91.47l.18,0A13,13,0,0,0,54,86.37a10.3,10.3,0,0,0-.38-3.68,2.39,2.39,0,0,0-.74-1.14,5,5,0,0,0,.15.79c.71,2.83.24,5.81-.23,8.69A2.33,2.33,0,0,1,52.68,91.47Z"/><g class="cls-32"><path class="cls-2" d="M48.14,83.25A10.78,10.78,0,0,1,53,81.7a1.07,1.07,0,0,0-.16-.14,2.27,2.27,0,0,0-1.38-.14A10.15,10.15,0,0,0,48,82.77a12.89,12.89,0,0,0-4,3.35l0,0A14.43,14.43,0,0,1,48.14,83.25Z"/><path class="cls-2" d="M44.71,92.86a12.48,12.48,0,0,1,.9-3.28,12.22,12.22,0,0,1,.88-1.68c.17-.27.35-.54.54-.8a2.77,2.77,0,0,1,.59-.72l-1,.55a3,3,0,0,1-.76.33h0a11.86,11.86,0,0,0-1.19,6.12,4.21,4.21,0,0,1,0,.5A10.27,10.27,0,0,0,44.71,92.86Z"/></g><path class="cls-14" d="M52.71,82.15c0-.08-8,12.7-8,12.7a40.05,40.05,0,0,0,4.48-5.21C50.39,87.7,52.67,82.24,52.71,82.15Z"/><path class="cls-24" d="M45.56,92.87a.51.51,0,0,0,.12-.2,34.1,34.1,0,0,1,1.57-4.31,22,22,0,0,1,3.43-4.67,8.23,8.23,0,0,1-1,.74,10.29,10.29,0,0,0-.91.84A12.62,12.62,0,0,0,46.24,89a13.16,13.16,0,0,0-.73,2.11c-.09.38-.16.75-.22,1.13C45.28,92.32,45.2,93.17,45.56,92.87Z"/><path class="cls-24" d="M46.22,86.44a3,3,0,0,0,1.26-.83c.36-.36.68-.76,1.07-1.08a4.86,4.86,0,0,1-3,1.06,1.24,1.24,0,0,0-.58.08c-.45.24-.12.55.17.69A1.52,1.52,0,0,0,46.22,86.44Z"/><path class="cls-14" d="M52.82,91.5h.06A13,13,0,0,0,54,86.38a10.27,10.27,0,0,0-.38-3.67,2.36,2.36,0,0,0-.76-1.16,2.29,2.29,0,0,0-1.38-.14A10.33,10.33,0,0,0,48,82.75a12.94,12.94,0,0,0-4,3.36l0,0a13.23,13.23,0,0,1,3.75-3,10.07,10.07,0,0,1,3.44-1.35,2.37,2.37,0,0,1,1.38.14,2.35,2.35,0,0,1,.75,1.16,10.08,10.08,0,0,1,.39,3.68A13.42,13.42,0,0,1,52.82,91.5Z"/><path class="cls-33" d="M51.6,89.56c0,.34.07,1.06.55,1.06.64,0,.19-1.87.15-2.26a7.1,7.1,0,0,1,0-2.6A13.77,13.77,0,0,0,51.6,89.56Z"/><path class="cls-36" d="M97.53,86a12.71,12.71,0,0,0-4.23-3.1,10.16,10.16,0,0,0-3.51-1.14,2.31,2.31,0,0,0-1.37.23,2.25,2.25,0,0,0-.69,1.2,10,10,0,0,0-.16,3.69A12.89,12.89,0,0,0,89,91.9a2.53,2.53,0,0,0,1.8-1.27,11.83,11.83,0,0,0,5.13,3.58,5,5,0,0,0,1.38.55,5.35,5.35,0,0,0,0-1.49,11.89,11.89,0,0,0-1.57-6A2.49,2.49,0,0,0,97.53,86Z"/><path class="cls-2" d="M95.67,87.07A48.1,48.1,0,0,1,88.59,82a12.19,12.19,0,0,1,1.61,2.07c.54.71,1.09,1.42,1.62,2.14,1,1.29,1.9,2.6,2.78,3.94s1.49,2.7,2.39,3.91c.12.16.2.6.32.7a4.39,4.39,0,0,0,0-1.49,11.93,11.93,0,0,0-1.57-6.06l.16,0Z"/><path class="cls-2" d="M97.44,86.12l.09-.15a13,13,0,0,0-4.23-3.11,10.34,10.34,0,0,0-3.52-1.13,2.3,2.3,0,0,0-1.34.21,4.39,4.39,0,0,0,.78.18c2.88.5,5.41,2.13,7.85,3.73A2.51,2.51,0,0,1,97.44,86.12Z"/><g class="cls-32"><path class="cls-2" d="M88.43,82a2.34,2.34,0,0,0-.68,1.2,10.06,10.06,0,0,0-.16,3.69,12.84,12.84,0,0,0,1.43,5h.06a14.43,14.43,0,0,1-1-5,10.76,10.76,0,0,1,.55-5A.88.88,0,0,0,88.43,82Z"/><path class="cls-2" d="M90.83,90.67a11.89,11.89,0,0,0,5.11,3.57,3.1,3.1,0,0,1,.45.21c-.28-.2-.68-.34-.91-.48a12.37,12.37,0,0,1-2.63-2.15,12,12,0,0,1-1.18-1.48c-.18-.27-.36-.55-.51-.83a2.48,2.48,0,0,1-.43-.82c0,.37.07.75.11,1.12a3,3,0,0,1,0,.84Z"/></g><path class="cls-14" d="M88.93,82.32c-.06-.07,8.38,12.44,8.38,12.44a39.9,39.9,0,0,0-3-6.21C93.06,86.68,89,82.39,88.93,82.32Z"/><path class="cls-24" d="M92.55,91a13.13,13.13,0,0,0,1.64,1.52c.31.23.62.45,1,.66.08,0,.82.47.7,0A.4.4,0,0,0,95.7,93a34.42,34.42,0,0,1-3.31-3.19,22.07,22.07,0,0,1-2.87-5,7.76,7.76,0,0,1,.27,1.2,10.24,10.24,0,0,0,.4,1.18A12.78,12.78,0,0,0,92.55,91Z"/><path class="cls-24" d="M89,90.83c0,.51.45.33.7.13a1.52,1.52,0,0,0,.51-1A2.92,2.92,0,0,0,90,88.51c-.18-.48-.41-.93-.55-1.42a4.83,4.83,0,0,1-.25,3.18A1.28,1.28,0,0,0,89,90.83Z"/><path class="cls-14" d="M88.72,82.34a2.28,2.28,0,0,1,1.36-.23,10.15,10.15,0,0,1,3.52,1.14A13.3,13.3,0,0,1,97.52,86l0-.05a12.88,12.88,0,0,0-4.24-3.11,10.14,10.14,0,0,0-3.51-1.13,1.61,1.61,0,0,0-2.06,1.42,10.28,10.28,0,0,0-.16,3.69A12.88,12.88,0,0,0,89,91.89l.06,0a13.35,13.35,0,0,1-1.21-4.64A10,10,0,0,1,88,83.54,2.29,2.29,0,0,1,88.72,82.34Z"/><path class="cls-33" d="M96.45,86.26c.25-.58-1.64-.94-2-1.05a7.37,7.37,0,0,1-2.38-1,13.94,13.94,0,0,0,3.19,2.17C95.57,86.47,96.26,86.7,96.45,86.26Z"/><path class="cls-37" d="M106.32,40.89a12.83,12.83,0,0,0-4.45,2.79,10.13,10.13,0,0,0-2.35,2.85,2.25,2.25,0,0,0-.29,1.36,2.33,2.33,0,0,0,.86,1.08,10.15,10.15,0,0,0,3.37,1.51,13,13,0,0,0,5.23.53,2.54,2.54,0,0,0-.52-2.14,11.94,11.94,0,0,0,5.22-3.45,5.73,5.73,0,0,0,1-1.09,5.5,5.5,0,0,0-1.4-.52,11.77,11.77,0,0,0-6.2-.78A2.53,2.53,0,0,0,106.32,40.89Z"/><path class="cls-2" d="M113.39,45.42c.27-.29.87-.7,1-1.09-.17,0-.52.26-.71.3-1.48.3-2.93.93-4.39,1.31s-3.13.75-4.71,1.06l-2.64.51a12.73,12.73,0,0,1-2.57.46,48.24,48.24,0,0,1,8.65,1l.23.06-.1-.13A11.86,11.86,0,0,0,113.39,45.42Z"/><path class="cls-2" d="M103.46,50.48a13,13,0,0,0,5.22.53,1.13,1.13,0,0,0,0-.18,3.42,3.42,0,0,1-.45,0c-2.88-.45-5.86-.93-8.33-2.49a4.69,4.69,0,0,0-.7-.39,2.36,2.36,0,0,0,.86,1.06A10.15,10.15,0,0,0,103.46,50.48Z"/><g class="cls-32"><path class="cls-2" d="M102.32,44a14.43,14.43,0,0,1,4.06-3l0,0a12.91,12.91,0,0,0-4.44,2.8,10.23,10.23,0,0,0-2.35,2.84,2.33,2.33,0,0,0-.3,1.36l.08.2A10.91,10.91,0,0,1,102.32,44Z"/><path class="cls-2" d="M109.12,43.52a12.51,12.51,0,0,1,3.4.17,8.9,8.9,0,0,0,1,.25L113,43.8a11.83,11.83,0,0,0-6.19-.77v0a2.74,2.74,0,0,1-.56.62l-.83.76a2.85,2.85,0,0,1,.87-.33q.47-.15.93-.27A13.26,13.26,0,0,1,109.12,43.52Z"/></g><path class="cls-14" d="M99.85,48c.1,0,6-.47,8.21-1a39.62,39.62,0,0,0,6.35-2.63Z"/><path class="cls-24" d="M112,44.55a.37.37,0,0,0,.23,0c.4-.25-.43-.44-.53-.45a11.12,11.12,0,0,0-1.14-.15,12.88,12.88,0,0,0-2.24,0A12.44,12.44,0,0,0,104,45.19a11.49,11.49,0,0,0-1.08.61,9.82,9.82,0,0,1-1,.71,22.11,22.11,0,0,1,5.51-1.81A34.94,34.94,0,0,1,112,44.55Z"/><path class="cls-24" d="M106,43.12a1.58,1.58,0,0,0,.26-1.06c0-.31-.23-.73-.6-.37a1.22,1.22,0,0,0-.26.52,5,5,0,0,1-1.94,2.54,13.34,13.34,0,0,1,1.36-.69A3.1,3.1,0,0,0,106,43.12Z"/><path class="cls-14" d="M102.35,43.6a13.31,13.31,0,0,1,4-2.64l0-.05a12.91,12.91,0,0,0-4.44,2.8,10.13,10.13,0,0,0-2.35,2.85,2.3,2.3,0,0,0-.3,1.35A2.31,2.31,0,0,0,100.1,49a10.06,10.06,0,0,0,3.37,1.51,12.83,12.83,0,0,0,5.22.53.13.13,0,0,0,0-.06,13.26,13.26,0,0,1-4.76-.58,10.15,10.15,0,0,1-3.37-1.51,2.31,2.31,0,0,1-.87-1.08,2.3,2.3,0,0,1,.3-1.35A10.13,10.13,0,0,1,102.35,43.6Z"/><path class="cls-33" d="M108.07,50.07c.16-.47-.51-.75-.84-.86a13.6,13.6,0,0,0-3.82-.52,7,7,0,0,1,2.47.81C106.23,49.66,107.87,50.67,108.07,50.07Z"/></g></g></svg>